<svg width="380" height="202" viewBox="0 0 380 202" fill="none" xmlns="http://www.w3.org/2000/svg">
<rect width="380" height="202" rx="10" fill="url(#paint0_linear_112_675)"/>
<mask id="path-2-outside-1_112_675" maskUnits="userSpaceOnUse" x="53" y="36" width="276" height="166" fill="black">
<rect fill="white" x="53" y="36" width="276" height="166"/>
<path d="M58 65C58 51.7452 68.7452 41 82 41H300C313.255 41 324 51.7452 324 65V202H58V65Z"/>
</mask>
<path d="M58 65C58 51.7452 68.7452 41 82 41H300C313.255 41 324 51.7452 324 65V202H58V65Z" fill="white"/>
<path d="M53 65C53 48.9837 65.9837 36 82 36H300C316.016 36 329 48.9837 329 65H319C319 54.5066 310.493 46 300 46H82C71.5066 46 63 54.5066 63 65H53ZM324 202H58H324ZM53 202V65C53 48.9837 65.9837 36 82 36V46C71.5066 46 63 54.5066 63 65V202H53ZM300 36C316.016 36 329 48.9837 329 65V202H319V65C319 54.5066 310.493 46 300 46V36Z" fill="black" mask="url(#path-2-outside-1_112_675)"/>
<path d="M109.244 66L112.316 57.48H113.96L117.032 66H115.652L114.872 63.78H111.392L110.624 66H109.244ZM111.8 62.604H114.476L113.132 58.716L111.8 62.604ZM120.403 66.144C119.803 66.144 119.295 66.052 118.879 65.868C118.471 65.684 118.155 65.432 117.931 65.112C117.707 64.784 117.579 64.408 117.547 63.984L118.855 63.924C118.919 64.276 119.071 64.556 119.311 64.764C119.551 64.972 119.915 65.076 120.403 65.076C120.803 65.076 121.119 65.012 121.351 64.884C121.583 64.756 121.699 64.552 121.699 64.272C121.699 64.12 121.659 63.992 121.579 63.888C121.507 63.776 121.363 63.684 121.147 63.612C120.931 63.532 120.611 63.456 120.187 63.384C119.555 63.264 119.059 63.124 118.699 62.964C118.339 62.804 118.083 62.6 117.931 62.352C117.779 62.104 117.703 61.804 117.703 61.452C117.703 60.868 117.919 60.392 118.351 60.024C118.791 59.656 119.423 59.472 120.247 59.472C120.799 59.472 121.263 59.568 121.639 59.76C122.015 59.944 122.307 60.196 122.515 60.516C122.731 60.828 122.867 61.18 122.923 61.572L121.615 61.644C121.575 61.42 121.495 61.228 121.375 61.068C121.263 60.9 121.111 60.772 120.919 60.684C120.727 60.588 120.499 60.54 120.235 60.54C119.827 60.54 119.523 60.62 119.323 60.78C119.123 60.94 119.023 61.148 119.023 61.404C119.023 61.596 119.067 61.752 119.155 61.872C119.251 61.992 119.403 62.092 119.611 62.172C119.819 62.244 120.095 62.308 120.439 62.364C121.103 62.476 121.623 62.616 121.999 62.784C122.375 62.944 122.639 63.144 122.791 63.384C122.943 63.624 123.019 63.916 123.019 64.26C123.019 64.66 122.907 65 122.683 65.28C122.459 65.56 122.151 65.776 121.759 65.928C121.367 66.072 120.915 66.144 120.403 66.144ZM126.766 66.144C126.166 66.144 125.658 66.052 125.242 65.868C124.834 65.684 124.518 65.432 124.294 65.112C124.07 64.784 123.942 64.408 123.91 63.984L125.218 63.924C125.282 64.276 125.434 64.556 125.674 64.764C125.914 64.972 126.278 65.076 126.766 65.076C127.166 65.076 127.482 65.012 127.714 64.884C127.946 64.756 128.062 64.552 128.062 64.272C128.062 64.12 128.022 63.992 127.942 63.888C127.87 63.776 127.726 63.684 127.51 63.612C127.294 63.532 126.974 63.456 126.55 63.384C125.918 63.264 125.422 63.124 125.062 62.964C124.702 62.804 124.446 62.6 124.294 62.352C124.142 62.104 124.066 61.804 124.066 61.452C124.066 60.868 124.282 60.392 124.714 60.024C125.154 59.656 125.786 59.472 126.61 59.472C127.162 59.472 127.626 59.568 128.002 59.76C128.378 59.944 128.67 60.196 128.878 60.516C129.094 60.828 129.23 61.18 129.286 61.572L127.978 61.644C127.938 61.42 127.858 61.228 127.738 61.068C127.626 60.9 127.474 60.772 127.282 60.684C127.09 60.588 126.862 60.54 126.598 60.54C126.19 60.54 125.886 60.62 125.686 60.78C125.486 60.94 125.386 61.148 125.386 61.404C125.386 61.596 125.43 61.752 125.518 61.872C125.614 61.992 125.766 62.092 125.974 62.172C126.182 62.244 126.458 62.308 126.802 62.364C127.466 62.476 127.986 62.616 128.362 62.784C128.738 62.944 129.002 63.144 129.154 63.384C129.306 63.624 129.382 63.916 129.382 64.26C129.382 64.66 129.27 65 129.046 65.28C128.822 65.56 128.514 65.776 128.122 65.928C127.73 66.072 127.278 66.144 126.766 66.144ZM130.67 66V59.616H131.942V66H130.67ZM130.646 58.692V57.42H131.966V58.692H130.646ZM136.083 66.144C135.483 66.144 134.975 66.052 134.559 65.868C134.151 65.684 133.835 65.432 133.611 65.112C133.387 64.784 133.259 64.408 133.227 63.984L134.535 63.924C134.599 64.276 134.751 64.556 134.991 64.764C135.231 64.972 135.595 65.076 136.083 65.076C136.483 65.076 136.799 65.012 137.031 64.884C137.263 64.756 137.379 64.552 137.379 64.272C137.379 64.12 137.339 63.992 137.259 63.888C137.187 63.776 137.043 63.684 136.827 63.612C136.611 63.532 136.291 63.456 135.867 63.384C135.235 63.264 134.739 63.124 134.379 62.964C134.019 62.804 133.763 62.6 133.611 62.352C133.459 62.104 133.383 61.804 133.383 61.452C133.383 60.868 133.599 60.392 134.031 60.024C134.471 59.656 135.103 59.472 135.927 59.472C136.479 59.472 136.943 59.568 137.319 59.76C137.695 59.944 137.987 60.196 138.195 60.516C138.411 60.828 138.547 61.18 138.603 61.572L137.295 61.644C137.255 61.42 137.175 61.228 137.055 61.068C136.943 60.9 136.791 60.772 136.599 60.684C136.407 60.588 136.179 60.54 135.915 60.54C135.507 60.54 135.203 60.62 135.003 60.78C134.803 60.94 134.703 61.148 134.703 61.404C134.703 61.596 134.747 61.752 134.835 61.872C134.931 61.992 135.083 62.092 135.291 62.172C135.499 62.244 135.775 62.308 136.119 62.364C136.783 62.476 137.303 62.616 137.679 62.784C138.055 62.944 138.319 63.144 138.471 63.384C138.623 63.624 138.699 63.916 138.699 64.26C138.699 64.66 138.587 65 138.363 65.28C138.139 65.56 137.831 65.776 137.439 65.928C137.047 66.072 136.595 66.144 136.083 66.144ZM142.2 66C141.592 66 141.144 65.86 140.856 65.58C140.568 65.3 140.424 64.864 140.424 64.272V58.116H141.696V64.176C141.696 64.472 141.76 64.676 141.888 64.788C142.016 64.9 142.212 64.956 142.476 64.956H143.388V66H142.2ZM139.452 60.66V59.616H143.388V60.66H139.452ZM147.126 66.144C146.502 66.144 145.962 66.008 145.506 65.736C145.058 65.464 144.71 65.076 144.462 64.572C144.222 64.068 144.102 63.48 144.102 62.808C144.102 62.136 144.222 61.552 144.462 61.056C144.71 60.552 145.058 60.164 145.506 59.892C145.954 59.612 146.482 59.472 147.09 59.472C147.666 59.472 148.174 59.608 148.614 59.88C149.054 60.144 149.394 60.528 149.634 61.032C149.882 61.536 150.006 62.144 150.006 62.856V63.18H145.422C145.454 63.804 145.618 64.272 145.914 64.584C146.218 64.896 146.626 65.052 147.138 65.052C147.514 65.052 147.826 64.964 148.074 64.788C148.322 64.612 148.494 64.376 148.59 64.08L149.91 64.164C149.742 64.756 149.41 65.236 148.914 65.604C148.426 65.964 147.83 66.144 147.126 66.144ZM145.422 62.22H148.662C148.622 61.652 148.458 61.232 148.17 60.96C147.89 60.688 147.53 60.552 147.09 60.552C146.634 60.552 146.258 60.696 145.962 60.984C145.674 61.264 145.494 61.676 145.422 62.22ZM151.295 66V59.616H152.459L152.507 61.32L152.351 61.236C152.423 60.82 152.559 60.484 152.759 60.228C152.959 59.972 153.203 59.784 153.491 59.664C153.779 59.536 154.091 59.472 154.427 59.472C154.907 59.472 155.303 59.58 155.615 59.796C155.935 60.004 156.175 60.292 156.335 60.66C156.503 61.02 156.587 61.432 156.587 61.896V66H155.315V62.28C155.315 61.904 155.275 61.588 155.195 61.332C155.115 61.076 154.983 60.88 154.799 60.744C154.615 60.608 154.375 60.54 154.079 60.54C153.631 60.54 153.267 60.688 152.987 60.984C152.707 61.28 152.567 61.712 152.567 62.28V66H151.295ZM160.375 66C159.767 66 159.319 65.86 159.031 65.58C158.743 65.3 158.599 64.864 158.599 64.272V58.116H159.871V64.176C159.871 64.472 159.935 64.676 160.063 64.788C160.191 64.9 160.387 64.956 160.651 64.956H161.563V66H160.375ZM157.627 60.66V59.616H161.563V60.66H157.627ZM165.301 66.144C164.677 66.144 164.137 66.008 163.681 65.736C163.233 65.464 162.885 65.076 162.637 64.572C162.397 64.068 162.277 63.48 162.277 62.808C162.277 62.136 162.397 61.552 162.637 61.056C162.885 60.552 163.233 60.164 163.681 59.892C164.129 59.612 164.657 59.472 165.265 59.472C165.841 59.472 166.349 59.608 166.789 59.88C167.229 60.144 167.569 60.528 167.809 61.032C168.057 61.536 168.181 62.144 168.181 62.856V63.18H163.597C163.629 63.804 163.793 64.272 164.089 64.584C164.393 64.896 164.801 65.052 165.313 65.052C165.689 65.052 166.001 64.964 166.249 64.788C166.497 64.612 166.669 64.376 166.765 64.08L168.085 64.164C167.917 64.756 167.585 65.236 167.089 65.604C166.601 65.964 166.005 66.144 165.301 66.144ZM163.597 62.22H166.837C166.797 61.652 166.633 61.232 166.345 60.96C166.065 60.688 165.705 60.552 165.265 60.552C164.809 60.552 164.433 60.696 164.137 60.984C163.849 61.264 163.669 61.676 163.597 62.22ZM172.637 66V57.48H174.413L176.945 64.476L179.477 57.48H181.253V66H179.957V59.76L177.665 65.988H176.225L173.933 59.76V66H172.637ZM185.692 66.144C185.068 66.144 184.528 66.008 184.072 65.736C183.624 65.464 183.276 65.076 183.028 64.572C182.788 64.068 182.668 63.48 182.668 62.808C182.668 62.136 182.788 61.552 183.028 61.056C183.276 60.552 183.624 60.164 184.072 59.892C184.52 59.612 185.048 59.472 185.656 59.472C186.232 59.472 186.74 59.608 187.18 59.88C187.62 60.144 187.96 60.528 188.2 61.032C188.448 61.536 188.572 62.144 188.572 62.856V63.18H183.988C184.02 63.804 184.184 64.272 184.48 64.584C184.784 64.896 185.192 65.052 185.704 65.052C186.08 65.052 186.392 64.964 186.64 64.788C186.888 64.612 187.06 64.376 187.156 64.08L188.476 64.164C188.308 64.756 187.976 65.236 187.48 65.604C186.992 65.964 186.396 66.144 185.692 66.144ZM183.988 62.22H187.228C187.188 61.652 187.024 61.232 186.736 60.96C186.456 60.688 186.096 60.552 185.656 60.552C185.2 60.552 184.824 60.696 184.528 60.984C184.24 61.264 184.06 61.676 183.988 62.22ZM189.861 66V59.616H191.025L191.073 61.32L190.917 61.236C190.989 60.82 191.125 60.484 191.325 60.228C191.525 59.972 191.769 59.784 192.057 59.664C192.345 59.536 192.657 59.472 192.993 59.472C193.473 59.472 193.869 59.58 194.181 59.796C194.501 60.004 194.741 60.292 194.901 60.66C195.069 61.02 195.153 61.432 195.153 61.896V66H193.881V62.28C193.881 61.904 193.841 61.588 193.761 61.332C193.681 61.076 193.549 60.88 193.365 60.744C193.181 60.608 192.941 60.54 192.645 60.54C192.197 60.54 191.833 60.688 191.553 60.984C191.273 61.28 191.133 61.712 191.133 62.28V66H189.861ZM198.887 66.144C198.247 66.144 197.735 65.932 197.351 65.508C196.975 65.076 196.787 64.48 196.787 63.72V59.616H198.059V63.396C198.059 63.972 198.159 64.396 198.359 64.668C198.559 64.94 198.863 65.076 199.271 65.076C199.735 65.076 200.095 64.928 200.351 64.632C200.615 64.328 200.747 63.904 200.747 63.36V59.616H202.019V66H200.831L200.807 64.332L200.987 64.404C200.875 64.964 200.639 65.396 200.279 65.7C199.919 65.996 199.455 66.144 198.887 66.144ZM203.271 66L205.587 62.736L203.367 59.616H204.783L206.355 61.908L207.879 59.616H209.331L207.135 62.76L209.427 66H208.011L206.367 63.564L204.711 66H203.271Z" fill="black"/>
<path d="M124.518 81.16C123.972 81.16 123.495 81.0567 123.088 80.85C122.682 80.6433 122.358 80.36 122.118 80C121.885 79.6333 121.748 79.21 121.708 78.73L122.608 78.67C122.655 79.0233 122.758 79.3233 122.918 79.57C123.078 79.8167 123.292 80.0033 123.558 80.13C123.832 80.2567 124.158 80.32 124.538 80.32C124.872 80.32 125.155 80.2767 125.388 80.19C125.622 80.1033 125.798 79.9767 125.918 79.81C126.045 79.6433 126.108 79.44 126.108 79.2C126.108 78.98 126.055 78.7867 125.948 78.62C125.848 78.4467 125.652 78.29 125.358 78.15C125.072 78.0033 124.645 77.86 124.078 77.72C123.532 77.58 123.095 77.4267 122.768 77.26C122.448 77.0933 122.215 76.89 122.068 76.65C121.928 76.41 121.858 76.1133 121.858 75.76C121.858 75.36 121.952 75.01 122.138 74.71C122.332 74.4033 122.605 74.1667 122.958 74C123.312 73.8267 123.732 73.74 124.218 73.74C124.738 73.74 125.185 73.84 125.558 74.04C125.932 74.2333 126.228 74.5 126.448 74.84C126.668 75.18 126.805 75.5667 126.858 76L125.958 76.06C125.918 75.7733 125.825 75.52 125.678 75.3C125.538 75.0733 125.345 74.8967 125.098 74.77C124.852 74.6433 124.552 74.58 124.198 74.58C123.758 74.58 123.408 74.6867 123.148 74.9C122.888 75.1067 122.758 75.38 122.758 75.72C122.758 75.94 122.808 76.1233 122.908 76.27C123.015 76.41 123.202 76.5367 123.468 76.65C123.735 76.7567 124.118 76.8733 124.618 77C125.212 77.1467 125.682 77.3233 126.028 77.53C126.382 77.73 126.632 77.9633 126.778 78.23C126.932 78.4967 127.008 78.8 127.008 79.14C127.008 79.5533 126.902 79.9133 126.688 80.22C126.475 80.52 126.182 80.7533 125.808 80.92C125.435 81.08 125.005 81.16 124.518 81.16ZM130.561 81.12C130.061 81.12 129.628 81.0067 129.261 80.78C128.901 80.5533 128.621 80.2333 128.421 79.82C128.228 79.4 128.131 78.91 128.131 78.35C128.131 77.79 128.228 77.3033 128.421 76.89C128.621 76.4767 128.898 76.1567 129.251 75.93C129.611 75.6967 130.035 75.58 130.521 75.58C130.981 75.58 131.388 75.69 131.741 75.91C132.095 76.1233 132.368 76.4367 132.561 76.85C132.761 77.2633 132.861 77.7667 132.861 78.36V78.61H129.011C129.045 79.1767 129.195 79.6033 129.461 79.89C129.735 80.1767 130.101 80.32 130.561 80.32C130.908 80.32 131.191 80.24 131.411 80.08C131.638 79.9133 131.795 79.6967 131.881 79.43L132.781 79.5C132.641 79.9733 132.375 80.3633 131.981 80.67C131.595 80.97 131.121 81.12 130.561 81.12ZM129.011 77.87H131.941C131.901 77.3567 131.751 76.98 131.491 76.74C131.238 76.5 130.915 76.38 130.521 76.38C130.115 76.38 129.778 76.5067 129.511 76.76C129.251 77.0067 129.085 77.3767 129.011 77.87ZM133.999 81V75.7H134.769L134.799 77.04L134.679 77C134.739 76.7067 134.843 76.4567 134.989 76.25C135.143 76.0367 135.329 75.8733 135.549 75.76C135.769 75.64 136.013 75.58 136.279 75.58C136.739 75.58 137.113 75.7067 137.399 75.96C137.693 76.2133 137.876 76.5667 137.949 77.02L137.789 77.01C137.843 76.7033 137.939 76.4467 138.079 76.24C138.226 76.0267 138.413 75.8633 138.639 75.75C138.866 75.6367 139.126 75.58 139.419 75.58C139.799 75.58 140.119 75.66 140.379 75.82C140.639 75.9733 140.836 76.2 140.969 76.5C141.103 76.8 141.169 77.1633 141.169 77.59V81H140.329V77.77C140.329 77.29 140.236 76.93 140.049 76.69C139.863 76.4433 139.586 76.32 139.219 76.32C138.973 76.32 138.756 76.38 138.569 76.5C138.389 76.62 138.249 76.7933 138.149 77.02C138.049 77.24 137.999 77.51 137.999 77.83V81H137.159V77.83C137.159 77.3567 137.076 76.9867 136.909 76.72C136.743 76.4533 136.463 76.32 136.069 76.32C135.823 76.32 135.606 76.38 135.419 76.5C135.239 76.62 135.096 76.7933 134.989 77.02C134.889 77.2467 134.839 77.5167 134.839 77.83V81H133.999ZM142.573 82.5V75.7H143.353L143.373 76.84L143.253 76.78C143.387 76.3867 143.607 76.09 143.913 75.89C144.227 75.6833 144.587 75.58 144.993 75.58C145.52 75.58 145.95 75.71 146.283 75.97C146.623 76.23 146.873 76.57 147.033 76.99C147.2 77.41 147.283 77.8633 147.283 78.35C147.283 78.8367 147.2 79.29 147.033 79.71C146.873 80.13 146.623 80.47 146.283 80.73C145.95 80.99 145.52 81.12 144.993 81.12C144.72 81.12 144.463 81.0733 144.223 80.98C143.99 80.8867 143.79 80.7567 143.623 80.59C143.463 80.4233 143.353 80.2267 143.293 80L143.413 79.86V82.5H142.573ZM144.913 80.32C145.373 80.32 145.737 80.1467 146.003 79.8C146.27 79.4533 146.403 78.97 146.403 78.35C146.403 77.73 146.27 77.2467 146.003 76.9C145.737 76.5533 145.373 76.38 144.913 76.38C144.607 76.38 144.34 76.4533 144.113 76.6C143.893 76.7467 143.72 76.9667 143.593 77.26C143.473 77.5533 143.413 77.9167 143.413 78.35C143.413 78.7833 143.473 79.1467 143.593 79.44C143.713 79.7333 143.887 79.9533 144.113 80.1C144.34 80.2467 144.607 80.32 144.913 80.32ZM148.423 81V75.7H149.163L149.203 77.04L149.123 77.01C149.19 76.5567 149.333 76.2267 149.553 76.02C149.78 75.8067 150.08 75.7 150.453 75.7H150.973V76.5H150.463C150.196 76.5 149.973 76.55 149.793 76.65C149.62 76.7433 149.486 76.8867 149.393 77.08C149.306 77.2667 149.263 77.5067 149.263 77.8V81H148.423ZM153.882 81.12C153.382 81.12 152.948 81.0067 152.582 80.78C152.222 80.5533 151.942 80.2333 151.742 79.82C151.548 79.4 151.452 78.91 151.452 78.35C151.452 77.79 151.548 77.3033 151.742 76.89C151.942 76.4767 152.218 76.1567 152.572 75.93C152.932 75.6967 153.355 75.58 153.842 75.58C154.302 75.58 154.708 75.69 155.062 75.91C155.415 76.1233 155.688 76.4367 155.882 76.85C156.082 77.2633 156.182 77.7667 156.182 78.36V78.61H152.332C152.365 79.1767 152.515 79.6033 152.782 79.89C153.055 80.1767 153.422 80.32 153.882 80.32C154.228 80.32 154.512 80.24 154.732 80.08C154.958 79.9133 155.115 79.6967 155.202 79.43L156.102 79.5C155.962 79.9733 155.695 80.3633 155.302 80.67C154.915 80.97 154.442 81.12 153.882 81.12ZM152.332 77.87H155.262C155.222 77.3567 155.072 76.98 154.812 76.74C154.558 76.5 154.235 76.38 153.842 76.38C153.435 76.38 153.098 76.5067 152.832 76.76C152.572 77.0067 152.405 77.3767 152.332 77.87ZM161.987 81.12C161.501 81.12 161.074 81.0067 160.707 80.78C160.341 80.5533 160.057 80.2333 159.857 79.82C159.657 79.4 159.557 78.91 159.557 78.35C159.557 77.7833 159.657 77.2933 159.857 76.88C160.057 76.4667 160.341 76.1467 160.707 75.92C161.074 75.6933 161.501 75.58 161.987 75.58C162.474 75.58 162.897 75.6933 163.257 75.92C163.624 76.1467 163.907 76.4667 164.107 76.88C164.307 77.2933 164.407 77.7833 164.407 78.35C164.407 78.91 164.307 79.4 164.107 79.82C163.907 80.2333 163.624 80.5533 163.257 80.78C162.897 81.0067 162.474 81.12 161.987 81.12ZM161.987 80.32C162.474 80.32 162.851 80.1467 163.117 79.8C163.391 79.4467 163.527 78.9633 163.527 78.35C163.527 77.7367 163.391 77.2567 163.117 76.91C162.851 76.5567 162.474 76.38 161.987 76.38C161.501 76.38 161.121 76.5567 160.847 76.91C160.574 77.2567 160.437 77.7367 160.437 78.35C160.437 78.9633 160.574 79.4467 160.847 79.8C161.121 80.1467 161.501 80.32 161.987 80.32ZM165.552 81V75.7H166.322L166.352 77.05L166.252 76.96C166.319 76.6467 166.435 76.39 166.602 76.19C166.769 75.9833 166.969 75.83 167.202 75.73C167.442 75.63 167.699 75.58 167.972 75.58C168.379 75.58 168.712 75.67 168.972 75.85C169.239 76.03 169.435 76.2733 169.562 76.58C169.695 76.88 169.762 77.2167 169.762 77.59V81H168.922V77.83C168.922 77.5033 168.882 77.23 168.802 77.01C168.729 76.7833 168.609 76.6133 168.442 76.5C168.275 76.38 168.059 76.32 167.792 76.32C167.385 76.32 167.049 76.45 166.782 76.71C166.522 76.9633 166.392 77.3367 166.392 77.83V81H165.552ZM172.256 81C171.949 81 171.699 80.92 171.506 80.76C171.313 80.6 171.216 80.3467 171.216 80V73.9H172.056V79.93C172.056 80.0367 172.083 80.12 172.136 80.18C172.196 80.2333 172.279 80.26 172.386 80.26H172.846V81H172.256ZM173.804 81V75.7H174.644V81H173.804ZM173.784 74.87V73.89H174.664V74.87H173.784ZM176.343 81V75.7H177.113L177.143 77.05L177.043 76.96C177.11 76.6467 177.226 76.39 177.393 76.19C177.56 75.9833 177.76 75.83 177.993 75.73C178.233 75.63 178.49 75.58 178.763 75.58C179.17 75.58 179.503 75.67 179.763 75.85C180.03 76.03 180.226 76.2733 180.353 76.58C180.486 76.88 180.553 77.2167 180.553 77.59V81H179.713V77.83C179.713 77.5033 179.673 77.23 179.593 77.01C179.52 76.7833 179.4 76.6133 179.233 76.5C179.066 76.38 178.85 76.32 178.583 76.32C178.176 76.32 177.84 76.45 177.573 76.71C177.313 76.9633 177.183 77.3367 177.183 77.83V81H176.343ZM184.106 81.12C183.606 81.12 183.173 81.0067 182.806 80.78C182.446 80.5533 182.166 80.2333 181.966 79.82C181.773 79.4 181.676 78.91 181.676 78.35C181.676 77.79 181.773 77.3033 181.966 76.89C182.166 76.4767 182.443 76.1567 182.796 75.93C183.156 75.6967 183.58 75.58 184.066 75.58C184.526 75.58 184.933 75.69 185.286 75.91C185.64 76.1233 185.913 76.4367 186.106 76.85C186.306 77.2633 186.406 77.7667 186.406 78.36V78.61H182.556C182.59 79.1767 182.74 79.6033 183.006 79.89C183.28 80.1767 183.646 80.32 184.106 80.32C184.453 80.32 184.736 80.24 184.956 80.08C185.183 79.9133 185.34 79.6967 185.426 79.43L186.326 79.5C186.186 79.9733 185.92 80.3633 185.526 80.67C185.14 80.97 184.666 81.12 184.106 81.12ZM182.556 77.87H185.486C185.446 77.3567 185.296 76.98 185.036 76.74C184.783 76.5 184.46 76.38 184.066 76.38C183.66 76.38 183.323 76.5067 183.056 76.76C182.796 77.0067 182.63 77.3767 182.556 77.87Z" fill="#858585"/>
<circle cx="111" cy="78" r="2" fill="#10B981"/>
<rect x="71.5" y="54.5" width="27.7854" height="27.7854" rx="13.8927" fill="white" stroke="#E2E2E2"/>
<path d="M87.7067 71.5422L83.7023 70.84L85.8766 62.4435L80.3323 61.0147L80.6034 59.9655L87.1997 61.6626L85.047 69.9751L87.8937 70.474L87.7067 71.5422Z" fill="black"/>
<path d="M80.7796 68.9285C80.4462 68.9285 80.0557 68.8417 79.6084 68.6004C78.0847 67.7817 78.7218 65.2603 78.8005 64.9756L79.847 65.2603L79.3237 65.1166L79.847 65.2575C79.6735 65.8947 79.5162 67.318 80.1208 67.6434C80.72 67.966 81.0182 67.8115 81.1158 67.76C81.8234 67.394 82.1515 65.9055 82.2111 65.4121L83.2875 65.5395C83.2576 65.7916 82.9594 68.0229 81.6174 68.7224C81.4059 68.8309 81.1239 68.9258 80.7796 68.9258V68.9285Z" fill="black"/>
<path d="M89.8755 69.5602C89.542 69.5602 89.1516 69.4734 88.7043 69.2321C87.1806 68.4134 87.8204 65.892 87.8963 65.6073L88.9428 65.892L88.4196 65.7483L88.9428 65.8893C88.7693 66.5264 88.6121 67.9498 89.2167 68.2751C89.8158 68.5977 90.1141 68.4432 90.2117 68.3917C90.9193 68.0257 91.2473 66.5372 91.307 66.0438L92.3833 66.1712C92.3535 66.4234 92.0553 68.6547 90.7132 69.3541C90.5018 69.4626 90.2198 69.5575 89.8755 69.5575V69.5602Z" fill="black"/>
<path d="M85.2259 75.3838C81.9888 75.3838 80.1045 73.4887 80.0774 73.4589L80.8555 72.7052C80.9965 72.8489 84.3963 76.2135 90.1277 72.7757L90.6862 73.7056C88.5986 74.9582 86.7604 75.3838 85.2259 75.3838Z" fill="black"/>
<path d="M140 115C140 109.477 144.477 105 150 105H301C306.523 105 311 109.477 311 115V131C311 132.657 309.657 134 308 134H150C144.477 134 140 129.523 140 124V115Z" fill="#F3F4F6"/>
<path d="M156.011 122.69L155.421 121.93C155.261 121.997 155.075 122.05 154.861 122.09C154.648 122.137 154.425 122.16 154.191 122.16C153.511 122.16 152.931 121.997 152.451 121.67C151.978 121.337 151.615 120.89 151.361 120.33C151.108 119.77 150.981 119.147 150.981 118.46C150.981 117.767 151.105 117.14 151.351 116.58C151.605 116.02 151.971 115.573 152.451 115.24C152.931 114.907 153.511 114.74 154.191 114.74C154.885 114.74 155.471 114.907 155.951 115.24C156.431 115.573 156.795 116.02 157.041 116.58C157.288 117.14 157.411 117.767 157.411 118.46C157.411 119.113 157.295 119.713 157.061 120.26C156.828 120.807 156.491 121.247 156.051 121.58L156.931 122.69H156.011ZM154.191 121.32C154.338 121.32 154.468 121.313 154.581 121.3C154.695 121.28 154.795 121.25 154.881 121.21L153.851 119.92H154.771L155.531 120.92C155.858 120.66 156.101 120.323 156.261 119.91C156.428 119.49 156.511 119.007 156.511 118.46C156.511 117.933 156.425 117.453 156.251 117.02C156.085 116.587 155.828 116.24 155.481 115.98C155.141 115.713 154.711 115.58 154.191 115.58C153.671 115.58 153.241 115.713 152.901 115.98C152.561 116.24 152.305 116.587 152.131 117.02C151.965 117.453 151.881 117.933 151.881 118.46C151.881 118.98 151.965 119.457 152.131 119.89C152.305 120.323 152.561 120.67 152.901 120.93C153.248 121.19 153.678 121.32 154.191 121.32ZM160.405 122.12C159.879 122.12 159.455 121.943 159.135 121.59C158.822 121.23 158.665 120.737 158.665 120.11V116.7H159.505V119.88C159.505 120.393 159.595 120.773 159.775 121.02C159.962 121.26 160.245 121.38 160.625 121.38C161.045 121.38 161.375 121.247 161.615 120.98C161.855 120.707 161.975 120.333 161.975 119.86V116.7H162.815V122H162.015V120.69L162.145 120.76C162.039 121.193 161.835 121.53 161.535 121.77C161.235 122.003 160.859 122.12 160.405 122.12ZM166.39 122.12C165.89 122.12 165.456 122.007 165.09 121.78C164.73 121.553 164.45 121.233 164.25 120.82C164.056 120.4 163.96 119.91 163.96 119.35C163.96 118.79 164.056 118.303 164.25 117.89C164.45 117.477 164.726 117.157 165.08 116.93C165.44 116.697 165.863 116.58 166.35 116.58C166.81 116.58 167.216 116.69 167.57 116.91C167.923 117.123 168.196 117.437 168.39 117.85C168.59 118.263 168.69 118.767 168.69 119.36V119.61H164.84C164.873 120.177 165.023 120.603 165.29 120.89C165.563 121.177 165.93 121.32 166.39 121.32C166.736 121.32 167.02 121.24 167.24 121.08C167.466 120.913 167.623 120.697 167.71 120.43L168.61 120.5C168.47 120.973 168.203 121.363 167.81 121.67C167.423 121.97 166.95 122.12 166.39 122.12ZM164.84 118.87H167.77C167.73 118.357 167.58 117.98 167.32 117.74C167.066 117.5 166.743 117.38 166.35 117.38C165.943 117.38 165.606 117.507 165.34 117.76C165.08 118.007 164.913 118.377 164.84 118.87ZM169.827 122V116.7H170.567L170.607 118.04L170.527 118.01C170.594 117.557 170.737 117.227 170.957 117.02C171.184 116.807 171.484 116.7 171.857 116.7H172.377V117.5H171.867C171.601 117.5 171.377 117.55 171.197 117.65C171.024 117.743 170.891 117.887 170.797 118.08C170.711 118.267 170.667 118.507 170.667 118.8V122H169.827ZM173.314 122V116.7H174.154V122H173.314ZM173.294 115.87V114.89H174.174V115.87H173.294ZM177.087 122.12C176.541 122.12 176.104 121.993 175.777 121.74C175.457 121.487 175.297 121.133 175.297 120.68C175.297 120.227 175.431 119.87 175.697 119.61C175.964 119.35 176.387 119.167 176.967 119.06L178.847 118.71C178.847 118.263 178.741 117.93 178.527 117.71C178.321 117.49 178.007 117.38 177.587 117.38C177.221 117.38 176.931 117.463 176.717 117.63C176.504 117.79 176.357 118.023 176.277 118.33L175.387 118.26C175.487 117.76 175.727 117.357 176.107 117.05C176.494 116.737 176.987 116.58 177.587 116.58C178.267 116.58 178.787 116.773 179.147 117.16C179.507 117.54 179.687 118.067 179.687 118.74V120.93C179.687 121.05 179.707 121.137 179.747 121.19C179.794 121.237 179.867 121.26 179.967 121.26H180.177V122C180.151 122.007 180.107 122.01 180.047 122.01C179.987 122.017 179.924 122.02 179.857 122.02C179.617 122.02 179.421 121.983 179.267 121.91C179.121 121.83 179.014 121.71 178.947 121.55C178.881 121.383 178.847 121.167 178.847 120.9L178.947 120.92C178.901 121.147 178.787 121.353 178.607 121.54C178.427 121.72 178.204 121.863 177.937 121.97C177.671 122.07 177.387 122.12 177.087 122.12ZM177.167 121.38C177.521 121.38 177.821 121.313 178.067 121.18C178.321 121.04 178.514 120.853 178.647 120.62C178.781 120.38 178.847 120.113 178.847 119.82V119.44L177.127 119.76C176.767 119.827 176.517 119.93 176.377 120.07C176.244 120.203 176.177 120.38 176.177 120.6C176.177 120.847 176.264 121.04 176.437 121.18C176.617 121.313 176.861 121.38 177.167 121.38ZM185.735 122.12C185.242 122.12 184.812 122.007 184.445 121.78C184.085 121.553 183.805 121.233 183.605 120.82C183.405 120.4 183.305 119.91 183.305 119.35C183.305 118.79 183.405 118.303 183.605 117.89C183.805 117.477 184.085 117.157 184.445 116.93C184.812 116.697 185.242 116.58 185.735 116.58C186.142 116.58 186.502 116.653 186.815 116.8C187.135 116.94 187.395 117.147 187.595 117.42C187.795 117.693 187.925 118.027 187.985 118.42L187.105 118.48C187.045 118.127 186.892 117.857 186.645 117.67C186.399 117.477 186.095 117.38 185.735 117.38C185.249 117.38 184.869 117.557 184.595 117.91C184.322 118.257 184.185 118.737 184.185 119.35C184.185 119.963 184.322 120.447 184.595 120.8C184.869 121.147 185.249 121.32 185.735 121.32C186.095 121.32 186.399 121.22 186.645 121.02C186.892 120.82 187.045 120.52 187.105 120.12L187.985 120.18C187.925 120.573 187.795 120.917 187.595 121.21C187.395 121.497 187.135 121.72 186.815 121.88C186.502 122.04 186.142 122.12 185.735 122.12ZM191.097 122.12C190.61 122.12 190.183 122.007 189.817 121.78C189.45 121.553 189.167 121.233 188.967 120.82C188.767 120.4 188.667 119.91 188.667 119.35C188.667 118.783 188.767 118.293 188.967 117.88C189.167 117.467 189.45 117.147 189.817 116.92C190.183 116.693 190.61 116.58 191.097 116.58C191.583 116.58 192.007 116.693 192.367 116.92C192.733 117.147 193.017 117.467 193.217 117.88C193.417 118.293 193.517 118.783 193.517 119.35C193.517 119.91 193.417 120.4 193.217 120.82C193.017 121.233 192.733 121.553 192.367 121.78C192.007 122.007 191.583 122.12 191.097 122.12ZM191.097 121.32C191.583 121.32 191.96 121.147 192.227 120.8C192.5 120.447 192.637 119.963 192.637 119.35C192.637 118.737 192.5 118.257 192.227 117.91C191.96 117.557 191.583 117.38 191.097 117.38C190.61 117.38 190.23 117.557 189.957 117.91C189.683 118.257 189.547 118.737 189.547 119.35C189.547 119.963 189.683 120.447 189.957 120.8C190.23 121.147 190.61 121.32 191.097 121.32ZM194.661 122V116.7H195.431L195.461 118.04L195.341 118C195.401 117.707 195.505 117.457 195.651 117.25C195.805 117.037 195.991 116.873 196.211 116.76C196.431 116.64 196.675 116.58 196.941 116.58C197.401 116.58 197.775 116.707 198.061 116.96C198.355 117.213 198.538 117.567 198.611 118.02L198.451 118.01C198.505 117.703 198.601 117.447 198.741 117.24C198.888 117.027 199.075 116.863 199.301 116.75C199.528 116.637 199.788 116.58 200.081 116.58C200.461 116.58 200.781 116.66 201.041 116.82C201.301 116.973 201.498 117.2 201.631 117.5C201.765 117.8 201.831 118.163 201.831 118.59V122H200.991V118.77C200.991 118.29 200.898 117.93 200.711 117.69C200.525 117.443 200.248 117.32 199.881 117.32C199.635 117.32 199.418 117.38 199.231 117.5C199.051 117.62 198.911 117.793 198.811 118.02C198.711 118.24 198.661 118.51 198.661 118.83V122H197.821V118.83C197.821 118.357 197.738 117.987 197.571 117.72C197.405 117.453 197.125 117.32 196.731 117.32C196.485 117.32 196.268 117.38 196.081 117.5C195.901 117.62 195.758 117.793 195.651 118.02C195.551 118.247 195.501 118.517 195.501 118.83V122H194.661ZM205.384 122.12C204.884 122.12 204.45 122.007 204.084 121.78C203.724 121.553 203.444 121.233 203.244 120.82C203.05 120.4 202.954 119.91 202.954 119.35C202.954 118.79 203.05 118.303 203.244 117.89C203.444 117.477 203.72 117.157 204.074 116.93C204.434 116.697 204.857 116.58 205.344 116.58C205.804 116.58 206.21 116.69 206.564 116.91C206.917 117.123 207.19 117.437 207.384 117.85C207.584 118.263 207.684 118.767 207.684 119.36V119.61H203.834C203.867 120.177 204.017 120.603 204.284 120.89C204.557 121.177 204.924 121.32 205.384 121.32C205.73 121.32 206.014 121.24 206.234 121.08C206.46 120.913 206.617 120.697 206.704 120.43L207.604 120.5C207.464 120.973 207.197 121.363 206.804 121.67C206.417 121.97 205.944 122.12 205.384 122.12ZM203.834 118.87H206.764C206.724 118.357 206.574 117.98 206.314 117.74C206.06 117.5 205.737 117.38 205.344 117.38C204.937 117.38 204.6 117.507 204.334 117.76C204.074 118.007 203.907 118.377 203.834 118.87ZM208.821 122V116.7H209.561L209.601 118.04L209.521 118.01C209.588 117.557 209.731 117.227 209.951 117.02C210.178 116.807 210.478 116.7 210.851 116.7H211.371V117.5H210.861C210.595 117.5 210.371 117.55 210.191 117.65C210.018 117.743 209.885 117.887 209.791 118.08C209.705 118.267 209.661 118.507 209.661 118.8V122H208.821ZM216.541 122.12C215.994 122.12 215.557 121.993 215.231 121.74C214.911 121.487 214.751 121.133 214.751 120.68C214.751 120.227 214.884 119.87 215.151 119.61C215.417 119.35 215.841 119.167 216.421 119.06L218.301 118.71C218.301 118.263 218.194 117.93 217.981 117.71C217.774 117.49 217.461 117.38 217.041 117.38C216.674 117.38 216.384 117.463 216.171 117.63C215.957 117.79 215.811 118.023 215.731 118.33L214.841 118.26C214.941 117.76 215.181 117.357 215.561 117.05C215.947 116.737 216.441 116.58 217.041 116.58C217.721 116.58 218.241 116.773 218.601 117.16C218.961 117.54 219.141 118.067 219.141 118.74V120.93C219.141 121.05 219.161 121.137 219.201 121.19C219.247 121.237 219.321 121.26 219.421 121.26H219.631V122C219.604 122.007 219.561 122.01 219.501 122.01C219.441 122.017 219.377 122.02 219.311 122.02C219.071 122.02 218.874 121.983 218.721 121.91C218.574 121.83 218.467 121.71 218.401 121.55C218.334 121.383 218.301 121.167 218.301 120.9L218.401 120.92C218.354 121.147 218.241 121.353 218.061 121.54C217.881 121.72 217.657 121.863 217.391 121.97C217.124 122.07 216.841 122.12 216.541 122.12ZM216.621 121.38C216.974 121.38 217.274 121.313 217.521 121.18C217.774 121.04 217.967 120.853 218.101 120.62C218.234 120.38 218.301 120.113 218.301 119.82V119.44L216.581 119.76C216.221 119.827 215.971 119.93 215.831 120.07C215.697 120.203 215.631 120.38 215.631 120.6C215.631 120.847 215.717 121.04 215.891 121.18C216.071 121.313 216.314 121.38 216.621 121.38ZM221.561 122C221.254 122 221.004 121.92 220.811 121.76C220.617 121.6 220.521 121.347 220.521 121V114.9H221.361V120.93C221.361 121.037 221.387 121.12 221.441 121.18C221.501 121.233 221.584 121.26 221.691 121.26H222.151V122H221.561ZM225.138 123.62C224.758 123.62 224.415 123.557 224.108 123.43C223.801 123.303 223.545 123.123 223.338 122.89C223.131 122.657 222.991 122.387 222.918 122.08L223.798 122.02C223.878 122.267 224.018 122.46 224.218 122.6C224.425 122.747 224.731 122.82 225.138 122.82C225.618 122.82 225.985 122.723 226.238 122.53C226.498 122.337 226.628 122.047 226.628 121.66V120.8C226.501 121.08 226.298 121.303 226.018 121.47C225.738 121.637 225.425 121.72 225.078 121.72C224.631 121.72 224.231 121.61 223.878 121.39C223.531 121.17 223.258 120.867 223.058 120.48C222.865 120.093 222.768 119.65 222.768 119.15C222.768 118.643 222.865 118.2 223.058 117.82C223.251 117.433 223.518 117.13 223.858 116.91C224.205 116.69 224.598 116.58 225.038 116.58C225.411 116.58 225.745 116.667 226.038 116.84C226.338 117.013 226.548 117.247 226.668 117.54V116.7H227.468V121.64C227.468 122.053 227.375 122.407 227.188 122.7C227.001 123 226.735 123.227 226.388 123.38C226.041 123.54 225.625 123.62 225.138 123.62ZM225.118 120.92C225.571 120.92 225.935 120.763 226.208 120.45C226.481 120.13 226.621 119.697 226.628 119.15C226.635 118.783 226.575 118.47 226.448 118.21C226.328 117.943 226.151 117.74 225.918 117.6C225.691 117.453 225.425 117.38 225.118 117.38C224.651 117.38 224.288 117.54 224.028 117.86C223.775 118.173 223.648 118.603 223.648 119.15C223.648 119.697 223.778 120.13 224.038 120.45C224.305 120.763 224.665 120.92 225.118 120.92ZM231.038 122.12C230.551 122.12 230.125 122.007 229.758 121.78C229.391 121.553 229.108 121.233 228.908 120.82C228.708 120.4 228.608 119.91 228.608 119.35C228.608 118.783 228.708 118.293 228.908 117.88C229.108 117.467 229.391 117.147 229.758 116.92C230.125 116.693 230.551 116.58 231.038 116.58C231.525 116.58 231.948 116.693 232.308 116.92C232.675 117.147 232.958 117.467 233.158 117.88C233.358 118.293 233.458 118.783 233.458 119.35C233.458 119.91 233.358 120.4 233.158 120.82C232.958 121.233 232.675 121.553 232.308 121.78C231.948 122.007 231.525 122.12 231.038 122.12ZM231.038 121.32C231.525 121.32 231.901 121.147 232.168 120.8C232.441 120.447 232.578 119.963 232.578 119.35C232.578 118.737 232.441 118.257 232.168 117.91C231.901 117.557 231.525 117.38 231.038 117.38C230.551 117.38 230.171 117.557 229.898 117.91C229.625 118.257 229.488 118.737 229.488 119.35C229.488 119.963 229.625 120.447 229.898 120.8C230.171 121.147 230.551 121.32 231.038 121.32ZM239.08 122.12C238.62 122.12 238.22 122.007 237.88 121.78C237.547 121.553 237.29 121.233 237.11 120.82C236.93 120.407 236.84 119.917 236.84 119.35C236.84 118.783 236.93 118.293 237.11 117.88C237.29 117.467 237.547 117.147 237.88 116.92C238.22 116.693 238.62 116.58 239.08 116.58C239.434 116.58 239.757 116.657 240.05 116.81C240.344 116.957 240.564 117.167 240.71 117.44V114.9H241.55V122H240.79L240.76 121.2C240.614 121.487 240.39 121.713 240.09 121.88C239.79 122.04 239.454 122.12 239.08 122.12ZM239.25 121.32C239.564 121.32 239.827 121.24 240.04 121.08C240.26 120.92 240.427 120.693 240.54 120.4C240.654 120.1 240.71 119.75 240.71 119.35C240.71 118.937 240.654 118.583 240.54 118.29C240.427 117.997 240.26 117.773 240.04 117.62C239.827 117.46 239.564 117.38 239.25 117.38C238.784 117.38 238.41 117.557 238.13 117.91C237.857 118.257 237.72 118.737 237.72 119.35C237.72 119.957 237.857 120.437 238.13 120.79C238.41 121.143 238.784 121.32 239.25 121.32ZM242.952 122V116.7H243.792V122H242.952ZM242.932 115.87V114.89H243.812V115.87H242.932ZM245.572 122V116.22C245.572 115.827 245.685 115.51 245.912 115.27C246.139 115.023 246.492 114.9 246.972 114.9H247.812V115.64H247.032C246.825 115.64 246.669 115.697 246.562 115.81C246.462 115.923 246.412 116.08 246.412 116.28V122H245.572ZM244.852 117.44V116.7H247.742V117.44H244.852ZM250.628 122.12C250.128 122.12 249.694 122.007 249.328 121.78C248.968 121.553 248.688 121.233 248.488 120.82C248.294 120.4 248.198 119.91 248.198 119.35C248.198 118.79 248.294 118.303 248.488 117.89C248.688 117.477 248.964 117.157 249.318 116.93C249.678 116.697 250.101 116.58 250.588 116.58C251.048 116.58 251.454 116.69 251.808 116.91C252.161 117.123 252.434 117.437 252.628 117.85C252.828 118.263 252.928 118.767 252.928 119.36V119.61H249.078C249.111 120.177 249.261 120.603 249.528 120.89C249.801 121.177 250.168 121.32 250.628 121.32C250.974 121.32 251.258 121.24 251.478 121.08C251.704 120.913 251.861 120.697 251.948 120.43L252.848 120.5C252.708 120.973 252.441 121.363 252.048 121.67C251.661 121.97 251.188 122.12 250.628 122.12ZM249.078 118.87H252.008C251.968 118.357 251.818 117.98 251.558 117.74C251.304 117.5 250.981 117.38 250.588 117.38C250.181 117.38 249.844 117.507 249.578 117.76C249.318 118.007 249.151 118.377 249.078 118.87ZM254.066 122V116.7H254.806L254.846 118.04L254.766 118.01C254.832 117.557 254.976 117.227 255.196 117.02C255.422 116.807 255.722 116.7 256.096 116.7H256.616V117.5H256.106C255.839 117.5 255.616 117.55 255.436 117.65C255.262 117.743 255.129 117.887 255.036 118.08C254.949 118.267 254.906 118.507 254.906 118.8V122H254.066ZM259.524 122.12C259.024 122.12 258.591 122.007 258.224 121.78C257.864 121.553 257.584 121.233 257.384 120.82C257.191 120.4 257.094 119.91 257.094 119.35C257.094 118.79 257.191 118.303 257.384 117.89C257.584 117.477 257.861 117.157 258.214 116.93C258.574 116.697 258.998 116.58 259.484 116.58C259.944 116.58 260.351 116.69 260.704 116.91C261.058 117.123 261.331 117.437 261.524 117.85C261.724 118.263 261.824 118.767 261.824 119.36V119.61H257.974C258.008 120.177 258.158 120.603 258.424 120.89C258.698 121.177 259.064 121.32 259.524 121.32C259.871 121.32 260.154 121.24 260.374 121.08C260.601 120.913 260.758 120.697 260.844 120.43L261.744 120.5C261.604 120.973 261.338 121.363 260.944 121.67C260.558 121.97 260.084 122.12 259.524 122.12ZM257.974 118.87H260.904C260.864 118.357 260.714 117.98 260.454 117.74C260.201 117.5 259.878 117.38 259.484 117.38C259.078 117.38 258.741 117.507 258.474 117.76C258.214 118.007 258.048 118.377 257.974 118.87ZM262.962 122V116.7H263.732L263.762 118.05L263.662 117.96C263.729 117.647 263.845 117.39 264.012 117.19C264.179 116.983 264.379 116.83 264.612 116.73C264.852 116.63 265.109 116.58 265.382 116.58C265.789 116.58 266.122 116.67 266.382 116.85C266.649 117.03 266.845 117.273 266.972 117.58C267.105 117.88 267.172 118.217 267.172 118.59V122H266.332V118.83C266.332 118.503 266.292 118.23 266.212 118.01C266.139 117.783 266.019 117.613 265.852 117.5C265.685 117.38 265.469 117.32 265.202 117.32C264.795 117.32 264.459 117.45 264.192 117.71C263.932 117.963 263.802 118.337 263.802 118.83V122H262.962ZM270.312 122C269.832 122 269.476 121.89 269.242 121.67C269.016 121.45 268.902 121.107 268.902 120.64V115.46H269.742V120.62C269.742 120.86 269.796 121.027 269.902 121.12C270.009 121.213 270.172 121.26 270.392 121.26H271.152V122H270.312ZM268.122 117.44V116.7H271.152V117.44H268.122ZM274.202 122.12C273.702 122.12 273.269 122.007 272.902 121.78C272.542 121.553 272.262 121.233 272.062 120.82C271.869 120.4 271.772 119.91 271.772 119.35C271.772 118.79 271.869 118.303 272.062 117.89C272.262 117.477 272.539 117.157 272.892 116.93C273.252 116.697 273.675 116.58 274.162 116.58C274.622 116.58 275.029 116.69 275.382 116.91C275.735 117.123 276.009 117.437 276.202 117.85C276.402 118.263 276.502 118.767 276.502 119.36V119.61H272.652C272.685 120.177 272.835 120.603 273.102 120.89C273.375 121.177 273.742 121.32 274.202 121.32C274.549 121.32 274.832 121.24 275.052 121.08C275.279 120.913 275.435 120.697 275.522 120.43L276.422 120.5C276.282 120.973 276.015 121.363 275.622 121.67C275.235 121.97 274.762 122.12 274.202 122.12ZM272.652 118.87H275.582C275.542 118.357 275.392 117.98 275.132 117.74C274.879 117.5 274.555 117.38 274.162 117.38C273.755 117.38 273.419 117.507 273.152 117.76C272.892 118.007 272.725 118.377 272.652 118.87ZM280.238 122V114.9H281.078V117.87L280.978 117.85C281.044 117.557 281.158 117.317 281.318 117.13C281.478 116.943 281.674 116.807 281.908 116.72C282.141 116.627 282.398 116.58 282.678 116.58C283.058 116.58 283.378 116.667 283.638 116.84C283.904 117.007 284.104 117.243 284.238 117.55C284.378 117.85 284.448 118.197 284.448 118.59V122H283.608V118.83C283.608 118.317 283.514 117.937 283.328 117.69C283.148 117.443 282.871 117.32 282.498 117.32C282.071 117.32 281.728 117.45 281.468 117.71C281.208 117.97 281.078 118.347 281.078 118.84V122H280.238ZM288.001 122.12C287.514 122.12 287.088 122.007 286.721 121.78C286.354 121.553 286.071 121.233 285.871 120.82C285.671 120.4 285.571 119.91 285.571 119.35C285.571 118.783 285.671 118.293 285.871 117.88C286.071 117.467 286.354 117.147 286.721 116.92C287.088 116.693 287.514 116.58 288.001 116.58C288.488 116.58 288.911 116.693 289.271 116.92C289.638 117.147 289.921 117.467 290.121 117.88C290.321 118.293 290.421 118.783 290.421 119.35C290.421 119.91 290.321 120.4 290.121 120.82C289.921 121.233 289.638 121.553 289.271 121.78C288.911 122.007 288.488 122.12 288.001 122.12ZM288.001 121.32C288.488 121.32 288.864 121.147 289.131 120.8C289.404 120.447 289.541 119.963 289.541 119.35C289.541 118.737 289.404 118.257 289.131 117.91C288.864 117.557 288.488 117.38 288.001 117.38C287.514 117.38 287.134 117.557 286.861 117.91C286.588 118.257 286.451 118.737 286.451 119.35C286.451 119.963 286.588 120.447 286.861 120.8C287.134 121.147 287.514 121.32 288.001 121.32ZM290.716 123.5V122.76H291.146C291.319 122.76 291.459 122.717 291.566 122.63C291.672 122.55 291.726 122.4 291.726 122.18V116.7H292.566V122.22C292.566 122.687 292.462 123.017 292.256 123.21C292.049 123.403 291.706 123.5 291.226 123.5H290.716ZM291.706 115.87V114.89H292.586V115.87H291.706ZM296.136 122.12C295.636 122.12 295.202 122.007 294.836 121.78C294.476 121.553 294.196 121.233 293.996 120.82C293.802 120.4 293.706 119.91 293.706 119.35C293.706 118.79 293.802 118.303 293.996 117.89C294.196 117.477 294.472 117.157 294.826 116.93C295.186 116.697 295.609 116.58 296.096 116.58C296.556 116.58 296.962 116.69 297.316 116.91C297.669 117.123 297.942 117.437 298.136 117.85C298.336 118.263 298.436 118.767 298.436 119.36V119.61H294.586C294.619 120.177 294.769 120.603 295.036 120.89C295.309 121.177 295.676 121.32 296.136 121.32C296.482 121.32 296.766 121.24 296.986 121.08C297.212 120.913 297.369 120.697 297.456 120.43L298.356 120.5C298.216 120.973 297.949 121.363 297.556 121.67C297.169 121.97 296.696 122.12 296.136 122.12ZM294.586 118.87H297.516C297.476 118.357 297.326 117.98 297.066 117.74C296.812 117.5 296.489 117.38 296.096 117.38C295.689 117.38 295.352 117.507 295.086 117.76C294.826 118.007 294.659 118.377 294.586 118.87ZM299.701 119.95C299.681 119.717 299.658 119.437 299.631 119.11C299.611 118.783 299.591 118.45 299.571 118.11C299.551 117.77 299.541 117.467 299.541 117.2V114.9H300.401V117.2C300.401 117.467 300.391 117.77 300.371 118.11C300.358 118.45 300.338 118.783 300.311 119.11C300.291 119.437 300.271 119.717 300.251 119.95H299.701ZM299.371 122V120.87H300.501V122H299.371Z" fill="black"/>
<path d="M71 153C71 147.477 75.4772 143 81 143H207C212.523 143 217 147.477 217 153V173C217 178.523 212.523 183 207 183H74C72.3431 183 71 181.657 71 180V153Z" fill="black"/>
<path d="M83.77 160L81.2 152.9H82.14L84.34 159.06L86.53 152.9H87.47L84.9 160H83.77ZM90.1395 160.12C89.6529 160.12 89.2262 160.007 88.8595 159.78C88.4929 159.553 88.2095 159.233 88.0095 158.82C87.8095 158.4 87.7095 157.91 87.7095 157.35C87.7095 156.783 87.8095 156.293 88.0095 155.88C88.2095 155.467 88.4929 155.147 88.8595 154.92C89.2262 154.693 89.6529 154.58 90.1395 154.58C90.6262 154.58 91.0495 154.693 91.4095 154.92C91.7762 155.147 92.0595 155.467 92.2595 155.88C92.4595 156.293 92.5595 156.783 92.5595 157.35C92.5595 157.91 92.4595 158.4 92.2595 158.82C92.0595 159.233 91.7762 159.553 91.4095 159.78C91.0495 160.007 90.6262 160.12 90.1395 160.12ZM90.1395 159.32C90.6262 159.32 91.0029 159.147 91.2695 158.8C91.5429 158.447 91.6795 157.963 91.6795 157.35C91.6795 156.737 91.5429 156.257 91.2695 155.91C91.0029 155.557 90.6262 155.38 90.1395 155.38C89.6529 155.38 89.2729 155.557 88.9995 155.91C88.7262 156.257 88.5895 156.737 88.5895 157.35C88.5895 157.963 88.7262 158.447 88.9995 158.8C89.2729 159.147 89.6529 159.32 90.1395 159.32ZM95.4443 160.12C94.9176 160.12 94.4943 159.943 94.1743 159.59C93.861 159.23 93.7043 158.737 93.7043 158.11V154.7H94.5443V157.88C94.5443 158.393 94.6343 158.773 94.8143 159.02C95.001 159.26 95.2843 159.38 95.6643 159.38C96.0843 159.38 96.4143 159.247 96.6543 158.98C96.8943 158.707 97.0143 158.333 97.0143 157.86V154.7H97.8543V160H97.0543V158.69L97.1843 158.76C97.0776 159.193 96.8743 159.53 96.5743 159.77C96.2743 160.003 95.8976 160.12 95.4443 160.12ZM103.886 160.12C103.413 160.12 103.01 160.043 102.676 159.89C102.35 159.737 102.093 159.527 101.906 159.26C101.726 158.987 101.623 158.677 101.596 158.33L102.476 158.27C102.53 158.59 102.666 158.847 102.886 159.04C103.106 159.227 103.44 159.32 103.886 159.32C104.246 159.32 104.533 159.263 104.746 159.15C104.966 159.03 105.076 158.84 105.076 158.58C105.076 158.44 105.043 158.323 104.976 158.23C104.91 158.137 104.78 158.057 104.586 157.99C104.393 157.917 104.106 157.847 103.726 157.78C103.22 157.687 102.82 157.573 102.526 157.44C102.24 157.3 102.033 157.13 101.906 156.93C101.786 156.723 101.726 156.48 101.726 156.2C101.726 155.727 101.9 155.34 102.246 155.04C102.593 154.733 103.086 154.58 103.726 154.58C104.16 154.58 104.523 154.66 104.816 154.82C105.116 154.973 105.35 155.18 105.516 155.44C105.69 155.693 105.803 155.973 105.856 156.28L104.976 156.34C104.936 156.153 104.863 155.99 104.756 155.85C104.65 155.703 104.51 155.59 104.336 155.51C104.163 155.423 103.956 155.38 103.716 155.38C103.336 155.38 103.056 155.453 102.876 155.6C102.696 155.747 102.606 155.933 102.606 156.16C102.606 156.333 102.646 156.477 102.726 156.59C102.813 156.697 102.95 156.787 103.136 156.86C103.323 156.927 103.573 156.987 103.886 157.04C104.426 157.133 104.846 157.247 105.146 157.38C105.446 157.513 105.656 157.677 105.776 157.87C105.896 158.063 105.956 158.3 105.956 158.58C105.956 158.907 105.863 159.187 105.676 159.42C105.496 159.647 105.25 159.82 104.936 159.94C104.63 160.06 104.28 160.12 103.886 160.12ZM109.173 160.12C108.673 160.12 108.239 160.007 107.873 159.78C107.513 159.553 107.233 159.233 107.033 158.82C106.839 158.4 106.743 157.91 106.743 157.35C106.743 156.79 106.839 156.303 107.033 155.89C107.233 155.477 107.509 155.157 107.863 154.93C108.223 154.697 108.646 154.58 109.133 154.58C109.593 154.58 109.999 154.69 110.353 154.91C110.706 155.123 110.979 155.437 111.173 155.85C111.373 156.263 111.473 156.767 111.473 157.36V157.61H107.623C107.656 158.177 107.806 158.603 108.073 158.89C108.346 159.177 108.713 159.32 109.173 159.32C109.519 159.32 109.803 159.24 110.023 159.08C110.249 158.913 110.406 158.697 110.493 158.43L111.393 158.5C111.253 158.973 110.986 159.363 110.593 159.67C110.206 159.97 109.733 160.12 109.173 160.12ZM107.623 156.87H110.553C110.513 156.357 110.363 155.98 110.103 155.74C109.849 155.5 109.526 155.38 109.133 155.38C108.726 155.38 108.389 155.507 108.123 155.76C107.863 156.007 107.696 156.377 107.623 156.87ZM113.699 160C113.393 160 113.143 159.92 112.949 159.76C112.756 159.6 112.659 159.347 112.659 159V152.9H113.499V158.93C113.499 159.037 113.526 159.12 113.579 159.18C113.639 159.233 113.723 159.26 113.829 159.26H114.289V160H113.699ZM117.337 160.12C116.837 160.12 116.403 160.007 116.037 159.78C115.677 159.553 115.397 159.233 115.197 158.82C115.003 158.4 114.907 157.91 114.907 157.35C114.907 156.79 115.003 156.303 115.197 155.89C115.397 155.477 115.673 155.157 116.027 154.93C116.387 154.697 116.81 154.58 117.297 154.58C117.757 154.58 118.163 154.69 118.517 154.91C118.87 155.123 119.143 155.437 119.337 155.85C119.537 156.263 119.637 156.767 119.637 157.36V157.61H115.787C115.82 158.177 115.97 158.603 116.237 158.89C116.51 159.177 116.877 159.32 117.337 159.32C117.683 159.32 117.967 159.24 118.187 159.08C118.413 158.913 118.57 158.697 118.657 158.43L119.557 158.5C119.417 158.973 119.15 159.363 118.757 159.67C118.37 159.97 117.897 160.12 117.337 160.12ZM115.787 156.87H118.717C118.677 156.357 118.527 155.98 118.267 155.74C118.013 155.5 117.69 155.38 117.297 155.38C116.89 155.38 116.553 155.507 116.287 155.76C116.027 156.007 115.86 156.377 115.787 156.87ZM122.845 160.12C122.351 160.12 121.921 160.007 121.555 159.78C121.195 159.553 120.915 159.233 120.715 158.82C120.515 158.4 120.415 157.91 120.415 157.35C120.415 156.79 120.515 156.303 120.715 155.89C120.915 155.477 121.195 155.157 121.555 154.93C121.921 154.697 122.351 154.58 122.845 154.58C123.251 154.58 123.611 154.653 123.925 154.8C124.245 154.94 124.505 155.147 124.705 155.42C124.905 155.693 125.035 156.027 125.095 156.42L124.215 156.48C124.155 156.127 124.001 155.857 123.755 155.67C123.508 155.477 123.205 155.38 122.845 155.38C122.358 155.38 121.978 155.557 121.705 155.91C121.431 156.257 121.295 156.737 121.295 157.35C121.295 157.963 121.431 158.447 121.705 158.8C121.978 159.147 122.358 159.32 122.845 159.32C123.205 159.32 123.508 159.22 123.755 159.02C124.001 158.82 124.155 158.52 124.215 158.12L125.095 158.18C125.035 158.573 124.905 158.917 124.705 159.21C124.505 159.497 124.245 159.72 123.925 159.88C123.611 160.04 123.251 160.12 122.845 160.12ZM126.136 160V154.7H126.976V160H126.136ZM126.116 153.87V152.89H126.996V153.87H126.116ZM130.55 160.12C130.063 160.12 129.636 160.007 129.27 159.78C128.903 159.553 128.62 159.233 128.42 158.82C128.22 158.4 128.12 157.91 128.12 157.35C128.12 156.783 128.22 156.293 128.42 155.88C128.62 155.467 128.903 155.147 129.27 154.92C129.636 154.693 130.063 154.58 130.55 154.58C131.036 154.58 131.46 154.693 131.82 154.92C132.186 155.147 132.47 155.467 132.67 155.88C132.87 156.293 132.97 156.783 132.97 157.35C132.97 157.91 132.87 158.4 132.67 158.82C132.47 159.233 132.186 159.553 131.82 159.78C131.46 160.007 131.036 160.12 130.55 160.12ZM130.55 159.32C131.036 159.32 131.413 159.147 131.68 158.8C131.953 158.447 132.09 157.963 132.09 157.35C132.09 156.737 131.953 156.257 131.68 155.91C131.413 155.557 131.036 155.38 130.55 155.38C130.063 155.38 129.683 155.557 129.41 155.91C129.136 156.257 129 156.737 129 157.35C129 157.963 129.136 158.447 129.41 158.8C129.683 159.147 130.063 159.32 130.55 159.32ZM134.114 160V154.7H134.884L134.914 156.05L134.814 155.96C134.881 155.647 134.998 155.39 135.164 155.19C135.331 154.983 135.531 154.83 135.764 154.73C136.004 154.63 136.261 154.58 136.534 154.58C136.941 154.58 137.274 154.67 137.534 154.85C137.801 155.03 137.998 155.273 138.124 155.58C138.258 155.88 138.324 156.217 138.324 156.59V160H137.484V156.83C137.484 156.503 137.444 156.23 137.364 156.01C137.291 155.783 137.171 155.613 137.004 155.5C136.838 155.38 136.621 155.32 136.354 155.32C135.948 155.32 135.611 155.45 135.344 155.71C135.084 155.963 134.954 156.337 134.954 156.83V160H134.114ZM141.257 160.12C140.711 160.12 140.274 159.993 139.947 159.74C139.627 159.487 139.467 159.133 139.467 158.68C139.467 158.227 139.601 157.87 139.867 157.61C140.134 157.35 140.557 157.167 141.137 157.06L143.017 156.71C143.017 156.263 142.911 155.93 142.697 155.71C142.491 155.49 142.177 155.38 141.757 155.38C141.391 155.38 141.101 155.463 140.887 155.63C140.674 155.79 140.527 156.023 140.447 156.33L139.557 156.26C139.657 155.76 139.897 155.357 140.277 155.05C140.664 154.737 141.157 154.58 141.757 154.58C142.437 154.58 142.957 154.773 143.317 155.16C143.677 155.54 143.857 156.067 143.857 156.74V158.93C143.857 159.05 143.877 159.137 143.917 159.19C143.964 159.237 144.037 159.26 144.137 159.26H144.347V160C144.321 160.007 144.277 160.01 144.217 160.01C144.157 160.017 144.094 160.02 144.027 160.02C143.787 160.02 143.591 159.983 143.437 159.91C143.291 159.83 143.184 159.71 143.117 159.55C143.051 159.383 143.017 159.167 143.017 158.9L143.117 158.92C143.071 159.147 142.957 159.353 142.777 159.54C142.597 159.72 142.374 159.863 142.107 159.97C141.841 160.07 141.557 160.12 141.257 160.12ZM141.337 159.38C141.691 159.38 141.991 159.313 142.237 159.18C142.491 159.04 142.684 158.853 142.817 158.62C142.951 158.38 143.017 158.113 143.017 157.82V157.44L141.297 157.76C140.937 157.827 140.687 157.93 140.547 158.07C140.414 158.203 140.347 158.38 140.347 158.6C140.347 158.847 140.434 159.04 140.607 159.18C140.787 159.313 141.031 159.38 141.337 159.38ZM145.296 160V154.7H146.036L146.076 156.04L145.996 156.01C146.063 155.557 146.206 155.227 146.426 155.02C146.653 154.807 146.953 154.7 147.326 154.7H147.846V155.5H147.336C147.069 155.5 146.846 155.55 146.666 155.65C146.493 155.743 146.359 155.887 146.266 156.08C146.179 156.267 146.136 156.507 146.136 156.8V160H145.296ZM153.015 160.12C152.468 160.12 152.032 159.993 151.705 159.74C151.385 159.487 151.225 159.133 151.225 158.68C151.225 158.227 151.358 157.87 151.625 157.61C151.892 157.35 152.315 157.167 152.895 157.06L154.775 156.71C154.775 156.263 154.668 155.93 154.455 155.71C154.248 155.49 153.935 155.38 153.515 155.38C153.148 155.38 152.858 155.463 152.645 155.63C152.432 155.79 152.285 156.023 152.205 156.33L151.315 156.26C151.415 155.76 151.655 155.357 152.035 155.05C152.422 154.737 152.915 154.58 153.515 154.58C154.195 154.58 154.715 154.773 155.075 155.16C155.435 155.54 155.615 156.067 155.615 156.74V158.93C155.615 159.05 155.635 159.137 155.675 159.19C155.722 159.237 155.795 159.26 155.895 159.26H156.105V160C156.078 160.007 156.035 160.01 155.975 160.01C155.915 160.017 155.852 160.02 155.785 160.02C155.545 160.02 155.348 159.983 155.195 159.91C155.048 159.83 154.942 159.71 154.875 159.55C154.808 159.383 154.775 159.167 154.775 158.9L154.875 158.92C154.828 159.147 154.715 159.353 154.535 159.54C154.355 159.72 154.132 159.863 153.865 159.97C153.598 160.07 153.315 160.12 153.015 160.12ZM153.095 159.38C153.448 159.38 153.748 159.313 153.995 159.18C154.248 159.04 154.442 158.853 154.575 158.62C154.708 158.38 154.775 158.113 154.775 157.82V157.44L153.055 157.76C152.695 157.827 152.445 157.93 152.305 158.07C152.172 158.203 152.105 158.38 152.105 158.6C152.105 158.847 152.192 159.04 152.365 159.18C152.545 159.313 152.788 159.38 153.095 159.38ZM161.384 161.5H160.544V158.86L160.664 159C160.604 159.227 160.491 159.423 160.324 159.59C160.164 159.757 159.964 159.887 159.724 159.98C159.491 160.073 159.238 160.12 158.964 160.12C158.438 160.12 158.004 159.99 157.664 159.73C157.331 159.47 157.081 159.13 156.914 158.71C156.754 158.29 156.674 157.837 156.674 157.35C156.674 156.863 156.754 156.41 156.914 155.99C157.081 155.57 157.331 155.23 157.664 154.97C158.004 154.71 158.438 154.58 158.964 154.58C159.378 154.58 159.738 154.683 160.044 154.89C160.358 155.09 160.578 155.387 160.704 155.78L160.584 155.84L160.604 154.7H161.384V161.5ZM159.044 159.32C159.358 159.32 159.624 159.247 159.844 159.1C160.071 158.953 160.244 158.733 160.364 158.44C160.484 158.147 160.544 157.783 160.544 157.35C160.544 156.917 160.481 156.553 160.354 156.26C160.234 155.967 160.061 155.747 159.834 155.6C159.614 155.453 159.351 155.38 159.044 155.38C158.584 155.38 158.221 155.553 157.954 155.9C157.688 156.247 157.554 156.73 157.554 157.35C157.554 157.97 157.688 158.453 157.954 158.8C158.221 159.147 158.584 159.32 159.044 159.32ZM164.722 160.12C164.195 160.12 163.772 159.943 163.452 159.59C163.138 159.23 162.982 158.737 162.982 158.11V154.7H163.822V157.88C163.822 158.393 163.912 158.773 164.092 159.02C164.278 159.26 164.562 159.38 164.942 159.38C165.362 159.38 165.692 159.247 165.932 158.98C166.172 158.707 166.292 158.333 166.292 157.86V154.7H167.132V160H166.332V158.69L166.462 158.76C166.355 159.193 166.152 159.53 165.852 159.77C165.552 160.003 165.175 160.12 164.722 160.12ZM168.587 160V154.7H169.427V160H168.587ZM168.567 153.87V152.89H169.447V153.87H168.567ZM173.529 160V154.7H174.299L174.329 156.05L174.229 155.96C174.295 155.647 174.412 155.39 174.579 155.19C174.745 154.983 174.945 154.83 175.179 154.73C175.419 154.63 175.675 154.58 175.949 154.58C176.355 154.58 176.689 154.67 176.949 154.85C177.215 155.03 177.412 155.273 177.539 155.58C177.672 155.88 177.739 156.217 177.739 156.59V160H176.899V156.83C176.899 156.503 176.859 156.23 176.779 156.01C176.705 155.783 176.585 155.613 176.419 155.5C176.252 155.38 176.035 155.32 175.769 155.32C175.362 155.32 175.025 155.45 174.759 155.71C174.499 155.963 174.369 156.337 174.369 156.83V160H173.529ZM181.292 160.12C180.805 160.12 180.379 160.007 180.012 159.78C179.645 159.553 179.362 159.233 179.162 158.82C178.962 158.4 178.862 157.91 178.862 157.35C178.862 156.783 178.962 156.293 179.162 155.88C179.362 155.467 179.645 155.147 180.012 154.92C180.379 154.693 180.805 154.58 181.292 154.58C181.779 154.58 182.202 154.693 182.562 154.92C182.929 155.147 183.212 155.467 183.412 155.88C183.612 156.293 183.712 156.783 183.712 157.35C183.712 157.91 183.612 158.4 183.412 158.82C183.212 159.233 182.929 159.553 182.562 159.78C182.202 160.007 181.779 160.12 181.292 160.12ZM181.292 159.32C181.779 159.32 182.155 159.147 182.422 158.8C182.695 158.447 182.832 157.963 182.832 157.35C182.832 156.737 182.695 156.257 182.422 155.91C182.155 155.557 181.779 155.38 181.292 155.38C180.805 155.38 180.425 155.557 180.152 155.91C179.879 156.257 179.742 156.737 179.742 157.35C179.742 157.963 179.879 158.447 180.152 158.8C180.425 159.147 180.805 159.32 181.292 159.32ZM186.787 160.12C186.313 160.12 185.91 160.043 185.577 159.89C185.25 159.737 184.993 159.527 184.807 159.26C184.627 158.987 184.523 158.677 184.497 158.33L185.377 158.27C185.43 158.59 185.567 158.847 185.787 159.04C186.007 159.227 186.34 159.32 186.787 159.32C187.147 159.32 187.433 159.263 187.647 159.15C187.867 159.03 187.977 158.84 187.977 158.58C187.977 158.44 187.943 158.323 187.877 158.23C187.81 158.137 187.68 158.057 187.487 157.99C187.293 157.917 187.007 157.847 186.627 157.78C186.12 157.687 185.72 157.573 185.427 157.44C185.14 157.3 184.933 157.13 184.807 156.93C184.687 156.723 184.627 156.48 184.627 156.2C184.627 155.727 184.8 155.34 185.147 155.04C185.493 154.733 185.987 154.58 186.627 154.58C187.06 154.58 187.423 154.66 187.717 154.82C188.017 154.973 188.25 155.18 188.417 155.44C188.59 155.693 188.703 155.973 188.757 156.28L187.877 156.34C187.837 156.153 187.763 155.99 187.657 155.85C187.55 155.703 187.41 155.59 187.237 155.51C187.063 155.423 186.857 155.38 186.617 155.38C186.237 155.38 185.957 155.453 185.777 155.6C185.597 155.747 185.507 155.933 185.507 156.16C185.507 156.333 185.547 156.477 185.627 156.59C185.713 156.697 185.85 156.787 186.037 156.86C186.223 156.927 186.473 156.987 186.787 157.04C187.327 157.133 187.747 157.247 188.047 157.38C188.347 157.513 188.557 157.677 188.677 157.87C188.797 158.063 188.857 158.3 188.857 158.58C188.857 158.907 188.763 159.187 188.577 159.42C188.397 159.647 188.15 159.82 187.837 159.94C187.53 160.06 187.18 160.12 186.787 160.12ZM191.933 160.12C191.46 160.12 191.056 160.043 190.723 159.89C190.396 159.737 190.14 159.527 189.953 159.26C189.773 158.987 189.67 158.677 189.643 158.33L190.523 158.27C190.576 158.59 190.713 158.847 190.933 159.04C191.153 159.227 191.486 159.32 191.933 159.32C192.293 159.32 192.58 159.263 192.793 159.15C193.013 159.03 193.123 158.84 193.123 158.58C193.123 158.44 193.09 158.323 193.023 158.23C192.956 158.137 192.826 158.057 192.633 157.99C192.44 157.917 192.153 157.847 191.773 157.78C191.266 157.687 190.866 157.573 190.573 157.44C190.286 157.3 190.08 157.13 189.953 156.93C189.833 156.723 189.773 156.48 189.773 156.2C189.773 155.727 189.946 155.34 190.293 155.04C190.64 154.733 191.133 154.58 191.773 154.58C192.206 154.58 192.57 154.66 192.863 154.82C193.163 154.973 193.396 155.18 193.563 155.44C193.736 155.693 193.85 155.973 193.903 156.28L193.023 156.34C192.983 156.153 192.91 155.99 192.803 155.85C192.696 155.703 192.556 155.59 192.383 155.51C192.21 155.423 192.003 155.38 191.763 155.38C191.383 155.38 191.103 155.453 190.923 155.6C190.743 155.747 190.653 155.933 190.653 156.16C190.653 156.333 190.693 156.477 190.773 156.59C190.86 156.697 190.996 156.787 191.183 156.86C191.37 156.927 191.62 156.987 191.933 157.04C192.473 157.133 192.893 157.247 193.193 157.38C193.493 157.513 193.703 157.677 193.823 157.87C193.943 158.063 194.003 158.3 194.003 158.58C194.003 158.907 193.91 159.187 193.723 159.42C193.543 159.647 193.296 159.82 192.983 159.94C192.676 160.06 192.326 160.12 191.933 160.12ZM197.22 160.12C196.733 160.12 196.306 160.007 195.94 159.78C195.573 159.553 195.29 159.233 195.09 158.82C194.89 158.4 194.79 157.91 194.79 157.35C194.79 156.783 194.89 156.293 195.09 155.88C195.29 155.467 195.573 155.147 195.94 154.92C196.306 154.693 196.733 154.58 197.22 154.58C197.706 154.58 198.13 154.693 198.49 154.92C198.856 155.147 199.14 155.467 199.34 155.88C199.54 156.293 199.64 156.783 199.64 157.35C199.64 157.91 199.54 158.4 199.34 158.82C199.14 159.233 198.856 159.553 198.49 159.78C198.13 160.007 197.706 160.12 197.22 160.12ZM197.22 159.32C197.706 159.32 198.083 159.147 198.35 158.8C198.623 158.447 198.76 157.963 198.76 157.35C198.76 156.737 198.623 156.257 198.35 155.91C198.083 155.557 197.706 155.38 197.22 155.38C196.733 155.38 196.353 155.557 196.08 155.91C195.806 156.257 195.67 156.737 195.67 157.35C195.67 157.963 195.806 158.447 196.08 158.8C196.353 159.147 196.733 159.32 197.22 159.32ZM202.714 160.12C202.241 160.12 201.838 160.043 201.504 159.89C201.178 159.737 200.921 159.527 200.734 159.26C200.554 158.987 200.451 158.677 200.424 158.33L201.304 158.27C201.358 158.59 201.494 158.847 201.714 159.04C201.934 159.227 202.268 159.32 202.714 159.32C203.074 159.32 203.361 159.263 203.574 159.15C203.794 159.03 203.904 158.84 203.904 158.58C203.904 158.44 203.871 158.323 203.804 158.23C203.738 158.137 203.608 158.057 203.414 157.99C203.221 157.917 202.934 157.847 202.554 157.78C202.048 157.687 201.648 157.573 201.354 157.44C201.068 157.3 200.861 157.13 200.734 156.93C200.614 156.723 200.554 156.48 200.554 156.2C200.554 155.727 200.728 155.34 201.074 155.04C201.421 154.733 201.914 154.58 202.554 154.58C202.988 154.58 203.351 154.66 203.644 154.82C203.944 154.973 204.178 155.18 204.344 155.44C204.518 155.693 204.631 155.973 204.684 156.28L203.804 156.34C203.764 156.153 203.691 155.99 203.584 155.85C203.478 155.703 203.338 155.59 203.164 155.51C202.991 155.423 202.784 155.38 202.544 155.38C202.164 155.38 201.884 155.453 201.704 155.6C201.524 155.747 201.434 155.933 201.434 156.16C201.434 156.333 201.474 156.477 201.554 156.59C201.641 156.697 201.778 156.787 201.964 156.86C202.151 156.927 202.401 156.987 202.714 157.04C203.254 157.133 203.674 157.247 203.974 157.38C204.274 157.513 204.484 157.677 204.604 157.87C204.724 158.063 204.784 158.3 204.784 158.58C204.784 158.907 204.691 159.187 204.504 159.42C204.324 159.647 204.078 159.82 203.764 159.94C203.458 160.06 203.108 160.12 202.714 160.12ZM81.8 173V167.7H82.57L82.6 169.04L82.48 169C82.54 168.707 82.6433 168.457 82.79 168.25C82.9433 168.037 83.13 167.873 83.35 167.76C83.57 167.64 83.8133 167.58 84.08 167.58C84.54 167.58 84.9133 167.707 85.2 167.96C85.4933 168.213 85.6767 168.567 85.75 169.02L85.59 169.01C85.6433 168.703 85.74 168.447 85.88 168.24C86.0267 168.027 86.2133 167.863 86.44 167.75C86.6667 167.637 86.9267 167.58 87.22 167.58C87.6 167.58 87.92 167.66 88.18 167.82C88.44 167.973 88.6367 168.2 88.77 168.5C88.9033 168.8 88.97 169.163 88.97 169.59V173H88.13V169.77C88.13 169.29 88.0367 168.93 87.85 168.69C87.6633 168.443 87.3867 168.32 87.02 168.32C86.7733 168.32 86.5567 168.38 86.37 168.5C86.19 168.62 86.05 168.793 85.95 169.02C85.85 169.24 85.8 169.51 85.8 169.83V173H84.96V169.83C84.96 169.357 84.8767 168.987 84.71 168.72C84.5433 168.453 84.2633 168.32 83.87 168.32C83.6233 168.32 83.4067 168.38 83.22 168.5C83.04 168.62 82.8967 168.793 82.79 169.02C82.69 169.247 82.64 169.517 82.64 169.83V173H81.8ZM92.5223 173.12C92.0223 173.12 91.589 173.007 91.2223 172.78C90.8623 172.553 90.5823 172.233 90.3823 171.82C90.189 171.4 90.0923 170.91 90.0923 170.35C90.0923 169.79 90.189 169.303 90.3823 168.89C90.5823 168.477 90.859 168.157 91.2123 167.93C91.5723 167.697 91.9957 167.58 92.4823 167.58C92.9423 167.58 93.349 167.69 93.7023 167.91C94.0557 168.123 94.329 168.437 94.5223 168.85C94.7223 169.263 94.8223 169.767 94.8223 170.36V170.61H90.9723C91.0057 171.177 91.1557 171.603 91.4223 171.89C91.6957 172.177 92.0623 172.32 92.5223 172.32C92.869 172.32 93.1523 172.24 93.3723 172.08C93.599 171.913 93.7557 171.697 93.8423 171.43L94.7423 171.5C94.6023 171.973 94.3357 172.363 93.9423 172.67C93.5557 172.97 93.0823 173.12 92.5223 173.12ZM90.9723 169.87H93.9023C93.8623 169.357 93.7123 168.98 93.4523 168.74C93.199 168.5 92.8757 168.38 92.4823 168.38C92.0757 168.38 91.739 168.507 91.4723 168.76C91.2123 169.007 91.0457 169.377 90.9723 169.87ZM97.049 173C96.7423 173 96.4923 172.92 96.299 172.76C96.1057 172.6 96.009 172.347 96.009 172V165.9H96.849V171.93C96.849 172.037 96.8757 172.12 96.929 172.18C96.989 172.233 97.0723 172.26 97.179 172.26H97.639V173H97.049ZM98.5969 173V165.9H99.4369V168.87L99.3369 168.85C99.4035 168.557 99.5169 168.317 99.6769 168.13C99.8369 167.943 100.034 167.807 100.267 167.72C100.5 167.627 100.757 167.58 101.037 167.58C101.417 167.58 101.737 167.667 101.997 167.84C102.264 168.007 102.464 168.243 102.597 168.55C102.737 168.85 102.807 169.197 102.807 169.59V173H101.967V169.83C101.967 169.317 101.874 168.937 101.687 168.69C101.507 168.443 101.23 168.32 100.857 168.32C100.43 168.32 100.087 168.45 99.8269 168.71C99.5669 168.97 99.4369 169.347 99.4369 169.84V173H98.5969ZM106.36 173.12C105.874 173.12 105.447 173.007 105.08 172.78C104.714 172.553 104.43 172.233 104.23 171.82C104.03 171.4 103.93 170.91 103.93 170.35C103.93 169.783 104.03 169.293 104.23 168.88C104.43 168.467 104.714 168.147 105.08 167.92C105.447 167.693 105.874 167.58 106.36 167.58C106.847 167.58 107.27 167.693 107.63 167.92C107.997 168.147 108.28 168.467 108.48 168.88C108.68 169.293 108.78 169.783 108.78 170.35C108.78 170.91 108.68 171.4 108.48 171.82C108.28 172.233 107.997 172.553 107.63 172.78C107.27 173.007 106.847 173.12 106.36 173.12ZM106.36 172.32C106.847 172.32 107.224 172.147 107.49 171.8C107.764 171.447 107.9 170.963 107.9 170.35C107.9 169.737 107.764 169.257 107.49 168.91C107.224 168.557 106.847 168.38 106.36 168.38C105.874 168.38 105.494 168.557 105.22 168.91C104.947 169.257 104.81 169.737 104.81 170.35C104.81 170.963 104.947 171.447 105.22 171.8C105.494 172.147 105.874 172.32 106.36 172.32ZM109.925 173V167.7H110.665L110.705 169.04L110.625 169.01C110.692 168.557 110.835 168.227 111.055 168.02C111.282 167.807 111.582 167.7 111.955 167.7H112.475V168.5H111.965C111.698 168.5 111.475 168.55 111.295 168.65C111.122 168.743 110.988 168.887 110.895 169.08C110.808 169.267 110.765 169.507 110.765 169.8V173H109.925ZM115.384 173.12C114.884 173.12 114.45 173.007 114.084 172.78C113.724 172.553 113.444 172.233 113.244 171.82C113.05 171.4 112.954 170.91 112.954 170.35C112.954 169.79 113.05 169.303 113.244 168.89C113.444 168.477 113.72 168.157 114.074 167.93C114.434 167.697 114.857 167.58 115.344 167.58C115.804 167.58 116.21 167.69 116.564 167.91C116.917 168.123 117.19 168.437 117.384 168.85C117.584 169.263 117.684 169.767 117.684 170.36V170.61H113.834C113.867 171.177 114.017 171.603 114.284 171.89C114.557 172.177 114.924 172.32 115.384 172.32C115.73 172.32 116.014 172.24 116.234 172.08C116.46 171.913 116.617 171.697 116.704 171.43L117.604 171.5C117.464 171.973 117.197 172.363 116.804 172.67C116.417 172.97 115.944 173.12 115.384 173.12ZM113.834 169.87H116.764C116.724 169.357 116.574 168.98 116.314 168.74C116.06 168.5 115.737 168.38 115.344 168.38C114.937 168.38 114.6 168.507 114.334 168.76C114.074 169.007 113.907 169.377 113.834 169.87ZM120.751 173.12C120.278 173.12 119.875 173.043 119.541 172.89C119.215 172.737 118.958 172.527 118.771 172.26C118.591 171.987 118.488 171.677 118.461 171.33L119.341 171.27C119.395 171.59 119.531 171.847 119.751 172.04C119.971 172.227 120.305 172.32 120.751 172.32C121.111 172.32 121.398 172.263 121.611 172.15C121.831 172.03 121.941 171.84 121.941 171.58C121.941 171.44 121.908 171.323 121.841 171.23C121.775 171.137 121.645 171.057 121.451 170.99C121.258 170.917 120.971 170.847 120.591 170.78C120.085 170.687 119.685 170.573 119.391 170.44C119.105 170.3 118.898 170.13 118.771 169.93C118.651 169.723 118.591 169.48 118.591 169.2C118.591 168.727 118.765 168.34 119.111 168.04C119.458 167.733 119.951 167.58 120.591 167.58C121.025 167.58 121.388 167.66 121.681 167.82C121.981 167.973 122.215 168.18 122.381 168.44C122.555 168.693 122.668 168.973 122.721 169.28L121.841 169.34C121.801 169.153 121.728 168.99 121.621 168.85C121.515 168.703 121.375 168.59 121.201 168.51C121.028 168.423 120.821 168.38 120.581 168.38C120.201 168.38 119.921 168.453 119.741 168.6C119.561 168.747 119.471 168.933 119.471 169.16C119.471 169.333 119.511 169.477 119.591 169.59C119.678 169.697 119.815 169.787 120.001 169.86C120.188 169.927 120.438 169.987 120.751 170.04C121.291 170.133 121.711 170.247 122.011 170.38C122.311 170.513 122.521 170.677 122.641 170.87C122.761 171.063 122.821 171.3 122.821 171.58C122.821 171.907 122.728 172.187 122.541 172.42C122.361 172.647 122.115 172.82 121.801 172.94C121.495 173.06 121.145 173.12 120.751 173.12ZM126.566 174.5V167.7H127.346L127.366 168.84L127.246 168.78C127.379 168.387 127.599 168.09 127.906 167.89C128.219 167.683 128.579 167.58 128.986 167.58C129.512 167.58 129.942 167.71 130.276 167.97C130.616 168.23 130.866 168.57 131.026 168.99C131.192 169.41 131.276 169.863 131.276 170.35C131.276 170.837 131.192 171.29 131.026 171.71C130.866 172.13 130.616 172.47 130.276 172.73C129.942 172.99 129.512 173.12 128.986 173.12C128.712 173.12 128.456 173.073 128.216 172.98C127.982 172.887 127.782 172.757 127.616 172.59C127.456 172.423 127.346 172.227 127.286 172L127.406 171.86V174.5H126.566ZM128.906 172.32C129.366 172.32 129.729 172.147 129.996 171.8C130.262 171.453 130.396 170.97 130.396 170.35C130.396 169.73 130.262 169.247 129.996 168.9C129.729 168.553 129.366 168.38 128.906 168.38C128.599 168.38 128.332 168.453 128.106 168.6C127.886 168.747 127.712 168.967 127.586 169.26C127.466 169.553 127.406 169.917 127.406 170.35C127.406 170.783 127.466 171.147 127.586 171.44C127.706 171.733 127.879 171.953 128.106 172.1C128.332 172.247 128.599 172.32 128.906 172.32ZM132.415 173V167.7H133.155L133.195 169.04L133.115 169.01C133.182 168.557 133.325 168.227 133.545 168.02C133.772 167.807 134.072 167.7 134.445 167.7H134.965V168.5H134.455C134.189 168.5 133.965 168.55 133.785 168.65C133.612 168.743 133.479 168.887 133.385 169.08C133.299 169.267 133.255 169.507 133.255 169.8V173H132.415ZM137.234 173.12C136.687 173.12 136.251 172.993 135.924 172.74C135.604 172.487 135.444 172.133 135.444 171.68C135.444 171.227 135.577 170.87 135.844 170.61C136.111 170.35 136.534 170.167 137.114 170.06L138.994 169.71C138.994 169.263 138.887 168.93 138.674 168.71C138.467 168.49 138.154 168.38 137.734 168.38C137.367 168.38 137.077 168.463 136.864 168.63C136.651 168.79 136.504 169.023 136.424 169.33L135.534 169.26C135.634 168.76 135.874 168.357 136.254 168.05C136.641 167.737 137.134 167.58 137.734 167.58C138.414 167.58 138.934 167.773 139.294 168.16C139.654 168.54 139.834 169.067 139.834 169.74V171.93C139.834 172.05 139.854 172.137 139.894 172.19C139.941 172.237 140.014 172.26 140.114 172.26H140.324V173C140.297 173.007 140.254 173.01 140.194 173.01C140.134 173.017 140.071 173.02 140.004 173.02C139.764 173.02 139.567 172.983 139.414 172.91C139.267 172.83 139.161 172.71 139.094 172.55C139.027 172.383 138.994 172.167 138.994 171.9L139.094 171.92C139.047 172.147 138.934 172.353 138.754 172.54C138.574 172.72 138.351 172.863 138.084 172.97C137.817 173.07 137.534 173.12 137.234 173.12ZM137.314 172.38C137.667 172.38 137.967 172.313 138.214 172.18C138.467 172.04 138.661 171.853 138.794 171.62C138.927 171.38 138.994 171.113 138.994 170.82V170.44L137.274 170.76C136.914 170.827 136.664 170.93 136.524 171.07C136.391 171.203 136.324 171.38 136.324 171.6C136.324 171.847 136.411 172.04 136.584 172.18C136.764 172.313 137.007 172.38 137.314 172.38ZM142.949 173C142.469 173 142.112 172.89 141.879 172.67C141.652 172.45 141.539 172.107 141.539 171.64V166.46H142.379V171.62C142.379 171.86 142.432 172.027 142.539 172.12C142.646 172.213 142.809 172.26 143.029 172.26H143.789V173H142.949ZM140.759 168.44V167.7H143.789V168.44H140.759ZM146.839 173.12C146.352 173.12 145.925 173.007 145.559 172.78C145.192 172.553 144.909 172.233 144.709 171.82C144.509 171.4 144.409 170.91 144.409 170.35C144.409 169.783 144.509 169.293 144.709 168.88C144.909 168.467 145.192 168.147 145.559 167.92C145.925 167.693 146.352 167.58 146.839 167.58C147.325 167.58 147.749 167.693 148.109 167.92C148.475 168.147 148.759 168.467 148.959 168.88C149.159 169.293 149.259 169.783 149.259 170.35C149.259 170.91 149.159 171.4 148.959 171.82C148.759 172.233 148.475 172.553 148.109 172.78C147.749 173.007 147.325 173.12 146.839 173.12ZM146.839 172.32C147.325 172.32 147.702 172.147 147.969 171.8C148.242 171.447 148.379 170.963 148.379 170.35C148.379 169.737 148.242 169.257 147.969 168.91C147.702 168.557 147.325 168.38 146.839 168.38C146.352 168.38 145.972 168.557 145.699 168.91C145.425 169.257 145.289 169.737 145.289 170.35C145.289 170.963 145.425 171.447 145.699 171.8C145.972 172.147 146.352 172.32 146.839 172.32ZM152.334 173.12C151.86 173.12 151.457 173.043 151.124 172.89C150.797 172.737 150.54 172.527 150.354 172.26C150.174 171.987 150.07 171.677 150.044 171.33L150.924 171.27C150.977 171.59 151.114 171.847 151.334 172.04C151.554 172.227 151.887 172.32 152.334 172.32C152.694 172.32 152.98 172.263 153.194 172.15C153.414 172.03 153.524 171.84 153.524 171.58C153.524 171.44 153.49 171.323 153.424 171.23C153.357 171.137 153.227 171.057 153.034 170.99C152.84 170.917 152.554 170.847 152.174 170.78C151.667 170.687 151.267 170.573 150.974 170.44C150.687 170.3 150.48 170.13 150.354 169.93C150.234 169.723 150.174 169.48 150.174 169.2C150.174 168.727 150.347 168.34 150.694 168.04C151.04 167.733 151.534 167.58 152.174 167.58C152.607 167.58 152.97 167.66 153.264 167.82C153.564 167.973 153.797 168.18 153.964 168.44C154.137 168.693 154.25 168.973 154.304 169.28L153.424 169.34C153.384 169.153 153.31 168.99 153.204 168.85C153.097 168.703 152.957 168.59 152.784 168.51C152.61 168.423 152.404 168.38 152.164 168.38C151.784 168.38 151.504 168.453 151.324 168.6C151.144 168.747 151.054 168.933 151.054 169.16C151.054 169.333 151.094 169.477 151.174 169.59C151.26 169.697 151.397 169.787 151.584 169.86C151.77 169.927 152.02 169.987 152.334 170.04C152.874 170.133 153.294 170.247 153.594 170.38C153.894 170.513 154.104 170.677 154.224 170.87C154.344 171.063 154.404 171.3 154.404 171.58C154.404 171.907 154.31 172.187 154.124 172.42C153.944 172.647 153.697 172.82 153.384 172.94C153.077 173.06 152.727 173.12 152.334 173.12ZM155.288 173V171.87H156.418V173H155.288ZM157.299 173V171.87H158.429V173H157.299ZM159.311 173V171.87H160.441V173H159.311Z" fill="white"/>
<defs>
<linearGradient id="paint0_linear_112_675" x1="380" y1="3.23348e-05" x2="-4.49999" y2="203.5" gradientUnits="userSpaceOnUse">
<stop stop-color="#F4F4F4"/>
<stop offset="1" stop-color="white"/>
</linearGradient>
</defs>
</svg>
