<svg width="24" height="24" viewBox="0 0 24 24" fill="none" xmlns="http://www.w3.org/2000/svg">
<mask id="mask0_186_554" style="mask-type:alpha" maskUnits="userSpaceOnUse" x="0" y="0" width="24" height="24">
<rect width="24" height="24" fill="#D9D9D9"/>
</mask>
<g mask="url(#mask0_186_554)">
<path d="M12 22C10.6333 22 9.34167 21.7375 8.125 21.2125C6.90833 20.6875 5.84583 19.9708 4.9375 19.0625C4.02917 18.1542 3.3125 17.0917 2.7875 15.875C2.2625 14.6583 2 13.3667 2 12C2 10.6167 2.2625 9.32083 2.7875 8.1125C3.3125 6.90417 4.02917 5.84583 4.9375 4.9375C5.84583 4.02917 6.90833 3.3125 8.125 2.7875C9.34167 2.2625 10.6333 2 12 2C12.2833 2 12.5208 2.09583 12.7125 2.2875C12.9042 2.47917 13 2.71667 13 3C13 3.28333 12.9042 3.52083 12.7125 3.7125C12.5208 3.90417 12.2833 4 12 4C9.78333 4 7.89583 4.77917 6.3375 6.3375C4.77917 7.89583 4 9.78333 4 12C4 14.2167 4.77917 16.1042 6.3375 17.6625C7.89583 19.2208 9.78333 20 12 20C14.2167 20 16.1042 19.2208 17.6625 17.6625C19.2208 16.1042 20 14.2167 20 12C20 11.7167 20.0958 11.4792 20.2875 11.2875C20.4792 11.0958 20.7167 11 21 11C21.2833 11 21.5208 11.0958 21.7125 11.2875C21.9042 11.4792 22 11.7167 22 12C22 13.3667 21.7375 14.6583 21.2125 15.875C20.6875 17.0917 19.9708 18.1542 19.0625 19.0625C18.1542 19.9708 17.0958 20.6875 15.8875 21.2125C14.6792 21.7375 13.3833 22 12 22Z" fill="#BEBEBE"/>
</g>
<mask id="mask1_186_554" style="mask-type:alpha" maskUnits="userSpaceOnUse" x="0" y="0" width="24" height="25">
<rect y="24.0024" width="24" height="24" transform="rotate(-90 0 24.0024)" fill="#D9D9D9"/>
</mask>
<g mask="url(#mask1_186_554)">
<path d="M22 12.0024C22 13.3691 21.7375 14.6608 21.2125 15.8774C20.6875 17.0941 19.9708 18.1566 19.0625 19.0649C18.1542 19.9733 17.0917 20.6899 15.875 21.2149C14.6583 21.7399 13.3667 22.0024 12 22.0024C10.6167 22.0024 9.32083 21.7399 8.1125 21.2149C6.90417 20.6899 5.84583 19.9733 4.9375 19.0649C4.02917 18.1566 3.3125 17.0941 2.7875 15.8774C2.2625 14.6608 2 13.3691 2 12.0024C2 11.7191 2.09583 11.4816 2.2875 11.2899C2.47917 11.0983 2.71667 11.0024 3 11.0024C3.28333 11.0024 3.52083 11.0983 3.7125 11.2899C3.90417 11.4816 4 11.7191 4 12.0024C4 14.2191 4.77917 16.1066 6.3375 17.6649C7.89583 19.2233 9.78333 20.0024 12 20.0024C14.2167 20.0024 16.1042 19.2233 17.6625 17.6649C19.2208 16.1066 20 14.2191 20 12.0024C20 9.78577 19.2208 7.89827 17.6625 6.33994C16.1042 4.78161 14.2167 4.00244 12 4.00244C11.7167 4.00244 11.4792 3.90661 11.2875 3.71494C11.0958 3.52327 11 3.28577 11 3.00244C11 2.71911 11.0958 2.48161 11.2875 2.28994C11.4792 2.09827 11.7167 2.00244 12 2.00244C13.3667 2.00244 14.6583 2.26494 15.875 2.78994C17.0917 3.31494 18.1542 4.03161 19.0625 4.93994C19.9708 5.84827 20.6875 6.90661 21.2125 8.11494C21.7375 9.32327 22 10.6191 22 12.0024Z" fill="#BEBEBE"/>
</g>
</svg>
