<svg width="251" height="57" viewBox="0 0 251 57" fill="none" xmlns="http://www.w3.org/2000/svg">
<path d="M105.213 42.22C107.023 42.07 108.183 41.63 108.713 40.91C109.233 40.19 109.493 38.72 109.493 36.5V23.47C109.493 21.38 108.993 19.79 108.003 18.7C107.013 17.61 105.573 17.07 103.673 17.07C102.283 17.07 101.053 17.33 99.9927 17.84C98.9327 18.35 97.8427 19.18 96.7127 20.34C96.8027 21.34 96.8427 22.13 96.8427 22.69V36.51C96.8427 38.71 97.1127 40.17 97.6627 40.9C98.2027 41.63 99.3827 42.07 101.193 42.22V44.21H86.6927V42.22C88.5027 42.07 89.6627 41.63 90.1927 40.91C90.7127 40.19 90.9727 38.72 90.9727 36.5V23.27C90.9727 21.25 90.5127 19.7 89.5827 18.65C88.6527 17.59 87.3127 17.07 85.5527 17.07C84.1327 17.07 82.8727 17.36 81.7627 17.95C80.6527 18.54 79.4827 19.53 78.2627 20.92V37.19C78.2627 39.11 78.5627 40.39 79.1627 41.03C79.7627 41.67 81.0427 42.07 83.0027 42.22V44.21H67.6227V42.22C69.6027 42.07 70.8927 41.67 71.4927 41.03C72.0927 40.39 72.3927 39.11 72.3927 37.19V20.79C72.3927 18.87 72.0827 17.62 71.4827 17.02C70.8727 16.42 69.5927 16.12 67.6327 16.12V14.39L76.3827 12.1H78.2727V18.11H78.3427C79.6027 15.93 81.0027 14.32 82.5427 13.28C84.0827 12.23 85.9127 11.71 88.0427 11.71C90.1727 11.71 91.9527 12.25 93.3627 13.33C94.7827 14.41 95.7727 15.98 96.3327 18.05C97.5927 15.89 98.9927 14.3 100.533 13.26C102.073 12.23 103.903 11.71 106.033 11.71C112.263 11.71 115.373 15.56 115.373 23.27V36.5C115.373 38.72 115.653 40.19 116.223 40.91C116.793 41.63 118.033 42.06 119.943 42.22V44.21H105.213V42.22Z" fill="black"/>
<path d="M135.303 45.16C130.903 45.16 127.413 43.7 124.813 40.78C122.223 37.86 120.923 33.96 120.923 29.09C120.923 23.84 122.203 19.63 124.763 16.46C127.323 13.29 130.833 11.71 135.293 11.71C139.233 11.71 142.263 12.86 144.373 15.16C146.483 17.46 147.523 20.72 147.473 24.94H126.663C126.623 25.29 126.593 25.87 126.593 26.67C126.593 30.28 127.493 33.19 129.303 35.37C131.113 37.56 133.523 38.65 136.553 38.65C138.513 38.65 140.253 38.18 141.783 37.23C143.303 36.28 144.413 34.99 145.113 33.36L147.273 33.98C146.553 37.77 145.233 40.58 143.303 42.41C141.373 44.24 138.703 45.15 135.283 45.15L135.303 45.16ZM127.003 22.07H140.923C140.923 19.72 140.403 17.86 139.373 16.5C138.343 15.14 136.743 14.46 134.583 14.46C132.693 14.46 131.073 15.11 129.753 16.42C128.423 17.73 127.513 19.61 127.013 22.07H127.003Z" fill="black"/>
<path d="M150.633 42.22C152.613 42.07 153.903 41.67 154.503 41.03C155.103 40.39 155.403 39.11 155.403 37.19V20.79C155.403 18.87 155.093 17.62 154.493 17.02C153.883 16.42 152.603 16.12 150.643 16.12V14.39L159.393 12.1H161.283V18.11H161.353C162.463 16.08 163.873 14.51 165.583 13.39C167.293 12.27 169.223 11.71 171.383 11.71C174.383 11.71 176.713 12.64 178.353 14.5C179.993 16.36 180.823 19.09 180.823 22.68V37.18C180.823 39.1 181.103 40.38 181.653 41.02C182.213 41.66 183.423 42.06 185.293 42.21V44.2H170.723V42.21C172.513 42.06 173.653 41.67 174.173 41.03C174.683 40.4 174.943 39.11 174.943 37.18V23.79C174.943 19.3 172.973 17.06 169.033 17.06C166.133 17.06 163.553 18.35 161.293 20.91V37.18C161.293 39.1 161.593 40.38 162.193 41.02C162.793 41.66 164.073 42.06 166.033 42.21V44.2H150.653V42.21L150.633 42.22Z" fill="black"/>
<path d="M197.903 45.16C195.073 45.16 192.803 44.22 191.113 42.35C189.413 40.48 188.563 37.76 188.563 34.18V18.6C188.563 17.27 188.303 16.31 187.793 15.73C187.283 15.14 186.333 14.7 184.933 14.39V12.5H194.443V32.39C194.443 35.16 194.903 37.08 195.833 38.17C196.763 39.26 198.173 39.8 200.063 39.8C202.763 39.8 205.283 38.48 207.613 35.85V18.6C207.613 17.03 207.333 16 206.783 15.5C206.223 15 204.973 14.65 203.013 14.45V12.49H213.503V36.3C213.503 38.35 213.833 39.68 214.503 40.29C215.163 40.9 216.533 42.22 218.603 42.22V44.21L208.573 44.6L207.623 43.88V38.72C206.403 40.96 205.033 42.6 203.503 43.62C201.983 44.64 200.113 45.16 197.913 45.16H197.903Z" fill="black"/>
<path d="M236.463 42.22C238.423 42.15 239.403 41.52 239.403 40.33C239.403 39.52 238.953 38.59 238.063 37.52L233.323 31.71L228.493 37.13C227.203 38.55 226.563 39.68 226.563 40.53C226.563 41.6 227.673 42.16 229.893 42.23V44.22H218.203V42.23C219.093 42.14 219.953 41.73 220.783 41C221.613 40.27 223.043 38.77 225.093 36.51L231.463 29.42L224.013 20.27C222.203 18.01 220.933 16.5 220.203 15.76C219.473 15.02 218.783 14.61 218.133 14.52V12.49H232.243V14.52C230.283 14.59 229.303 15.21 229.303 16.38C229.303 17.19 229.753 18.12 230.643 19.19L235.383 25L240.283 19.58C241.563 18.16 242.213 17.03 242.213 16.18C242.213 15.13 241.103 14.58 238.883 14.51V12.48H250.573V14.51C249.683 14.6 248.813 15.01 247.973 15.73C247.133 16.46 245.703 17.95 243.673 20.19L237.273 27.34L244.683 36.42C246.473 38.64 247.733 40.14 248.493 40.91C249.243 41.68 249.933 42.11 250.563 42.2V44.19H236.453V42.2L236.463 42.22Z" fill="black"/>
<path d="M33.5828 42.7L18.8128 40.11L26.8328 9.14L6.38275 3.87L7.38275 0L31.7127 6.26L23.7728 36.92L34.2728 38.76L33.5828 42.7Z" fill="black"/>
<path d="M8.03275 33.06C6.80275 33.06 5.36275 32.74 3.71275 31.85C-1.90725 28.83 0.44275 19.53 0.73275 18.48L4.59275 19.53L2.66275 19L4.59275 19.52C3.95275 21.87 3.37275 27.12 5.60275 28.32C7.81275 29.51 8.91275 28.94 9.27275 28.75C11.8828 27.4 13.0928 21.91 13.3128 20.09L17.2828 20.56C17.1728 21.49 16.0728 29.72 11.1228 32.3C10.3428 32.7 9.30275 33.05 8.03275 33.05V33.06Z" fill="black"/>
<path d="M41.5827 35.39C40.3527 35.39 38.9127 35.07 37.2627 34.18C31.6427 31.16 34.0027 21.86 34.2827 20.81L38.1427 21.86L36.2127 21.33L38.1427 21.85C37.5027 24.2 36.9227 29.45 39.1527 30.65C41.3627 31.84 42.4627 31.27 42.8227 31.08C45.4327 29.73 46.6427 24.24 46.8627 22.42L50.8327 22.89C50.7227 23.82 49.6227 32.05 44.6727 34.63C43.8927 35.03 42.8527 35.38 41.5827 35.38V35.39Z" fill="black"/>
<path d="M24.4327 56.87C12.4927 56.87 5.54275 49.88 5.44275 49.77L8.31275 46.99C8.83275 47.52 21.3727 59.93 42.5127 47.25L44.5728 50.68C36.8728 55.3 30.0927 56.87 24.4327 56.87Z" fill="black"/>
</svg>
