<svg width="14" height="17" viewBox="0 0 14 17" fill="none" xmlns="http://www.w3.org/2000/svg">
<path d="M5.37191 3.27009L5.85498 4.61161C6.39158 6.1005 7.56405 7.27297 9.05295 7.80958L10.3945 8.29264C10.5154 8.33656 10.5154 8.50801 10.3945 8.55132L9.05295 9.03438C7.56405 9.57099 6.39158 10.7435 5.85498 12.2324L5.37191 13.5739C5.328 13.6948 5.15655 13.6948 5.11324 13.5739L4.63017 12.2324C4.09357 10.7435 2.9211 9.57099 1.4322 9.03438L0.0906874 8.55132C-0.0302291 8.5074 -0.0302291 8.33596 0.0906874 8.29264L1.4322 7.80958C2.9211 7.27297 4.09357 6.1005 4.63017 4.61161L5.11324 3.27009C5.15655 3.14858 5.328 3.14858 5.37191 3.27009Z" fill="white"/>
<path d="M11.4106 0.0464717L11.6554 0.72565C11.9273 1.47942 12.5211 2.07318 13.2748 2.34509L13.954 2.58993C14.0154 2.61219 14.0154 2.69881 13.954 2.72107L13.2748 2.96591C12.5211 3.23783 11.9273 3.83158 11.6554 4.58535L11.4106 5.26453C11.3883 5.32589 11.3017 5.32589 11.2794 5.26453L11.0346 4.58535C10.7627 3.83158 10.1689 3.23783 9.41514 2.96591L8.73596 2.72107C8.6746 2.69881 8.6746 2.61219 8.73596 2.58993L9.41514 2.34509C10.1689 2.07318 10.7627 1.47942 11.0346 0.72565L11.2794 0.0464717C11.3017 -0.0154905 11.3889 -0.0154905 11.4106 0.0464717Z" fill="white"/>
<path d="M11.4106 11.5807L11.6554 12.2599C11.9273 13.0136 12.5211 13.6074 13.2748 13.8793L13.954 14.1241C14.0154 14.1464 14.0154 14.233 13.954 14.2553L13.2748 14.5001C12.5211 14.772 11.9273 15.3658 11.6554 16.1196L11.4106 16.7987C11.3883 16.8601 11.3017 16.8601 11.2794 16.7987L11.0346 16.1196C10.7627 15.3658 10.1689 14.772 9.41514 14.5001L8.73596 14.2553C8.6746 14.233 8.6746 14.1464 8.73596 14.1241L9.41514 13.8793C10.1689 13.6074 10.7627 13.0136 11.0346 12.2599L11.2794 11.5807C11.3017 11.5193 11.3889 11.5193 11.4106 11.5807Z" fill="white"/>
</svg>
