<svg width="397" height="258" viewBox="0 0 397 258" fill="none" xmlns="http://www.w3.org/2000/svg">
<g filter="url(#filter0_d_112_722)">
<g filter="url(#filter1_d_112_722)">
<rect x="78.6001" y="140.6" width="247" height="68" rx="14" fill="white"/>
</g>
<path d="M94.8041 171.6V161.66H98.7661C99.4754 161.66 100.087 161.781 100.6 162.024C101.113 162.267 101.51 162.612 101.79 163.06C102.07 163.508 102.21 164.04 102.21 164.656C102.21 165.104 102.107 165.505 101.902 165.86C101.706 166.215 101.44 166.499 101.104 166.714C100.777 166.919 100.427 167.036 100.054 167.064L99.9841 166.938C100.609 166.938 101.095 167.083 101.44 167.372C101.785 167.652 101.986 168.095 102.042 168.702L102.308 171.6H100.782L100.544 168.898C100.516 168.497 100.381 168.203 100.138 168.016C99.8954 167.82 99.4988 167.722 98.9481 167.722H96.3161V171.6H94.8041ZM96.3161 166.336H98.7941C99.3634 166.336 99.8114 166.196 100.138 165.916C100.474 165.627 100.642 165.221 100.642 164.698C100.642 164.166 100.474 163.76 100.138 163.48C99.8021 163.191 99.3121 163.046 98.6681 163.046H96.3161V166.336ZM107.176 172.86V160.4H108.24V172.86H107.176ZM107.82 171.796C107.045 171.796 106.373 171.656 105.804 171.376C105.234 171.087 104.782 170.69 104.446 170.186C104.119 169.682 103.928 169.099 103.872 168.436L105.398 168.352C105.454 168.8 105.584 169.183 105.79 169.5C105.995 169.808 106.266 170.046 106.602 170.214C106.947 170.373 107.362 170.452 107.848 170.452C108.268 170.452 108.627 170.401 108.926 170.298C109.224 170.186 109.448 170.027 109.598 169.822C109.756 169.617 109.836 169.36 109.836 169.052C109.836 168.772 109.77 168.529 109.64 168.324C109.509 168.109 109.257 167.913 108.884 167.736C108.51 167.549 107.964 167.372 107.246 167.204C106.471 167.017 105.85 166.807 105.384 166.574C104.917 166.341 104.581 166.056 104.376 165.72C104.18 165.375 104.082 164.945 104.082 164.432C104.082 163.881 104.217 163.396 104.488 162.976C104.758 162.547 105.141 162.215 105.636 161.982C106.14 161.739 106.742 161.618 107.442 161.618C108.188 161.618 108.823 161.753 109.346 162.024C109.878 162.295 110.298 162.668 110.606 163.144C110.914 163.62 111.105 164.166 111.18 164.782L109.654 164.866C109.607 164.502 109.49 164.175 109.304 163.886C109.126 163.597 108.879 163.373 108.562 163.214C108.244 163.046 107.862 162.962 107.414 162.962C106.854 162.962 106.41 163.093 106.084 163.354C105.757 163.615 105.594 163.961 105.594 164.39C105.594 164.67 105.659 164.903 105.79 165.09C105.93 165.277 106.168 165.44 106.504 165.58C106.849 165.72 107.339 165.865 107.974 166.014C108.814 166.21 109.481 166.448 109.976 166.728C110.47 166.999 110.825 167.321 111.04 167.694C111.254 168.067 111.362 168.492 111.362 168.968C111.362 169.547 111.212 170.051 110.914 170.48C110.615 170.9 110.2 171.227 109.668 171.46C109.136 171.684 108.52 171.796 107.82 171.796ZM118.162 171.6V164.516H116.062V163.298H116.916C117.289 163.298 117.593 163.251 117.826 163.158C118.059 163.055 118.227 162.887 118.33 162.654C118.433 162.411 118.484 162.08 118.484 161.66H119.674V171.6H118.162ZM121.893 171.6C121.893 170.853 122.005 170.186 122.229 169.598C122.453 169.01 122.836 168.464 123.377 167.96C123.918 167.456 124.665 166.952 125.617 166.448C126.074 166.215 126.438 166 126.709 165.804C126.989 165.599 127.19 165.389 127.311 165.174C127.432 164.959 127.493 164.698 127.493 164.39C127.493 164.073 127.423 163.802 127.283 163.578C127.152 163.345 126.956 163.163 126.695 163.032C126.434 162.892 126.102 162.822 125.701 162.822C125.066 162.822 124.562 162.995 124.189 163.34C123.825 163.676 123.596 164.161 123.503 164.796L121.935 164.698C122.047 163.699 122.425 162.906 123.069 162.318C123.722 161.73 124.6 161.436 125.701 161.436C126.41 161.436 127.012 161.562 127.507 161.814C128.011 162.057 128.394 162.397 128.655 162.836C128.926 163.275 129.061 163.783 129.061 164.362C129.061 164.866 128.977 165.3 128.809 165.664C128.641 166.028 128.361 166.369 127.969 166.686C127.577 166.994 127.045 167.325 126.373 167.68C125.514 168.137 124.866 168.59 124.427 169.038C123.988 169.477 123.755 169.869 123.727 170.214H129.061V171.6H121.893ZM130.473 171.6V169.836H132.279V171.6H130.473ZM138.27 171.6V169.528H133.258V168.24L138.088 161.66H139.782V168.156H141V169.528H139.782V171.6H138.27ZM134.98 168.156H138.27V163.76L134.98 168.156ZM146.052 171.824C145.296 171.824 144.629 171.712 144.05 171.488C143.472 171.264 143.019 170.933 142.692 170.494C142.375 170.055 142.216 169.519 142.216 168.884C142.216 168.156 142.436 167.554 142.874 167.078C143.313 166.602 143.901 166.285 144.638 166.126L144.666 166.406C144.069 166.266 143.588 166.009 143.224 165.636C142.87 165.263 142.692 164.773 142.692 164.166C142.692 163.634 142.828 163.163 143.098 162.752C143.369 162.341 143.752 162.019 144.246 161.786C144.75 161.553 145.352 161.436 146.052 161.436C146.743 161.436 147.34 161.553 147.844 161.786C148.348 162.019 148.731 162.341 148.992 162.752C149.263 163.163 149.398 163.634 149.398 164.166C149.398 164.773 149.221 165.263 148.866 165.636C148.512 166 148.031 166.257 147.424 166.406L147.452 166.126C148.199 166.285 148.792 166.602 149.23 167.078C149.669 167.554 149.888 168.156 149.888 168.884C149.888 169.519 149.725 170.055 149.398 170.494C149.081 170.933 148.633 171.264 148.054 171.488C147.476 171.712 146.808 171.824 146.052 171.824ZM146.052 170.438C146.743 170.438 147.289 170.298 147.69 170.018C148.101 169.729 148.306 169.299 148.306 168.73C148.306 168.189 148.12 167.755 147.746 167.428C147.382 167.101 146.818 166.938 146.052 166.938C145.287 166.938 144.718 167.101 144.344 167.428C143.971 167.755 143.784 168.189 143.784 168.73C143.784 169.299 143.99 169.729 144.4 170.018C144.811 170.298 145.362 170.438 146.052 170.438ZM146.052 165.692C146.622 165.692 147.06 165.575 147.368 165.342C147.686 165.099 147.844 164.731 147.844 164.236C147.844 163.807 147.69 163.461 147.382 163.2C147.084 162.939 146.64 162.808 146.052 162.808C145.464 162.808 145.016 162.939 144.708 163.2C144.4 163.461 144.246 163.807 144.246 164.236C144.246 164.731 144.405 165.099 144.722 165.342C145.04 165.575 145.483 165.692 146.052 165.692ZM155.138 171.824C154.317 171.824 153.603 171.614 152.996 171.194C152.39 170.774 151.923 170.177 151.596 169.402C151.27 168.627 151.106 167.708 151.106 166.644C151.106 165.58 151.27 164.661 151.596 163.886C151.932 163.102 152.399 162.5 152.996 162.08C153.603 161.651 154.317 161.436 155.138 161.436C155.969 161.436 156.683 161.651 157.28 162.08C157.887 162.5 158.354 163.097 158.68 163.872C159.016 164.647 159.184 165.571 159.184 166.644C159.184 167.708 159.021 168.627 158.694 169.402C158.368 170.177 157.901 170.774 157.294 171.194C156.688 171.614 155.969 171.824 155.138 171.824ZM155.138 170.438C155.932 170.438 156.543 170.111 156.972 169.458C157.402 168.805 157.616 167.867 157.616 166.644C157.616 165.823 157.518 165.127 157.322 164.558C157.136 163.989 156.856 163.559 156.482 163.27C156.118 162.971 155.67 162.822 155.138 162.822C154.616 162.822 154.168 162.971 153.794 163.27C153.43 163.559 153.15 163.989 152.954 164.558C152.768 165.127 152.674 165.823 152.674 166.644C152.674 167.867 152.889 168.805 153.318 169.458C153.748 170.111 154.354 170.438 155.138 170.438Z" fill="black"/>
<path d="M94.5201 188.6V181.5H97.2101C97.7101 181.5 98.1401 181.587 98.5001 181.76C98.8601 181.933 99.1368 182.183 99.3301 182.51C99.5301 182.83 99.6301 183.21 99.6301 183.65C99.6301 183.97 99.5534 184.257 99.4001 184.51C99.2534 184.757 99.0634 184.953 98.8301 185.1C98.5968 185.247 98.3534 185.327 98.1001 185.34L98.0401 185.25C98.4734 185.25 98.8134 185.35 99.0601 185.55C99.3134 185.75 99.4601 186.07 99.5001 186.51L99.7001 188.6H98.8301L98.6501 186.6C98.6234 186.307 98.5168 186.09 98.3301 185.95C98.1501 185.81 97.8534 185.74 97.4401 185.74H95.3801V188.6H94.5201ZM95.3801 184.9H97.3201C97.7534 184.9 98.0968 184.79 98.3501 184.57C98.6034 184.35 98.7301 184.037 98.7301 183.63C98.7301 183.217 98.6001 182.9 98.3401 182.68C98.0801 182.453 97.7034 182.34 97.2101 182.34H95.3801V184.9ZM103.072 188.72C102.572 188.72 102.138 188.607 101.772 188.38C101.412 188.153 101.132 187.833 100.932 187.42C100.738 187 100.642 186.51 100.642 185.95C100.642 185.39 100.738 184.903 100.932 184.49C101.132 184.077 101.408 183.757 101.762 183.53C102.122 183.297 102.545 183.18 103.032 183.18C103.492 183.18 103.898 183.29 104.252 183.51C104.605 183.723 104.878 184.037 105.072 184.45C105.272 184.863 105.372 185.367 105.372 185.96V186.21H101.522C101.555 186.777 101.705 187.203 101.972 187.49C102.245 187.777 102.612 187.92 103.072 187.92C103.418 187.92 103.702 187.84 103.922 187.68C104.148 187.513 104.305 187.297 104.392 187.03L105.292 187.1C105.152 187.573 104.885 187.963 104.492 188.27C104.105 188.57 103.632 188.72 103.072 188.72ZM101.522 185.47H104.452C104.412 184.957 104.262 184.58 104.002 184.34C103.748 184.1 103.425 183.98 103.032 183.98C102.625 183.98 102.288 184.107 102.022 184.36C101.762 184.607 101.595 184.977 101.522 185.47ZM108.579 188.72C108.086 188.72 107.656 188.607 107.289 188.38C106.929 188.153 106.649 187.833 106.449 187.42C106.249 187 106.149 186.51 106.149 185.95C106.149 185.39 106.249 184.903 106.449 184.49C106.649 184.077 106.929 183.757 107.289 183.53C107.656 183.297 108.086 183.18 108.579 183.18C108.986 183.18 109.346 183.253 109.659 183.4C109.979 183.54 110.239 183.747 110.439 184.02C110.639 184.293 110.769 184.627 110.829 185.02L109.949 185.08C109.889 184.727 109.736 184.457 109.489 184.27C109.243 184.077 108.939 183.98 108.579 183.98C108.093 183.98 107.713 184.157 107.439 184.51C107.166 184.857 107.029 185.337 107.029 185.95C107.029 186.563 107.166 187.047 107.439 187.4C107.713 187.747 108.093 187.92 108.579 187.92C108.939 187.92 109.243 187.82 109.489 187.62C109.736 187.42 109.889 187.12 109.949 186.72L110.829 186.78C110.769 187.173 110.639 187.517 110.439 187.81C110.239 188.097 109.979 188.32 109.659 188.48C109.346 188.64 108.986 188.72 108.579 188.72ZM113.941 188.72C113.441 188.72 113.007 188.607 112.641 188.38C112.281 188.153 112.001 187.833 111.801 187.42C111.607 187 111.511 186.51 111.511 185.95C111.511 185.39 111.607 184.903 111.801 184.49C112.001 184.077 112.277 183.757 112.631 183.53C112.991 183.297 113.414 183.18 113.901 183.18C114.361 183.18 114.767 183.29 115.121 183.51C115.474 183.723 115.747 184.037 115.941 184.45C116.141 184.863 116.241 185.367 116.241 185.96V186.21H112.391C112.424 186.777 112.574 187.203 112.841 187.49C113.114 187.777 113.481 187.92 113.941 187.92C114.287 187.92 114.571 187.84 114.791 187.68C115.017 187.513 115.174 187.297 115.261 187.03L116.161 187.1C116.021 187.573 115.754 187.963 115.361 188.27C114.974 188.57 114.501 188.72 113.941 188.72ZM112.391 185.47H115.321C115.281 184.957 115.131 184.58 114.871 184.34C114.617 184.1 114.294 183.98 113.901 183.98C113.494 183.98 113.157 184.107 112.891 184.36C112.631 184.607 112.464 184.977 112.391 185.47ZM117.379 188.6V183.3H118.219V188.6H117.379ZM117.359 182.47V181.49H118.239V182.47H117.359ZM121.36 188.6C120.88 188.6 120.523 188.49 120.29 188.27C120.063 188.05 119.95 187.707 119.95 187.24V182.06H120.79V187.22C120.79 187.46 120.843 187.627 120.95 187.72C121.056 187.813 121.22 187.86 121.44 187.86H122.2V188.6H121.36ZM119.17 184.04V183.3H122.2V184.04H119.17ZM124.668 188.72C124.121 188.72 123.685 188.593 123.358 188.34C123.038 188.087 122.878 187.733 122.878 187.28C122.878 186.827 123.011 186.47 123.278 186.21C123.545 185.95 123.968 185.767 124.548 185.66L126.428 185.31C126.428 184.863 126.321 184.53 126.108 184.31C125.901 184.09 125.588 183.98 125.168 183.98C124.801 183.98 124.511 184.063 124.298 184.23C124.085 184.39 123.938 184.623 123.858 184.93L122.968 184.86C123.068 184.36 123.308 183.957 123.688 183.65C124.075 183.337 124.568 183.18 125.168 183.18C125.848 183.18 126.368 183.373 126.728 183.76C127.088 184.14 127.268 184.667 127.268 185.34V187.53C127.268 187.65 127.288 187.737 127.328 187.79C127.375 187.837 127.448 187.86 127.548 187.86H127.758V188.6C127.731 188.607 127.688 188.61 127.628 188.61C127.568 188.617 127.505 188.62 127.438 188.62C127.198 188.62 127.001 188.583 126.848 188.51C126.701 188.43 126.595 188.31 126.528 188.15C126.461 187.983 126.428 187.767 126.428 187.5L126.528 187.52C126.481 187.747 126.368 187.953 126.188 188.14C126.008 188.32 125.785 188.463 125.518 188.57C125.251 188.67 124.968 188.72 124.668 188.72ZM124.748 187.98C125.101 187.98 125.401 187.913 125.648 187.78C125.901 187.64 126.095 187.453 126.228 187.22C126.361 186.98 126.428 186.713 126.428 186.42V186.04L124.708 186.36C124.348 186.427 124.098 186.53 123.958 186.67C123.825 186.803 123.758 186.98 123.758 187.2C123.758 187.447 123.845 187.64 124.018 187.78C124.198 187.913 124.441 187.98 124.748 187.98ZM133.316 188.72C132.816 188.72 132.382 188.607 132.016 188.38C131.656 188.153 131.376 187.833 131.176 187.42C130.982 187 130.886 186.51 130.886 185.95C130.886 185.39 130.982 184.903 131.176 184.49C131.376 184.077 131.652 183.757 132.006 183.53C132.366 183.297 132.789 183.18 133.276 183.18C133.736 183.18 134.142 183.29 134.496 183.51C134.849 183.723 135.122 184.037 135.316 184.45C135.516 184.863 135.616 185.367 135.616 185.96V186.21H131.766C131.799 186.777 131.949 187.203 132.216 187.49C132.489 187.777 132.856 187.92 133.316 187.92C133.662 187.92 133.946 187.84 134.166 187.68C134.392 187.513 134.549 187.297 134.636 187.03L135.536 187.1C135.396 187.573 135.129 187.963 134.736 188.27C134.349 188.57 133.876 188.72 133.316 188.72ZM131.766 185.47H134.696C134.656 184.957 134.506 184.58 134.246 184.34C133.992 184.1 133.669 183.98 133.276 183.98C132.869 183.98 132.532 184.107 132.266 184.36C132.006 184.607 131.839 184.977 131.766 185.47ZM138.684 188.72C138.21 188.72 137.807 188.643 137.474 188.49C137.147 188.337 136.89 188.127 136.704 187.86C136.524 187.587 136.42 187.277 136.394 186.93L137.274 186.87C137.327 187.19 137.464 187.447 137.684 187.64C137.904 187.827 138.237 187.92 138.684 187.92C139.044 187.92 139.33 187.863 139.544 187.75C139.764 187.63 139.874 187.44 139.874 187.18C139.874 187.04 139.84 186.923 139.774 186.83C139.707 186.737 139.577 186.657 139.384 186.59C139.19 186.517 138.904 186.447 138.524 186.38C138.017 186.287 137.617 186.173 137.324 186.04C137.037 185.9 136.83 185.73 136.704 185.53C136.584 185.323 136.524 185.08 136.524 184.8C136.524 184.327 136.697 183.94 137.044 183.64C137.39 183.333 137.884 183.18 138.524 183.18C138.957 183.18 139.32 183.26 139.614 183.42C139.914 183.573 140.147 183.78 140.314 184.04C140.487 184.293 140.6 184.573 140.654 184.88L139.774 184.94C139.734 184.753 139.66 184.59 139.554 184.45C139.447 184.303 139.307 184.19 139.134 184.11C138.96 184.023 138.754 183.98 138.514 183.98C138.134 183.98 137.854 184.053 137.674 184.2C137.494 184.347 137.404 184.533 137.404 184.76C137.404 184.933 137.444 185.077 137.524 185.19C137.61 185.297 137.747 185.387 137.934 185.46C138.12 185.527 138.37 185.587 138.684 185.64C139.224 185.733 139.644 185.847 139.944 185.98C140.244 186.113 140.454 186.277 140.574 186.47C140.694 186.663 140.754 186.9 140.754 187.18C140.754 187.507 140.66 187.787 140.474 188.02C140.294 188.247 140.047 188.42 139.734 188.54C139.427 188.66 139.077 188.72 138.684 188.72ZM141.9 190.1V183.3H142.68L142.7 184.44L142.58 184.38C142.713 183.987 142.933 183.69 143.24 183.49C143.553 183.283 143.913 183.18 144.32 183.18C144.847 183.18 145.277 183.31 145.61 183.57C145.95 183.83 146.2 184.17 146.36 184.59C146.527 185.01 146.61 185.463 146.61 185.95C146.61 186.437 146.527 186.89 146.36 187.31C146.2 187.73 145.95 188.07 145.61 188.33C145.277 188.59 144.847 188.72 144.32 188.72C144.047 188.72 143.79 188.673 143.55 188.58C143.317 188.487 143.117 188.357 142.95 188.19C142.79 188.023 142.68 187.827 142.62 187.6L142.74 187.46V190.1H141.9ZM144.24 187.92C144.7 187.92 145.063 187.747 145.33 187.4C145.597 187.053 145.73 186.57 145.73 185.95C145.73 185.33 145.597 184.847 145.33 184.5C145.063 184.153 144.7 183.98 144.24 183.98C143.933 183.98 143.667 184.053 143.44 184.2C143.22 184.347 143.047 184.567 142.92 184.86C142.8 185.153 142.74 185.517 142.74 185.95C142.74 186.383 142.8 186.747 142.92 187.04C143.04 187.333 143.213 187.553 143.44 187.7C143.667 187.847 143.933 187.92 144.24 187.92ZM149.82 188.72C149.32 188.72 148.886 188.607 148.52 188.38C148.16 188.153 147.88 187.833 147.68 187.42C147.486 187 147.39 186.51 147.39 185.95C147.39 185.39 147.486 184.903 147.68 184.49C147.88 184.077 148.156 183.757 148.51 183.53C148.87 183.297 149.293 183.18 149.78 183.18C150.24 183.18 150.646 183.29 151 183.51C151.353 183.723 151.626 184.037 151.82 184.45C152.02 184.863 152.12 185.367 152.12 185.96V186.21H148.27C148.303 186.777 148.453 187.203 148.72 187.49C148.993 187.777 149.36 187.92 149.82 187.92C150.166 187.92 150.45 187.84 150.67 187.68C150.896 187.513 151.053 187.297 151.14 187.03L152.04 187.1C151.9 187.573 151.633 187.963 151.24 188.27C150.853 188.57 150.38 188.72 149.82 188.72ZM148.27 185.47H151.2C151.16 184.957 151.01 184.58 150.75 184.34C150.496 184.1 150.173 183.98 149.78 183.98C149.373 183.98 149.036 184.107 148.77 184.36C148.51 184.607 148.343 184.977 148.27 185.47ZM153.258 188.6V183.3H153.998L154.038 184.64L153.958 184.61C154.024 184.157 154.168 183.827 154.388 183.62C154.614 183.407 154.914 183.3 155.288 183.3H155.808V184.1H155.298C155.031 184.1 154.808 184.15 154.628 184.25C154.454 184.343 154.321 184.487 154.228 184.68C154.141 184.867 154.098 185.107 154.098 185.4V188.6H153.258ZM158.076 188.72C157.53 188.72 157.093 188.593 156.766 188.34C156.446 188.087 156.286 187.733 156.286 187.28C156.286 186.827 156.42 186.47 156.686 186.21C156.953 185.95 157.376 185.767 157.956 185.66L159.836 185.31C159.836 184.863 159.73 184.53 159.516 184.31C159.31 184.09 158.996 183.98 158.576 183.98C158.21 183.98 157.92 184.063 157.706 184.23C157.493 184.39 157.346 184.623 157.266 184.93L156.376 184.86C156.476 184.36 156.716 183.957 157.096 183.65C157.483 183.337 157.976 183.18 158.576 183.18C159.256 183.18 159.776 183.373 160.136 183.76C160.496 184.14 160.676 184.667 160.676 185.34V187.53C160.676 187.65 160.696 187.737 160.736 187.79C160.783 187.837 160.856 187.86 160.956 187.86H161.166V188.6C161.14 188.607 161.096 188.61 161.036 188.61C160.976 188.617 160.913 188.62 160.846 188.62C160.606 188.62 160.41 188.583 160.256 188.51C160.11 188.43 160.003 188.31 159.936 188.15C159.87 187.983 159.836 187.767 159.836 187.5L159.936 187.52C159.89 187.747 159.776 187.953 159.596 188.14C159.416 188.32 159.193 188.463 158.926 188.57C158.66 188.67 158.376 188.72 158.076 188.72ZM158.156 187.98C158.51 187.98 158.81 187.913 159.056 187.78C159.31 187.64 159.503 187.453 159.636 187.22C159.77 186.98 159.836 186.713 159.836 186.42V186.04L158.116 186.36C157.756 186.427 157.506 186.53 157.366 186.67C157.233 186.803 157.166 186.98 157.166 187.2C157.166 187.447 157.253 187.64 157.426 187.78C157.606 187.913 157.85 187.98 158.156 187.98ZM163.975 188.72C163.515 188.72 163.115 188.607 162.775 188.38C162.442 188.153 162.185 187.833 162.005 187.42C161.825 187.007 161.735 186.517 161.735 185.95C161.735 185.383 161.825 184.893 162.005 184.48C162.185 184.067 162.442 183.747 162.775 183.52C163.115 183.293 163.515 183.18 163.975 183.18C164.329 183.18 164.652 183.257 164.945 183.41C165.239 183.557 165.459 183.767 165.605 184.04V181.5H166.445V188.6H165.685L165.655 187.8C165.509 188.087 165.285 188.313 164.985 188.48C164.685 188.64 164.349 188.72 163.975 188.72ZM164.145 187.92C164.459 187.92 164.722 187.84 164.935 187.68C165.155 187.52 165.322 187.293 165.435 187C165.549 186.7 165.605 186.35 165.605 185.95C165.605 185.537 165.549 185.183 165.435 184.89C165.322 184.597 165.155 184.373 164.935 184.22C164.722 184.06 164.459 183.98 164.145 183.98C163.679 183.98 163.305 184.157 163.025 184.51C162.752 184.857 162.615 185.337 162.615 185.95C162.615 186.557 162.752 187.037 163.025 187.39C163.305 187.743 163.679 187.92 164.145 187.92ZM169.375 188.72C168.828 188.72 168.392 188.593 168.065 188.34C167.745 188.087 167.585 187.733 167.585 187.28C167.585 186.827 167.718 186.47 167.985 186.21C168.252 185.95 168.675 185.767 169.255 185.66L171.135 185.31C171.135 184.863 171.028 184.53 170.815 184.31C170.608 184.09 170.295 183.98 169.875 183.98C169.508 183.98 169.218 184.063 169.005 184.23C168.792 184.39 168.645 184.623 168.565 184.93L167.675 184.86C167.775 184.36 168.015 183.957 168.395 183.65C168.782 183.337 169.275 183.18 169.875 183.18C170.555 183.18 171.075 183.373 171.435 183.76C171.795 184.14 171.975 184.667 171.975 185.34V187.53C171.975 187.65 171.995 187.737 172.035 187.79C172.082 187.837 172.155 187.86 172.255 187.86H172.465V188.6C172.438 188.607 172.395 188.61 172.335 188.61C172.275 188.617 172.212 188.62 172.145 188.62C171.905 188.62 171.708 188.583 171.555 188.51C171.408 188.43 171.302 188.31 171.235 188.15C171.168 187.983 171.135 187.767 171.135 187.5L171.235 187.52C171.188 187.747 171.075 187.953 170.895 188.14C170.715 188.32 170.492 188.463 170.225 188.57C169.958 188.67 169.675 188.72 169.375 188.72ZM169.455 187.98C169.808 187.98 170.108 187.913 170.355 187.78C170.608 187.64 170.802 187.453 170.935 187.22C171.068 186.98 171.135 186.713 171.135 186.42V186.04L169.415 186.36C169.055 186.427 168.805 186.53 168.665 186.67C168.532 186.803 168.465 186.98 168.465 187.2C168.465 187.447 168.552 187.64 168.725 187.78C168.905 187.913 169.148 187.98 169.455 187.98ZM175.953 190.1V183.3H176.733L176.753 184.44L176.633 184.38C176.766 183.987 176.986 183.69 177.293 183.49C177.606 183.283 177.966 183.18 178.373 183.18C178.899 183.18 179.329 183.31 179.663 183.57C180.003 183.83 180.253 184.17 180.413 184.59C180.579 185.01 180.663 185.463 180.663 185.95C180.663 186.437 180.579 186.89 180.413 187.31C180.253 187.73 180.003 188.07 179.663 188.33C179.329 188.59 178.899 188.72 178.373 188.72C178.099 188.72 177.843 188.673 177.603 188.58C177.369 188.487 177.169 188.357 177.003 188.19C176.843 188.023 176.733 187.827 176.673 187.6L176.793 187.46V190.1H175.953ZM178.293 187.92C178.753 187.92 179.116 187.747 179.383 187.4C179.649 187.053 179.783 186.57 179.783 185.95C179.783 185.33 179.649 184.847 179.383 184.5C179.116 184.153 178.753 183.98 178.293 183.98C177.986 183.98 177.719 184.053 177.493 184.2C177.273 184.347 177.099 184.567 176.973 184.86C176.853 185.153 176.793 185.517 176.793 185.95C176.793 186.383 176.853 186.747 176.973 187.04C177.093 187.333 177.266 187.553 177.493 187.7C177.719 187.847 177.986 187.92 178.293 187.92ZM183.369 188.72C182.822 188.72 182.386 188.593 182.059 188.34C181.739 188.087 181.579 187.733 181.579 187.28C181.579 186.827 181.712 186.47 181.979 186.21C182.246 185.95 182.669 185.767 183.249 185.66L185.129 185.31C185.129 184.863 185.022 184.53 184.809 184.31C184.602 184.09 184.289 183.98 183.869 183.98C183.502 183.98 183.212 184.063 182.999 184.23C182.786 184.39 182.639 184.623 182.559 184.93L181.669 184.86C181.769 184.36 182.009 183.957 182.389 183.65C182.776 183.337 183.269 183.18 183.869 183.18C184.549 183.18 185.069 183.373 185.429 183.76C185.789 184.14 185.969 184.667 185.969 185.34V187.53C185.969 187.65 185.989 187.737 186.029 187.79C186.076 187.837 186.149 187.86 186.249 187.86H186.459V188.6C186.432 188.607 186.389 188.61 186.329 188.61C186.269 188.617 186.206 188.62 186.139 188.62C185.899 188.62 185.702 188.583 185.549 188.51C185.402 188.43 185.296 188.31 185.229 188.15C185.162 187.983 185.129 187.767 185.129 187.5L185.229 187.52C185.182 187.747 185.069 187.953 184.889 188.14C184.709 188.32 184.486 188.463 184.219 188.57C183.952 188.67 183.669 188.72 183.369 188.72ZM183.449 187.98C183.802 187.98 184.102 187.913 184.349 187.78C184.602 187.64 184.796 187.453 184.929 187.22C185.062 186.98 185.129 186.713 185.129 186.42V186.04L183.409 186.36C183.049 186.427 182.799 186.53 182.659 186.67C182.526 186.803 182.459 186.98 182.459 187.2C182.459 187.447 182.546 187.64 182.719 187.78C182.899 187.913 183.142 187.98 183.449 187.98ZM187.408 188.6V183.3H188.148L188.188 184.64L188.108 184.61C188.175 184.157 188.318 183.827 188.538 183.62C188.765 183.407 189.065 183.3 189.438 183.3H189.958V184.1H189.448C189.181 184.1 188.958 184.15 188.778 184.25C188.605 184.343 188.471 184.487 188.378 184.68C188.291 184.867 188.248 185.107 188.248 185.4V188.6H187.408ZM192.227 188.72C191.68 188.72 191.243 188.593 190.917 188.34C190.597 188.087 190.437 187.733 190.437 187.28C190.437 186.827 190.57 186.47 190.837 186.21C191.103 185.95 191.527 185.767 192.107 185.66L193.987 185.31C193.987 184.863 193.88 184.53 193.667 184.31C193.46 184.09 193.147 183.98 192.727 183.98C192.36 183.98 192.07 184.063 191.857 184.23C191.643 184.39 191.497 184.623 191.417 184.93L190.527 184.86C190.627 184.36 190.867 183.957 191.247 183.65C191.633 183.337 192.127 183.18 192.727 183.18C193.407 183.18 193.927 183.373 194.287 183.76C194.647 184.14 194.827 184.667 194.827 185.34V187.53C194.827 187.65 194.847 187.737 194.887 187.79C194.933 187.837 195.007 187.86 195.107 187.86H195.317V188.6C195.29 188.607 195.247 188.61 195.187 188.61C195.127 188.617 195.063 188.62 194.997 188.62C194.757 188.62 194.56 188.583 194.407 188.51C194.26 188.43 194.153 188.31 194.087 188.15C194.02 187.983 193.987 187.767 193.987 187.5L194.087 187.52C194.04 187.747 193.927 187.953 193.747 188.14C193.567 188.32 193.343 188.463 193.077 188.57C192.81 188.67 192.527 188.72 192.227 188.72ZM192.307 187.98C192.66 187.98 192.96 187.913 193.207 187.78C193.46 187.64 193.653 187.453 193.787 187.22C193.92 186.98 193.987 186.713 193.987 186.42V186.04L192.267 186.36C191.907 186.427 191.657 186.53 191.517 186.67C191.383 186.803 191.317 186.98 191.317 187.2C191.317 187.447 191.403 187.64 191.577 187.78C191.757 187.913 192 187.98 192.307 187.98ZM200.874 188.72C200.388 188.72 199.961 188.607 199.594 188.38C199.228 188.153 198.944 187.833 198.744 187.42C198.544 187 198.444 186.51 198.444 185.95C198.444 185.383 198.544 184.893 198.744 184.48C198.944 184.067 199.228 183.747 199.594 183.52C199.961 183.293 200.388 183.18 200.874 183.18C201.361 183.18 201.784 183.293 202.144 183.52C202.511 183.747 202.794 184.067 202.994 184.48C203.194 184.893 203.294 185.383 203.294 185.95C203.294 186.51 203.194 187 202.994 187.42C202.794 187.833 202.511 188.153 202.144 188.38C201.784 188.607 201.361 188.72 200.874 188.72ZM200.874 187.92C201.361 187.92 201.738 187.747 202.004 187.4C202.278 187.047 202.414 186.563 202.414 185.95C202.414 185.337 202.278 184.857 202.004 184.51C201.738 184.157 201.361 183.98 200.874 183.98C200.388 183.98 200.008 184.157 199.734 184.51C199.461 184.857 199.324 185.337 199.324 185.95C199.324 186.563 199.461 187.047 199.734 187.4C200.008 187.747 200.388 187.92 200.874 187.92ZM207.557 188.6V182.82C207.557 182.427 207.67 182.11 207.897 181.87C208.123 181.623 208.477 181.5 208.957 181.5H209.797V182.24H209.017C208.81 182.24 208.653 182.297 208.547 182.41C208.447 182.523 208.397 182.68 208.397 182.88V188.6H207.557ZM206.837 184.04V183.3H209.727V184.04H206.837ZM210.827 188.6V183.3H211.667V188.6H210.827ZM210.807 182.47V181.49H211.687V182.47H210.807ZM213.365 188.6V183.3H214.135L214.165 184.65L214.065 184.56C214.132 184.247 214.248 183.99 214.415 183.79C214.582 183.583 214.782 183.43 215.015 183.33C215.255 183.23 215.512 183.18 215.785 183.18C216.192 183.18 216.525 183.27 216.785 183.45C217.052 183.63 217.248 183.873 217.375 184.18C217.508 184.48 217.575 184.817 217.575 185.19V188.6H216.735V185.43C216.735 185.103 216.695 184.83 216.615 184.61C216.542 184.383 216.422 184.213 216.255 184.1C216.088 183.98 215.872 183.92 215.605 183.92C215.198 183.92 214.862 184.05 214.595 184.31C214.335 184.563 214.205 184.937 214.205 185.43V188.6H213.365ZM220.508 188.72C219.961 188.72 219.524 188.593 219.198 188.34C218.878 188.087 218.718 187.733 218.718 187.28C218.718 186.827 218.851 186.47 219.118 186.21C219.384 185.95 219.808 185.767 220.388 185.66L222.268 185.31C222.268 184.863 222.161 184.53 221.948 184.31C221.741 184.09 221.428 183.98 221.008 183.98C220.641 183.98 220.351 184.063 220.138 184.23C219.924 184.39 219.778 184.623 219.698 184.93L218.808 184.86C218.908 184.36 219.148 183.957 219.528 183.65C219.914 183.337 220.408 183.18 221.008 183.18C221.688 183.18 222.208 183.373 222.568 183.76C222.928 184.14 223.108 184.667 223.108 185.34V187.53C223.108 187.65 223.128 187.737 223.168 187.79C223.214 187.837 223.288 187.86 223.388 187.86H223.598V188.6C223.571 188.607 223.528 188.61 223.468 188.61C223.408 188.617 223.344 188.62 223.278 188.62C223.038 188.62 222.841 188.583 222.688 188.51C222.541 188.43 222.434 188.31 222.368 188.15C222.301 187.983 222.268 187.767 222.268 187.5L222.368 187.52C222.321 187.747 222.208 187.953 222.028 188.14C221.848 188.32 221.624 188.463 221.358 188.57C221.091 188.67 220.808 188.72 220.508 188.72ZM220.588 187.98C220.941 187.98 221.241 187.913 221.488 187.78C221.741 187.64 221.934 187.453 222.068 187.22C222.201 186.98 222.268 186.713 222.268 186.42V186.04L220.548 186.36C220.188 186.427 219.938 186.53 219.798 186.67C219.664 186.803 219.598 186.98 219.598 187.2C219.598 187.447 219.684 187.64 219.858 187.78C220.038 187.913 220.281 187.98 220.588 187.98ZM225.528 188.6C225.221 188.6 224.971 188.52 224.778 188.36C224.585 188.2 224.488 187.947 224.488 187.6V181.5H225.328V187.53C225.328 187.637 225.355 187.72 225.408 187.78C225.468 187.833 225.551 187.86 225.658 187.86H226.118V188.6H225.528ZM231.534 188.72C231.074 188.72 230.674 188.607 230.334 188.38C230.001 188.153 229.744 187.833 229.564 187.42C229.384 187.007 229.294 186.517 229.294 185.95C229.294 185.383 229.384 184.893 229.564 184.48C229.744 184.067 230.001 183.747 230.334 183.52C230.674 183.293 231.074 183.18 231.534 183.18C231.887 183.18 232.211 183.257 232.504 183.41C232.797 183.557 233.017 183.767 233.164 184.04V181.5H234.004V188.6H233.244L233.214 187.8C233.067 188.087 232.844 188.313 232.544 188.48C232.244 188.64 231.907 188.72 231.534 188.72ZM231.704 187.92C232.017 187.92 232.281 187.84 232.494 187.68C232.714 187.52 232.881 187.293 232.994 187C233.107 186.7 233.164 186.35 233.164 185.95C233.164 185.537 233.107 185.183 232.994 184.89C232.881 184.597 232.714 184.373 232.494 184.22C232.281 184.06 232.017 183.98 231.704 183.98C231.237 183.98 230.864 184.157 230.584 184.51C230.311 184.857 230.174 185.337 230.174 185.95C230.174 186.557 230.311 187.037 230.584 187.39C230.864 187.743 231.237 187.92 231.704 187.92ZM237.574 188.72C237.087 188.72 236.66 188.607 236.294 188.38C235.927 188.153 235.644 187.833 235.444 187.42C235.244 187 235.144 186.51 235.144 185.95C235.144 185.383 235.244 184.893 235.444 184.48C235.644 184.067 235.927 183.747 236.294 183.52C236.66 183.293 237.087 183.18 237.574 183.18C238.06 183.18 238.484 183.293 238.844 183.52C239.21 183.747 239.494 184.067 239.694 184.48C239.894 184.893 239.994 185.383 239.994 185.95C239.994 186.51 239.894 187 239.694 187.42C239.494 187.833 239.21 188.153 238.844 188.38C238.484 188.607 238.06 188.72 237.574 188.72ZM237.574 187.92C238.06 187.92 238.437 187.747 238.704 187.4C238.977 187.047 239.114 186.563 239.114 185.95C239.114 185.337 238.977 184.857 238.704 184.51C238.437 184.157 238.06 183.98 237.574 183.98C237.087 183.98 236.707 184.157 236.434 184.51C236.16 184.857 236.024 185.337 236.024 185.95C236.024 186.563 236.16 187.047 236.434 187.4C236.707 187.747 237.087 187.92 237.574 187.92ZM245.616 188.72C245.156 188.72 244.756 188.607 244.416 188.38C244.083 188.153 243.826 187.833 243.646 187.42C243.466 187.007 243.376 186.517 243.376 185.95C243.376 185.383 243.466 184.893 243.646 184.48C243.826 184.067 244.083 183.747 244.416 183.52C244.756 183.293 245.156 183.18 245.616 183.18C245.969 183.18 246.293 183.257 246.586 183.41C246.879 183.557 247.099 183.767 247.246 184.04V181.5H248.086V188.6H247.326L247.296 187.8C247.149 188.087 246.926 188.313 246.626 188.48C246.326 188.64 245.989 188.72 245.616 188.72ZM245.786 187.92C246.099 187.92 246.363 187.84 246.576 187.68C246.796 187.52 246.963 187.293 247.076 187C247.189 186.7 247.246 186.35 247.246 185.95C247.246 185.537 247.189 185.183 247.076 184.89C246.963 184.597 246.796 184.373 246.576 184.22C246.363 184.06 246.099 183.98 245.786 183.98C245.319 183.98 244.946 184.157 244.666 184.51C244.393 184.857 244.256 185.337 244.256 185.95C244.256 186.557 244.393 187.037 244.666 187.39C244.946 187.743 245.319 187.92 245.786 187.92ZM249.488 188.6V183.3H250.328V188.6H249.488ZM249.468 182.47V181.49H250.348V182.47H249.468ZM253.262 188.72C252.715 188.72 252.278 188.593 251.952 188.34C251.632 188.087 251.472 187.733 251.472 187.28C251.472 186.827 251.605 186.47 251.872 186.21C252.138 185.95 252.562 185.767 253.142 185.66L255.022 185.31C255.022 184.863 254.915 184.53 254.702 184.31C254.495 184.09 254.182 183.98 253.762 183.98C253.395 183.98 253.105 184.063 252.892 184.23C252.678 184.39 252.532 184.623 252.452 184.93L251.562 184.86C251.662 184.36 251.902 183.957 252.282 183.65C252.668 183.337 253.162 183.18 253.762 183.18C254.442 183.18 254.962 183.373 255.322 183.76C255.682 184.14 255.862 184.667 255.862 185.34V187.53C255.862 187.65 255.882 187.737 255.922 187.79C255.968 187.837 256.042 187.86 256.142 187.86H256.352V188.6C256.325 188.607 256.282 188.61 256.222 188.61C256.162 188.617 256.098 188.62 256.032 188.62C255.792 188.62 255.595 188.583 255.442 188.51C255.295 188.43 255.188 188.31 255.122 188.15C255.055 187.983 255.022 187.767 255.022 187.5L255.122 187.52C255.075 187.747 254.962 187.953 254.782 188.14C254.602 188.32 254.378 188.463 254.112 188.57C253.845 188.67 253.562 188.72 253.262 188.72ZM253.342 187.98C253.695 187.98 253.995 187.913 254.242 187.78C254.495 187.64 254.688 187.453 254.822 187.22C254.955 186.98 255.022 186.713 255.022 186.42V186.04L253.302 186.36C252.942 186.427 252.692 186.53 252.552 186.67C252.418 186.803 252.352 186.98 252.352 187.2C252.352 187.447 252.438 187.64 252.612 187.78C252.792 187.913 253.035 187.98 253.342 187.98Z" fill="#858585"/>
</g>
<g filter="url(#filter2_d_112_722)">
<g filter="url(#filter3_d_112_722)">
<rect x="246.6" y="59.6001" width="119" height="68" rx="14" fill="white"/>
</g>
<path d="M265.002 106.6V102.61L261.516 96.6601H263.252L265.758 101.098L268.278 96.6601H270.014L266.514 102.61V106.6H265.002ZM272.16 106.768C271.385 106.768 270.765 106.591 270.298 106.236C269.841 105.881 269.612 105.382 269.612 104.738C269.612 104.094 269.803 103.595 270.186 103.24C270.578 102.876 271.18 102.615 271.992 102.456L274.554 101.966C274.554 101.387 274.419 100.958 274.148 100.678C273.877 100.389 273.476 100.244 272.944 100.244C272.468 100.244 272.095 100.351 271.824 100.566C271.553 100.771 271.367 101.079 271.264 101.49L269.738 101.392C269.878 100.645 270.223 100.057 270.774 99.6281C271.334 99.1988 272.057 98.9841 272.944 98.9841C273.952 98.9841 274.717 99.2548 275.24 99.7961C275.772 100.328 276.038 101.079 276.038 102.05V104.948C276.038 105.125 276.066 105.251 276.122 105.326C276.187 105.391 276.29 105.424 276.43 105.424H276.696V106.6C276.649 106.609 276.575 106.619 276.472 106.628C276.369 106.637 276.262 106.642 276.15 106.642C275.833 106.642 275.557 106.591 275.324 106.488C275.1 106.385 274.932 106.217 274.82 105.984C274.708 105.741 274.652 105.419 274.652 105.018L274.806 105.088C274.731 105.415 274.568 105.704 274.316 105.956C274.073 106.208 273.761 106.409 273.378 106.558C273.005 106.698 272.599 106.768 272.16 106.768ZM272.398 105.592C272.846 105.592 273.229 105.508 273.546 105.34C273.863 105.163 274.111 104.92 274.288 104.612C274.465 104.304 274.554 103.954 274.554 103.562V103.086L272.37 103.506C271.922 103.59 271.605 103.725 271.418 103.912C271.241 104.089 271.152 104.318 271.152 104.598C271.152 104.915 271.259 105.163 271.474 105.34C271.698 105.508 272.006 105.592 272.398 105.592ZM277.881 106.6V96.6601H279.365V102.834L282.711 99.1521H284.587L281.675 102.288L284.699 106.6H282.991L280.681 103.212L279.365 104.612V106.6H277.881ZM285.715 106.6V99.1521H287.199V106.6H285.715ZM285.687 98.0741V96.5901H287.227V98.0741H285.687ZM292.03 106.768C291.33 106.768 290.737 106.661 290.252 106.446C289.776 106.231 289.407 105.937 289.146 105.564C288.885 105.181 288.735 104.743 288.698 104.248L290.224 104.178C290.299 104.589 290.476 104.915 290.756 105.158C291.036 105.401 291.461 105.522 292.03 105.522C292.497 105.522 292.865 105.447 293.136 105.298C293.407 105.149 293.542 104.911 293.542 104.584C293.542 104.407 293.495 104.257 293.402 104.136C293.318 104.005 293.15 103.898 292.898 103.814C292.646 103.721 292.273 103.632 291.778 103.548C291.041 103.408 290.462 103.245 290.042 103.058C289.622 102.871 289.323 102.633 289.146 102.344C288.969 102.055 288.88 101.705 288.88 101.294C288.88 100.613 289.132 100.057 289.636 99.6281C290.149 99.1988 290.887 98.9841 291.848 98.9841C292.492 98.9841 293.033 99.0961 293.472 99.3201C293.911 99.5348 294.251 99.8288 294.494 100.202C294.746 100.566 294.905 100.977 294.97 101.434L293.444 101.518C293.397 101.257 293.304 101.033 293.164 100.846C293.033 100.65 292.856 100.501 292.632 100.398C292.408 100.286 292.142 100.23 291.834 100.23C291.358 100.23 291.003 100.323 290.77 100.51C290.537 100.697 290.42 100.939 290.42 101.238C290.42 101.462 290.471 101.644 290.574 101.784C290.686 101.924 290.863 102.041 291.106 102.134C291.349 102.218 291.671 102.293 292.072 102.358C292.847 102.489 293.453 102.652 293.892 102.848C294.331 103.035 294.639 103.268 294.816 103.548C294.993 103.828 295.082 104.169 295.082 104.57C295.082 105.037 294.951 105.433 294.69 105.76C294.429 106.087 294.069 106.339 293.612 106.516C293.155 106.684 292.627 106.768 292.03 106.768ZM299.65 106.768C298.94 106.768 298.32 106.609 297.788 106.292C297.256 105.975 296.845 105.522 296.556 104.934C296.266 104.346 296.122 103.66 296.122 102.876C296.122 102.083 296.266 101.397 296.556 100.818C296.845 100.239 297.256 99.7914 297.788 99.4741C298.32 99.1474 298.94 98.9841 299.65 98.9841C300.359 98.9841 300.98 99.1474 301.512 99.4741C302.044 99.7914 302.454 100.239 302.744 100.818C303.033 101.397 303.178 102.083 303.178 102.876C303.178 103.66 303.033 104.346 302.744 104.934C302.454 105.522 302.044 105.975 301.512 106.292C300.98 106.609 300.359 106.768 299.65 106.768ZM299.65 105.48C300.284 105.48 300.774 105.251 301.12 104.794C301.465 104.327 301.638 103.688 301.638 102.876C301.638 102.064 301.465 101.429 301.12 100.972C300.774 100.505 300.284 100.272 299.65 100.272C299.024 100.272 298.534 100.505 298.18 100.972C297.834 101.429 297.662 102.064 297.662 102.876C297.662 103.688 297.834 104.327 298.18 104.794C298.534 105.251 299.024 105.48 299.65 105.48ZM308.387 106.768C307.874 106.768 307.417 106.656 307.015 106.432C306.623 106.199 306.32 105.881 306.105 105.48L306.063 106.6H304.677V96.6601H306.161V100.202C306.357 99.8754 306.647 99.5908 307.029 99.3481C307.421 99.1054 307.874 98.9841 308.387 98.9841C309.031 98.9841 309.591 99.1428 310.067 99.4601C310.543 99.7774 310.907 100.23 311.159 100.818C311.421 101.397 311.551 102.083 311.551 102.876C311.551 103.669 311.421 104.36 311.159 104.948C310.907 105.527 310.543 105.975 310.067 106.292C309.591 106.609 309.031 106.768 308.387 106.768ZM308.149 105.48C308.719 105.48 309.171 105.251 309.507 104.794C309.843 104.327 310.011 103.688 310.011 102.876C310.011 102.064 309.843 101.429 309.507 100.972C309.171 100.505 308.723 100.272 308.163 100.272C307.743 100.272 307.384 100.375 307.085 100.58C306.787 100.785 306.558 101.084 306.399 101.476C306.241 101.859 306.161 102.325 306.161 102.876C306.161 103.408 306.241 103.87 306.399 104.262C306.558 104.654 306.787 104.957 307.085 105.172C307.384 105.377 307.739 105.48 308.149 105.48ZM315.295 106.768C314.52 106.768 313.899 106.591 313.433 106.236C312.975 105.881 312.747 105.382 312.747 104.738C312.747 104.094 312.938 103.595 313.321 103.24C313.713 102.876 314.315 102.615 315.127 102.456L317.689 101.966C317.689 101.387 317.553 100.958 317.283 100.678C317.012 100.389 316.611 100.244 316.079 100.244C315.603 100.244 315.229 100.351 314.959 100.566C314.688 100.771 314.501 101.079 314.399 101.49L312.873 101.392C313.013 100.645 313.358 100.057 313.909 99.6281C314.469 99.1988 315.192 98.9841 316.079 98.9841C317.087 98.9841 317.852 99.2548 318.375 99.7961C318.907 100.328 319.173 101.079 319.173 102.05V104.948C319.173 105.125 319.201 105.251 319.257 105.326C319.322 105.391 319.425 105.424 319.565 105.424H319.831V106.6C319.784 106.609 319.709 106.619 319.607 106.628C319.504 106.637 319.397 106.642 319.285 106.642C318.967 106.642 318.692 106.591 318.459 106.488C318.235 106.385 318.067 106.217 317.955 105.984C317.843 105.741 317.787 105.419 317.787 105.018L317.941 105.088C317.866 105.415 317.703 105.704 317.451 105.956C317.208 106.208 316.895 106.409 316.513 106.558C316.139 106.698 315.733 106.768 315.295 106.768ZM315.533 105.592C315.981 105.592 316.363 105.508 316.681 105.34C316.998 105.163 317.245 104.92 317.423 104.612C317.6 104.304 317.689 103.954 317.689 103.562V103.086L315.505 103.506C315.057 103.59 314.739 103.725 314.553 103.912C314.375 104.089 314.287 104.318 314.287 104.598C314.287 104.915 314.394 105.163 314.609 105.34C314.833 105.508 315.141 105.592 315.533 105.592Z" fill="black"/>
<path d="M262.52 86.6001V79.5001H265.07C265.863 79.5001 266.48 79.6901 266.92 80.0701C267.36 80.4501 267.58 80.9768 267.58 81.6501C267.58 82.1034 267.48 82.4968 267.28 82.8301C267.08 83.1568 266.793 83.4068 266.42 83.5801C266.047 83.7534 265.597 83.8401 265.07 83.8401H263.38V86.6001H262.52ZM263.38 83.0001H265.07C265.603 83.0001 266.003 82.8868 266.27 82.6601C266.543 82.4334 266.68 82.0968 266.68 81.6501C266.68 81.2168 266.543 80.8901 266.27 80.6701C266.003 80.4501 265.603 80.3401 265.07 80.3401H263.38V83.0001ZM268.806 86.6001V81.3001H269.546L269.586 82.6401L269.506 82.6101C269.573 82.1568 269.716 81.8268 269.936 81.6201C270.163 81.4068 270.463 81.3001 270.836 81.3001H271.356V82.1001H270.846C270.58 82.1001 270.356 82.1501 270.176 82.2501C270.003 82.3434 269.87 82.4868 269.776 82.6801C269.69 82.8668 269.646 83.1068 269.646 83.4001V86.6001H268.806ZM273.625 86.7201C273.078 86.7201 272.642 86.5934 272.315 86.3401C271.995 86.0868 271.835 85.7334 271.835 85.2801C271.835 84.8268 271.968 84.4701 272.235 84.2101C272.502 83.9501 272.925 83.7668 273.505 83.6601L275.385 83.3101C275.385 82.8634 275.278 82.5301 275.065 82.3101C274.858 82.0901 274.545 81.9801 274.125 81.9801C273.758 81.9801 273.468 82.0634 273.255 82.2301C273.042 82.3901 272.895 82.6234 272.815 82.9301L271.925 82.8601C272.025 82.3601 272.265 81.9568 272.645 81.6501C273.032 81.3368 273.525 81.1801 274.125 81.1801C274.805 81.1801 275.325 81.3734 275.685 81.7601C276.045 82.1401 276.225 82.6668 276.225 83.3401V85.5301C276.225 85.6501 276.245 85.7368 276.285 85.7901C276.332 85.8368 276.405 85.8601 276.505 85.8601H276.715V86.6001C276.688 86.6068 276.645 86.6101 276.585 86.6101C276.525 86.6168 276.462 86.6201 276.395 86.6201C276.155 86.6201 275.958 86.5834 275.805 86.5101C275.658 86.4301 275.552 86.3101 275.485 86.1501C275.418 85.9834 275.385 85.7668 275.385 85.5001L275.485 85.5201C275.438 85.7468 275.325 85.9534 275.145 86.1401C274.965 86.3201 274.742 86.4634 274.475 86.5701C274.208 86.6701 273.925 86.7201 273.625 86.7201ZM273.705 85.9801C274.058 85.9801 274.358 85.9134 274.605 85.7801C274.858 85.6401 275.052 85.4534 275.185 85.2201C275.318 84.9801 275.385 84.7134 275.385 84.4201V84.0401L273.665 84.3601C273.305 84.4268 273.055 84.5301 272.915 84.6701C272.782 84.8034 272.715 84.9801 272.715 85.2001C272.715 85.4468 272.802 85.6401 272.975 85.7801C273.155 85.9134 273.398 85.9801 273.705 85.9801ZM279.34 86.6001C278.86 86.6001 278.503 86.4901 278.27 86.2701C278.043 86.0501 277.93 85.7068 277.93 85.2401V80.0601H278.77V85.2201C278.77 85.4601 278.823 85.6268 278.93 85.7201C279.037 85.8134 279.2 85.8601 279.42 85.8601H280.18V86.6001H279.34ZM277.15 82.0401V81.3001H280.18V82.0401H277.15ZM283.23 86.7201C282.743 86.7201 282.317 86.6068 281.95 86.3801C281.583 86.1534 281.3 85.8334 281.1 85.4201C280.9 85.0001 280.8 84.5101 280.8 83.9501C280.8 83.3834 280.9 82.8934 281.1 82.4801C281.3 82.0668 281.583 81.7468 281.95 81.5201C282.317 81.2934 282.743 81.1801 283.23 81.1801C283.717 81.1801 284.14 81.2934 284.5 81.5201C284.867 81.7468 285.15 82.0668 285.35 82.4801C285.55 82.8934 285.65 83.3834 285.65 83.9501C285.65 84.5101 285.55 85.0001 285.35 85.4201C285.15 85.8334 284.867 86.1534 284.5 86.3801C284.14 86.6068 283.717 86.7201 283.23 86.7201ZM283.23 85.9201C283.717 85.9201 284.093 85.7468 284.36 85.4001C284.633 85.0468 284.77 84.5634 284.77 83.9501C284.77 83.3368 284.633 82.8568 284.36 82.5101C284.093 82.1568 283.717 81.9801 283.23 81.9801C282.743 81.9801 282.363 82.1568 282.09 82.5101C281.817 82.8568 281.68 83.3368 281.68 83.9501C281.68 84.5634 281.817 85.0468 282.09 85.4001C282.363 85.7468 282.743 85.9201 283.23 85.9201ZM289.392 86.6001V81.3001H290.162L290.192 82.6401L290.072 82.6001C290.132 82.3068 290.236 82.0568 290.382 81.8501C290.536 81.6368 290.722 81.4734 290.942 81.3601C291.162 81.2401 291.406 81.1801 291.672 81.1801C292.132 81.1801 292.506 81.3068 292.792 81.5601C293.086 81.8134 293.269 82.1668 293.342 82.6201L293.182 82.6101C293.236 82.3034 293.332 82.0468 293.472 81.8401C293.619 81.6268 293.806 81.4634 294.032 81.3501C294.259 81.2368 294.519 81.1801 294.812 81.1801C295.192 81.1801 295.512 81.2601 295.772 81.4201C296.032 81.5734 296.229 81.8001 296.362 82.1001C296.496 82.4001 296.562 82.7634 296.562 83.1901V86.6001H295.722V83.3701C295.722 82.8901 295.629 82.5301 295.442 82.2901C295.256 82.0434 294.979 81.9201 294.612 81.9201C294.366 81.9201 294.149 81.9801 293.962 82.1001C293.782 82.2201 293.642 82.3934 293.542 82.6201C293.442 82.8401 293.392 83.1101 293.392 83.4301V86.6001H292.552V83.4301C292.552 82.9568 292.469 82.5868 292.302 82.3201C292.136 82.0534 291.856 81.9201 291.462 81.9201C291.216 81.9201 290.999 81.9801 290.812 82.1001C290.632 82.2201 290.489 82.3934 290.382 82.6201C290.282 82.8468 290.232 83.1168 290.232 83.4301V86.6001H289.392ZM299.494 86.7201C298.947 86.7201 298.511 86.5934 298.184 86.3401C297.864 86.0868 297.704 85.7334 297.704 85.2801C297.704 84.8268 297.837 84.4701 298.104 84.2101C298.371 83.9501 298.794 83.7668 299.374 83.6601L301.254 83.3101C301.254 82.8634 301.147 82.5301 300.934 82.3101C300.727 82.0901 300.414 81.9801 299.994 81.9801C299.627 81.9801 299.337 82.0634 299.124 82.2301C298.911 82.3901 298.764 82.6234 298.684 82.9301L297.794 82.8601C297.894 82.3601 298.134 81.9568 298.514 81.6501C298.901 81.3368 299.394 81.1801 299.994 81.1801C300.674 81.1801 301.194 81.3734 301.554 81.7601C301.914 82.1401 302.094 82.6668 302.094 83.3401V85.5301C302.094 85.6501 302.114 85.7368 302.154 85.7901C302.201 85.8368 302.274 85.8601 302.374 85.8601H302.584V86.6001C302.557 86.6068 302.514 86.6101 302.454 86.6101C302.394 86.6168 302.331 86.6201 302.264 86.6201C302.024 86.6201 301.827 86.5834 301.674 86.5101C301.527 86.4301 301.421 86.3101 301.354 86.1501C301.287 85.9834 301.254 85.7668 301.254 85.5001L301.354 85.5201C301.307 85.7468 301.194 85.9534 301.014 86.1401C300.834 86.3201 300.611 86.4634 300.344 86.5701C300.077 86.6701 299.794 86.7201 299.494 86.7201ZM299.574 85.9801C299.927 85.9801 300.227 85.9134 300.474 85.7801C300.727 85.6401 300.921 85.4534 301.054 85.2201C301.187 84.9801 301.254 84.7134 301.254 84.4201V84.0401L299.534 84.3601C299.174 84.4268 298.924 84.5301 298.784 84.6701C298.651 84.8034 298.584 84.9801 298.584 85.2001C298.584 85.4468 298.671 85.6401 298.844 85.7801C299.024 85.9134 299.267 85.9801 299.574 85.9801ZM303.494 86.6001V81.3001H304.334V86.6001H303.494ZM303.474 80.4701V79.4901H304.354V80.4701H303.474ZM307.768 86.7201C307.294 86.7201 306.891 86.6434 306.558 86.4901C306.231 86.3368 305.974 86.1268 305.788 85.8601C305.608 85.5868 305.504 85.2768 305.478 84.9301L306.358 84.8701C306.411 85.1901 306.548 85.4468 306.768 85.6401C306.988 85.8268 307.321 85.9201 307.768 85.9201C308.128 85.9201 308.414 85.8634 308.628 85.7501C308.848 85.6301 308.958 85.4401 308.958 85.1801C308.958 85.0401 308.924 84.9234 308.858 84.8301C308.791 84.7368 308.661 84.6568 308.468 84.5901C308.274 84.5168 307.988 84.4468 307.608 84.3801C307.101 84.2868 306.701 84.1734 306.408 84.0401C306.121 83.9001 305.914 83.7301 305.788 83.5301C305.668 83.3234 305.608 83.0801 305.608 82.8001C305.608 82.3268 305.781 81.9401 306.128 81.6401C306.474 81.3334 306.968 81.1801 307.608 81.1801C308.041 81.1801 308.404 81.2601 308.698 81.4201C308.998 81.5734 309.231 81.7801 309.398 82.0401C309.571 82.2934 309.684 82.5734 309.738 82.8801L308.858 82.9401C308.818 82.7534 308.744 82.5901 308.638 82.4501C308.531 82.3034 308.391 82.1901 308.218 82.1101C308.044 82.0234 307.838 81.9801 307.598 81.9801C307.218 81.9801 306.938 82.0534 306.758 82.2001C306.578 82.3468 306.488 82.5334 306.488 82.7601C306.488 82.9334 306.528 83.0768 306.608 83.1901C306.694 83.2968 306.831 83.3868 307.018 83.4601C307.204 83.5268 307.454 83.5868 307.768 83.6401C308.308 83.7334 308.728 83.8468 309.028 83.9801C309.328 84.1134 309.538 84.2768 309.658 84.4701C309.778 84.6634 309.838 84.9001 309.838 85.1801C309.838 85.5068 309.744 85.7868 309.558 86.0201C309.378 86.2468 309.131 86.4201 308.818 86.5401C308.511 86.6601 308.161 86.7201 307.768 86.7201ZM314.932 86.6001L313.002 81.3001H313.922L315.462 85.7401L317.002 81.3001H317.922L315.992 86.6001H314.932ZM320.749 86.7201C320.249 86.7201 319.816 86.6068 319.449 86.3801C319.089 86.1534 318.809 85.8334 318.609 85.4201C318.416 85.0001 318.319 84.5101 318.319 83.9501C318.319 83.3901 318.416 82.9034 318.609 82.4901C318.809 82.0768 319.086 81.7568 319.439 81.5301C319.799 81.2968 320.223 81.1801 320.709 81.1801C321.169 81.1801 321.576 81.2901 321.929 81.5101C322.283 81.7234 322.556 82.0368 322.749 82.4501C322.949 82.8634 323.049 83.3668 323.049 83.9601V84.2101H319.199C319.233 84.7768 319.383 85.2034 319.649 85.4901C319.923 85.7768 320.289 85.9201 320.749 85.9201C321.096 85.9201 321.379 85.8401 321.599 85.6801C321.826 85.5134 321.983 85.2968 322.069 85.0301L322.969 85.1001C322.829 85.5734 322.563 85.9634 322.169 86.2701C321.783 86.5701 321.309 86.7201 320.749 86.7201ZM319.199 83.4701H322.129C322.089 82.9568 321.939 82.5801 321.679 82.3401C321.426 82.1001 321.103 81.9801 320.709 81.9801C320.303 81.9801 319.966 82.1068 319.699 82.3601C319.439 82.6068 319.273 82.9768 319.199 83.4701ZM324.187 86.6001V81.3001H324.957L324.987 82.6501L324.887 82.5601C324.954 82.2468 325.071 81.9901 325.237 81.7901C325.404 81.5834 325.604 81.4301 325.837 81.3301C326.077 81.2301 326.334 81.1801 326.607 81.1801C327.014 81.1801 327.347 81.2701 327.607 81.4501C327.874 81.6301 328.071 81.8734 328.197 82.1801C328.331 82.4801 328.397 82.8168 328.397 83.1901V86.6001H327.557V83.4301C327.557 83.1034 327.517 82.8301 327.437 82.6101C327.364 82.3834 327.244 82.2134 327.077 82.1001C326.911 81.9801 326.694 81.9201 326.427 81.9201C326.021 81.9201 325.684 82.0501 325.417 82.3101C325.157 82.5634 325.027 82.9368 325.027 83.4301V86.6001H324.187ZM331.761 86.7201C331.301 86.7201 330.901 86.6068 330.561 86.3801C330.227 86.1534 329.971 85.8334 329.791 85.4201C329.611 85.0068 329.521 84.5168 329.521 83.9501C329.521 83.3834 329.611 82.8934 329.791 82.4801C329.971 82.0668 330.227 81.7468 330.561 81.5201C330.901 81.2934 331.301 81.1801 331.761 81.1801C332.114 81.1801 332.437 81.2568 332.731 81.4101C333.024 81.5568 333.244 81.7668 333.391 82.0401V79.5001H334.231V86.6001H333.471L333.441 85.8001C333.294 86.0868 333.071 86.3134 332.771 86.4801C332.471 86.6401 332.134 86.7201 331.761 86.7201ZM331.931 85.9201C332.244 85.9201 332.507 85.8401 332.721 85.6801C332.941 85.5201 333.107 85.2934 333.221 85.0001C333.334 84.7001 333.391 84.3501 333.391 83.9501C333.391 83.5368 333.334 83.1834 333.221 82.8901C333.107 82.5968 332.941 82.3734 332.721 82.2201C332.507 82.0601 332.244 81.9801 331.931 81.9801C331.464 81.9801 331.091 82.1568 330.811 82.5101C330.537 82.8568 330.401 83.3368 330.401 83.9501C330.401 84.5568 330.537 85.0368 330.811 85.3901C331.091 85.7434 331.464 85.9201 331.931 85.9201ZM335.633 86.6001V81.3001H336.473V86.6001H335.633ZM335.613 80.4701V79.4901H336.493V80.4701H335.613ZM339.856 86.7201C339.396 86.7201 338.996 86.6068 338.656 86.3801C338.323 86.1534 338.066 85.8334 337.886 85.4201C337.706 85.0068 337.616 84.5168 337.616 83.9501C337.616 83.3834 337.706 82.8934 337.886 82.4801C338.066 82.0668 338.323 81.7468 338.656 81.5201C338.996 81.2934 339.396 81.1801 339.856 81.1801C340.21 81.1801 340.533 81.2568 340.826 81.4101C341.12 81.5568 341.34 81.7668 341.486 82.0401V79.5001H342.326V86.6001H341.566L341.536 85.8001C341.39 86.0868 341.166 86.3134 340.866 86.4801C340.566 86.6401 340.23 86.7201 339.856 86.7201ZM340.026 85.9201C340.34 85.9201 340.603 85.8401 340.816 85.6801C341.036 85.5201 341.203 85.2934 341.316 85.0001C341.43 84.7001 341.486 84.3501 341.486 83.9501C341.486 83.5368 341.43 83.1834 341.316 82.8901C341.203 82.5968 341.036 82.3734 340.816 82.2201C340.603 82.0601 340.34 81.9801 340.026 81.9801C339.56 81.9801 339.186 82.1568 338.906 82.5101C338.633 82.8568 338.496 83.3368 338.496 83.9501C338.496 84.5568 338.633 85.0368 338.906 85.3901C339.186 85.7434 339.56 85.9201 340.026 85.9201ZM345.896 86.7201C345.409 86.7201 344.983 86.6068 344.616 86.3801C344.249 86.1534 343.966 85.8334 343.766 85.4201C343.566 85.0001 343.466 84.5101 343.466 83.9501C343.466 83.3834 343.566 82.8934 343.766 82.4801C343.966 82.0668 344.249 81.7468 344.616 81.5201C344.983 81.2934 345.409 81.1801 345.896 81.1801C346.383 81.1801 346.806 81.2934 347.166 81.5201C347.533 81.7468 347.816 82.0668 348.016 82.4801C348.216 82.8934 348.316 83.3834 348.316 83.9501C348.316 84.5101 348.216 85.0001 348.016 85.4201C347.816 85.8334 347.533 86.1534 347.166 86.3801C346.806 86.6068 346.383 86.7201 345.896 86.7201ZM345.896 85.9201C346.383 85.9201 346.759 85.7468 347.026 85.4001C347.299 85.0468 347.436 84.5634 347.436 83.9501C347.436 83.3368 347.299 82.8568 347.026 82.5101C346.759 82.1568 346.383 81.9801 345.896 81.9801C345.409 81.9801 345.029 82.1568 344.756 82.5101C344.483 82.8568 344.346 83.3368 344.346 83.9501C344.346 84.5634 344.483 85.0468 344.756 85.4001C345.029 85.7468 345.409 85.9201 345.896 85.9201Z" fill="#858585"/>
</g>
<g filter="url(#filter4_d_112_722)">
<g filter="url(#filter5_d_112_722)">
<rect x="120.6" y="59.6001" width="115" height="68" rx="14" fill="white"/>
</g>
<path d="M139.926 106.824C138.778 106.824 137.891 106.558 137.266 106.026C136.65 105.494 136.319 104.794 136.272 103.926L137.826 103.842C137.882 104.411 138.097 104.822 138.47 105.074C138.853 105.317 139.338 105.438 139.926 105.438C140.318 105.438 140.677 105.387 141.004 105.284C141.34 105.172 141.606 104.995 141.802 104.752C142.007 104.5 142.11 104.173 142.11 103.772C142.11 103.175 141.909 102.736 141.508 102.456C141.107 102.167 140.575 102.022 139.912 102.022H139.086V100.706H139.912C140.444 100.706 140.887 100.599 141.242 100.384C141.597 100.169 141.774 99.7961 141.774 99.2641C141.774 98.7974 141.625 98.4428 141.326 98.2001C141.027 97.9481 140.57 97.8221 139.954 97.8221C139.357 97.8221 138.904 97.9388 138.596 98.1721C138.288 98.4054 138.106 98.7228 138.05 99.1241L136.496 99.0401C136.589 98.2561 136.93 97.6261 137.518 97.1501C138.115 96.6741 138.927 96.4361 139.954 96.4361C140.663 96.4361 141.27 96.5481 141.774 96.7721C142.278 96.9868 142.665 97.2994 142.936 97.7101C143.207 98.1208 143.342 98.6014 143.342 99.1521C143.342 99.7588 143.146 100.253 142.754 100.636C142.371 101.019 141.807 101.28 141.06 101.42V101.168C141.872 101.271 142.511 101.56 142.978 102.036C143.445 102.503 143.678 103.1 143.678 103.828C143.678 104.453 143.519 104.995 143.202 105.452C142.885 105.9 142.446 106.241 141.886 106.474C141.326 106.707 140.673 106.824 139.926 106.824ZM145.176 106.6C145.176 105.853 145.288 105.186 145.512 104.598C145.736 104.01 146.119 103.464 146.66 102.96C147.201 102.456 147.948 101.952 148.9 101.448C149.357 101.215 149.721 101 149.992 100.804C150.272 100.599 150.473 100.389 150.594 100.174C150.715 99.9594 150.776 99.6981 150.776 99.3901C150.776 99.0728 150.706 98.8021 150.566 98.5781C150.435 98.3448 150.239 98.1628 149.978 98.0321C149.717 97.8921 149.385 97.8221 148.984 97.8221C148.349 97.8221 147.845 97.9948 147.472 98.3401C147.108 98.6761 146.879 99.1614 146.786 99.7961L145.218 99.6981C145.33 98.6994 145.708 97.9061 146.352 97.3181C147.005 96.7301 147.883 96.4361 148.984 96.4361C149.693 96.4361 150.295 96.5621 150.79 96.8141C151.294 97.0568 151.677 97.3974 151.938 97.8361C152.209 98.2748 152.344 98.7834 152.344 99.3621C152.344 99.8661 152.26 100.3 152.092 100.664C151.924 101.028 151.644 101.369 151.252 101.686C150.86 101.994 150.328 102.325 149.656 102.68C148.797 103.137 148.149 103.59 147.71 104.038C147.271 104.477 147.038 104.869 147.01 105.214H152.344V106.6H145.176ZM158.231 106.6V104.528H153.219V103.24L158.049 96.6601H159.743V103.156H160.961V104.528H159.743V106.6H158.231ZM154.941 103.156H158.231V98.7601L154.941 103.156Z" fill="black"/>
<path d="M136.52 86.6001V79.5001H139.07C139.863 79.5001 140.48 79.6901 140.92 80.0701C141.36 80.4501 141.58 80.9768 141.58 81.6501C141.58 82.1034 141.48 82.4968 141.28 82.8301C141.08 83.1568 140.793 83.4068 140.42 83.5801C140.047 83.7534 139.597 83.8401 139.07 83.8401H137.38V86.6001H136.52ZM137.38 83.0001H139.07C139.603 83.0001 140.003 82.8868 140.27 82.6601C140.543 82.4334 140.68 82.0968 140.68 81.6501C140.68 81.2168 140.543 80.8901 140.27 80.6701C140.003 80.4501 139.603 80.3401 139.07 80.3401H137.38V83.0001ZM144.691 86.7201C144.191 86.7201 143.757 86.6068 143.391 86.3801C143.031 86.1534 142.751 85.8334 142.551 85.4201C142.357 85.0001 142.261 84.5101 142.261 83.9501C142.261 83.3901 142.357 82.9034 142.551 82.4901C142.751 82.0768 143.027 81.7568 143.381 81.5301C143.741 81.2968 144.164 81.1801 144.651 81.1801C145.111 81.1801 145.517 81.2901 145.871 81.5101C146.224 81.7234 146.497 82.0368 146.691 82.4501C146.891 82.8634 146.991 83.3668 146.991 83.9601V84.2101H143.141C143.174 84.7768 143.324 85.2034 143.591 85.4901C143.864 85.7768 144.231 85.9201 144.691 85.9201C145.037 85.9201 145.321 85.8401 145.541 85.6801C145.767 85.5134 145.924 85.2968 146.011 85.0301L146.911 85.1001C146.771 85.5734 146.504 85.9634 146.111 86.2701C145.724 86.5701 145.251 86.7201 144.691 86.7201ZM143.141 83.4701H146.071C146.031 82.9568 145.881 82.5801 145.621 82.3401C145.367 82.1001 145.044 81.9801 144.651 81.9801C144.244 81.9801 143.907 82.1068 143.641 82.3601C143.381 82.6068 143.214 82.9768 143.141 83.4701ZM150.009 86.7201C149.549 86.7201 149.149 86.6068 148.809 86.3801C148.475 86.1534 148.219 85.8334 148.039 85.4201C147.859 85.0068 147.769 84.5168 147.769 83.9501C147.769 83.3834 147.859 82.8934 148.039 82.4801C148.219 82.0668 148.475 81.7468 148.809 81.5201C149.149 81.2934 149.549 81.1801 150.009 81.1801C150.362 81.1801 150.685 81.2568 150.979 81.4101C151.272 81.5568 151.492 81.7668 151.639 82.0401V79.5001H152.479V86.6001H151.719L151.689 85.8001C151.542 86.0868 151.319 86.3134 151.019 86.4801C150.719 86.6401 150.382 86.7201 150.009 86.7201ZM150.179 85.9201C150.492 85.9201 150.755 85.8401 150.969 85.6801C151.189 85.5201 151.355 85.2934 151.469 85.0001C151.582 84.7001 151.639 84.3501 151.639 83.9501C151.639 83.5368 151.582 83.1834 151.469 82.8901C151.355 82.5968 151.189 82.3734 150.969 82.2201C150.755 82.0601 150.492 81.9801 150.179 81.9801C149.712 81.9801 149.339 82.1568 149.059 82.5101C148.785 82.8568 148.649 83.3368 148.649 83.9501C148.649 84.5568 148.785 85.0368 149.059 85.3901C149.339 85.7434 149.712 85.9201 150.179 85.9201ZM153.881 86.6001V81.3001H154.721V86.6001H153.881ZM153.861 80.4701V79.4901H154.741V80.4701H153.861ZM158.104 86.7201C157.644 86.7201 157.244 86.6068 156.904 86.3801C156.571 86.1534 156.314 85.8334 156.134 85.4201C155.954 85.0068 155.864 84.5168 155.864 83.9501C155.864 83.3834 155.954 82.8934 156.134 82.4801C156.314 82.0668 156.571 81.7468 156.904 81.5201C157.244 81.2934 157.644 81.1801 158.104 81.1801C158.458 81.1801 158.781 81.2568 159.074 81.4101C159.368 81.5568 159.588 81.7668 159.734 82.0401V79.5001H160.574V86.6001H159.814L159.784 85.8001C159.638 86.0868 159.414 86.3134 159.114 86.4801C158.814 86.6401 158.478 86.7201 158.104 86.7201ZM158.274 85.9201C158.588 85.9201 158.851 85.8401 159.064 85.6801C159.284 85.5201 159.451 85.2934 159.564 85.0001C159.678 84.7001 159.734 84.3501 159.734 83.9501C159.734 83.5368 159.678 83.1834 159.564 82.8901C159.451 82.5968 159.284 82.3734 159.064 82.2201C158.851 82.0601 158.588 81.9801 158.274 81.9801C157.808 81.9801 157.434 82.1568 157.154 82.5101C156.881 82.8568 156.744 83.3368 156.744 83.9501C156.744 84.5568 156.881 85.0368 157.154 85.3901C157.434 85.7434 157.808 85.9201 158.274 85.9201ZM164.144 86.7201C163.657 86.7201 163.231 86.6068 162.864 86.3801C162.497 86.1534 162.214 85.8334 162.014 85.4201C161.814 85.0001 161.714 84.5101 161.714 83.9501C161.714 83.3834 161.814 82.8934 162.014 82.4801C162.214 82.0668 162.497 81.7468 162.864 81.5201C163.231 81.2934 163.657 81.1801 164.144 81.1801C164.631 81.1801 165.054 81.2934 165.414 81.5201C165.781 81.7468 166.064 82.0668 166.264 82.4801C166.464 82.8934 166.564 83.3834 166.564 83.9501C166.564 84.5101 166.464 85.0001 166.264 85.4201C166.064 85.8334 165.781 86.1534 165.414 86.3801C165.054 86.6068 164.631 86.7201 164.144 86.7201ZM164.144 85.9201C164.631 85.9201 165.007 85.7468 165.274 85.4001C165.547 85.0468 165.684 84.5634 165.684 83.9501C165.684 83.3368 165.547 82.8568 165.274 82.5101C165.007 82.1568 164.631 81.9801 164.144 81.9801C163.657 81.9801 163.277 82.1568 163.004 82.5101C162.731 82.8568 162.594 83.3368 162.594 83.9501C162.594 84.5634 162.731 85.0468 163.004 85.4001C163.277 85.7468 163.657 85.9201 164.144 85.9201ZM169.639 86.7201C169.165 86.7201 168.762 86.6434 168.429 86.4901C168.102 86.3368 167.845 86.1268 167.659 85.8601C167.479 85.5868 167.375 85.2768 167.349 84.9301L168.229 84.8701C168.282 85.1901 168.419 85.4468 168.639 85.6401C168.859 85.8268 169.192 85.9201 169.639 85.9201C169.999 85.9201 170.285 85.8634 170.499 85.7501C170.719 85.6301 170.829 85.4401 170.829 85.1801C170.829 85.0401 170.795 84.9234 170.729 84.8301C170.662 84.7368 170.532 84.6568 170.339 84.5901C170.145 84.5168 169.859 84.4468 169.479 84.3801C168.972 84.2868 168.572 84.1734 168.279 84.0401C167.992 83.9001 167.785 83.7301 167.659 83.5301C167.539 83.3234 167.479 83.0801 167.479 82.8001C167.479 82.3268 167.652 81.9401 167.999 81.6401C168.345 81.3334 168.839 81.1801 169.479 81.1801C169.912 81.1801 170.275 81.2601 170.569 81.4201C170.869 81.5734 171.102 81.7801 171.269 82.0401C171.442 82.2934 171.555 82.5734 171.609 82.8801L170.729 82.9401C170.689 82.7534 170.615 82.5901 170.509 82.4501C170.402 82.3034 170.262 82.1901 170.089 82.1101C169.915 82.0234 169.709 81.9801 169.469 81.9801C169.089 81.9801 168.809 82.0534 168.629 82.2001C168.449 82.3468 168.359 82.5334 168.359 82.7601C168.359 82.9334 168.399 83.0768 168.479 83.1901C168.565 83.2968 168.702 83.3868 168.889 83.4601C169.075 83.5268 169.325 83.5868 169.639 83.6401C170.179 83.7334 170.599 83.8468 170.899 83.9801C171.199 84.1134 171.409 84.2768 171.529 84.4701C171.649 84.6634 171.709 84.9001 171.709 85.1801C171.709 85.5068 171.615 85.7868 171.429 86.0201C171.249 86.2468 171.002 86.4201 170.689 86.5401C170.382 86.6601 170.032 86.7201 169.639 86.7201ZM175.973 86.6001V80.8201C175.973 80.4268 176.086 80.1101 176.313 79.8701C176.539 79.6234 176.893 79.5001 177.373 79.5001H178.213V80.2401H177.433C177.226 80.2401 177.069 80.2968 176.963 80.4101C176.863 80.5234 176.813 80.6801 176.813 80.8801V86.6001H175.973ZM175.253 82.0401V81.3001H178.143V82.0401H175.253ZM181.029 86.7201C180.529 86.7201 180.095 86.6068 179.729 86.3801C179.369 86.1534 179.089 85.8334 178.889 85.4201C178.695 85.0001 178.599 84.5101 178.599 83.9501C178.599 83.3901 178.695 82.9034 178.889 82.4901C179.089 82.0768 179.365 81.7568 179.719 81.5301C180.079 81.2968 180.502 81.1801 180.989 81.1801C181.449 81.1801 181.855 81.2901 182.209 81.5101C182.562 81.7234 182.835 82.0368 183.029 82.4501C183.229 82.8634 183.329 83.3668 183.329 83.9601V84.2101H179.479C179.512 84.7768 179.662 85.2034 179.929 85.4901C180.202 85.7768 180.569 85.9201 181.029 85.9201C181.375 85.9201 181.659 85.8401 181.879 85.6801C182.105 85.5134 182.262 85.2968 182.349 85.0301L183.249 85.1001C183.109 85.5734 182.842 85.9634 182.449 86.2701C182.062 86.5701 181.589 86.7201 181.029 86.7201ZM179.479 83.4701H182.409C182.369 82.9568 182.219 82.5801 181.959 82.3401C181.705 82.1001 181.382 81.9801 180.989 81.9801C180.582 81.9801 180.245 82.1068 179.979 82.3601C179.719 82.6068 179.552 82.9768 179.479 83.4701ZM184.467 86.6001V81.3001H185.307V86.6001H184.467ZM184.447 80.4701V79.4901H185.327V80.4701H184.447ZM188.448 86.6001C187.968 86.6001 187.611 86.4901 187.378 86.2701C187.151 86.0501 187.038 85.7068 187.038 85.2401V80.0601H187.878V85.2201C187.878 85.4601 187.931 85.6268 188.038 85.7201C188.144 85.8134 188.308 85.8601 188.528 85.8601H189.288V86.6001H188.448ZM186.258 82.0401V81.3001H189.288V82.0401H186.258ZM192.337 86.7201C191.851 86.7201 191.424 86.6068 191.057 86.3801C190.691 86.1534 190.407 85.8334 190.207 85.4201C190.007 85.0001 189.907 84.5101 189.907 83.9501C189.907 83.3834 190.007 82.8934 190.207 82.4801C190.407 82.0668 190.691 81.7468 191.057 81.5201C191.424 81.2934 191.851 81.1801 192.337 81.1801C192.824 81.1801 193.247 81.2934 193.607 81.5201C193.974 81.7468 194.257 82.0668 194.457 82.4801C194.657 82.8934 194.757 83.3834 194.757 83.9501C194.757 84.5101 194.657 85.0001 194.457 85.4201C194.257 85.8334 193.974 86.1534 193.607 86.3801C193.247 86.6068 192.824 86.7201 192.337 86.7201ZM192.337 85.9201C192.824 85.9201 193.201 85.7468 193.467 85.4001C193.741 85.0468 193.877 84.5634 193.877 83.9501C193.877 83.3368 193.741 82.8568 193.467 82.5101C193.201 82.1568 192.824 81.9801 192.337 81.9801C191.851 81.9801 191.471 82.1568 191.197 82.5101C190.924 82.8568 190.787 83.3368 190.787 83.9501C190.787 84.5634 190.924 85.0468 191.197 85.4001C191.471 85.7468 191.851 85.9201 192.337 85.9201ZM198.5 86.6001V79.5001H199.34V82.4701L199.24 82.4501C199.306 82.1568 199.42 81.9168 199.58 81.7301C199.74 81.5434 199.936 81.4068 200.17 81.3201C200.403 81.2268 200.66 81.1801 200.94 81.1801C201.32 81.1801 201.64 81.2668 201.9 81.4401C202.166 81.6068 202.366 81.8434 202.5 82.1501C202.64 82.4501 202.71 82.7968 202.71 83.1901V86.6001H201.87V83.4301C201.87 82.9168 201.776 82.5368 201.59 82.2901C201.41 82.0434 201.133 81.9201 200.76 81.9201C200.333 81.9201 199.99 82.0501 199.73 82.3101C199.47 82.5701 199.34 82.9468 199.34 83.4401V86.6001H198.5ZM206.263 86.7201C205.776 86.7201 205.35 86.6068 204.983 86.3801C204.616 86.1534 204.333 85.8334 204.133 85.4201C203.933 85.0001 203.833 84.5101 203.833 83.9501C203.833 83.3834 203.933 82.8934 204.133 82.4801C204.333 82.0668 204.616 81.7468 204.983 81.5201C205.35 81.2934 205.776 81.1801 206.263 81.1801C206.75 81.1801 207.173 81.2934 207.533 81.5201C207.9 81.7468 208.183 82.0668 208.383 82.4801C208.583 82.8934 208.683 83.3834 208.683 83.9501C208.683 84.5101 208.583 85.0001 208.383 85.4201C208.183 85.8334 207.9 86.1534 207.533 86.3801C207.173 86.6068 206.75 86.7201 206.263 86.7201ZM206.263 85.9201C206.75 85.9201 207.126 85.7468 207.393 85.4001C207.666 85.0468 207.803 84.5634 207.803 83.9501C207.803 83.3368 207.666 82.8568 207.393 82.5101C207.126 82.1568 206.75 81.9801 206.263 81.9801C205.776 81.9801 205.396 82.1568 205.123 82.5101C204.85 82.8568 204.713 83.3368 204.713 83.9501C204.713 84.5634 204.85 85.0468 205.123 85.4001C205.396 85.7468 205.776 85.9201 206.263 85.9201ZM208.978 88.1001V87.3601H209.408C209.581 87.3601 209.721 87.3168 209.828 87.2301C209.934 87.1501 209.988 87.0001 209.988 86.7801V81.3001H210.828V86.8201C210.828 87.2868 210.724 87.6168 210.518 87.8101C210.311 88.0034 209.968 88.1001 209.488 88.1001H208.978ZM209.968 80.4701V79.4901H210.848V80.4701H209.968ZM214.398 86.7201C213.898 86.7201 213.464 86.6068 213.098 86.3801C212.738 86.1534 212.458 85.8334 212.258 85.4201C212.064 85.0001 211.968 84.5101 211.968 83.9501C211.968 83.3901 212.064 82.9034 212.258 82.4901C212.458 82.0768 212.734 81.7568 213.088 81.5301C213.448 81.2968 213.871 81.1801 214.358 81.1801C214.818 81.1801 215.224 81.2901 215.578 81.5101C215.931 81.7234 216.204 82.0368 216.398 82.4501C216.598 82.8634 216.698 83.3668 216.698 83.9601V84.2101H212.848C212.881 84.7768 213.031 85.2034 213.298 85.4901C213.571 85.7768 213.938 85.9201 214.398 85.9201C214.744 85.9201 215.028 85.8401 215.248 85.6801C215.474 85.5134 215.631 85.2968 215.718 85.0301L216.618 85.1001C216.478 85.5734 216.211 85.9634 215.818 86.2701C215.431 86.5701 214.958 86.7201 214.398 86.7201ZM212.848 83.4701H215.778C215.738 82.9568 215.588 82.5801 215.328 82.3401C215.074 82.1001 214.751 81.9801 214.358 81.9801C213.951 81.9801 213.614 82.1068 213.348 82.3601C213.088 82.6068 212.921 82.9768 212.848 83.4701Z" fill="#858585"/>
</g>
<g filter="url(#filter6_d_112_722)">
<g filter="url(#filter7_d_112_722)">
<rect x="30.6001" y="12.6001" width="253" height="34" rx="10" fill="white"/>
</g>
<path d="M109.888 34.6001V24.6601H111.092V29.4901L110.476 29.0141H116.706L116.09 29.4901V24.6601H117.294V34.6001H116.09V29.7141L116.706 30.1901H110.476L111.092 29.7141V34.6001H109.888ZM122.462 34.7681C121.781 34.7681 121.183 34.6094 120.67 34.2921C120.157 33.9748 119.76 33.5268 119.48 32.9481C119.2 32.3601 119.06 31.6741 119.06 30.8901C119.06 30.0968 119.2 29.4108 119.48 28.8321C119.76 28.2534 120.157 27.8054 120.67 27.4881C121.183 27.1708 121.781 27.0121 122.462 27.0121C123.143 27.0121 123.736 27.1708 124.24 27.4881C124.753 27.8054 125.15 28.2534 125.43 28.8321C125.71 29.4108 125.85 30.0968 125.85 30.8901C125.85 31.6741 125.71 32.3601 125.43 32.9481C125.15 33.5268 124.753 33.9748 124.24 34.2921C123.736 34.6094 123.143 34.7681 122.462 34.7681ZM122.462 33.6481C123.143 33.6481 123.671 33.4054 124.044 32.9201C124.427 32.4254 124.618 31.7488 124.618 30.8901C124.618 30.0314 124.427 29.3594 124.044 28.8741C123.671 28.3794 123.143 28.1321 122.462 28.1321C121.781 28.1321 121.249 28.3794 120.866 28.8741C120.483 29.3594 120.292 30.0314 120.292 30.8901C120.292 31.7488 120.483 32.4254 120.866 32.9201C121.249 33.4054 121.781 33.6481 122.462 33.6481ZM126.263 36.7001V35.6641H126.865C127.107 35.6641 127.303 35.6034 127.453 35.4821C127.602 35.3701 127.677 35.1601 127.677 34.8521V27.1801H128.853V34.9081C128.853 35.5614 128.708 36.0234 128.419 36.2941C128.129 36.5648 127.649 36.7001 126.977 36.7001H126.263ZM127.649 26.0181V24.6461H128.881V26.0181H127.649ZM133.851 34.7681C133.151 34.7681 132.544 34.6094 132.031 34.2921C131.527 33.9748 131.135 33.5268 130.855 32.9481C130.584 32.3601 130.449 31.6741 130.449 30.8901C130.449 30.1061 130.584 29.4248 130.855 28.8461C131.135 28.2674 131.522 27.8194 132.017 27.5021C132.521 27.1754 133.113 27.0121 133.795 27.0121C134.439 27.0121 135.008 27.1661 135.503 27.4741C135.997 27.7728 136.38 28.2114 136.651 28.7901C136.931 29.3688 137.071 30.0734 137.071 30.9041V31.2541H131.681C131.727 32.0474 131.937 32.6448 132.311 33.0461C132.693 33.4474 133.207 33.6481 133.851 33.6481C134.336 33.6481 134.733 33.5361 135.041 33.3121C135.358 33.0788 135.577 32.7754 135.699 32.4021L136.959 32.5001C136.763 33.1628 136.389 33.7088 135.839 34.1381C135.297 34.5581 134.635 34.7681 133.851 34.7681ZM131.681 30.2181H135.783C135.727 29.4994 135.517 28.9721 135.153 28.6361C134.798 28.3001 134.345 28.1321 133.795 28.1321C133.225 28.1321 132.754 28.3094 132.381 28.6641C132.017 29.0094 131.783 29.5274 131.681 30.2181ZM145.002 34.7681C144.34 34.7681 143.775 34.6608 143.308 34.4461C142.851 34.2314 142.492 33.9374 142.23 33.5641C141.978 33.1814 141.834 32.7474 141.796 32.2621L143.028 32.1781C143.103 32.6261 143.294 32.9854 143.602 33.2561C143.91 33.5174 144.377 33.6481 145.002 33.6481C145.506 33.6481 145.908 33.5688 146.206 33.4101C146.514 33.2421 146.668 32.9761 146.668 32.6121C146.668 32.4161 146.622 32.2528 146.528 32.1221C146.435 31.9914 146.253 31.8794 145.982 31.7861C145.712 31.6834 145.31 31.5854 144.778 31.4921C144.069 31.3614 143.509 31.2028 143.098 31.0161C142.697 30.8201 142.408 30.5821 142.23 30.3021C142.062 30.0128 141.978 29.6721 141.978 29.2801C141.978 28.6174 142.221 28.0761 142.706 27.6561C143.192 27.2268 143.882 27.0121 144.778 27.0121C145.385 27.0121 145.894 27.1241 146.304 27.3481C146.724 27.5628 147.051 27.8521 147.284 28.2161C147.527 28.5708 147.686 28.9628 147.76 29.3921L146.528 29.4761C146.472 29.2148 146.37 28.9861 146.22 28.7901C146.071 28.5848 145.875 28.4261 145.632 28.3141C145.39 28.1928 145.1 28.1321 144.764 28.1321C144.232 28.1321 143.84 28.2348 143.588 28.4401C143.336 28.6454 143.21 28.9068 143.21 29.2241C143.21 29.4668 143.266 29.6674 143.378 29.8261C143.5 29.9754 143.691 30.1014 143.952 30.2041C144.214 30.2974 144.564 30.3814 145.002 30.4561C145.758 30.5868 146.346 30.7454 146.766 30.9321C147.186 31.1188 147.48 31.3474 147.648 31.6181C147.816 31.8888 147.9 32.2201 147.9 32.6121C147.9 33.0694 147.77 33.4614 147.508 33.7881C147.256 34.1054 146.911 34.3481 146.472 34.5161C146.043 34.6841 145.553 34.7681 145.002 34.7681ZM152.403 34.7681C151.703 34.7681 151.097 34.6094 150.583 34.2921C150.079 33.9748 149.687 33.5268 149.407 32.9481C149.137 32.3601 149.001 31.6741 149.001 30.8901C149.001 30.1061 149.137 29.4248 149.407 28.8461C149.687 28.2674 150.075 27.8194 150.569 27.5021C151.073 27.1754 151.666 27.0121 152.347 27.0121C152.991 27.0121 153.561 27.1661 154.055 27.4741C154.55 27.7728 154.933 28.2114 155.203 28.7901C155.483 29.3688 155.623 30.0734 155.623 30.9041V31.2541H150.233C150.28 32.0474 150.49 32.6448 150.863 33.0461C151.246 33.4474 151.759 33.6481 152.403 33.6481C152.889 33.6481 153.285 33.5361 153.593 33.3121C153.911 33.0788 154.13 32.7754 154.251 32.4021L155.511 32.5001C155.315 33.1628 154.942 33.7088 154.391 34.1381C153.85 34.5581 153.187 34.7681 152.403 34.7681ZM150.233 30.2181H154.335C154.279 29.4994 154.069 28.9721 153.705 28.6361C153.351 28.3001 152.898 28.1321 152.347 28.1321C151.778 28.1321 151.307 28.3094 150.933 28.6641C150.569 29.0094 150.336 29.5274 150.233 30.2181ZM159.652 34.7681C158.915 34.7681 158.322 34.5208 157.874 34.0261C157.436 33.5221 157.216 32.8314 157.216 31.9541V27.1801H158.392V31.6321C158.392 32.3508 158.518 32.8828 158.77 33.2281C159.032 33.5641 159.428 33.7321 159.96 33.7321C160.548 33.7321 161.01 33.5454 161.346 33.1721C161.682 32.7894 161.85 32.2668 161.85 31.6041V27.1801H163.026V34.6001H161.906V32.7661L162.088 32.8641C161.939 33.4708 161.654 33.9421 161.234 34.2781C160.814 34.6048 160.287 34.7681 159.652 34.7681ZM171.401 34.7681C170.757 34.7681 170.197 34.6094 169.721 34.2921C169.254 33.9748 168.895 33.5268 168.643 32.9481C168.391 32.3694 168.265 31.6834 168.265 30.8901C168.265 30.0968 168.391 29.4108 168.643 28.8321C168.895 28.2534 169.254 27.8054 169.721 27.4881C170.197 27.1708 170.757 27.0121 171.401 27.0121C171.896 27.0121 172.348 27.1194 172.759 27.3341C173.17 27.5394 173.478 27.8334 173.683 28.2161V24.6601H174.859V34.6001H173.795L173.753 33.4801C173.548 33.8814 173.235 34.1988 172.815 34.4321C172.395 34.6561 171.924 34.7681 171.401 34.7681ZM171.639 33.6481C172.078 33.6481 172.446 33.5361 172.745 33.3121C173.053 33.0881 173.286 32.7708 173.445 32.3601C173.604 31.9401 173.683 31.4501 173.683 30.8901C173.683 30.3114 173.604 29.8168 173.445 29.4061C173.286 28.9954 173.053 28.6828 172.745 28.4681C172.446 28.2441 172.078 28.1321 171.639 28.1321C170.986 28.1321 170.463 28.3794 170.071 28.8741C169.688 29.3594 169.497 30.0314 169.497 30.8901C169.497 31.7394 169.688 32.4114 170.071 32.9061C170.463 33.4008 170.986 33.6481 171.639 33.6481ZM176.822 34.6001V27.1801H177.998V34.6001H176.822ZM176.794 26.0181V24.6461H178.026V26.0181H176.794ZM182.105 34.7681C181.34 34.7681 180.728 34.5908 180.271 34.2361C179.823 33.8814 179.599 33.3868 179.599 32.7521C179.599 32.1174 179.786 31.6181 180.159 31.2541C180.532 30.8901 181.125 30.6334 181.937 30.4841L184.569 29.9941C184.569 29.3688 184.42 28.9021 184.121 28.5941C183.832 28.2861 183.393 28.1321 182.805 28.1321C182.292 28.1321 181.886 28.2488 181.587 28.4821C181.288 28.7061 181.083 29.0328 180.971 29.4621L179.725 29.3641C179.865 28.6641 180.201 28.0994 180.733 27.6701C181.274 27.2314 181.965 27.0121 182.805 27.0121C183.757 27.0121 184.485 27.2828 184.989 27.8241C185.493 28.3561 185.745 29.0934 185.745 30.0361V33.1021C185.745 33.2701 185.773 33.3914 185.829 33.4661C185.894 33.5314 185.997 33.5641 186.137 33.5641H186.431V34.6001C186.394 34.6094 186.333 34.6141 186.249 34.6141C186.165 34.6234 186.076 34.6281 185.983 34.6281C185.647 34.6281 185.372 34.5768 185.157 34.4741C184.952 34.3621 184.802 34.1941 184.709 33.9701C184.616 33.7368 184.569 33.4334 184.569 33.0601L184.709 33.0881C184.644 33.4054 184.485 33.6948 184.233 33.9561C183.981 34.2081 183.668 34.4088 183.295 34.5581C182.922 34.6981 182.525 34.7681 182.105 34.7681ZM182.217 33.7321C182.712 33.7321 183.132 33.6388 183.477 33.4521C183.832 33.2561 184.102 32.9948 184.289 32.6681C184.476 32.3321 184.569 31.9588 184.569 31.5481V31.0161L182.161 31.4641C181.657 31.5574 181.307 31.7021 181.111 31.8981C180.924 32.0848 180.831 32.3321 180.831 32.6401C180.831 32.9854 180.952 33.2561 181.195 33.4521C181.447 33.6388 181.788 33.7321 182.217 33.7321ZM192.042 34.6001V26.5081C192.042 25.9574 192.201 25.5141 192.518 25.1781C192.835 24.8328 193.33 24.6601 194.002 24.6601H195.178V25.6961H194.086C193.797 25.6961 193.577 25.7754 193.428 25.9341C193.288 26.0928 193.218 26.3121 193.218 26.5921V34.6001H192.042ZM191.034 28.2161V27.1801H195.08V28.2161H191.034ZM199.12 34.7681C198.439 34.7681 197.841 34.6094 197.328 34.2921C196.815 33.9748 196.418 33.5268 196.138 32.9481C195.858 32.3601 195.718 31.6741 195.718 30.8901C195.718 30.0968 195.858 29.4108 196.138 28.8321C196.418 28.2534 196.815 27.8054 197.328 27.4881C197.841 27.1708 198.439 27.0121 199.12 27.0121C199.801 27.0121 200.394 27.1708 200.898 27.4881C201.411 27.8054 201.808 28.2534 202.088 28.8321C202.368 29.4108 202.508 30.0968 202.508 30.8901C202.508 31.6741 202.368 32.3601 202.088 32.9481C201.808 33.5268 201.411 33.9748 200.898 34.2921C200.394 34.6094 199.801 34.7681 199.12 34.7681ZM199.12 33.6481C199.801 33.6481 200.329 33.4054 200.702 32.9201C201.085 32.4254 201.276 31.7488 201.276 30.8901C201.276 30.0314 201.085 29.3594 200.702 28.8741C200.329 28.3794 199.801 28.1321 199.12 28.1321C198.439 28.1321 197.907 28.3794 197.524 28.8741C197.141 29.3594 196.95 30.0314 196.95 30.8901C196.95 31.7488 197.141 32.4254 197.524 32.9201C197.907 33.4054 198.439 33.6481 199.12 33.6481ZM204.111 34.6001V27.1801H205.287V34.6001H204.111ZM204.083 26.0181V24.6461H205.315V26.0181H204.083ZM211.029 36.7001V27.1801H212.121L212.149 28.7761L211.981 28.6921C212.167 28.1414 212.475 27.7261 212.905 27.4461C213.343 27.1568 213.847 27.0121 214.417 27.0121C215.154 27.0121 215.756 27.1941 216.223 27.5581C216.699 27.9221 217.049 28.3981 217.273 28.9861C217.506 29.5741 217.623 30.2088 217.623 30.8901C217.623 31.5714 217.506 32.2061 217.273 32.7941C217.049 33.3821 216.699 33.8581 216.223 34.2221C215.756 34.5861 215.154 34.7681 214.417 34.7681C214.034 34.7681 213.675 34.7028 213.339 34.5721C213.012 34.4414 212.732 34.2594 212.499 34.0261C212.275 33.7928 212.121 33.5174 212.037 33.2001L212.205 33.0041V36.7001H211.029ZM214.305 33.6481C214.949 33.6481 215.457 33.4054 215.831 32.9201C216.204 32.4348 216.391 31.7581 216.391 30.8901C216.391 30.0221 216.204 29.3454 215.831 28.8601C215.457 28.3748 214.949 28.1321 214.305 28.1321C213.875 28.1321 213.502 28.2348 213.185 28.4401C212.877 28.6454 212.634 28.9534 212.457 29.3641C212.289 29.7748 212.205 30.2834 212.205 30.8901C212.205 31.4968 212.289 32.0054 212.457 32.4161C212.625 32.8268 212.867 33.1348 213.185 33.3401C213.502 33.5454 213.875 33.6481 214.305 33.6481ZM219.218 34.6001V27.1801H220.254L220.31 29.0561L220.198 29.0141C220.291 28.3794 220.492 27.9174 220.8 27.6281C221.117 27.3294 221.537 27.1801 222.06 27.1801H222.788V28.3001H222.074C221.701 28.3001 221.388 28.3701 221.136 28.5101C220.893 28.6408 220.707 28.8414 220.576 29.1121C220.455 29.3734 220.394 29.7094 220.394 30.1201V34.6001H219.218ZM226.86 34.7681C226.179 34.7681 225.582 34.6094 225.068 34.2921C224.555 33.9748 224.158 33.5268 223.878 32.9481C223.598 32.3601 223.458 31.6741 223.458 30.8901C223.458 30.0968 223.598 29.4108 223.878 28.8321C224.158 28.2534 224.555 27.8054 225.068 27.4881C225.582 27.1708 226.179 27.0121 226.86 27.0121C227.542 27.0121 228.134 27.1708 228.638 27.4881C229.152 27.8054 229.548 28.2534 229.828 28.8321C230.108 29.4108 230.248 30.0968 230.248 30.8901C230.248 31.6741 230.108 32.3601 229.828 32.9481C229.548 33.5268 229.152 33.9748 228.638 34.2921C228.134 34.6094 227.542 34.7681 226.86 34.7681ZM226.86 33.6481C227.542 33.6481 228.069 33.4054 228.442 32.9201C228.825 32.4254 229.016 31.7488 229.016 30.8901C229.016 30.0314 228.825 29.3594 228.442 28.8741C228.069 28.3794 227.542 28.1321 226.86 28.1321C226.179 28.1321 225.647 28.3794 225.264 28.8741C224.882 29.3594 224.69 30.0314 224.69 30.8901C224.69 31.7488 224.882 32.4254 225.264 32.9201C225.647 33.4054 226.179 33.6481 226.86 33.6481ZM234.483 34.7681C233.839 34.7681 233.279 34.6094 232.803 34.2921C232.336 33.9748 231.977 33.5268 231.725 32.9481C231.473 32.3694 231.347 31.6834 231.347 30.8901C231.347 30.0968 231.473 29.4108 231.725 28.8321C231.977 28.2534 232.336 27.8054 232.803 27.4881C233.279 27.1708 233.839 27.0121 234.483 27.0121C234.978 27.0121 235.43 27.1194 235.841 27.3341C236.252 27.5394 236.56 27.8334 236.765 28.2161V24.6601H237.941V34.6001H236.877L236.835 33.4801C236.63 33.8814 236.317 34.1988 235.897 34.4321C235.477 34.6561 235.006 34.7681 234.483 34.7681ZM234.721 33.6481C235.16 33.6481 235.528 33.5361 235.827 33.3121C236.135 33.0881 236.368 32.7708 236.527 32.3601C236.686 31.9401 236.765 31.4501 236.765 30.8901C236.765 30.3114 236.686 29.8168 236.527 29.4061C236.368 28.9954 236.135 28.6828 235.827 28.4681C235.528 28.2441 235.16 28.1321 234.721 28.1321C234.068 28.1321 233.545 28.3794 233.153 28.8741C232.77 29.3594 232.579 30.0314 232.579 30.8901C232.579 31.7394 232.77 32.4114 233.153 32.9061C233.545 33.4008 234.068 33.6481 234.721 33.6481ZM242.34 34.7681C241.602 34.7681 241.01 34.5208 240.562 34.0261C240.123 33.5221 239.904 32.8314 239.904 31.9541V27.1801H241.08V31.6321C241.08 32.3508 241.206 32.8828 241.458 33.2281C241.719 33.5641 242.116 33.7321 242.648 33.7321C243.236 33.7321 243.698 33.5454 244.034 33.1721C244.37 32.7894 244.538 32.2668 244.538 31.6041V27.1801H245.714V34.6001H244.594V32.7661L244.776 32.8641C244.626 33.4708 244.342 33.9421 243.922 34.2781C243.502 34.6048 242.974 34.7681 242.34 34.7681ZM250.276 34.6001C249.604 34.6001 249.105 34.4461 248.778 34.1381C248.461 33.8301 248.302 33.3494 248.302 32.6961V25.4441H249.478V32.6681C249.478 33.0041 249.553 33.2374 249.702 33.3681C249.851 33.4988 250.08 33.5641 250.388 33.5641H251.452V34.6001H250.276ZM247.21 28.2161V27.1801H251.452V28.2161H247.21ZM252.96 34.6001V27.1801H254.136V34.6001H252.96ZM252.932 26.0181V24.6461H254.164V26.0181H252.932ZM258.132 34.6001L255.43 27.1801H256.718L258.874 33.3961L261.03 27.1801H262.318L259.616 34.6001H258.132ZM266.276 34.7681C265.595 34.7681 264.998 34.6094 264.484 34.2921C263.971 33.9748 263.574 33.5268 263.294 32.9481C263.014 32.3601 262.874 31.6741 262.874 30.8901C262.874 30.0968 263.014 29.4108 263.294 28.8321C263.574 28.2534 263.971 27.8054 264.484 27.4881C264.998 27.1708 265.595 27.0121 266.276 27.0121C266.958 27.0121 267.55 27.1708 268.054 27.4881C268.568 27.8054 268.964 28.2534 269.244 28.8321C269.524 29.4108 269.664 30.0968 269.664 30.8901C269.664 31.6741 269.524 32.3601 269.244 32.9481C268.964 33.5268 268.568 33.9748 268.054 34.2921C267.55 34.6094 266.958 34.7681 266.276 34.7681ZM266.276 33.6481C266.958 33.6481 267.485 33.4054 267.858 32.9201C268.241 32.4254 268.432 31.7488 268.432 30.8901C268.432 30.0314 268.241 29.3594 267.858 28.8741C267.485 28.3794 266.958 28.1321 266.276 28.1321C265.595 28.1321 265.063 28.3794 264.68 28.8741C264.298 29.3594 264.106 30.0314 264.106 30.8901C264.106 31.7488 264.298 32.4254 264.68 32.9201C265.063 33.4054 265.595 33.6481 266.276 33.6481Z" fill="#858585"/>
<path d="M60.4601 32.6001V25.5001H61.9401L64.0501 31.3301L66.1601 25.5001H67.6401V32.6001H66.5601V27.4001L64.6501 32.5901H63.4501L61.5401 27.4001V32.6001H60.4601ZM70.6389 32.7201C70.0856 32.7201 69.6423 32.5934 69.3089 32.3401C68.9823 32.0868 68.8189 31.7301 68.8189 31.2701C68.8189 30.8101 68.9556 30.4534 69.2289 30.2001C69.5089 29.9401 69.9389 29.7534 70.5189 29.6401L72.3489 29.2901C72.3489 28.8768 72.2523 28.5701 72.0589 28.3701C71.8656 28.1634 71.5789 28.0601 71.1989 28.0601C70.8589 28.0601 70.5923 28.1368 70.3989 28.2901C70.2056 28.4368 70.0723 28.6568 69.9989 28.9501L68.9089 28.8801C69.0089 28.3468 69.2556 27.9268 69.6489 27.6201C70.0489 27.3134 70.5656 27.1601 71.1989 27.1601C71.9189 27.1601 72.4656 27.3534 72.8389 27.7401C73.2189 28.1201 73.4089 28.6568 73.4089 29.3501V31.4201C73.4089 31.5468 73.4289 31.6368 73.4689 31.6901C73.5156 31.7368 73.5889 31.7601 73.6889 31.7601H73.8789V32.6001C73.8456 32.6068 73.7923 32.6134 73.7189 32.6201C73.6456 32.6268 73.5689 32.6301 73.4889 32.6301C73.2623 32.6301 73.0656 32.5934 72.8989 32.5201C72.7389 32.4468 72.6189 32.3268 72.5389 32.1601C72.4589 31.9868 72.4189 31.7568 72.4189 31.4701L72.5289 31.5201C72.4756 31.7534 72.3589 31.9601 72.1789 32.1401C72.0056 32.3201 71.7823 32.4634 71.5089 32.5701C71.2423 32.6701 70.9523 32.7201 70.6389 32.7201ZM70.8089 31.8801C71.1289 31.8801 71.4023 31.8201 71.6289 31.7001C71.8556 31.5734 72.0323 31.4001 72.1589 31.1801C72.2856 30.9601 72.3489 30.7101 72.3489 30.4301V30.0901L70.7889 30.3901C70.4689 30.4501 70.2423 30.5468 70.1089 30.6801C69.9823 30.8068 69.9189 30.9701 69.9189 31.1701C69.9189 31.3968 69.9956 31.5734 70.1489 31.7001C70.3089 31.8201 70.5289 31.8801 70.8089 31.8801ZM76.9249 32.7201C76.4049 32.7201 75.9549 32.6068 75.5749 32.3801C75.2015 32.1534 74.9115 31.8301 74.7049 31.4101C74.5049 30.9901 74.4049 30.5001 74.4049 29.9401C74.4049 29.3801 74.5049 28.8934 74.7049 28.4801C74.9115 28.0601 75.2015 27.7368 75.5749 27.5101C75.9482 27.2768 76.3882 27.1601 76.8949 27.1601C77.3749 27.1601 77.7982 27.2734 78.1649 27.5001C78.5315 27.7201 78.8149 28.0401 79.0149 28.4601C79.2215 28.8801 79.3249 29.3868 79.3249 29.9801V30.2501H75.5049C75.5315 30.7701 75.6682 31.1601 75.9149 31.4201C76.1682 31.6801 76.5082 31.8101 76.9349 31.8101C77.2482 31.8101 77.5082 31.7368 77.7149 31.5901C77.9215 31.4434 78.0649 31.2468 78.1449 31.0001L79.2449 31.0701C79.1049 31.5634 78.8282 31.9634 78.4149 32.2701C78.0082 32.5701 77.5115 32.7201 76.9249 32.7201ZM75.5049 29.4501H78.2049C78.1715 28.9768 78.0349 28.6268 77.7949 28.4001C77.5615 28.1734 77.2615 28.0601 76.8949 28.0601C76.5149 28.0601 76.2015 28.1801 75.9549 28.4201C75.7149 28.6534 75.5649 28.9968 75.5049 29.4501ZM82.4489 32.7201C81.9489 32.7201 81.5256 32.6434 81.1789 32.4901C80.8389 32.3368 80.5756 32.1268 80.3889 31.8601C80.2023 31.5868 80.0956 31.2734 80.0689 30.9201L81.1589 30.8701C81.2123 31.1634 81.3389 31.3968 81.5389 31.5701C81.7389 31.7434 82.0423 31.8301 82.4489 31.8301C82.7823 31.8301 83.0456 31.7768 83.2389 31.6701C83.4323 31.5634 83.5289 31.3934 83.5289 31.1601C83.5289 31.0334 83.4956 30.9268 83.4289 30.8401C83.3689 30.7468 83.2489 30.6701 83.0689 30.6101C82.8889 30.5434 82.6223 30.4801 82.2689 30.4201C81.7423 30.3201 81.3289 30.2034 81.0289 30.0701C80.7289 29.9368 80.5156 29.7668 80.3889 29.5601C80.2623 29.3534 80.1989 29.1034 80.1989 28.8101C80.1989 28.3234 80.3789 27.9268 80.7389 27.6201C81.1056 27.3134 81.6323 27.1601 82.3189 27.1601C82.7789 27.1601 83.1656 27.2401 83.4789 27.4001C83.7923 27.5534 84.0356 27.7634 84.2089 28.0301C84.3889 28.2901 84.5023 28.5834 84.5489 28.9101L83.4589 28.9701C83.4256 28.7834 83.3589 28.6234 83.2589 28.4901C83.1656 28.3501 83.0389 28.2434 82.8789 28.1701C82.7189 28.0901 82.5289 28.0501 82.3089 28.0501C81.9689 28.0501 81.7156 28.1168 81.5489 28.2501C81.3823 28.3834 81.2989 28.5568 81.2989 28.7701C81.2989 28.9301 81.3356 29.0601 81.4089 29.1601C81.4889 29.2601 81.6156 29.3434 81.7889 29.4101C81.9623 29.4701 82.1923 29.5234 82.4789 29.5701C83.0323 29.6634 83.4656 29.7801 83.7789 29.9201C84.0923 30.0534 84.3123 30.2201 84.4389 30.4201C84.5656 30.6201 84.6289 30.8634 84.6289 31.1501C84.6289 31.4834 84.5356 31.7668 84.3489 32.0001C84.1623 32.2334 83.9056 32.4134 83.5789 32.5401C83.2523 32.6601 82.8756 32.7201 82.4489 32.7201ZM87.5463 32.6001C87.0397 32.6001 86.6663 32.4834 86.4263 32.2501C86.1863 32.0168 86.0663 31.6534 86.0663 31.1601V26.0301H87.1263V31.0801C87.1263 31.3268 87.1797 31.4968 87.2863 31.5901C87.393 31.6834 87.5563 31.7301 87.7763 31.7301H88.5363V32.6001H87.5463ZM85.2563 28.1501V27.2801H88.5363V28.1501H85.2563ZM89.6567 32.6001V27.2801H90.6267L90.6667 28.6901L90.5767 28.6601C90.6501 28.1801 90.7967 27.8301 91.0167 27.6101C91.2434 27.3901 91.5467 27.2801 91.9267 27.2801H92.4367V28.2301H91.9267C91.6601 28.2301 91.4367 28.2734 91.2567 28.3601C91.0767 28.4468 90.9401 28.5801 90.8467 28.7601C90.7601 28.9401 90.7167 29.1734 90.7167 29.4601V32.6001H89.6567ZM95.3819 32.7201C94.8752 32.7201 94.4319 32.6068 94.0519 32.3801C93.6719 32.1534 93.3786 31.8301 93.1719 31.4101C92.9652 30.9901 92.8619 30.5001 92.8619 29.9401C92.8619 29.3734 92.9652 28.8834 93.1719 28.4701C93.3786 28.0568 93.6719 27.7368 94.0519 27.5101C94.4319 27.2768 94.8752 27.1601 95.3819 27.1601C95.8886 27.1601 96.3319 27.2768 96.7119 27.5101C97.0919 27.7368 97.3852 28.0568 97.5919 28.4701C97.7986 28.8834 97.9019 29.3734 97.9019 29.9401C97.9019 30.5001 97.7986 30.9901 97.5919 31.4101C97.3852 31.8301 97.0919 32.1534 96.7119 32.3801C96.3319 32.6068 95.8886 32.7201 95.3819 32.7201ZM95.3819 31.8001C95.8352 31.8001 96.1852 31.6368 96.4319 31.3101C96.6786 30.9768 96.8019 30.5201 96.8019 29.9401C96.8019 29.3601 96.6786 28.9068 96.4319 28.5801C96.1852 28.2468 95.8352 28.0801 95.3819 28.0801C94.9352 28.0801 94.5852 28.2468 94.3319 28.5801C94.0852 28.9068 93.9619 29.3601 93.9619 29.9401C93.9619 30.5201 94.0852 30.9768 94.3319 31.3101C94.5852 31.6368 94.9352 31.8001 95.3819 31.8001Z" fill="black"/>
<path d="M46.4372 25.9359L46.7822 26.8942C47.1655 27.9577 48.003 28.7951 49.0665 29.1784L50.0247 29.5235C50.1111 29.5549 50.1111 29.6773 50.0247 29.7083L49.0665 30.0533C48.003 30.4366 47.1655 31.2741 46.7822 32.3376L46.4372 33.2958C46.4058 33.3822 46.2833 33.3822 46.2524 33.2958L45.9074 32.3376C45.5241 31.2741 44.6866 30.4366 43.6231 30.0533L42.6649 29.7083C42.5785 29.6769 42.5785 29.5544 42.6649 29.5235L43.6231 29.1784C44.6866 28.7951 45.5241 27.9577 45.9074 26.8942L46.2524 25.9359C46.2833 25.8491 46.4058 25.8491 46.4372 25.9359Z" fill="black"/>
<path d="M50.7504 23.6333L50.9253 24.1184C51.1195 24.6568 51.5436 25.0809 52.0821 25.2752L52.5672 25.45C52.611 25.4659 52.611 25.5278 52.5672 25.5437L52.0821 25.7186C51.5436 25.9128 51.1195 26.3369 50.9253 26.8754L50.7504 27.3605C50.7345 27.4043 50.6727 27.4043 50.6568 27.3605L50.4819 26.8754C50.2876 26.3369 49.8635 25.9128 49.3251 25.7186L48.84 25.5437C48.7962 25.5278 48.7962 25.4659 48.84 25.45L49.3251 25.2752C49.8635 25.0809 50.2876 24.6568 50.4819 24.1184L50.6568 23.6333C50.6727 23.589 50.735 23.589 50.7504 23.6333Z" fill="black"/>
<path d="M50.7504 31.872L50.9253 32.3571C51.1195 32.8955 51.5436 33.3196 52.0821 33.5139L52.5672 33.6887C52.611 33.7046 52.611 33.7665 52.5672 33.7824L52.0821 33.9573C51.5436 34.1515 51.1195 34.5756 50.9253 35.114L50.7504 35.5992C50.7345 35.643 50.6727 35.643 50.6568 35.5992L50.4819 35.114C50.2876 34.5756 49.8635 34.1515 49.3251 33.9573L48.84 33.7824C48.7962 33.7665 48.7962 33.7046 48.84 33.6887L49.3251 33.5139C49.8635 33.3196 50.2876 32.8955 50.4819 32.3571L50.6568 31.872C50.6727 31.8282 50.735 31.8282 50.7504 31.872Z" fill="black"/>
</g>
<defs>
<filter id="filter0_d_112_722" x="74.6001" y="140.6" width="255" height="76" filterUnits="userSpaceOnUse" color-interpolation-filters="sRGB">
<feFlood flood-opacity="0" result="BackgroundImageFix"/>
<feColorMatrix in="SourceAlpha" type="matrix" values="0 0 0 0 0 0 0 0 0 0 0 0 0 0 0 0 0 0 127 0" result="hardAlpha"/>
<feOffset dy="4"/>
<feGaussianBlur stdDeviation="2"/>
<feComposite in2="hardAlpha" operator="out"/>
<feColorMatrix type="matrix" values="0 0 0 0 0 0 0 0 0 0 0 0 0 0 0 0 0 0 0.03 0"/>
<feBlend mode="normal" in2="BackgroundImageFix" result="effect1_dropShadow_112_722"/>
<feBlend mode="normal" in="SourceGraphic" in2="effect1_dropShadow_112_722" result="shape"/>
</filter>
<filter id="filter1_d_112_722" x="48.0001" y="128" width="308.2" height="129.2" filterUnits="userSpaceOnUse" color-interpolation-filters="sRGB">
<feFlood flood-opacity="0" result="BackgroundImageFix"/>
<feColorMatrix in="SourceAlpha" type="matrix" values="0 0 0 0 0 0 0 0 0 0 0 0 0 0 0 0 0 0 127 0" result="hardAlpha"/>
<feOffset dy="18"/>
<feGaussianBlur stdDeviation="15.3"/>
<feComposite in2="hardAlpha" operator="out"/>
<feColorMatrix type="matrix" values="0 0 0 0 0 0 0 0 0 0 0 0 0 0 0 0 0 0 0.02 0"/>
<feBlend mode="normal" in2="BackgroundImageFix" result="effect1_dropShadow_112_722"/>
<feBlend mode="normal" in="SourceGraphic" in2="effect1_dropShadow_112_722" result="shape"/>
</filter>
<filter id="filter2_d_112_722" x="242.6" y="59.6001" width="127" height="76" filterUnits="userSpaceOnUse" color-interpolation-filters="sRGB">
<feFlood flood-opacity="0" result="BackgroundImageFix"/>
<feColorMatrix in="SourceAlpha" type="matrix" values="0 0 0 0 0 0 0 0 0 0 0 0 0 0 0 0 0 0 127 0" result="hardAlpha"/>
<feOffset dy="4"/>
<feGaussianBlur stdDeviation="2"/>
<feComposite in2="hardAlpha" operator="out"/>
<feColorMatrix type="matrix" values="0 0 0 0 0 0 0 0 0 0 0 0 0 0 0 0 0 0 0.03 0"/>
<feBlend mode="normal" in2="BackgroundImageFix" result="effect1_dropShadow_112_722"/>
<feBlend mode="normal" in="SourceGraphic" in2="effect1_dropShadow_112_722" result="shape"/>
</filter>
<filter id="filter3_d_112_722" x="216" y="47.0001" width="180.2" height="129.2" filterUnits="userSpaceOnUse" color-interpolation-filters="sRGB">
<feFlood flood-opacity="0" result="BackgroundImageFix"/>
<feColorMatrix in="SourceAlpha" type="matrix" values="0 0 0 0 0 0 0 0 0 0 0 0 0 0 0 0 0 0 127 0" result="hardAlpha"/>
<feOffset dy="18"/>
<feGaussianBlur stdDeviation="15.3"/>
<feComposite in2="hardAlpha" operator="out"/>
<feColorMatrix type="matrix" values="0 0 0 0 0 0 0 0 0 0 0 0 0 0 0 0 0 0 0.02 0"/>
<feBlend mode="normal" in2="BackgroundImageFix" result="effect1_dropShadow_112_722"/>
<feBlend mode="normal" in="SourceGraphic" in2="effect1_dropShadow_112_722" result="shape"/>
</filter>
<filter id="filter4_d_112_722" x="116.6" y="59.6001" width="123" height="76" filterUnits="userSpaceOnUse" color-interpolation-filters="sRGB">
<feFlood flood-opacity="0" result="BackgroundImageFix"/>
<feColorMatrix in="SourceAlpha" type="matrix" values="0 0 0 0 0 0 0 0 0 0 0 0 0 0 0 0 0 0 127 0" result="hardAlpha"/>
<feOffset dy="4"/>
<feGaussianBlur stdDeviation="2"/>
<feComposite in2="hardAlpha" operator="out"/>
<feColorMatrix type="matrix" values="0 0 0 0 0 0 0 0 0 0 0 0 0 0 0 0 0 0 0.03 0"/>
<feBlend mode="normal" in2="BackgroundImageFix" result="effect1_dropShadow_112_722"/>
<feBlend mode="normal" in="SourceGraphic" in2="effect1_dropShadow_112_722" result="shape"/>
</filter>
<filter id="filter5_d_112_722" x="90.0001" y="47.0001" width="176.2" height="129.2" filterUnits="userSpaceOnUse" color-interpolation-filters="sRGB">
<feFlood flood-opacity="0" result="BackgroundImageFix"/>
<feColorMatrix in="SourceAlpha" type="matrix" values="0 0 0 0 0 0 0 0 0 0 0 0 0 0 0 0 0 0 127 0" result="hardAlpha"/>
<feOffset dy="18"/>
<feGaussianBlur stdDeviation="15.3"/>
<feComposite in2="hardAlpha" operator="out"/>
<feColorMatrix type="matrix" values="0 0 0 0 0 0 0 0 0 0 0 0 0 0 0 0 0 0 0.02 0"/>
<feBlend mode="normal" in2="BackgroundImageFix" result="effect1_dropShadow_112_722"/>
<feBlend mode="normal" in="SourceGraphic" in2="effect1_dropShadow_112_722" result="shape"/>
</filter>
<filter id="filter6_d_112_722" x="26.6001" y="12.6001" width="261" height="42" filterUnits="userSpaceOnUse" color-interpolation-filters="sRGB">
<feFlood flood-opacity="0" result="BackgroundImageFix"/>
<feColorMatrix in="SourceAlpha" type="matrix" values="0 0 0 0 0 0 0 0 0 0 0 0 0 0 0 0 0 0 127 0" result="hardAlpha"/>
<feOffset dy="4"/>
<feGaussianBlur stdDeviation="2"/>
<feComposite in2="hardAlpha" operator="out"/>
<feColorMatrix type="matrix" values="0 0 0 0 0 0 0 0 0 0 0 0 0 0 0 0 0 0 0.03 0"/>
<feBlend mode="normal" in2="BackgroundImageFix" result="effect1_dropShadow_112_722"/>
<feBlend mode="normal" in="SourceGraphic" in2="effect1_dropShadow_112_722" result="shape"/>
</filter>
<filter id="filter7_d_112_722" x="9.72748e-05" y="9.72748e-05" width="314.2" height="95.2" filterUnits="userSpaceOnUse" color-interpolation-filters="sRGB">
<feFlood flood-opacity="0" result="BackgroundImageFix"/>
<feColorMatrix in="SourceAlpha" type="matrix" values="0 0 0 0 0 0 0 0 0 0 0 0 0 0 0 0 0 0 127 0" result="hardAlpha"/>
<feOffset dy="18"/>
<feGaussianBlur stdDeviation="15.3"/>
<feComposite in2="hardAlpha" operator="out"/>
<feColorMatrix type="matrix" values="0 0 0 0 0 0 0 0 0 0 0 0 0 0 0 0 0 0 0.02 0"/>
<feBlend mode="normal" in2="BackgroundImageFix" result="effect1_dropShadow_112_722"/>
<feBlend mode="normal" in="SourceGraphic" in2="effect1_dropShadow_112_722" result="shape"/>
</filter>
</defs>
</svg>
