<svg width="245" height="234" viewBox="0 0 245 234" fill="none" xmlns="http://www.w3.org/2000/svg">
<g filter="url(#filter0_d_121_1221)">
<rect x="30.6001" y="12.6001" width="183" height="47" rx="10" fill="white"/>
</g>
<g filter="url(#filter1_d_121_1221)">
<rect x="43.6001" y="154.6" width="157" height="30" rx="15" fill="black"/>
</g>
<g filter="url(#filter2_d_121_1221)">
<rect x="31.1001" y="90.1001" width="182" height="46" rx="9.5" stroke="#D9D9D9" stroke-dasharray="2 2" shape-rendering="crispEdges"/>
</g>
<rect x="35.6001" y="17.6001" width="37" height="37" rx="5" fill="#D9D9D9"/>
<rect x="35.6001" y="94.6001" width="37" height="37" rx="5" fill="#D9D9D9"/>
<path d="M81.8041 32.6001V22.6601H85.5141C86.6528 22.6601 87.5394 22.9354 88.1741 23.4861C88.8088 24.0274 89.1261 24.7834 89.1261 25.7541C89.1261 26.3981 88.9814 26.9581 88.6921 27.4341C88.4028 27.9008 87.9874 28.2601 87.4461 28.5121C86.9141 28.7548 86.2701 28.8761 85.5141 28.8761H83.3161V32.6001H81.8041ZM83.3161 27.5041H85.4721C86.1534 27.5041 86.6714 27.3594 87.0261 27.0701C87.3808 26.7714 87.5581 26.3328 87.5581 25.7541C87.5581 25.1848 87.3808 24.7601 87.0261 24.4801C86.6714 24.1908 86.1534 24.0461 85.4721 24.0461H83.3161V27.5041ZM90.5778 32.6001V25.1521H92.0618V32.6001H90.5778ZM90.5498 24.0741V22.5901H92.0898V24.0741H90.5498ZM93.9079 32.6001V31.2701L98.4019 26.3701H94.0479V25.1521H100.11V26.4821L95.5739 31.3821H100.222V32.6001H93.9079ZM101.564 32.6001V31.2701L106.058 26.3701H101.704V25.1521H107.766V26.4821L103.23 31.3821H107.878V32.6001H101.564ZM111.586 32.7681C110.811 32.7681 110.19 32.5908 109.724 32.2361C109.266 31.8814 109.038 31.3821 109.038 30.7381C109.038 30.0941 109.229 29.5948 109.612 29.2401C110.004 28.8761 110.606 28.6148 111.418 28.4561L113.98 27.9661C113.98 27.3874 113.844 26.9581 113.574 26.6781C113.303 26.3888 112.902 26.2441 112.37 26.2441C111.894 26.2441 111.52 26.3514 111.25 26.5661C110.979 26.7714 110.792 27.0794 110.69 27.4901L109.164 27.3921C109.304 26.6454 109.649 26.0574 110.2 25.6281C110.76 25.1988 111.483 24.9841 112.37 24.9841C113.378 24.9841 114.143 25.2548 114.666 25.7961C115.198 26.3281 115.464 27.0794 115.464 28.0501V30.9481C115.464 31.1254 115.492 31.2514 115.548 31.3261C115.613 31.3914 115.716 31.4241 115.856 31.4241H116.122V32.6001C116.075 32.6094 116 32.6188 115.898 32.6281C115.795 32.6374 115.688 32.6421 115.576 32.6421C115.258 32.6421 114.983 32.5908 114.75 32.4881C114.526 32.3854 114.358 32.2174 114.246 31.9841C114.134 31.7414 114.078 31.4194 114.078 31.0181L114.232 31.0881C114.157 31.4148 113.994 31.7041 113.742 31.9561C113.499 32.2081 113.186 32.4088 112.804 32.5581C112.43 32.6981 112.024 32.7681 111.586 32.7681ZM111.824 31.5921C112.272 31.5921 112.654 31.5081 112.972 31.3401C113.289 31.1628 113.536 30.9201 113.714 30.6121C113.891 30.3041 113.98 29.9541 113.98 29.5621V29.0861L111.796 29.5061C111.348 29.5901 111.03 29.7254 110.844 29.9121C110.666 30.0894 110.578 30.3181 110.578 30.5981C110.578 30.9154 110.685 31.1628 110.9 31.3401C111.124 31.5081 111.432 31.5921 111.824 31.5921ZM123.466 32.7681C122.831 32.7681 122.276 32.6094 121.8 32.2921C121.333 31.9748 120.974 31.5268 120.722 30.9481C120.479 30.3601 120.358 29.6694 120.358 28.8761C120.358 28.0828 120.484 27.3968 120.736 26.8181C120.988 26.2301 121.347 25.7774 121.814 25.4601C122.281 25.1428 122.831 24.9841 123.466 24.9841C123.979 24.9841 124.437 25.0914 124.838 25.3061C125.239 25.5208 125.543 25.8194 125.748 26.2021V22.6601H127.232V32.6001H125.846L125.804 31.4801C125.599 31.8814 125.286 32.1988 124.866 32.4321C124.455 32.6561 123.989 32.7681 123.466 32.7681ZM123.858 31.4801C124.259 31.4801 124.6 31.3774 124.88 31.1721C125.16 30.9668 125.375 30.6681 125.524 30.2761C125.673 29.8841 125.748 29.4174 125.748 28.8761C125.748 28.3161 125.673 27.8448 125.524 27.4621C125.375 27.0701 125.16 26.7761 124.88 26.5801C124.6 26.3748 124.259 26.2721 123.858 26.2721C123.261 26.2721 122.785 26.5054 122.43 26.9721C122.075 27.4294 121.898 28.0641 121.898 28.8761C121.898 29.6788 122.075 30.3134 122.43 30.7801C122.785 31.2468 123.261 31.4801 123.858 31.4801ZM132.267 32.7681C131.539 32.7681 130.909 32.6094 130.377 32.2921C129.854 31.9748 129.448 31.5221 129.159 30.9341C128.879 30.3461 128.739 29.6601 128.739 28.8761C128.739 28.0921 128.879 27.4108 129.159 26.8321C129.448 26.2441 129.854 25.7914 130.377 25.4741C130.9 25.1474 131.516 24.9841 132.225 24.9841C132.897 24.9841 133.49 25.1428 134.003 25.4601C134.516 25.7681 134.913 26.2161 135.193 26.8041C135.482 27.3921 135.627 28.1014 135.627 28.9321V29.3101H130.279C130.316 30.0381 130.508 30.5841 130.853 30.9481C131.208 31.3121 131.684 31.4941 132.281 31.4941C132.72 31.4941 133.084 31.3914 133.373 31.1861C133.662 30.9808 133.863 30.7054 133.975 30.3601L135.515 30.4581C135.319 31.1488 134.932 31.7088 134.353 32.1381C133.784 32.5581 133.088 32.7681 132.267 32.7681ZM130.279 28.1901H134.059C134.012 27.5274 133.821 27.0374 133.485 26.7201C133.158 26.4028 132.738 26.2441 132.225 26.2441C131.693 26.2441 131.254 26.4121 130.909 26.7481C130.573 27.0748 130.363 27.5554 130.279 28.1901ZM140.826 32.6001V22.6601H147.28V24.0461H141.54L142.338 23.2201V27.7841L141.54 27.0701H147.028V28.4141H141.54L142.338 27.7001V32.6001H140.826ZM148.601 32.6001V25.1521H149.959L150.015 27.1261L149.889 27.0841C149.992 26.4121 150.197 25.9221 150.505 25.6141C150.823 25.3061 151.247 25.1521 151.779 25.1521H152.493V26.4821H151.779C151.406 26.4821 151.093 26.5428 150.841 26.6641C150.589 26.7854 150.398 26.9721 150.267 27.2241C150.146 27.4761 150.085 27.8028 150.085 28.2041V32.6001H148.601ZM155.664 32.7681C154.889 32.7681 154.268 32.5908 153.802 32.2361C153.344 31.8814 153.116 31.3821 153.116 30.7381C153.116 30.0941 153.307 29.5948 153.69 29.2401C154.082 28.8761 154.684 28.6148 155.496 28.4561L158.058 27.9661C158.058 27.3874 157.922 26.9581 157.652 26.6781C157.381 26.3888 156.98 26.2441 156.448 26.2441C155.972 26.2441 155.598 26.3514 155.328 26.5661C155.057 26.7714 154.87 27.0794 154.768 27.4901L153.242 27.3921C153.382 26.6454 153.727 26.0574 154.278 25.6281C154.838 25.1988 155.561 24.9841 156.448 24.9841C157.456 24.9841 158.221 25.2548 158.744 25.7961C159.276 26.3281 159.542 27.0794 159.542 28.0501V30.9481C159.542 31.1254 159.57 31.2514 159.626 31.3261C159.691 31.3914 159.794 31.4241 159.934 31.4241H160.2V32.6001C160.153 32.6094 160.078 32.6188 159.976 32.6281C159.873 32.6374 159.766 32.6421 159.654 32.6421C159.336 32.6421 159.061 32.5908 158.828 32.4881C158.604 32.3854 158.436 32.2174 158.324 31.9841C158.212 31.7414 158.156 31.4194 158.156 31.0181L158.31 31.0881C158.235 31.4148 158.072 31.7041 157.82 31.9561C157.577 32.2081 157.264 32.4088 156.882 32.5581C156.508 32.6981 156.102 32.7681 155.664 32.7681ZM155.902 31.5921C156.35 31.5921 156.732 31.5081 157.05 31.3401C157.367 31.1628 157.614 30.9201 157.792 30.6121C157.969 30.3041 158.058 29.9541 158.058 29.5621V29.0861L155.874 29.5061C155.426 29.5901 155.108 29.7254 154.922 29.9121C154.744 30.0894 154.656 30.3181 154.656 30.5981C154.656 30.9154 154.763 31.1628 154.978 31.3401C155.202 31.5081 155.51 31.5921 155.902 31.5921ZM161.453 32.6001V25.1521H162.811L162.867 27.1401L162.685 27.0421C162.769 26.5568 162.927 26.1648 163.161 25.8661C163.394 25.5674 163.679 25.3481 164.015 25.2081C164.351 25.0588 164.715 24.9841 165.107 24.9841C165.667 24.9841 166.129 25.1101 166.493 25.3621C166.866 25.6048 167.146 25.9408 167.333 26.3701C167.529 26.7901 167.627 27.2708 167.627 27.8121V32.6001H166.143V28.2601C166.143 27.8214 166.096 27.4528 166.003 27.1541C165.909 26.8554 165.755 26.6268 165.541 26.4681C165.326 26.3094 165.046 26.2301 164.701 26.2301C164.178 26.2301 163.753 26.4028 163.427 26.7481C163.1 27.0934 162.937 27.5974 162.937 28.2601V32.6001H161.453ZM172.556 34.8681C171.968 34.8681 171.45 34.7794 171.002 34.6021C170.554 34.4248 170.186 34.1728 169.896 33.8461C169.607 33.5288 169.411 33.1554 169.308 32.7261L170.848 32.6281C170.951 32.9361 171.128 33.1788 171.38 33.3561C171.642 33.5428 172.034 33.6361 172.556 33.6361C173.172 33.6361 173.644 33.5054 173.97 33.2441C174.306 32.9828 174.474 32.5861 174.474 32.0541V30.9761C174.297 31.3588 174.012 31.6621 173.62 31.8861C173.228 32.1101 172.79 32.2221 172.304 32.2221C171.679 32.2221 171.124 32.0681 170.638 31.7601C170.153 31.4521 169.775 31.0274 169.504 30.4861C169.234 29.9448 169.098 29.3194 169.098 28.6101C169.098 27.8914 169.229 27.2614 169.49 26.7201C169.761 26.1788 170.134 25.7541 170.61 25.4461C171.096 25.1381 171.642 24.9841 172.248 24.9841C172.78 24.9841 173.247 25.1054 173.648 25.3481C174.059 25.5908 174.353 25.9174 174.53 26.3281V25.1521H175.958V32.0121C175.958 32.6281 175.818 33.1461 175.538 33.5661C175.268 33.9954 174.876 34.3174 174.362 34.5321C173.858 34.7561 173.256 34.8681 172.556 34.8681ZM172.542 30.9621C173.121 30.9621 173.583 30.7521 173.928 30.3321C174.283 29.9121 174.465 29.3334 174.474 28.5961C174.484 28.1108 174.409 27.6954 174.25 27.3501C174.092 26.9954 173.863 26.7248 173.564 26.5381C173.275 26.3421 172.934 26.2441 172.542 26.2441C171.936 26.2441 171.464 26.4588 171.128 26.8881C170.802 27.3081 170.638 27.8774 170.638 28.5961C170.638 29.3241 170.806 29.9028 171.142 30.3321C171.488 30.7521 171.954 30.9621 172.542 30.9621ZM180.993 32.7681C180.284 32.7681 179.663 32.6094 179.131 32.2921C178.599 31.9748 178.189 31.5221 177.899 30.9341C177.61 30.3461 177.465 29.6601 177.465 28.8761C177.465 28.0828 177.61 27.3968 177.899 26.8181C178.189 26.2394 178.599 25.7914 179.131 25.4741C179.663 25.1474 180.284 24.9841 180.993 24.9841C181.703 24.9841 182.323 25.1474 182.855 25.4741C183.387 25.7914 183.798 26.2394 184.087 26.8181C184.377 27.3968 184.521 28.0828 184.521 28.8761C184.521 29.6601 184.377 30.3461 184.087 30.9341C183.798 31.5221 183.387 31.9748 182.855 32.2921C182.323 32.6094 181.703 32.7681 180.993 32.7681ZM180.993 31.4801C181.628 31.4801 182.118 31.2514 182.463 30.7941C182.809 30.3274 182.981 29.6881 182.981 28.8761C182.981 28.0641 182.809 27.4294 182.463 26.9721C182.118 26.5054 181.628 26.2721 180.993 26.2721C180.368 26.2721 179.878 26.5054 179.523 26.9721C179.178 27.4294 179.005 28.0641 179.005 28.8761C179.005 29.6881 179.178 30.3274 179.523 30.7941C179.878 31.2514 180.368 31.4801 180.993 31.4801Z" fill="black"/>
<path d="M57.8801 174.6L61.4641 164.66H63.3821L66.9661 174.6H65.3561L64.4461 172.01H60.3861L59.4901 174.6H57.8801ZM60.8621 170.638H63.9841L62.4161 166.102L60.8621 170.638ZM70.675 174.768C70.0403 174.768 69.485 174.609 69.009 174.292C68.5423 173.975 68.183 173.527 67.931 172.948C67.6883 172.36 67.567 171.669 67.567 170.876C67.567 170.083 67.693 169.397 67.945 168.818C68.197 168.23 68.5563 167.777 69.023 167.46C69.4897 167.143 70.0403 166.984 70.675 166.984C71.1883 166.984 71.6457 167.091 72.047 167.306C72.4483 167.521 72.7517 167.819 72.957 168.202V164.66H74.441V174.6H73.055L73.013 173.48C72.8077 173.881 72.495 174.199 72.075 174.432C71.6643 174.656 71.1977 174.768 70.675 174.768ZM71.067 173.48C71.4683 173.48 71.809 173.377 72.089 173.172C72.369 172.967 72.5837 172.668 72.733 172.276C72.8823 171.884 72.957 171.417 72.957 170.876C72.957 170.316 72.8823 169.845 72.733 169.462C72.5837 169.07 72.369 168.776 72.089 168.58C71.809 168.375 71.4683 168.272 71.067 168.272C70.4697 168.272 69.9937 168.505 69.639 168.972C69.2843 169.429 69.107 170.064 69.107 170.876C69.107 171.679 69.2843 172.313 69.639 172.78C69.9937 173.247 70.4697 173.48 71.067 173.48ZM76.3005 174.6V167.152H77.7845V174.6H76.3005ZM76.2725 166.074V164.59H77.8125V166.074H76.2725ZM82.8118 174.768C82.1025 174.768 81.4818 174.609 80.9498 174.292C80.4178 173.975 80.0071 173.522 79.7178 172.934C79.4285 172.346 79.2838 171.66 79.2838 170.876C79.2838 170.092 79.4285 169.411 79.7178 168.832C80.0071 168.244 80.4178 167.791 80.9498 167.474C81.4818 167.147 82.1025 166.984 82.8118 166.984C83.4185 166.984 83.9551 167.091 84.4218 167.306C84.8978 167.511 85.2805 167.815 85.5698 168.216C85.8685 168.617 86.0598 169.107 86.1438 169.686L84.5898 169.77C84.5151 169.285 84.3191 168.916 84.0018 168.664C83.6845 168.403 83.2878 168.272 82.8118 168.272C82.1865 168.272 81.6965 168.505 81.3418 168.972C80.9965 169.429 80.8238 170.064 80.8238 170.876C80.8238 171.688 80.9965 172.327 81.3418 172.794C81.6965 173.251 82.1865 173.48 82.8118 173.48C83.2878 173.48 83.6845 173.349 84.0018 173.088C84.3191 172.817 84.5151 172.411 84.5898 171.87L86.1438 171.954C86.0598 172.523 85.8685 173.018 85.5698 173.438C85.2805 173.858 84.8978 174.185 84.4218 174.418C83.9551 174.651 83.4185 174.768 82.8118 174.768ZM87.4978 174.6V167.152H88.9818V174.6H87.4978ZM87.4698 166.074V164.59H89.0098V166.074H87.4698ZM94.0091 174.768C93.2997 174.768 92.6791 174.609 92.1471 174.292C91.6151 173.975 91.2044 173.522 90.9151 172.934C90.6257 172.346 90.4811 171.66 90.4811 170.876C90.4811 170.083 90.6257 169.397 90.9151 168.818C91.2044 168.239 91.6151 167.791 92.1471 167.474C92.6791 167.147 93.2997 166.984 94.0091 166.984C94.7184 166.984 95.3391 167.147 95.8711 167.474C96.4031 167.791 96.8137 168.239 97.1031 168.818C97.3924 169.397 97.5371 170.083 97.5371 170.876C97.5371 171.66 97.3924 172.346 97.1031 172.934C96.8137 173.522 96.4031 173.975 95.8711 174.292C95.3391 174.609 94.7184 174.768 94.0091 174.768ZM94.0091 173.48C94.6437 173.48 95.1337 173.251 95.4791 172.794C95.8244 172.327 95.9971 171.688 95.9971 170.876C95.9971 170.064 95.8244 169.429 95.4791 168.972C95.1337 168.505 94.6437 168.272 94.0091 168.272C93.3837 168.272 92.8937 168.505 92.5391 168.972C92.1937 169.429 92.0211 170.064 92.0211 170.876C92.0211 171.688 92.1937 172.327 92.5391 172.794C92.8937 173.251 93.3837 173.48 94.0091 173.48ZM99.0368 174.6V167.152H100.395L100.451 169.14L100.269 169.042C100.353 168.557 100.511 168.165 100.745 167.866C100.978 167.567 101.263 167.348 101.599 167.208C101.935 167.059 102.299 166.984 102.691 166.984C103.251 166.984 103.713 167.11 104.077 167.362C104.45 167.605 104.73 167.941 104.917 168.37C105.113 168.79 105.211 169.271 105.211 169.812V174.6H103.727V170.26C103.727 169.821 103.68 169.453 103.587 169.154C103.493 168.855 103.339 168.627 103.125 168.468C102.91 168.309 102.63 168.23 102.285 168.23C101.762 168.23 101.337 168.403 101.011 168.748C100.684 169.093 100.521 169.597 100.521 170.26V174.6H99.0368ZM109.244 174.768C108.469 174.768 107.849 174.591 107.382 174.236C106.925 173.881 106.696 173.382 106.696 172.738C106.696 172.094 106.887 171.595 107.27 171.24C107.662 170.876 108.264 170.615 109.076 170.456L111.638 169.966C111.638 169.387 111.503 168.958 111.232 168.678C110.961 168.389 110.56 168.244 110.028 168.244C109.552 168.244 109.179 168.351 108.908 168.566C108.637 168.771 108.451 169.079 108.348 169.49L106.822 169.392C106.962 168.645 107.307 168.057 107.858 167.628C108.418 167.199 109.141 166.984 110.028 166.984C111.036 166.984 111.801 167.255 112.324 167.796C112.856 168.328 113.122 169.079 113.122 170.05V172.948C113.122 173.125 113.15 173.251 113.206 173.326C113.271 173.391 113.374 173.424 113.514 173.424H113.78V174.6C113.733 174.609 113.659 174.619 113.556 174.628C113.453 174.637 113.346 174.642 113.234 174.642C112.917 174.642 112.641 174.591 112.408 174.488C112.184 174.385 112.016 174.217 111.904 173.984C111.792 173.741 111.736 173.419 111.736 173.018L111.89 173.088C111.815 173.415 111.652 173.704 111.4 173.956C111.157 174.208 110.845 174.409 110.462 174.558C110.089 174.698 109.683 174.768 109.244 174.768ZM109.482 173.592C109.93 173.592 110.313 173.508 110.63 173.34C110.947 173.163 111.195 172.92 111.372 172.612C111.549 172.304 111.638 171.954 111.638 171.562V171.086L109.454 171.506C109.006 171.59 108.689 171.725 108.502 171.912C108.325 172.089 108.236 172.318 108.236 172.598C108.236 172.915 108.343 173.163 108.558 173.34C108.782 173.508 109.09 173.592 109.482 173.592ZM115.033 174.6V167.152H116.391L116.447 169.126L116.321 169.084C116.424 168.412 116.629 167.922 116.937 167.614C117.254 167.306 117.679 167.152 118.211 167.152H118.925V168.482H118.211C117.838 168.482 117.525 168.543 117.273 168.664C117.021 168.785 116.83 168.972 116.699 169.224C116.578 169.476 116.517 169.803 116.517 170.204V174.6H115.033ZM126.033 174.768C125.258 174.768 124.638 174.591 124.171 174.236C123.714 173.881 123.485 173.382 123.485 172.738C123.485 172.094 123.676 171.595 124.059 171.24C124.451 170.876 125.053 170.615 125.865 170.456L128.427 169.966C128.427 169.387 128.292 168.958 128.021 168.678C127.75 168.389 127.349 168.244 126.817 168.244C126.341 168.244 125.968 168.351 125.697 168.566C125.426 168.771 125.24 169.079 125.137 169.49L123.611 169.392C123.751 168.645 124.096 168.057 124.647 167.628C125.207 167.199 125.93 166.984 126.817 166.984C127.825 166.984 128.59 167.255 129.113 167.796C129.645 168.328 129.911 169.079 129.911 170.05V172.948C129.911 173.125 129.939 173.251 129.995 173.326C130.06 173.391 130.163 173.424 130.303 173.424H130.569V174.6C130.522 174.609 130.448 174.619 130.345 174.628C130.242 174.637 130.135 174.642 130.023 174.642C129.706 174.642 129.43 174.591 129.197 174.488C128.973 174.385 128.805 174.217 128.693 173.984C128.581 173.741 128.525 173.419 128.525 173.018L128.679 173.088C128.604 173.415 128.441 173.704 128.189 173.956C127.946 174.208 127.634 174.409 127.251 174.558C126.878 174.698 126.472 174.768 126.033 174.768ZM126.271 173.592C126.719 173.592 127.102 173.508 127.419 173.34C127.736 173.163 127.984 172.92 128.161 172.612C128.338 172.304 128.427 171.954 128.427 171.562V171.086L126.243 171.506C125.795 171.59 125.478 171.725 125.291 171.912C125.114 172.089 125.025 172.318 125.025 172.598C125.025 172.915 125.132 173.163 125.347 173.34C125.571 173.508 125.879 173.592 126.271 173.592ZM134.833 174.768C134.124 174.768 133.503 174.609 132.971 174.292C132.439 173.975 132.029 173.522 131.739 172.934C131.45 172.346 131.305 171.66 131.305 170.876C131.305 170.083 131.45 169.397 131.739 168.818C132.029 168.239 132.439 167.791 132.971 167.474C133.503 167.147 134.124 166.984 134.833 166.984C135.543 166.984 136.163 167.147 136.695 167.474C137.227 167.791 137.638 168.239 137.927 168.818C138.217 169.397 138.361 170.083 138.361 170.876C138.361 171.66 138.217 172.346 137.927 172.934C137.638 173.522 137.227 173.975 136.695 174.292C136.163 174.609 135.543 174.768 134.833 174.768ZM134.833 173.48C135.468 173.48 135.958 173.251 136.303 172.794C136.649 172.327 136.821 171.688 136.821 170.876C136.821 170.064 136.649 169.429 136.303 168.972C135.958 168.505 135.468 168.272 134.833 168.272C134.208 168.272 133.718 168.505 133.363 168.972C133.018 169.429 132.845 170.064 132.845 170.876C132.845 171.688 133.018 172.327 133.363 172.794C133.718 173.251 134.208 173.48 134.833 173.48ZM143.556 174.6V164.66H147.266C148.405 164.66 149.291 164.935 149.926 165.486C150.561 166.027 150.878 166.783 150.878 167.754C150.878 168.398 150.733 168.958 150.444 169.434C150.155 169.901 149.739 170.26 149.198 170.512C148.666 170.755 148.022 170.876 147.266 170.876H145.068V174.6H143.556ZM145.068 169.504H147.224C147.905 169.504 148.423 169.359 148.778 169.07C149.133 168.771 149.31 168.333 149.31 167.754C149.31 167.185 149.133 166.76 148.778 166.48C148.423 166.191 147.905 166.046 147.224 166.046H145.068V169.504ZM155.273 174.768C154.545 174.768 153.915 174.609 153.383 174.292C152.86 173.975 152.454 173.522 152.165 172.934C151.885 172.346 151.745 171.66 151.745 170.876C151.745 170.092 151.885 169.411 152.165 168.832C152.454 168.244 152.86 167.791 153.383 167.474C153.905 167.147 154.521 166.984 155.231 166.984C155.903 166.984 156.495 167.143 157.009 167.46C157.522 167.768 157.919 168.216 158.199 168.804C158.488 169.392 158.633 170.101 158.633 170.932V171.31H153.285C153.322 172.038 153.513 172.584 153.859 172.948C154.213 173.312 154.689 173.494 155.287 173.494C155.725 173.494 156.089 173.391 156.379 173.186C156.668 172.981 156.869 172.705 156.981 172.36L158.521 172.458C158.325 173.149 157.937 173.709 157.359 174.138C156.789 174.558 156.094 174.768 155.273 174.768ZM153.285 170.19H157.065C157.018 169.527 156.827 169.037 156.491 168.72C156.164 168.403 155.744 168.244 155.231 168.244C154.699 168.244 154.26 168.412 153.915 168.748C153.579 169.075 153.369 169.555 153.285 170.19ZM162.782 174.768C162.148 174.768 161.592 174.609 161.116 174.292C160.65 173.975 160.29 173.527 160.038 172.948C159.796 172.36 159.674 171.669 159.674 170.876C159.674 170.083 159.8 169.397 160.052 168.818C160.304 168.23 160.664 167.777 161.13 167.46C161.597 167.143 162.148 166.984 162.782 166.984C163.296 166.984 163.753 167.091 164.154 167.306C164.556 167.521 164.859 167.819 165.064 168.202V164.66H166.548V174.6H165.162L165.12 173.48C164.915 173.881 164.602 174.199 164.182 174.432C163.772 174.656 163.305 174.768 162.782 174.768ZM163.174 173.48C163.576 173.48 163.916 173.377 164.196 173.172C164.476 172.967 164.691 172.668 164.84 172.276C164.99 171.884 165.064 171.417 165.064 170.876C165.064 170.316 164.99 169.845 164.84 169.462C164.691 169.07 164.476 168.776 164.196 168.58C163.916 168.375 163.576 168.272 163.174 168.272C162.577 168.272 162.101 168.505 161.746 168.972C161.392 169.429 161.214 170.064 161.214 170.876C161.214 171.679 161.392 172.313 161.746 172.78C162.101 173.247 162.577 173.48 163.174 173.48ZM168.408 174.6V167.152H169.892V174.6H168.408ZM168.38 166.074V164.59H169.92V166.074H168.38ZM174.499 174.768C173.865 174.768 173.309 174.609 172.833 174.292C172.367 173.975 172.007 173.527 171.755 172.948C171.513 172.36 171.391 171.669 171.391 170.876C171.391 170.083 171.517 169.397 171.769 168.818C172.021 168.23 172.381 167.777 172.847 167.46C173.314 167.143 173.865 166.984 174.499 166.984C175.013 166.984 175.47 167.091 175.871 167.306C176.273 167.521 176.576 167.819 176.781 168.202V164.66H178.265V174.6H176.879L176.837 173.48C176.632 173.881 176.319 174.199 175.899 174.432C175.489 174.656 175.022 174.768 174.499 174.768ZM174.891 173.48C175.293 173.48 175.633 173.377 175.913 173.172C176.193 172.967 176.408 172.668 176.557 172.276C176.707 171.884 176.781 171.417 176.781 170.876C176.781 170.316 176.707 169.845 176.557 169.462C176.408 169.07 176.193 168.776 175.913 168.58C175.633 168.375 175.293 168.272 174.891 168.272C174.294 168.272 173.818 168.505 173.463 168.972C173.109 169.429 172.931 170.064 172.931 170.876C172.931 171.679 173.109 172.313 173.463 172.78C173.818 173.247 174.294 173.48 174.891 173.48ZM183.3 174.768C182.591 174.768 181.97 174.609 181.438 174.292C180.906 173.975 180.495 173.522 180.206 172.934C179.917 172.346 179.772 171.66 179.772 170.876C179.772 170.083 179.917 169.397 180.206 168.818C180.495 168.239 180.906 167.791 181.438 167.474C181.97 167.147 182.591 166.984 183.3 166.984C184.009 166.984 184.63 167.147 185.162 167.474C185.694 167.791 186.105 168.239 186.394 168.818C186.683 169.397 186.828 170.083 186.828 170.876C186.828 171.66 186.683 172.346 186.394 172.934C186.105 173.522 185.694 173.975 185.162 174.292C184.63 174.609 184.009 174.768 183.3 174.768ZM183.3 173.48C183.935 173.48 184.425 173.251 184.77 172.794C185.115 172.327 185.288 171.688 185.288 170.876C185.288 170.064 185.115 169.429 184.77 168.972C184.425 168.505 183.935 168.272 183.3 168.272C182.675 168.272 182.185 168.505 181.83 168.972C181.485 169.429 181.312 170.064 181.312 170.876C181.312 171.688 181.485 172.327 181.83 172.794C182.185 173.251 182.675 173.48 183.3 173.48Z" fill="white"/>
<path d="M81.8041 109.6V99.6601H85.7661C86.4754 99.6601 87.0868 99.7814 87.6001 100.024C88.1134 100.267 88.5101 100.612 88.7901 101.06C89.0701 101.508 89.2101 102.04 89.2101 102.656C89.2101 103.104 89.1074 103.505 88.9021 103.86C88.7061 104.215 88.4401 104.499 88.1041 104.714C87.7774 104.919 87.4274 105.036 87.0541 105.064L86.9841 104.938C87.6094 104.938 88.0948 105.083 88.4401 105.372C88.7854 105.652 88.9861 106.095 89.0421 106.702L89.3081 109.6H87.7821L87.5441 106.898C87.5161 106.497 87.3808 106.203 87.1381 106.016C86.8954 105.82 86.4988 105.722 85.9481 105.722H83.3161V109.6H81.8041ZM83.3161 104.336H85.7941C86.3634 104.336 86.8114 104.196 87.1381 103.916C87.4741 103.627 87.6421 103.221 87.6421 102.698C87.6421 102.166 87.4741 101.76 87.1381 101.48C86.8021 101.191 86.3121 101.046 85.6681 101.046H83.3161V104.336ZM94.0403 109.768C93.3123 109.768 92.6823 109.609 92.1503 109.292C91.6276 108.975 91.2216 108.522 90.9323 107.934C90.6523 107.346 90.5123 106.66 90.5123 105.876C90.5123 105.092 90.6523 104.411 90.9323 103.832C91.2216 103.244 91.6276 102.791 92.1503 102.474C92.673 102.147 93.289 101.984 93.9983 101.984C94.6703 101.984 95.263 102.143 95.7763 102.46C96.2896 102.768 96.6863 103.216 96.9663 103.804C97.2557 104.392 97.4003 105.101 97.4003 105.932V106.31H92.0523C92.0896 107.038 92.281 107.584 92.6263 107.948C92.981 108.312 93.457 108.494 94.0543 108.494C94.493 108.494 94.857 108.391 95.1463 108.186C95.4356 107.981 95.6363 107.705 95.7483 107.36L97.2883 107.458C97.0923 108.149 96.705 108.709 96.1263 109.138C95.557 109.558 94.8617 109.768 94.0403 109.768ZM92.0523 105.19H95.8323C95.7857 104.527 95.5943 104.037 95.2583 103.72C94.9316 103.403 94.5116 103.244 93.9983 103.244C93.4663 103.244 93.0276 103.412 92.6823 103.748C92.3463 104.075 92.1363 104.555 92.0523 105.19ZM99.3729 109.6V101.676C99.3729 101.06 99.5456 100.57 99.8909 100.206C100.236 99.8421 100.778 99.6601 101.515 99.6601H102.831V100.878H101.711C101.422 100.878 101.207 100.957 101.067 101.116C100.927 101.265 100.857 101.48 100.857 101.76V109.6H99.3729ZM98.3369 103.454V102.25H102.719V103.454H98.3369ZM103.99 109.6V102.152H105.348L105.404 104.126L105.278 104.084C105.381 103.412 105.586 102.922 105.894 102.614C106.211 102.306 106.636 102.152 107.168 102.152H107.882V103.482H107.168C106.795 103.482 106.482 103.543 106.23 103.664C105.978 103.785 105.787 103.972 105.656 104.224C105.535 104.476 105.474 104.803 105.474 105.204V109.6H103.99ZM109.103 109.6V102.152H110.587V109.6H109.103ZM109.075 101.074V99.5901H110.615V101.074H109.075ZM115.545 111.868C114.957 111.868 114.439 111.779 113.991 111.602C113.543 111.425 113.174 111.173 112.885 110.846C112.595 110.529 112.399 110.155 112.297 109.726L113.837 109.628C113.939 109.936 114.117 110.179 114.369 110.356C114.63 110.543 115.022 110.636 115.545 110.636C116.161 110.636 116.632 110.505 116.959 110.244C117.295 109.983 117.463 109.586 117.463 109.054V107.976C117.285 108.359 117.001 108.662 116.609 108.886C116.217 109.11 115.778 109.222 115.293 109.222C114.667 109.222 114.112 109.068 113.627 108.76C113.141 108.452 112.763 108.027 112.493 107.486C112.222 106.945 112.087 106.319 112.087 105.61C112.087 104.891 112.217 104.261 112.479 103.72C112.749 103.179 113.123 102.754 113.599 102.446C114.084 102.138 114.63 101.984 115.237 101.984C115.769 101.984 116.235 102.105 116.637 102.348C117.047 102.591 117.341 102.917 117.519 103.328V102.152H118.947V109.012C118.947 109.628 118.807 110.146 118.527 110.566C118.256 110.995 117.864 111.317 117.351 111.532C116.847 111.756 116.245 111.868 115.545 111.868ZM115.531 107.962C116.109 107.962 116.571 107.752 116.917 107.332C117.271 106.912 117.453 106.333 117.463 105.596C117.472 105.111 117.397 104.695 117.239 104.35C117.08 103.995 116.851 103.725 116.553 103.538C116.263 103.342 115.923 103.244 115.531 103.244C114.924 103.244 114.453 103.459 114.117 103.888C113.79 104.308 113.627 104.877 113.627 105.596C113.627 106.324 113.795 106.903 114.131 107.332C114.476 107.752 114.943 107.962 115.531 107.962ZM123.982 109.768C123.254 109.768 122.624 109.609 122.092 109.292C121.569 108.975 121.163 108.522 120.874 107.934C120.594 107.346 120.454 106.66 120.454 105.876C120.454 105.092 120.594 104.411 120.874 103.832C121.163 103.244 121.569 102.791 122.092 102.474C122.614 102.147 123.23 101.984 123.94 101.984C124.612 101.984 125.204 102.143 125.718 102.46C126.231 102.768 126.628 103.216 126.908 103.804C127.197 104.392 127.342 105.101 127.342 105.932V106.31H121.994C122.031 107.038 122.222 107.584 122.568 107.948C122.922 108.312 123.398 108.494 123.996 108.494C124.434 108.494 124.798 108.391 125.088 108.186C125.377 107.981 125.578 107.705 125.69 107.36L127.23 107.458C127.034 108.149 126.646 108.709 126.068 109.138C125.498 109.558 124.803 109.768 123.982 109.768ZM121.994 105.19H125.774C125.727 104.527 125.536 104.037 125.2 103.72C124.873 103.403 124.453 103.244 123.94 103.244C123.408 103.244 122.969 103.412 122.624 103.748C122.288 104.075 122.078 104.555 121.994 105.19ZM128.845 109.6V102.152H130.203L130.259 104.126L130.133 104.084C130.236 103.412 130.441 102.922 130.749 102.614C131.067 102.306 131.491 102.152 132.023 102.152H132.737V103.482H132.023C131.65 103.482 131.337 103.543 131.085 103.664C130.833 103.785 130.642 103.972 130.511 104.224C130.39 104.476 130.329 104.803 130.329 105.204V109.6H128.845ZM135.908 109.768C135.133 109.768 134.513 109.591 134.046 109.236C133.589 108.881 133.36 108.382 133.36 107.738C133.36 107.094 133.551 106.595 133.934 106.24C134.326 105.876 134.928 105.615 135.74 105.456L138.302 104.966C138.302 104.387 138.167 103.958 137.896 103.678C137.625 103.389 137.224 103.244 136.692 103.244C136.216 103.244 135.843 103.351 135.572 103.566C135.301 103.771 135.115 104.079 135.012 104.49L133.486 104.392C133.626 103.645 133.971 103.057 134.522 102.628C135.082 102.199 135.805 101.984 136.692 101.984C137.7 101.984 138.465 102.255 138.988 102.796C139.52 103.328 139.786 104.079 139.786 105.05V107.948C139.786 108.125 139.814 108.251 139.87 108.326C139.935 108.391 140.038 108.424 140.178 108.424H140.444V109.6C140.397 109.609 140.323 109.619 140.22 109.628C140.117 109.637 140.01 109.642 139.898 109.642C139.581 109.642 139.305 109.591 139.072 109.488C138.848 109.385 138.68 109.217 138.568 108.984C138.456 108.741 138.4 108.419 138.4 108.018L138.554 108.088C138.479 108.415 138.316 108.704 138.064 108.956C137.821 109.208 137.509 109.409 137.126 109.558C136.753 109.698 136.347 109.768 135.908 109.768ZM136.146 108.592C136.594 108.592 136.977 108.508 137.294 108.34C137.611 108.163 137.859 107.92 138.036 107.612C138.213 107.304 138.302 106.954 138.302 106.562V106.086L136.118 106.506C135.67 106.59 135.353 106.725 135.166 106.912C134.989 107.089 134.9 107.318 134.9 107.598C134.9 107.915 135.007 108.163 135.222 108.34C135.446 108.508 135.754 108.592 136.146 108.592ZM141.697 109.6V102.152H143.055L143.111 104.14L142.929 104.042C143.013 103.557 143.172 103.165 143.405 102.866C143.638 102.567 143.923 102.348 144.259 102.208C144.595 102.059 144.959 101.984 145.351 101.984C145.911 101.984 146.373 102.11 146.737 102.362C147.11 102.605 147.39 102.941 147.577 103.37C147.773 103.79 147.871 104.271 147.871 104.812V109.6H146.387V105.26C146.387 104.821 146.34 104.453 146.247 104.154C146.154 103.855 146 103.627 145.785 103.468C145.57 103.309 145.29 103.23 144.945 103.23C144.422 103.23 143.998 103.403 143.671 103.748C143.344 104.093 143.181 104.597 143.181 105.26V109.6H141.697ZM152.291 109.6C151.582 109.6 151.059 109.437 150.723 109.11C150.387 108.783 150.219 108.275 150.219 107.584V100.402H151.703V107.472C151.703 107.817 151.778 108.055 151.927 108.186C152.077 108.317 152.305 108.382 152.613 108.382H153.677V109.6H152.291ZM149.085 103.37V102.152H153.677V103.37H149.085ZM158.038 109.768C157.31 109.768 156.68 109.609 156.148 109.292C155.626 108.975 155.22 108.522 154.93 107.934C154.65 107.346 154.51 106.66 154.51 105.876C154.51 105.092 154.65 104.411 154.93 103.832C155.22 103.244 155.626 102.791 156.148 102.474C156.671 102.147 157.287 101.984 157.996 101.984C158.668 101.984 159.261 102.143 159.774 102.46C160.288 102.768 160.684 103.216 160.964 103.804C161.254 104.392 161.398 105.101 161.398 105.932V106.31H156.05C156.088 107.038 156.279 107.584 156.624 107.948C156.979 108.312 157.455 108.494 158.052 108.494C158.491 108.494 158.855 108.391 159.144 108.186C159.434 107.981 159.634 107.705 159.746 107.36L161.286 107.458C161.09 108.149 160.703 108.709 160.124 109.138C159.555 109.558 158.86 109.768 158.038 109.768ZM156.05 105.19H159.83C159.784 104.527 159.592 104.037 159.256 103.72C158.93 103.403 158.51 103.244 157.996 103.244C157.464 103.244 157.026 103.412 156.68 103.748C156.344 104.075 156.134 104.555 156.05 105.19Z" fill="black"/>
<path d="M81.5201 48.6001V41.5001H84.0701C84.8634 41.5001 85.4801 41.6901 85.9201 42.0701C86.3601 42.4501 86.5801 42.9768 86.5801 43.6501C86.5801 44.1034 86.4801 44.4968 86.2801 44.8301C86.0801 45.1568 85.7934 45.4068 85.4201 45.5801C85.0468 45.7534 84.5968 45.8401 84.0701 45.8401H82.3801V48.6001H81.5201ZM82.3801 45.0001H84.0701C84.6034 45.0001 85.0034 44.8868 85.2701 44.6601C85.5434 44.4334 85.6801 44.0968 85.6801 43.6501C85.6801 43.2168 85.5434 42.8901 85.2701 42.6701C85.0034 42.4501 84.6034 42.3401 84.0701 42.3401H82.3801V45.0001ZM87.8063 48.6001V43.3001H88.5463L88.5863 44.6401L88.5063 44.6101C88.573 44.1568 88.7163 43.8268 88.9363 43.6201C89.163 43.4068 89.463 43.3001 89.8363 43.3001H90.3563V44.1001H89.8463C89.5797 44.1001 89.3563 44.1501 89.1763 44.2501C89.003 44.3434 88.8697 44.4868 88.7763 44.6801C88.6897 44.8668 88.6463 45.1068 88.6463 45.4001V48.6001H87.8063ZM92.625 48.7201C92.0784 48.7201 91.6417 48.5934 91.315 48.3401C90.995 48.0868 90.835 47.7334 90.835 47.2801C90.835 46.8268 90.9684 46.4701 91.235 46.2101C91.5017 45.9501 91.925 45.7668 92.505 45.6601L94.385 45.3101C94.385 44.8634 94.2784 44.5301 94.065 44.3101C93.8584 44.0901 93.545 43.9801 93.125 43.9801C92.7584 43.9801 92.4684 44.0634 92.255 44.2301C92.0417 44.3901 91.895 44.6234 91.815 44.9301L90.925 44.8601C91.025 44.3601 91.265 43.9568 91.645 43.6501C92.0317 43.3368 92.525 43.1801 93.125 43.1801C93.805 43.1801 94.325 43.3734 94.685 43.7601C95.045 44.1401 95.225 44.6668 95.225 45.3401V47.5301C95.225 47.6501 95.245 47.7368 95.285 47.7901C95.3317 47.8368 95.405 47.8601 95.505 47.8601H95.715V48.6001C95.6884 48.6068 95.645 48.6101 95.585 48.6101C95.525 48.6168 95.4617 48.6201 95.395 48.6201C95.155 48.6201 94.9584 48.5834 94.805 48.5101C94.6584 48.4301 94.5517 48.3101 94.485 48.1501C94.4184 47.9834 94.385 47.7668 94.385 47.5001L94.485 47.5201C94.4384 47.7468 94.325 47.9534 94.145 48.1401C93.965 48.3201 93.7417 48.4634 93.475 48.5701C93.2084 48.6701 92.925 48.7201 92.625 48.7201ZM92.705 47.9801C93.0584 47.9801 93.3584 47.9134 93.605 47.7801C93.8584 47.6401 94.0517 47.4534 94.185 47.2201C94.3184 46.9801 94.385 46.7134 94.385 46.4201V46.0401L92.665 46.3601C92.305 46.4268 92.055 46.5301 91.915 46.6701C91.7817 46.8034 91.715 46.9801 91.715 47.2001C91.715 47.4468 91.8017 47.6401 91.975 47.7801C92.155 47.9134 92.3984 47.9801 92.705 47.9801ZM98.3401 48.6001C97.8601 48.6001 97.5034 48.4901 97.2701 48.2701C97.0434 48.0501 96.9301 47.7068 96.9301 47.2401V42.0601H97.7701V47.2201C97.7701 47.4601 97.8234 47.6268 97.9301 47.7201C98.0368 47.8134 98.2001 47.8601 98.4201 47.8601H99.1801V48.6001H98.3401ZM96.1501 44.0401V43.3001H99.1801V44.0401H96.1501ZM102.23 48.7201C101.743 48.7201 101.317 48.6068 100.95 48.3801C100.583 48.1534 100.3 47.8334 100.1 47.4201C99.8999 47.0001 99.7999 46.5101 99.7999 45.9501C99.7999 45.3834 99.8999 44.8934 100.1 44.4801C100.3 44.0668 100.583 43.7468 100.95 43.5201C101.317 43.2934 101.743 43.1801 102.23 43.1801C102.717 43.1801 103.14 43.2934 103.5 43.5201C103.867 43.7468 104.15 44.0668 104.35 44.4801C104.55 44.8934 104.65 45.3834 104.65 45.9501C104.65 46.5101 104.55 47.0001 104.35 47.4201C104.15 47.8334 103.867 48.1534 103.5 48.3801C103.14 48.6068 102.717 48.7201 102.23 48.7201ZM102.23 47.9201C102.717 47.9201 103.093 47.7468 103.36 47.4001C103.633 47.0468 103.77 46.5634 103.77 45.9501C103.77 45.3368 103.633 44.8568 103.36 44.5101C103.093 44.1568 102.717 43.9801 102.23 43.9801C101.743 43.9801 101.363 44.1568 101.09 44.5101C100.817 44.8568 100.68 45.3368 100.68 45.9501C100.68 46.5634 100.817 47.0468 101.09 47.4001C101.363 47.7468 101.743 47.9201 102.23 47.9201ZM108.392 50.1001V43.3001H109.172L109.192 44.4401L109.072 44.3801C109.206 43.9868 109.426 43.6901 109.732 43.4901C110.046 43.2834 110.406 43.1801 110.812 43.1801C111.339 43.1801 111.769 43.3101 112.102 43.5701C112.442 43.8301 112.692 44.1701 112.852 44.5901C113.019 45.0101 113.102 45.4634 113.102 45.9501C113.102 46.4368 113.019 46.8901 112.852 47.3101C112.692 47.7301 112.442 48.0701 112.102 48.3301C111.769 48.5901 111.339 48.7201 110.812 48.7201C110.539 48.7201 110.282 48.6734 110.042 48.5801C109.809 48.4868 109.609 48.3568 109.442 48.1901C109.282 48.0234 109.172 47.8268 109.112 47.6001L109.232 47.4601V50.1001H108.392ZM110.732 47.9201C111.192 47.9201 111.556 47.7468 111.822 47.4001C112.089 47.0534 112.222 46.5701 112.222 45.9501C112.222 45.3301 112.089 44.8468 111.822 44.5001C111.556 44.1534 111.192 43.9801 110.732 43.9801C110.426 43.9801 110.159 44.0534 109.932 44.2001C109.712 44.3468 109.539 44.5668 109.412 44.8601C109.292 45.1534 109.232 45.5168 109.232 45.9501C109.232 46.3834 109.292 46.7468 109.412 47.0401C109.532 47.3334 109.706 47.5534 109.932 47.7001C110.159 47.8468 110.426 47.9201 110.732 47.9201ZM116.312 48.7201C115.812 48.7201 115.379 48.6068 115.012 48.3801C114.652 48.1534 114.372 47.8334 114.172 47.4201C113.979 47.0001 113.882 46.5101 113.882 45.9501C113.882 45.3901 113.979 44.9034 114.172 44.4901C114.372 44.0768 114.649 43.7568 115.002 43.5301C115.362 43.2968 115.785 43.1801 116.272 43.1801C116.732 43.1801 117.139 43.2901 117.492 43.5101C117.845 43.7234 118.119 44.0368 118.312 44.4501C118.512 44.8634 118.612 45.3668 118.612 45.9601V46.2101H114.762C114.795 46.7768 114.945 47.2034 115.212 47.4901C115.485 47.7768 115.852 47.9201 116.312 47.9201C116.659 47.9201 116.942 47.8401 117.162 47.6801C117.389 47.5134 117.545 47.2968 117.632 47.0301L118.532 47.1001C118.392 47.5734 118.125 47.9634 117.732 48.2701C117.345 48.5701 116.872 48.7201 116.312 48.7201ZM114.762 45.4701H117.692C117.652 44.9568 117.502 44.5801 117.242 44.3401C116.989 44.1001 116.665 43.9801 116.272 43.9801C115.865 43.9801 115.529 44.1068 115.262 44.3601C115.002 44.6068 114.835 44.9768 114.762 45.4701ZM121.63 48.7201C121.17 48.7201 120.77 48.6068 120.43 48.3801C120.096 48.1534 119.84 47.8334 119.66 47.4201C119.48 47.0068 119.39 46.5168 119.39 45.9501C119.39 45.3834 119.48 44.8934 119.66 44.4801C119.84 44.0668 120.096 43.7468 120.43 43.5201C120.77 43.2934 121.17 43.1801 121.63 43.1801C121.983 43.1801 122.306 43.2568 122.6 43.4101C122.893 43.5568 123.113 43.7668 123.26 44.0401V41.5001H124.1V48.6001H123.34L123.31 47.8001C123.163 48.0868 122.94 48.3134 122.64 48.4801C122.34 48.6401 122.003 48.7201 121.63 48.7201ZM121.8 47.9201C122.113 47.9201 122.376 47.8401 122.59 47.6801C122.81 47.5201 122.976 47.2934 123.09 47.0001C123.203 46.7001 123.26 46.3501 123.26 45.9501C123.26 45.5368 123.203 45.1834 123.09 44.8901C122.976 44.5968 122.81 44.3734 122.59 44.2201C122.376 44.0601 122.113 43.9801 121.8 43.9801C121.333 43.9801 120.96 44.1568 120.68 44.5101C120.406 44.8568 120.27 45.3368 120.27 45.9501C120.27 46.5568 120.406 47.0368 120.68 47.3901C120.96 47.7434 121.333 47.9201 121.8 47.9201ZM125.502 48.6001V43.3001H126.342V48.6001H125.502ZM125.482 42.4701V41.4901H126.362V42.4701H125.482ZM129.725 48.7201C129.265 48.7201 128.865 48.6068 128.525 48.3801C128.192 48.1534 127.935 47.8334 127.755 47.4201C127.575 47.0068 127.485 46.5168 127.485 45.9501C127.485 45.3834 127.575 44.8934 127.755 44.4801C127.935 44.0668 128.192 43.7468 128.525 43.5201C128.865 43.2934 129.265 43.1801 129.725 43.1801C130.079 43.1801 130.402 43.2568 130.695 43.4101C130.989 43.5568 131.209 43.7668 131.355 44.0401V41.5001H132.195V48.6001H131.435L131.405 47.8001C131.259 48.0868 131.035 48.3134 130.735 48.4801C130.435 48.6401 130.099 48.7201 129.725 48.7201ZM129.895 47.9201C130.209 47.9201 130.472 47.8401 130.685 47.6801C130.905 47.5201 131.072 47.2934 131.185 47.0001C131.299 46.7001 131.355 46.3501 131.355 45.9501C131.355 45.5368 131.299 45.1834 131.185 44.8901C131.072 44.5968 130.905 44.3734 130.685 44.2201C130.472 44.0601 130.209 43.9801 129.895 43.9801C129.429 43.9801 129.055 44.1568 128.775 44.5101C128.502 44.8568 128.365 45.3368 128.365 45.9501C128.365 46.5568 128.502 47.0368 128.775 47.3901C129.055 47.7434 129.429 47.9201 129.895 47.9201ZM135.765 48.7201C135.278 48.7201 134.852 48.6068 134.485 48.3801C134.118 48.1534 133.835 47.8334 133.635 47.4201C133.435 47.0001 133.335 46.5101 133.335 45.9501C133.335 45.3834 133.435 44.8934 133.635 44.4801C133.835 44.0668 134.118 43.7468 134.485 43.5201C134.852 43.2934 135.278 43.1801 135.765 43.1801C136.252 43.1801 136.675 43.2934 137.035 43.5201C137.402 43.7468 137.685 44.0668 137.885 44.4801C138.085 44.8934 138.185 45.3834 138.185 45.9501C138.185 46.5101 138.085 47.0001 137.885 47.4201C137.685 47.8334 137.402 48.1534 137.035 48.3801C136.675 48.6068 136.252 48.7201 135.765 48.7201ZM135.765 47.9201C136.252 47.9201 136.628 47.7468 136.895 47.4001C137.168 47.0468 137.305 46.5634 137.305 45.9501C137.305 45.3368 137.168 44.8568 136.895 44.5101C136.628 44.1568 136.252 43.9801 135.765 43.9801C135.278 43.9801 134.898 44.1568 134.625 44.5101C134.352 44.8568 134.215 45.3368 134.215 45.9501C134.215 46.5634 134.352 47.0468 134.625 47.4001C134.898 47.7468 135.278 47.9201 135.765 47.9201Z" fill="#858585"/>
<path d="M84.0501 125.76C83.5034 125.76 83.0268 125.653 82.6201 125.44C82.2201 125.227 81.9101 124.923 81.6901 124.53C81.4768 124.13 81.3701 123.66 81.3701 123.12V118.49H82.2301V123.12C82.2301 123.693 82.3868 124.137 82.7001 124.45C83.0201 124.763 83.4701 124.92 84.0501 124.92C84.6234 124.92 85.0668 124.763 85.3801 124.45C85.7001 124.137 85.8601 123.693 85.8601 123.12V118.49H86.7201V123.12C86.7201 123.66 86.6101 124.13 86.3901 124.53C86.1768 124.923 85.8701 125.227 85.4701 125.44C85.0701 125.653 84.5968 125.76 84.0501 125.76ZM88.2946 127.1V120.3H89.0746L89.0946 121.44L88.9746 121.38C89.108 120.987 89.328 120.69 89.6346 120.49C89.948 120.283 90.308 120.18 90.7146 120.18C91.2413 120.18 91.6713 120.31 92.0046 120.57C92.3446 120.83 92.5946 121.17 92.7546 121.59C92.9213 122.01 93.0046 122.463 93.0046 122.95C93.0046 123.437 92.9213 123.89 92.7546 124.31C92.5946 124.73 92.3446 125.07 92.0046 125.33C91.6713 125.59 91.2413 125.72 90.7146 125.72C90.4413 125.72 90.1846 125.673 89.9446 125.58C89.7113 125.487 89.5113 125.357 89.3446 125.19C89.1846 125.023 89.0746 124.827 89.0146 124.6L89.1346 124.46V127.1H88.2946ZM90.6346 124.92C91.0946 124.92 91.458 124.747 91.7246 124.4C91.9913 124.053 92.1246 123.57 92.1246 122.95C92.1246 122.33 91.9913 121.847 91.7246 121.5C91.458 121.153 91.0946 120.98 90.6346 120.98C90.328 120.98 90.0613 121.053 89.8346 121.2C89.6146 121.347 89.4413 121.567 89.3146 121.86C89.1946 122.153 89.1346 122.517 89.1346 122.95C89.1346 123.383 89.1946 123.747 89.3146 124.04C89.4346 124.333 89.608 124.553 89.8346 124.7C90.0613 124.847 90.328 124.92 90.6346 124.92ZM96.0742 125.72C95.6009 125.72 95.1976 125.643 94.8642 125.49C94.5376 125.337 94.2809 125.127 94.0942 124.86C93.9142 124.587 93.8109 124.277 93.7842 123.93L94.6642 123.87C94.7176 124.19 94.8542 124.447 95.0742 124.64C95.2942 124.827 95.6276 124.92 96.0742 124.92C96.4342 124.92 96.7209 124.863 96.9342 124.75C97.1542 124.63 97.2642 124.44 97.2642 124.18C97.2642 124.04 97.2309 123.923 97.1642 123.83C97.0976 123.737 96.9676 123.657 96.7742 123.59C96.5809 123.517 96.2942 123.447 95.9142 123.38C95.4076 123.287 95.0076 123.173 94.7142 123.04C94.4276 122.9 94.2209 122.73 94.0942 122.53C93.9742 122.323 93.9142 122.08 93.9142 121.8C93.9142 121.327 94.0876 120.94 94.4342 120.64C94.7809 120.333 95.2742 120.18 95.9142 120.18C96.3476 120.18 96.7109 120.26 97.0042 120.42C97.3042 120.573 97.5376 120.78 97.7042 121.04C97.8776 121.293 97.9909 121.573 98.0442 121.88L97.1642 121.94C97.1242 121.753 97.0509 121.59 96.9442 121.45C96.8376 121.303 96.6976 121.19 96.5242 121.11C96.3509 121.023 96.1442 120.98 95.9042 120.98C95.5242 120.98 95.2442 121.053 95.0642 121.2C94.8842 121.347 94.7942 121.533 94.7942 121.76C94.7942 121.933 94.8342 122.077 94.9142 122.19C95.0009 122.297 95.1376 122.387 95.3242 122.46C95.5109 122.527 95.7609 122.587 96.0742 122.64C96.6142 122.733 97.0342 122.847 97.3342 122.98C97.6342 123.113 97.8442 123.277 97.9642 123.47C98.0842 123.663 98.1442 123.9 98.1442 124.18C98.1442 124.507 98.0509 124.787 97.8642 125.02C97.6842 125.247 97.4376 125.42 97.1242 125.54C96.8176 125.66 96.4676 125.72 96.0742 125.72ZM101.361 125.72C100.861 125.72 100.427 125.607 100.061 125.38C99.7007 125.153 99.4207 124.833 99.2207 124.42C99.0274 124 98.9307 123.51 98.9307 122.95C98.9307 122.39 99.0274 121.903 99.2207 121.49C99.4207 121.077 99.6974 120.757 100.051 120.53C100.411 120.297 100.834 120.18 101.321 120.18C101.781 120.18 102.187 120.29 102.541 120.51C102.894 120.723 103.167 121.037 103.361 121.45C103.561 121.863 103.661 122.367 103.661 122.96V123.21H99.8107C99.8441 123.777 99.9941 124.203 100.261 124.49C100.534 124.777 100.901 124.92 101.361 124.92C101.707 124.92 101.991 124.84 102.211 124.68C102.437 124.513 102.594 124.297 102.681 124.03L103.581 124.1C103.441 124.573 103.174 124.963 102.781 125.27C102.394 125.57 101.921 125.72 101.361 125.72ZM99.8107 122.47H102.741C102.701 121.957 102.551 121.58 102.291 121.34C102.037 121.1 101.714 120.98 101.321 120.98C100.914 120.98 100.577 121.107 100.311 121.36C100.051 121.607 99.8841 121.977 99.8107 122.47ZM105.887 125.6C105.581 125.6 105.331 125.52 105.137 125.36C104.944 125.2 104.847 124.947 104.847 124.6V118.5H105.687V124.53C105.687 124.637 105.714 124.72 105.767 124.78C105.827 124.833 105.911 124.86 106.017 124.86H106.477V125.6H105.887ZM108.456 125.6C108.149 125.6 107.899 125.52 107.706 125.36C107.512 125.2 107.416 124.947 107.416 124.6V118.5H108.256V124.53C108.256 124.637 108.282 124.72 108.336 124.78C108.396 124.833 108.479 124.86 108.586 124.86H109.046V125.6H108.456Z" fill="#858585"/>
<mask id="mask0_121_1221" style="mask-type:alpha" maskUnits="userSpaceOnUse" x="114" y="66" width="17" height="17">
<rect x="114.6" y="66.6001" width="16" height="16" fill="#D9D9D9"/>
</mask>
<g mask="url(#mask0_121_1221)">
<path d="M121.934 75.2669H117.934V73.9336H121.934V69.9336H123.267V73.9336H127.267V75.2669H123.267V79.2669H121.934V75.2669Z" fill="#D1D1D1"/>
</g>
<defs>
<filter id="filter0_d_121_1221" x="9.72748e-05" y="9.72748e-05" width="244.2" height="108.2" filterUnits="userSpaceOnUse" color-interpolation-filters="sRGB">
<feFlood flood-opacity="0" result="BackgroundImageFix"/>
<feColorMatrix in="SourceAlpha" type="matrix" values="0 0 0 0 0 0 0 0 0 0 0 0 0 0 0 0 0 0 127 0" result="hardAlpha"/>
<feOffset dy="18"/>
<feGaussianBlur stdDeviation="15.3"/>
<feComposite in2="hardAlpha" operator="out"/>
<feColorMatrix type="matrix" values="0 0 0 0 0 0 0 0 0 0 0 0 0 0 0 0 0 0 0.02 0"/>
<feBlend mode="normal" in2="BackgroundImageFix" result="effect1_dropShadow_121_1221"/>
<feBlend mode="normal" in="SourceGraphic" in2="effect1_dropShadow_121_1221" result="shape"/>
</filter>
<filter id="filter1_d_121_1221" x="13.0001" y="142" width="218.2" height="91.2" filterUnits="userSpaceOnUse" color-interpolation-filters="sRGB">
<feFlood flood-opacity="0" result="BackgroundImageFix"/>
<feColorMatrix in="SourceAlpha" type="matrix" values="0 0 0 0 0 0 0 0 0 0 0 0 0 0 0 0 0 0 127 0" result="hardAlpha"/>
<feOffset dy="18"/>
<feGaussianBlur stdDeviation="15.3"/>
<feComposite in2="hardAlpha" operator="out"/>
<feColorMatrix type="matrix" values="0 0 0 0 0 0 0 0 0 0 0 0 0 0 0 0 0 0 0.02 0"/>
<feBlend mode="normal" in2="BackgroundImageFix" result="effect1_dropShadow_121_1221"/>
<feBlend mode="normal" in="SourceGraphic" in2="effect1_dropShadow_121_1221" result="shape"/>
</filter>
<filter id="filter2_d_121_1221" x="9.72748e-05" y="77.0001" width="244.2" height="108.2" filterUnits="userSpaceOnUse" color-interpolation-filters="sRGB">
<feFlood flood-opacity="0" result="BackgroundImageFix"/>
<feColorMatrix in="SourceAlpha" type="matrix" values="0 0 0 0 0 0 0 0 0 0 0 0 0 0 0 0 0 0 127 0" result="hardAlpha"/>
<feOffset dy="18"/>
<feGaussianBlur stdDeviation="15.3"/>
<feComposite in2="hardAlpha" operator="out"/>
<feColorMatrix type="matrix" values="0 0 0 0 0 0 0 0 0 0 0 0 0 0 0 0 0 0 0.02 0"/>
<feBlend mode="normal" in2="BackgroundImageFix" result="effect1_dropShadow_121_1221"/>
<feBlend mode="normal" in="SourceGraphic" in2="effect1_dropShadow_121_1221" result="shape"/>
</filter>
</defs>
</svg>
