<svg width="366" height="272" viewBox="0 0 366 272" fill="none" xmlns="http://www.w3.org/2000/svg">
<g filter="url(#filter0_d_121_1222)">
<rect x="187.667" y="12.6001" width="146.933" height="174.8" rx="14" fill="white"/>
</g>
<path d="M192.733 27.6667C192.733 22.1439 197.211 17.6667 202.733 17.6667H319.533C325.056 17.6667 329.533 22.1439 329.533 27.6667V106.467C329.533 111.99 325.056 116.467 319.533 116.467H202.733C197.211 116.467 192.733 111.99 192.733 106.467V27.6667Z" fill="#D9D9D9"/>
<path d="M205.388 139.824C204.595 139.824 203.904 139.679 203.316 139.39C202.737 139.101 202.28 138.699 201.944 138.186C201.608 137.673 201.412 137.075 201.356 136.394L202.91 136.296C202.975 136.763 203.111 137.159 203.316 137.486C203.521 137.803 203.797 138.046 204.142 138.214C204.497 138.373 204.921 138.452 205.416 138.452C205.845 138.452 206.209 138.401 206.508 138.298C206.816 138.186 207.049 138.023 207.208 137.808C207.367 137.593 207.446 137.332 207.446 137.024C207.446 136.744 207.376 136.497 207.236 136.282C207.105 136.058 206.849 135.857 206.466 135.68C206.093 135.493 205.542 135.311 204.814 135.134C204.021 134.938 203.386 134.723 202.91 134.49C202.434 134.257 202.089 133.967 201.874 133.622C201.669 133.267 201.566 132.833 201.566 132.32C201.566 131.751 201.701 131.251 201.972 130.822C202.252 130.383 202.649 130.043 203.162 129.8C203.675 129.557 204.291 129.436 205.01 129.436C205.766 129.436 206.41 129.576 206.942 129.856C207.483 130.136 207.908 130.519 208.216 131.004C208.533 131.489 208.729 132.045 208.804 132.67L207.25 132.754C207.203 132.371 207.087 132.035 206.9 131.746C206.713 131.447 206.461 131.219 206.144 131.06C205.827 130.892 205.439 130.808 204.982 130.808C204.403 130.808 203.946 130.943 203.61 131.214C203.283 131.475 203.12 131.825 203.12 132.264C203.12 132.544 203.185 132.782 203.316 132.978C203.456 133.165 203.699 133.328 204.044 133.468C204.399 133.608 204.898 133.757 205.542 133.916C206.401 134.112 207.082 134.355 207.586 134.644C208.099 134.924 208.463 135.255 208.678 135.638C208.893 136.021 209 136.455 209 136.94C209 137.528 208.846 138.041 208.538 138.48C208.239 138.909 207.819 139.241 207.278 139.474C206.737 139.707 206.107 139.824 205.388 139.824ZM213.006 139.768C212.231 139.768 211.61 139.591 211.144 139.236C210.686 138.881 210.458 138.382 210.458 137.738C210.458 137.094 210.649 136.595 211.032 136.24C211.424 135.876 212.026 135.615 212.838 135.456L215.4 134.966C215.4 134.387 215.264 133.958 214.994 133.678C214.723 133.389 214.322 133.244 213.79 133.244C213.314 133.244 212.94 133.351 212.67 133.566C212.399 133.771 212.212 134.079 212.11 134.49L210.584 134.392C210.724 133.645 211.069 133.057 211.62 132.628C212.18 132.199 212.903 131.984 213.79 131.984C214.798 131.984 215.563 132.255 216.086 132.796C216.618 133.328 216.884 134.079 216.884 135.05V137.948C216.884 138.125 216.912 138.251 216.968 138.326C217.033 138.391 217.136 138.424 217.276 138.424H217.542V139.6C217.495 139.609 217.42 139.619 217.318 139.628C217.215 139.637 217.108 139.642 216.996 139.642C216.678 139.642 216.403 139.591 216.17 139.488C215.946 139.385 215.778 139.217 215.666 138.984C215.554 138.741 215.498 138.419 215.498 138.018L215.652 138.088C215.577 138.415 215.414 138.704 215.162 138.956C214.919 139.208 214.606 139.409 214.224 139.558C213.85 139.698 213.444 139.768 213.006 139.768ZM213.244 138.592C213.692 138.592 214.074 138.508 214.392 138.34C214.709 138.163 214.956 137.92 215.134 137.612C215.311 137.304 215.4 136.954 215.4 136.562V136.086L213.216 136.506C212.768 136.59 212.45 136.725 212.264 136.912C212.086 137.089 211.998 137.318 211.998 137.598C211.998 137.915 212.105 138.163 212.32 138.34C212.544 138.508 212.852 138.592 213.244 138.592ZM220.323 139.6C219.838 139.6 219.446 139.474 219.147 139.222C218.848 138.97 218.699 138.569 218.699 138.018V129.66H220.183V137.878C220.183 138.046 220.225 138.172 220.309 138.256C220.402 138.34 220.533 138.382 220.701 138.382H221.289V139.6H220.323ZM224.722 139.768C223.948 139.768 223.327 139.591 222.86 139.236C222.403 138.881 222.174 138.382 222.174 137.738C222.174 137.094 222.366 136.595 222.748 136.24C223.14 135.876 223.742 135.615 224.554 135.456L227.116 134.966C227.116 134.387 226.981 133.958 226.71 133.678C226.44 133.389 226.038 133.244 225.506 133.244C225.03 133.244 224.657 133.351 224.386 133.566C224.116 133.771 223.929 134.079 223.826 134.49L222.3 134.392C222.44 133.645 222.786 133.057 223.336 132.628C223.896 132.199 224.62 131.984 225.506 131.984C226.514 131.984 227.28 132.255 227.802 132.796C228.334 133.328 228.6 134.079 228.6 135.05V137.948C228.6 138.125 228.628 138.251 228.684 138.326C228.75 138.391 228.852 138.424 228.992 138.424H229.258V139.6C229.212 139.609 229.137 139.619 229.034 139.628C228.932 139.637 228.824 139.642 228.712 139.642C228.395 139.642 228.12 139.591 227.886 139.488C227.662 139.385 227.494 139.217 227.382 138.984C227.27 138.741 227.214 138.419 227.214 138.018L227.368 138.088C227.294 138.415 227.13 138.704 226.878 138.956C226.636 139.208 226.323 139.409 225.94 139.558C225.567 139.698 225.161 139.768 224.722 139.768ZM224.96 138.592C225.408 138.592 225.791 138.508 226.108 138.34C226.426 138.163 226.673 137.92 226.85 137.612C227.028 137.304 227.116 136.954 227.116 136.562V136.086L224.932 136.506C224.484 136.59 224.167 136.725 223.98 136.912C223.803 137.089 223.714 137.318 223.714 137.598C223.714 137.915 223.822 138.163 224.036 138.34C224.26 138.508 224.568 138.592 224.96 138.592ZM233.103 139.768C232.468 139.768 231.913 139.609 231.437 139.292C230.97 138.975 230.611 138.527 230.359 137.948C230.116 137.36 229.995 136.669 229.995 135.876C229.995 135.083 230.121 134.397 230.373 133.818C230.625 133.23 230.984 132.777 231.451 132.46C231.917 132.143 232.468 131.984 233.103 131.984C233.616 131.984 234.073 132.091 234.475 132.306C234.876 132.521 235.179 132.819 235.385 133.202V129.66H236.869V139.6H235.483L235.441 138.48C235.235 138.881 234.923 139.199 234.503 139.432C234.092 139.656 233.625 139.768 233.103 139.768ZM233.495 138.48C233.896 138.48 234.237 138.377 234.517 138.172C234.797 137.967 235.011 137.668 235.161 137.276C235.31 136.884 235.385 136.417 235.385 135.876C235.385 135.316 235.31 134.845 235.161 134.462C235.011 134.07 234.797 133.776 234.517 133.58C234.237 133.375 233.896 133.272 233.495 133.272C232.897 133.272 232.421 133.505 232.067 133.972C231.712 134.429 231.535 135.064 231.535 135.876C231.535 136.679 231.712 137.313 232.067 137.78C232.421 138.247 232.897 138.48 233.495 138.48ZM240.924 139.768C240.149 139.768 239.528 139.591 239.062 139.236C238.604 138.881 238.376 138.382 238.376 137.738C238.376 137.094 238.567 136.595 238.95 136.24C239.342 135.876 239.944 135.615 240.756 135.456L243.318 134.966C243.318 134.387 243.182 133.958 242.912 133.678C242.641 133.389 242.24 133.244 241.708 133.244C241.232 133.244 240.858 133.351 240.588 133.566C240.317 133.771 240.13 134.079 240.028 134.49L238.502 134.392C238.642 133.645 238.987 133.057 239.538 132.628C240.098 132.199 240.821 131.984 241.708 131.984C242.716 131.984 243.481 132.255 244.004 132.796C244.536 133.328 244.802 134.079 244.802 135.05V137.948C244.802 138.125 244.83 138.251 244.886 138.326C244.951 138.391 245.054 138.424 245.194 138.424H245.46V139.6C245.413 139.609 245.338 139.619 245.236 139.628C245.133 139.637 245.026 139.642 244.914 139.642C244.596 139.642 244.321 139.591 244.088 139.488C243.864 139.385 243.696 139.217 243.584 138.984C243.472 138.741 243.416 138.419 243.416 138.018L243.57 138.088C243.495 138.415 243.332 138.704 243.08 138.956C242.837 139.208 242.524 139.409 242.142 139.558C241.768 139.698 241.362 139.768 240.924 139.768ZM241.162 138.592C241.61 138.592 241.992 138.508 242.31 138.34C242.627 138.163 242.874 137.92 243.052 137.612C243.229 137.304 243.318 136.954 243.318 136.562V136.086L241.134 136.506C240.686 136.59 240.368 136.725 240.182 136.912C240.004 137.089 239.916 137.318 239.916 137.598C239.916 137.915 240.023 138.163 240.238 138.34C240.462 138.508 240.77 138.592 241.162 138.592ZM254.26 139.824C253.364 139.824 252.575 139.619 251.894 139.208C251.213 138.788 250.681 138.191 250.298 137.416C249.915 136.641 249.724 135.717 249.724 134.644C249.724 133.58 249.911 132.661 250.284 131.886C250.667 131.102 251.199 130.5 251.88 130.08C252.561 129.651 253.359 129.436 254.274 129.436C255.506 129.436 256.463 129.744 257.144 130.36C257.825 130.976 258.269 131.83 258.474 132.922L256.892 133.006C256.761 132.325 256.481 131.793 256.052 131.41C255.623 131.018 255.03 130.822 254.274 130.822C253.667 130.822 253.14 130.976 252.692 131.284C252.253 131.592 251.908 132.031 251.656 132.6C251.413 133.169 251.292 133.851 251.292 134.644C251.292 135.437 251.413 136.119 251.656 136.688C251.908 137.257 252.258 137.691 252.706 137.99C253.154 138.289 253.672 138.438 254.26 138.438C255.063 138.438 255.683 138.228 256.122 137.808C256.57 137.379 256.85 136.791 256.962 136.044L258.544 136.128C258.423 136.884 258.18 137.537 257.816 138.088C257.452 138.639 256.971 139.068 256.374 139.376C255.777 139.675 255.072 139.824 254.26 139.824ZM262.142 139.768C261.368 139.768 260.747 139.591 260.28 139.236C259.823 138.881 259.594 138.382 259.594 137.738C259.594 137.094 259.786 136.595 260.168 136.24C260.56 135.876 261.162 135.615 261.974 135.456L264.536 134.966C264.536 134.387 264.401 133.958 264.13 133.678C263.86 133.389 263.458 133.244 262.926 133.244C262.45 133.244 262.077 133.351 261.806 133.566C261.536 133.771 261.349 134.079 261.246 134.49L259.72 134.392C259.86 133.645 260.206 133.057 260.756 132.628C261.316 132.199 262.04 131.984 262.926 131.984C263.934 131.984 264.7 132.255 265.222 132.796C265.754 133.328 266.02 134.079 266.02 135.05V137.948C266.02 138.125 266.048 138.251 266.104 138.326C266.17 138.391 266.272 138.424 266.412 138.424H266.678V139.6C266.632 139.609 266.557 139.619 266.454 139.628C266.352 139.637 266.244 139.642 266.132 139.642C265.815 139.642 265.54 139.591 265.306 139.488C265.082 139.385 264.914 139.217 264.802 138.984C264.69 138.741 264.634 138.419 264.634 138.018L264.788 138.088C264.714 138.415 264.55 138.704 264.298 138.956C264.056 139.208 263.743 139.409 263.36 139.558C262.987 139.698 262.581 139.768 262.142 139.768ZM262.38 138.592C262.828 138.592 263.211 138.508 263.528 138.34C263.846 138.163 264.093 137.92 264.27 137.612C264.448 137.304 264.536 136.954 264.536 136.562V136.086L262.352 136.506C261.904 136.59 261.587 136.725 261.4 136.912C261.223 137.089 261.134 137.318 261.134 137.598C261.134 137.915 261.242 138.163 261.456 138.34C261.68 138.508 261.988 138.592 262.38 138.592ZM267.931 141.7V132.152H269.331L269.373 133.748L269.205 133.664C269.392 133.113 269.7 132.698 270.129 132.418C270.559 132.129 271.053 131.984 271.613 131.984C272.341 131.984 272.939 132.166 273.405 132.53C273.881 132.885 274.231 133.356 274.455 133.944C274.689 134.532 274.805 135.176 274.805 135.876C274.805 136.576 274.689 137.22 274.455 137.808C274.231 138.396 273.881 138.872 273.405 139.236C272.939 139.591 272.341 139.768 271.613 139.768C271.24 139.768 270.89 139.703 270.563 139.572C270.237 139.441 269.957 139.259 269.723 139.026C269.499 138.783 269.341 138.499 269.247 138.172L269.415 138.004V141.7H267.931ZM271.347 138.48C271.945 138.48 272.411 138.251 272.747 137.794C273.093 137.337 273.265 136.697 273.265 135.876C273.265 135.055 273.093 134.415 272.747 133.958C272.411 133.501 271.945 133.272 271.347 133.272C270.955 133.272 270.615 133.37 270.325 133.566C270.036 133.753 269.812 134.042 269.653 134.434C269.495 134.826 269.415 135.307 269.415 135.876C269.415 136.445 269.49 136.926 269.639 137.318C269.798 137.71 270.022 138.004 270.311 138.2C270.61 138.387 270.955 138.48 271.347 138.48ZM276.312 139.6V132.152H277.67L277.726 134.126L277.6 134.084C277.703 133.412 277.908 132.922 278.216 132.614C278.534 132.306 278.958 132.152 279.49 132.152H280.204V133.482H279.49C279.117 133.482 278.804 133.543 278.552 133.664C278.3 133.785 278.109 133.972 277.978 134.224C277.857 134.476 277.796 134.803 277.796 135.204V139.6H276.312ZM284.327 139.768C283.599 139.768 282.969 139.609 282.437 139.292C281.915 138.975 281.509 138.522 281.219 137.934C280.939 137.346 280.799 136.66 280.799 135.876C280.799 135.092 280.939 134.411 281.219 133.832C281.509 133.244 281.915 132.791 282.437 132.474C282.96 132.147 283.576 131.984 284.285 131.984C284.957 131.984 285.55 132.143 286.063 132.46C286.577 132.768 286.973 133.216 287.253 133.804C287.543 134.392 287.687 135.101 287.687 135.932V136.31H282.339C282.377 137.038 282.568 137.584 282.913 137.948C283.268 138.312 283.744 138.494 284.341 138.494C284.78 138.494 285.144 138.391 285.433 138.186C285.723 137.981 285.923 137.705 286.035 137.36L287.575 137.458C287.379 138.149 286.992 138.709 286.413 139.138C285.844 139.558 285.149 139.768 284.327 139.768ZM282.339 135.19H286.119C286.073 134.527 285.881 134.037 285.545 133.72C285.219 133.403 284.799 133.244 284.285 133.244C283.753 133.244 283.315 133.412 282.969 133.748C282.633 134.075 282.423 134.555 282.339 135.19ZM292.061 139.768C291.361 139.768 290.768 139.661 290.283 139.446C289.807 139.231 289.438 138.937 289.177 138.564C288.916 138.181 288.766 137.743 288.729 137.248L290.255 137.178C290.33 137.589 290.507 137.915 290.787 138.158C291.067 138.401 291.492 138.522 292.061 138.522C292.528 138.522 292.896 138.447 293.167 138.298C293.438 138.149 293.573 137.911 293.573 137.584C293.573 137.407 293.526 137.257 293.433 137.136C293.349 137.005 293.181 136.898 292.929 136.814C292.677 136.721 292.304 136.632 291.809 136.548C291.072 136.408 290.493 136.245 290.073 136.058C289.653 135.871 289.354 135.633 289.177 135.344C289 135.055 288.911 134.705 288.911 134.294C288.911 133.613 289.163 133.057 289.667 132.628C290.18 132.199 290.918 131.984 291.879 131.984C292.523 131.984 293.064 132.096 293.503 132.32C293.942 132.535 294.282 132.829 294.525 133.202C294.777 133.566 294.936 133.977 295.001 134.434L293.475 134.518C293.428 134.257 293.335 134.033 293.195 133.846C293.064 133.65 292.887 133.501 292.663 133.398C292.439 133.286 292.173 133.23 291.865 133.23C291.389 133.23 291.034 133.323 290.801 133.51C290.568 133.697 290.451 133.939 290.451 134.238C290.451 134.462 290.502 134.644 290.605 134.784C290.717 134.924 290.894 135.041 291.137 135.134C291.38 135.218 291.702 135.293 292.103 135.358C292.878 135.489 293.484 135.652 293.923 135.848C294.362 136.035 294.67 136.268 294.847 136.548C295.024 136.828 295.113 137.169 295.113 137.57C295.113 138.037 294.982 138.433 294.721 138.76C294.46 139.087 294.1 139.339 293.643 139.516C293.186 139.684 292.658 139.768 292.061 139.768ZM299.681 139.768C298.953 139.768 298.323 139.609 297.791 139.292C297.268 138.975 296.862 138.522 296.573 137.934C296.293 137.346 296.153 136.66 296.153 135.876C296.153 135.092 296.293 134.411 296.573 133.832C296.862 133.244 297.268 132.791 297.791 132.474C298.314 132.147 298.93 131.984 299.639 131.984C300.311 131.984 300.904 132.143 301.417 132.46C301.93 132.768 302.327 133.216 302.607 133.804C302.896 134.392 303.041 135.101 303.041 135.932V136.31H297.693C297.73 137.038 297.922 137.584 298.267 137.948C298.622 138.312 299.098 138.494 299.695 138.494C300.134 138.494 300.498 138.391 300.787 138.186C301.076 137.981 301.277 137.705 301.389 137.36L302.929 137.458C302.733 138.149 302.346 138.709 301.767 139.138C301.198 139.558 300.502 139.768 299.681 139.768ZM297.693 135.19H301.473C301.426 134.527 301.235 134.037 300.899 133.72C300.572 133.403 300.152 133.244 299.639 133.244C299.107 133.244 298.668 133.412 298.323 133.748C297.987 134.075 297.777 134.555 297.693 135.19Z" fill="black"/>
<path d="M201.4 155.5V148.4H204.37C204.883 148.4 205.327 148.487 205.7 148.66C206.073 148.833 206.363 149.08 206.57 149.4C206.777 149.72 206.88 150.097 206.88 150.53C206.88 150.857 206.81 151.147 206.67 151.4C206.53 151.653 206.34 151.857 206.1 152.01C205.867 152.163 205.607 152.257 205.32 152.29L205.27 152.19C205.73 152.19 206.083 152.293 206.33 152.5C206.583 152.707 206.727 153.023 206.76 153.45L206.94 155.5H205.62L205.47 153.64C205.45 153.36 205.36 153.153 205.2 153.02C205.04 152.887 204.773 152.82 204.4 152.82H202.7V155.5H201.4ZM202.7 151.68H204.29C204.683 151.68 204.99 151.587 205.21 151.4C205.43 151.213 205.54 150.95 205.54 150.61C205.54 150.263 205.427 149.997 205.2 149.81C204.98 149.623 204.657 149.53 204.23 149.53H202.7V151.68ZM210.445 156.4V147.5H211.225V156.4H210.445ZM210.915 155.63C210.341 155.63 209.845 155.53 209.425 155.33C209.005 155.123 208.675 154.84 208.435 154.48C208.201 154.113 208.065 153.687 208.025 153.2L209.315 153.13C209.355 153.43 209.441 153.683 209.575 153.89C209.708 154.097 209.888 154.257 210.115 154.37C210.341 154.477 210.615 154.53 210.935 154.53C211.208 154.53 211.441 154.497 211.635 154.43C211.828 154.357 211.975 154.253 212.075 154.12C212.181 153.987 212.235 153.823 212.235 153.63C212.235 153.443 212.191 153.283 212.105 153.15C212.018 153.01 211.851 152.883 211.605 152.77C211.365 152.657 211.008 152.547 210.535 152.44C209.961 152.3 209.498 152.147 209.145 151.98C208.798 151.813 208.548 151.607 208.395 151.36C208.241 151.107 208.165 150.79 208.165 150.41C208.165 150.003 208.265 149.647 208.465 149.34C208.665 149.027 208.951 148.787 209.325 148.62C209.698 148.447 210.148 148.36 210.675 148.36C211.228 148.36 211.698 148.46 212.085 148.66C212.471 148.853 212.775 149.123 212.995 149.47C213.221 149.817 213.358 150.213 213.405 150.66L212.115 150.73C212.088 150.477 212.015 150.253 211.895 150.06C211.775 149.867 211.611 149.717 211.405 149.61C211.198 149.503 210.948 149.45 210.655 149.45C210.281 149.45 209.988 149.537 209.775 149.71C209.568 149.877 209.465 150.097 209.465 150.37C209.465 150.557 209.508 150.713 209.595 150.84C209.688 150.96 209.848 151.067 210.075 151.16C210.301 151.247 210.621 151.337 211.035 151.43C211.655 151.57 212.145 151.74 212.505 151.94C212.871 152.133 213.131 152.367 213.285 152.64C213.445 152.907 213.525 153.213 213.525 153.56C213.525 153.98 213.415 154.347 213.195 154.66C212.981 154.967 212.678 155.207 212.285 155.38C211.898 155.547 211.441 155.63 210.915 155.63ZM217.01 155.5C217.01 154.927 217.09 154.427 217.25 154C217.41 153.567 217.68 153.173 218.06 152.82C218.44 152.46 218.954 152.11 219.6 151.77C219.92 151.597 220.177 151.443 220.37 151.31C220.564 151.177 220.704 151.04 220.79 150.9C220.877 150.753 220.92 150.58 220.92 150.38C220.92 150.18 220.877 150.007 220.79 149.86C220.704 149.707 220.574 149.587 220.4 149.5C220.234 149.413 220.024 149.37 219.77 149.37C219.364 149.37 219.04 149.487 218.8 149.72C218.567 149.947 218.424 150.273 218.37 150.7L217.03 150.62C217.097 149.88 217.367 149.3 217.84 148.88C218.32 148.453 218.964 148.24 219.77 148.24C220.29 148.24 220.737 148.33 221.11 148.51C221.484 148.683 221.767 148.93 221.96 149.25C222.16 149.57 222.26 149.94 222.26 150.36C222.26 150.72 222.197 151.03 222.07 151.29C221.95 151.55 221.75 151.79 221.47 152.01C221.197 152.223 220.827 152.453 220.36 152.7C219.774 153.013 219.334 153.317 219.04 153.61C218.747 153.897 218.59 154.15 218.57 154.37H222.26V155.5H217.01ZM226.066 155.66C225.5 155.66 225 155.58 224.566 155.42C224.14 155.26 223.806 155.027 223.566 154.72C223.326 154.407 223.206 154.02 223.206 153.56C223.206 153.04 223.366 152.61 223.686 152.27C224.013 151.923 224.45 151.697 224.996 151.59L225.016 151.8C224.57 151.7 224.213 151.517 223.946 151.25C223.686 150.977 223.556 150.623 223.556 150.19C223.556 149.81 223.653 149.473 223.846 149.18C224.046 148.887 224.333 148.657 224.706 148.49C225.086 148.323 225.54 148.24 226.066 148.24C226.6 148.24 227.053 148.323 227.426 148.49C227.806 148.657 228.093 148.887 228.286 149.18C228.486 149.473 228.586 149.81 228.586 150.19C228.586 150.623 228.453 150.973 228.186 151.24C227.926 151.507 227.573 151.693 227.126 151.8L227.146 151.59C227.693 151.697 228.126 151.923 228.446 152.27C228.766 152.61 228.926 153.04 228.926 153.56C228.926 154.02 228.806 154.407 228.566 154.72C228.333 155.027 228.003 155.26 227.576 155.42C227.15 155.58 226.646 155.66 226.066 155.66ZM226.066 154.52C226.526 154.52 226.893 154.427 227.166 154.24C227.446 154.047 227.586 153.763 227.586 153.39C227.586 153.037 227.456 152.753 227.196 152.54C226.943 152.32 226.566 152.21 226.066 152.21C225.573 152.21 225.196 152.32 224.936 152.54C224.683 152.753 224.556 153.037 224.556 153.39C224.556 153.763 224.693 154.047 224.966 154.24C225.24 154.427 225.606 154.52 226.066 154.52ZM226.066 151.24C226.44 151.24 226.73 151.163 226.936 151.01C227.15 150.85 227.256 150.613 227.256 150.3C227.256 150.013 227.156 149.787 226.956 149.62C226.756 149.453 226.46 149.37 226.066 149.37C225.686 149.37 225.393 149.453 225.186 149.62C224.986 149.787 224.886 150.013 224.886 150.3C224.886 150.613 224.99 150.85 225.196 151.01C225.403 151.163 225.693 151.24 226.066 151.24ZM229.691 155.5V154.1H231.151V155.5H229.691ZM234.782 155.66C234.182 155.66 233.659 155.51 233.212 155.21C232.772 154.91 232.432 154.483 232.192 153.93C231.952 153.377 231.832 152.72 231.832 151.96C231.832 151.2 231.952 150.543 232.192 149.99C232.432 149.43 232.772 149 233.212 148.7C233.659 148.393 234.182 148.24 234.782 148.24C235.395 148.24 235.922 148.393 236.362 148.7C236.802 149 237.142 149.427 237.382 149.98C237.622 150.533 237.742 151.193 237.742 151.96C237.742 152.72 237.622 153.377 237.382 153.93C237.142 154.483 236.802 154.91 236.362 155.21C235.922 155.51 235.395 155.66 234.782 155.66ZM234.782 154.53C235.302 154.53 235.702 154.313 235.982 153.88C236.262 153.44 236.402 152.8 236.402 151.96C236.402 151.4 236.339 150.927 236.212 150.54C236.085 150.153 235.902 149.863 235.662 149.67C235.429 149.47 235.135 149.37 234.782 149.37C234.442 149.37 234.152 149.47 233.912 149.67C233.672 149.863 233.489 150.153 233.362 150.54C233.235 150.927 233.172 151.4 233.172 151.96C233.172 152.8 233.312 153.44 233.592 153.88C233.872 154.313 234.269 154.53 234.782 154.53ZM241.647 155.66C241.047 155.66 240.524 155.51 240.077 155.21C239.637 154.91 239.297 154.483 239.057 153.93C238.817 153.377 238.697 152.72 238.697 151.96C238.697 151.2 238.817 150.543 239.057 149.99C239.297 149.43 239.637 149 240.077 148.7C240.524 148.393 241.047 148.24 241.647 148.24C242.261 148.24 242.787 148.393 243.227 148.7C243.667 149 244.007 149.427 244.247 149.98C244.487 150.533 244.607 151.193 244.607 151.96C244.607 152.72 244.487 153.377 244.247 153.93C244.007 154.483 243.667 154.91 243.227 155.21C242.787 155.51 242.261 155.66 241.647 155.66ZM241.647 154.53C242.167 154.53 242.567 154.313 242.847 153.88C243.127 153.44 243.267 152.8 243.267 151.96C243.267 151.4 243.204 150.927 243.077 150.54C242.951 150.153 242.767 149.863 242.527 149.67C242.294 149.47 242.001 149.37 241.647 149.37C241.307 149.37 241.017 149.47 240.777 149.67C240.537 149.863 240.354 150.153 240.227 150.54C240.101 150.927 240.037 151.4 240.037 151.96C240.037 152.8 240.177 153.44 240.457 153.88C240.737 154.313 241.134 154.53 241.647 154.53Z" fill="black"/>
<path d="M203.96 171.66C203.413 171.66 202.937 171.557 202.53 171.35C202.123 171.143 201.8 170.86 201.56 170.5C201.327 170.133 201.19 169.71 201.15 169.23L202.05 169.17C202.097 169.523 202.2 169.823 202.36 170.07C202.52 170.317 202.733 170.503 203 170.63C203.273 170.757 203.6 170.82 203.98 170.82C204.313 170.82 204.597 170.777 204.83 170.69C205.063 170.603 205.24 170.477 205.36 170.31C205.487 170.143 205.55 169.94 205.55 169.7C205.55 169.48 205.497 169.287 205.39 169.12C205.29 168.947 205.093 168.79 204.8 168.65C204.513 168.503 204.087 168.36 203.52 168.22C202.973 168.08 202.537 167.927 202.21 167.76C201.89 167.593 201.657 167.39 201.51 167.15C201.37 166.91 201.3 166.613 201.3 166.26C201.3 165.86 201.393 165.51 201.58 165.21C201.773 164.903 202.047 164.667 202.4 164.5C202.753 164.327 203.173 164.24 203.66 164.24C204.18 164.24 204.627 164.34 205 164.54C205.373 164.733 205.67 165 205.89 165.34C206.11 165.68 206.247 166.067 206.3 166.5L205.4 166.56C205.36 166.273 205.267 166.02 205.12 165.8C204.98 165.573 204.787 165.397 204.54 165.27C204.293 165.143 203.993 165.08 203.64 165.08C203.2 165.08 202.85 165.187 202.59 165.4C202.33 165.607 202.2 165.88 202.2 166.22C202.2 166.44 202.25 166.623 202.35 166.77C202.457 166.91 202.643 167.037 202.91 167.15C203.177 167.257 203.56 167.373 204.06 167.5C204.653 167.647 205.123 167.823 205.47 168.03C205.823 168.23 206.073 168.463 206.22 168.73C206.373 168.997 206.45 169.3 206.45 169.64C206.45 170.053 206.343 170.413 206.13 170.72C205.917 171.02 205.623 171.253 205.25 171.42C204.877 171.58 204.447 171.66 203.96 171.66ZM209.324 171.62C208.778 171.62 208.341 171.493 208.014 171.24C207.694 170.987 207.534 170.633 207.534 170.18C207.534 169.727 207.668 169.37 207.934 169.11C208.201 168.85 208.624 168.667 209.204 168.56L211.084 168.21C211.084 167.763 210.978 167.43 210.764 167.21C210.558 166.99 210.244 166.88 209.824 166.88C209.458 166.88 209.168 166.963 208.954 167.13C208.741 167.29 208.594 167.523 208.514 167.83L207.624 167.76C207.724 167.26 207.964 166.857 208.344 166.55C208.731 166.237 209.224 166.08 209.824 166.08C210.504 166.08 211.024 166.273 211.384 166.66C211.744 167.04 211.924 167.567 211.924 168.24V170.43C211.924 170.55 211.944 170.637 211.984 170.69C212.031 170.737 212.104 170.76 212.204 170.76H212.414V171.5C212.388 171.507 212.344 171.51 212.284 171.51C212.224 171.517 212.161 171.52 212.094 171.52C211.854 171.52 211.658 171.483 211.504 171.41C211.358 171.33 211.251 171.21 211.184 171.05C211.118 170.883 211.084 170.667 211.084 170.4L211.184 170.42C211.138 170.647 211.024 170.853 210.844 171.04C210.664 171.22 210.441 171.363 210.174 171.47C209.908 171.57 209.624 171.62 209.324 171.62ZM209.404 170.88C209.758 170.88 210.058 170.813 210.304 170.68C210.558 170.54 210.751 170.353 210.884 170.12C211.018 169.88 211.084 169.613 211.084 169.32V168.94L209.364 169.26C209.004 169.327 208.754 169.43 208.614 169.57C208.481 169.703 208.414 169.88 208.414 170.1C208.414 170.347 208.501 170.54 208.674 170.68C208.854 170.813 209.098 170.88 209.404 170.88ZM214.344 171.5C214.038 171.5 213.788 171.42 213.594 171.26C213.401 171.1 213.304 170.847 213.304 170.5V164.4H214.144V170.43C214.144 170.537 214.171 170.62 214.224 170.68C214.284 170.733 214.368 170.76 214.474 170.76H214.934V171.5H214.344ZM217.4 171.62C216.854 171.62 216.417 171.493 216.09 171.24C215.77 170.987 215.61 170.633 215.61 170.18C215.61 169.727 215.744 169.37 216.01 169.11C216.277 168.85 216.7 168.667 217.28 168.56L219.16 168.21C219.16 167.763 219.054 167.43 218.84 167.21C218.634 166.99 218.32 166.88 217.9 166.88C217.534 166.88 217.244 166.963 217.03 167.13C216.817 167.29 216.67 167.523 216.59 167.83L215.7 167.76C215.8 167.26 216.04 166.857 216.42 166.55C216.807 166.237 217.3 166.08 217.9 166.08C218.58 166.08 219.1 166.273 219.46 166.66C219.82 167.04 220 167.567 220 168.24V170.43C220 170.55 220.02 170.637 220.06 170.69C220.107 170.737 220.18 170.76 220.28 170.76H220.49V171.5C220.464 171.507 220.42 171.51 220.36 171.51C220.3 171.517 220.237 171.52 220.17 171.52C219.93 171.52 219.734 171.483 219.58 171.41C219.434 171.33 219.327 171.21 219.26 171.05C219.194 170.883 219.16 170.667 219.16 170.4L219.26 170.42C219.214 170.647 219.1 170.853 218.92 171.04C218.74 171.22 218.517 171.363 218.25 171.47C217.984 171.57 217.7 171.62 217.4 171.62ZM217.48 170.88C217.834 170.88 218.134 170.813 218.38 170.68C218.634 170.54 218.827 170.353 218.96 170.12C219.094 169.88 219.16 169.613 219.16 169.32V168.94L217.44 169.26C217.08 169.327 216.83 169.43 216.69 169.57C216.557 169.703 216.49 169.88 216.49 170.1C216.49 170.347 216.577 170.54 216.75 170.68C216.93 170.813 217.174 170.88 217.48 170.88ZM223.3 171.62C222.84 171.62 222.44 171.507 222.1 171.28C221.766 171.053 221.51 170.733 221.33 170.32C221.15 169.907 221.06 169.417 221.06 168.85C221.06 168.283 221.15 167.793 221.33 167.38C221.51 166.967 221.766 166.647 222.1 166.42C222.44 166.193 222.84 166.08 223.3 166.08C223.653 166.08 223.976 166.157 224.27 166.31C224.563 166.457 224.783 166.667 224.93 166.94V164.4H225.77V171.5H225.01L224.98 170.7C224.833 170.987 224.61 171.213 224.31 171.38C224.01 171.54 223.673 171.62 223.3 171.62ZM223.47 170.82C223.783 170.82 224.046 170.74 224.26 170.58C224.48 170.42 224.646 170.193 224.76 169.9C224.873 169.6 224.93 169.25 224.93 168.85C224.93 168.437 224.873 168.083 224.76 167.79C224.646 167.497 224.48 167.273 224.26 167.12C224.046 166.96 223.783 166.88 223.47 166.88C223.003 166.88 222.63 167.057 222.35 167.41C222.076 167.757 221.94 168.237 221.94 168.85C221.94 169.457 222.076 169.937 222.35 170.29C222.63 170.643 223.003 170.82 223.47 170.82ZM228.699 171.62C228.153 171.62 227.716 171.493 227.389 171.24C227.069 170.987 226.909 170.633 226.909 170.18C226.909 169.727 227.043 169.37 227.309 169.11C227.576 168.85 227.999 168.667 228.579 168.56L230.459 168.21C230.459 167.763 230.353 167.43 230.139 167.21C229.933 166.99 229.619 166.88 229.199 166.88C228.833 166.88 228.543 166.963 228.329 167.13C228.116 167.29 227.969 167.523 227.889 167.83L226.999 167.76C227.099 167.26 227.339 166.857 227.719 166.55C228.106 166.237 228.599 166.08 229.199 166.08C229.879 166.08 230.399 166.273 230.759 166.66C231.119 167.04 231.299 167.567 231.299 168.24V170.43C231.299 170.55 231.319 170.637 231.359 170.69C231.406 170.737 231.479 170.76 231.579 170.76H231.789V171.5C231.763 171.507 231.719 171.51 231.659 171.51C231.599 171.517 231.536 171.52 231.469 171.52C231.229 171.52 231.033 171.483 230.879 171.41C230.733 171.33 230.626 171.21 230.559 171.05C230.493 170.883 230.459 170.667 230.459 170.4L230.559 170.42C230.513 170.647 230.399 170.853 230.219 171.04C230.039 171.22 229.816 171.363 229.549 171.47C229.283 171.57 228.999 171.62 228.699 171.62ZM228.779 170.88C229.133 170.88 229.433 170.813 229.679 170.68C229.933 170.54 230.126 170.353 230.259 170.12C230.393 169.88 230.459 169.613 230.459 169.32V168.94L228.739 169.26C228.379 169.327 228.129 169.43 227.989 169.57C227.856 169.703 227.789 169.88 227.789 170.1C227.789 170.347 227.876 170.54 228.049 170.68C228.229 170.813 228.473 170.88 228.779 170.88ZM238.117 171.66C237.484 171.66 236.927 171.513 236.447 171.22C235.967 170.92 235.594 170.493 235.327 169.94C235.06 169.387 234.927 168.727 234.927 167.96C234.927 167.193 235.06 166.533 235.327 165.98C235.594 165.42 235.967 164.99 236.447 164.69C236.927 164.39 237.484 164.24 238.117 164.24C238.977 164.24 239.644 164.457 240.117 164.89C240.59 165.323 240.9 165.913 241.047 166.66L240.137 166.72C240.037 166.213 239.824 165.813 239.497 165.52C239.17 165.227 238.71 165.08 238.117 165.08C237.664 165.08 237.264 165.197 236.917 165.43C236.577 165.657 236.31 165.987 236.117 166.42C235.924 166.847 235.827 167.36 235.827 167.96C235.827 168.56 235.924 169.073 236.117 169.5C236.31 169.927 236.577 170.253 236.917 170.48C237.264 170.707 237.664 170.82 238.117 170.82C238.737 170.82 239.217 170.66 239.557 170.34C239.897 170.013 240.11 169.573 240.197 169.02L241.107 169.08C241.02 169.593 240.85 170.043 240.597 170.43C240.344 170.817 240.007 171.12 239.587 171.34C239.174 171.553 238.684 171.66 238.117 171.66ZM243.699 171.62C243.153 171.62 242.716 171.493 242.389 171.24C242.069 170.987 241.909 170.633 241.909 170.18C241.909 169.727 242.043 169.37 242.309 169.11C242.576 168.85 242.999 168.667 243.579 168.56L245.459 168.21C245.459 167.763 245.353 167.43 245.139 167.21C244.933 166.99 244.619 166.88 244.199 166.88C243.833 166.88 243.543 166.963 243.329 167.13C243.116 167.29 242.969 167.523 242.889 167.83L241.999 167.76C242.099 167.26 242.339 166.857 242.719 166.55C243.106 166.237 243.599 166.08 244.199 166.08C244.879 166.08 245.399 166.273 245.759 166.66C246.119 167.04 246.299 167.567 246.299 168.24V170.43C246.299 170.55 246.319 170.637 246.359 170.69C246.406 170.737 246.479 170.76 246.579 170.76H246.789V171.5C246.763 171.507 246.719 171.51 246.659 171.51C246.599 171.517 246.536 171.52 246.469 171.52C246.229 171.52 246.033 171.483 245.879 171.41C245.733 171.33 245.626 171.21 245.559 171.05C245.493 170.883 245.459 170.667 245.459 170.4L245.559 170.42C245.513 170.647 245.399 170.853 245.219 171.04C245.039 171.22 244.816 171.363 244.549 171.47C244.283 171.57 243.999 171.62 243.699 171.62ZM243.779 170.88C244.133 170.88 244.433 170.813 244.679 170.68C244.933 170.54 245.126 170.353 245.259 170.12C245.393 169.88 245.459 169.613 245.459 169.32V168.94L243.739 169.26C243.379 169.327 243.129 169.43 242.989 169.57C242.856 169.703 242.789 169.88 242.789 170.1C242.789 170.347 242.876 170.54 243.049 170.68C243.229 170.813 243.473 170.88 243.779 170.88ZM247.738 173V166.2H248.518L248.538 167.34L248.418 167.28C248.551 166.887 248.771 166.59 249.078 166.39C249.391 166.183 249.751 166.08 250.158 166.08C250.685 166.08 251.115 166.21 251.448 166.47C251.788 166.73 252.038 167.07 252.198 167.49C252.365 167.91 252.448 168.363 252.448 168.85C252.448 169.337 252.365 169.79 252.198 170.21C252.038 170.63 251.788 170.97 251.448 171.23C251.115 171.49 250.685 171.62 250.158 171.62C249.885 171.62 249.628 171.573 249.388 171.48C249.155 171.387 248.955 171.257 248.788 171.09C248.628 170.923 248.518 170.727 248.458 170.5L248.578 170.36V173H247.738ZM250.078 170.82C250.538 170.82 250.901 170.647 251.168 170.3C251.435 169.953 251.568 169.47 251.568 168.85C251.568 168.23 251.435 167.747 251.168 167.4C250.901 167.053 250.538 166.88 250.078 166.88C249.771 166.88 249.505 166.953 249.278 167.1C249.058 167.247 248.885 167.467 248.758 167.76C248.638 168.053 248.578 168.417 248.578 168.85C248.578 169.283 248.638 169.647 248.758 169.94C248.878 170.233 249.051 170.453 249.278 170.6C249.505 170.747 249.771 170.82 250.078 170.82ZM253.588 171.5V166.2H254.328L254.368 167.54L254.288 167.51C254.354 167.057 254.498 166.727 254.718 166.52C254.944 166.307 255.244 166.2 255.618 166.2H256.138V167H255.628C255.361 167 255.138 167.05 254.958 167.15C254.784 167.243 254.651 167.387 254.558 167.58C254.471 167.767 254.428 168.007 254.428 168.3V171.5H253.588ZM259.046 171.62C258.546 171.62 258.113 171.507 257.746 171.28C257.386 171.053 257.106 170.733 256.906 170.32C256.713 169.9 256.616 169.41 256.616 168.85C256.616 168.29 256.713 167.803 256.906 167.39C257.106 166.977 257.383 166.657 257.736 166.43C258.096 166.197 258.52 166.08 259.006 166.08C259.466 166.08 259.873 166.19 260.226 166.41C260.58 166.623 260.853 166.937 261.046 167.35C261.246 167.763 261.346 168.267 261.346 168.86V169.11H257.496C257.53 169.677 257.68 170.103 257.946 170.39C258.22 170.677 258.586 170.82 259.046 170.82C259.393 170.82 259.676 170.74 259.896 170.58C260.123 170.413 260.28 170.197 260.366 169.93L261.266 170C261.126 170.473 260.86 170.863 260.466 171.17C260.08 171.47 259.606 171.62 259.046 171.62ZM257.496 168.37H260.426C260.386 167.857 260.236 167.48 259.976 167.24C259.723 167 259.4 166.88 259.006 166.88C258.6 166.88 258.263 167.007 257.996 167.26C257.736 167.507 257.57 167.877 257.496 168.37ZM264.414 171.62C263.941 171.62 263.537 171.543 263.204 171.39C262.877 171.237 262.621 171.027 262.434 170.76C262.254 170.487 262.151 170.177 262.124 169.83L263.004 169.77C263.057 170.09 263.194 170.347 263.414 170.54C263.634 170.727 263.967 170.82 264.414 170.82C264.774 170.82 265.061 170.763 265.274 170.65C265.494 170.53 265.604 170.34 265.604 170.08C265.604 169.94 265.571 169.823 265.504 169.73C265.437 169.637 265.307 169.557 265.114 169.49C264.921 169.417 264.634 169.347 264.254 169.28C263.747 169.187 263.347 169.073 263.054 168.94C262.767 168.8 262.561 168.63 262.434 168.43C262.314 168.223 262.254 167.98 262.254 167.7C262.254 167.227 262.427 166.84 262.774 166.54C263.121 166.233 263.614 166.08 264.254 166.08C264.687 166.08 265.051 166.16 265.344 166.32C265.644 166.473 265.877 166.68 266.044 166.94C266.217 167.193 266.331 167.473 266.384 167.78L265.504 167.84C265.464 167.653 265.391 167.49 265.284 167.35C265.177 167.203 265.037 167.09 264.864 167.01C264.691 166.923 264.484 166.88 264.244 166.88C263.864 166.88 263.584 166.953 263.404 167.1C263.224 167.247 263.134 167.433 263.134 167.66C263.134 167.833 263.174 167.977 263.254 168.09C263.341 168.197 263.477 168.287 263.664 168.36C263.851 168.427 264.101 168.487 264.414 168.54C264.954 168.633 265.374 168.747 265.674 168.88C265.974 169.013 266.184 169.177 266.304 169.37C266.424 169.563 266.484 169.8 266.484 170.08C266.484 170.407 266.391 170.687 266.204 170.92C266.024 171.147 265.777 171.32 265.464 171.44C265.157 171.56 264.807 171.62 264.414 171.62ZM269.701 171.62C269.201 171.62 268.767 171.507 268.401 171.28C268.041 171.053 267.761 170.733 267.561 170.32C267.367 169.9 267.271 169.41 267.271 168.85C267.271 168.29 267.367 167.803 267.561 167.39C267.761 166.977 268.037 166.657 268.391 166.43C268.751 166.197 269.174 166.08 269.661 166.08C270.121 166.08 270.527 166.19 270.881 166.41C271.234 166.623 271.507 166.937 271.701 167.35C271.901 167.763 272.001 168.267 272.001 168.86V169.11H268.151C268.184 169.677 268.334 170.103 268.601 170.39C268.874 170.677 269.241 170.82 269.701 170.82C270.047 170.82 270.331 170.74 270.551 170.58C270.777 170.413 270.934 170.197 271.021 169.93L271.921 170C271.781 170.473 271.514 170.863 271.121 171.17C270.734 171.47 270.261 171.62 269.701 171.62ZM268.151 168.37H271.081C271.041 167.857 270.891 167.48 270.631 167.24C270.377 167 270.054 166.88 269.661 166.88C269.254 166.88 268.917 167.007 268.651 167.26C268.391 167.507 268.224 167.877 268.151 168.37Z" fill="#858585"/>
<g filter="url(#filter1_d_121_1222)">
<rect x="30.6001" y="48.6001" width="146.933" height="174.8" rx="14" fill="white"/>
</g>
<path d="M35.667 63.6667C35.667 58.1439 40.1441 53.6667 45.667 53.6667H162.467C167.99 53.6667 172.467 58.1439 172.467 63.6667V142.467C172.467 147.99 167.99 152.467 162.467 152.467H45.667C40.1442 152.467 35.667 147.99 35.667 142.467V63.6667Z" fill="#D9D9D9"/>
<path d="M44.8041 175.5V165.56H51.2581V166.946H45.5181L46.3161 166.12V170.684L45.5181 169.97H51.0061V171.314H45.5181L46.3161 170.6V175.5H44.8041ZM52.7302 175.5V168.052H54.2142V175.5H52.7302ZM52.7022 166.974V165.49H54.2422V166.974H52.7022ZM57.8268 175.5C57.3415 175.5 56.9495 175.374 56.6508 175.122C56.3522 174.87 56.2028 174.469 56.2028 173.918V165.56H57.6868V173.778C57.6868 173.946 57.7288 174.072 57.8128 174.156C57.9062 174.24 58.0368 174.282 58.2048 174.282H58.7928V175.5H57.8268ZM63.1243 175.668C62.3963 175.668 61.7663 175.509 61.2343 175.192C60.7116 174.875 60.3056 174.422 60.0163 173.834C59.7363 173.246 59.5963 172.56 59.5963 171.776C59.5963 170.992 59.7363 170.311 60.0163 169.732C60.3056 169.144 60.7116 168.691 61.2343 168.374C61.757 168.047 62.373 167.884 63.0823 167.884C63.7543 167.884 64.347 168.043 64.8603 168.36C65.3736 168.668 65.7703 169.116 66.0503 169.704C66.3396 170.292 66.4843 171.001 66.4843 171.832V172.21H61.1363C61.1736 172.938 61.365 173.484 61.7103 173.848C62.065 174.212 62.541 174.394 63.1383 174.394C63.577 174.394 63.941 174.291 64.2303 174.086C64.5196 173.881 64.7203 173.605 64.8323 173.26L66.3723 173.358C66.1763 174.049 65.789 174.609 65.2103 175.038C64.641 175.458 63.9456 175.668 63.1243 175.668ZM61.1363 171.09H64.9163C64.8696 170.427 64.6783 169.937 64.3423 169.62C64.0156 169.303 63.5956 169.144 63.0823 169.144C62.5503 169.144 62.1116 169.312 61.7663 169.648C61.4303 169.975 61.2203 170.455 61.1363 171.09ZM62.4663 167.184L63.3483 165.308H64.9023L63.6423 167.184H62.4663ZM71.683 175.5V165.56H73.755L76.709 173.722L79.663 165.56H81.735V175.5H80.223V168.22L77.549 175.486H75.869L73.195 168.22V175.5H71.683ZM83.738 175.5V168.052H85.222V175.5H83.738ZM83.71 166.974V165.49H85.25V166.974H83.71ZM90.1793 177.768C89.5913 177.768 89.0733 177.679 88.6253 177.502C88.1773 177.325 87.8086 177.073 87.5193 176.746C87.23 176.429 87.034 176.055 86.9313 175.626L88.4713 175.528C88.574 175.836 88.7513 176.079 89.0033 176.256C89.2646 176.443 89.6566 176.536 90.1793 176.536C90.7953 176.536 91.2666 176.405 91.5933 176.144C91.9293 175.883 92.0973 175.486 92.0973 174.954V173.876C91.92 174.259 91.6353 174.562 91.2433 174.786C90.8513 175.01 90.4126 175.122 89.9273 175.122C89.302 175.122 88.7466 174.968 88.2613 174.66C87.776 174.352 87.398 173.927 87.1273 173.386C86.8566 172.845 86.7213 172.219 86.7213 171.51C86.7213 170.791 86.852 170.161 87.1133 169.62C87.384 169.079 87.7573 168.654 88.2333 168.346C88.7186 168.038 89.2646 167.884 89.8713 167.884C90.4033 167.884 90.87 168.005 91.2713 168.248C91.682 168.491 91.976 168.817 92.1533 169.228V168.052H93.5813V174.912C93.5813 175.528 93.4413 176.046 93.1613 176.466C92.8906 176.895 92.4986 177.217 91.9853 177.432C91.4813 177.656 90.8793 177.768 90.1793 177.768ZM90.1653 173.862C90.744 173.862 91.206 173.652 91.5513 173.232C91.906 172.812 92.088 172.233 92.0973 171.496C92.1066 171.011 92.032 170.595 91.8733 170.25C91.7146 169.895 91.486 169.625 91.1873 169.438C90.898 169.242 90.5573 169.144 90.1653 169.144C89.5586 169.144 89.0873 169.359 88.7513 169.788C88.4246 170.208 88.2613 170.777 88.2613 171.496C88.2613 172.224 88.4293 172.803 88.7653 173.232C89.1106 173.652 89.5773 173.862 90.1653 173.862ZM95.6872 175.5V168.052H97.0452L97.1012 170.04L96.9192 169.942C97.0032 169.457 97.1619 169.065 97.3952 168.766C97.6285 168.467 97.9132 168.248 98.2492 168.108C98.5852 167.959 98.9492 167.884 99.3412 167.884C99.9012 167.884 100.363 168.01 100.727 168.262C101.101 168.505 101.381 168.841 101.567 169.27C101.763 169.69 101.861 170.171 101.861 170.712V175.5H100.377V171.16C100.377 170.721 100.331 170.353 100.237 170.054C100.144 169.755 99.9899 169.527 99.7752 169.368C99.5605 169.209 99.2805 169.13 98.9352 169.13C98.4125 169.13 97.9879 169.303 97.6612 169.648C97.3345 169.993 97.1712 170.497 97.1712 171.16V175.5H95.6872ZM106.861 175.668C106.151 175.668 105.531 175.509 104.999 175.192C104.467 174.875 104.056 174.422 103.767 173.834C103.477 173.246 103.333 172.56 103.333 171.776C103.333 170.983 103.477 170.297 103.767 169.718C104.056 169.139 104.467 168.691 104.999 168.374C105.531 168.047 106.151 167.884 106.861 167.884C107.57 167.884 108.191 168.047 108.723 168.374C109.255 168.691 109.665 169.139 109.955 169.718C110.244 170.297 110.389 170.983 110.389 171.776C110.389 172.56 110.244 173.246 109.955 173.834C109.665 174.422 109.255 174.875 108.723 175.192C108.191 175.509 107.57 175.668 106.861 175.668ZM106.861 174.38C107.495 174.38 107.985 174.151 108.331 173.694C108.676 173.227 108.849 172.588 108.849 171.776C108.849 170.964 108.676 170.329 108.331 169.872C107.985 169.405 107.495 169.172 106.861 169.172C106.235 169.172 105.745 169.405 105.391 169.872C105.045 170.329 104.873 170.964 104.873 171.776C104.873 172.588 105.045 173.227 105.391 173.694C105.745 174.151 106.235 174.38 106.861 174.38ZM111.888 175.5V168.052H113.246L113.302 170.04L113.12 169.942C113.204 169.457 113.363 169.065 113.596 168.766C113.83 168.467 114.114 168.248 114.45 168.108C114.786 167.959 115.15 167.884 115.542 167.884C116.102 167.884 116.564 168.01 116.928 168.262C117.302 168.505 117.582 168.841 117.768 169.27C117.964 169.69 118.062 170.171 118.062 170.712V175.5H116.578V171.16C116.578 170.721 116.532 170.353 116.438 170.054C116.345 169.755 116.191 169.527 115.976 169.368C115.762 169.209 115.482 169.13 115.136 169.13C114.614 169.13 114.189 169.303 113.862 169.648C113.536 169.993 113.372 170.497 113.372 171.16V175.5H111.888Z" fill="black"/>
<path d="M44.4001 191.5V184.4H47.3701C47.8834 184.4 48.3268 184.487 48.7001 184.66C49.0734 184.833 49.3634 185.08 49.5701 185.4C49.7768 185.72 49.8801 186.097 49.8801 186.53C49.8801 186.857 49.8101 187.147 49.6701 187.4C49.5301 187.653 49.3401 187.857 49.1001 188.01C48.8668 188.163 48.6068 188.257 48.3201 188.29L48.2701 188.19C48.7301 188.19 49.0834 188.293 49.3301 188.5C49.5834 188.707 49.7268 189.023 49.7601 189.45L49.9401 191.5H48.6201L48.4701 189.64C48.4501 189.36 48.3601 189.153 48.2001 189.02C48.0401 188.887 47.7734 188.82 47.4001 188.82H45.7001V191.5H44.4001ZM45.7001 187.68H47.2901C47.6834 187.68 47.9901 187.587 48.2101 187.4C48.4301 187.213 48.5401 186.95 48.5401 186.61C48.5401 186.263 48.4268 185.997 48.2001 185.81C47.9801 185.623 47.6568 185.53 47.2301 185.53H45.7001V187.68ZM53.4446 192.4V183.5H54.2246V192.4H53.4446ZM53.9146 191.63C53.3413 191.63 52.8446 191.53 52.4246 191.33C52.0046 191.123 51.6746 190.84 51.4346 190.48C51.2013 190.113 51.0646 189.687 51.0246 189.2L52.3146 189.13C52.3546 189.43 52.4413 189.683 52.5746 189.89C52.708 190.097 52.888 190.257 53.1146 190.37C53.3413 190.477 53.6146 190.53 53.9346 190.53C54.208 190.53 54.4413 190.497 54.6346 190.43C54.828 190.357 54.9746 190.253 55.0746 190.12C55.1813 189.987 55.2346 189.823 55.2346 189.63C55.2346 189.443 55.1913 189.283 55.1046 189.15C55.018 189.01 54.8513 188.883 54.6046 188.77C54.3646 188.657 54.008 188.547 53.5346 188.44C52.9613 188.3 52.498 188.147 52.1446 187.98C51.798 187.813 51.548 187.607 51.3946 187.36C51.2413 187.107 51.1646 186.79 51.1646 186.41C51.1646 186.003 51.2646 185.647 51.4646 185.34C51.6646 185.027 51.9513 184.787 52.3246 184.62C52.698 184.447 53.148 184.36 53.6746 184.36C54.228 184.36 54.698 184.46 55.0846 184.66C55.4713 184.853 55.7746 185.123 55.9946 185.47C56.2213 185.817 56.358 186.213 56.4046 186.66L55.1146 186.73C55.088 186.477 55.0146 186.253 54.8946 186.06C54.7746 185.867 54.6113 185.717 54.4046 185.61C54.198 185.503 53.948 185.45 53.6546 185.45C53.2813 185.45 52.988 185.537 52.7746 185.71C52.568 185.877 52.4646 186.097 52.4646 186.37C52.4646 186.557 52.508 186.713 52.5946 186.84C52.688 186.96 52.848 187.067 53.0746 187.16C53.3013 187.247 53.6213 187.337 54.0346 187.43C54.6546 187.57 55.1446 187.74 55.5046 187.94C55.8713 188.133 56.1313 188.367 56.2846 188.64C56.4446 188.907 56.5246 189.213 56.5246 189.56C56.5246 189.98 56.4146 190.347 56.1946 190.66C55.9813 190.967 55.678 191.207 55.2846 191.38C54.898 191.547 54.4413 191.63 53.9146 191.63ZM60.0104 191.5C60.0104 190.927 60.0904 190.427 60.2504 190C60.4104 189.567 60.6804 189.173 61.0604 188.82C61.4404 188.46 61.9537 188.11 62.6004 187.77C62.9204 187.597 63.1771 187.443 63.3704 187.31C63.5637 187.177 63.7037 187.04 63.7904 186.9C63.8771 186.753 63.9204 186.58 63.9204 186.38C63.9204 186.18 63.8771 186.007 63.7904 185.86C63.7037 185.707 63.5737 185.587 63.4004 185.5C63.2337 185.413 63.0237 185.37 62.7704 185.37C62.3637 185.37 62.0404 185.487 61.8004 185.72C61.5671 185.947 61.4237 186.273 61.3704 186.7L60.0304 186.62C60.0971 185.88 60.3671 185.3 60.8404 184.88C61.3204 184.453 61.9637 184.24 62.7704 184.24C63.2904 184.24 63.7371 184.33 64.1104 184.51C64.4837 184.683 64.7671 184.93 64.9604 185.25C65.1604 185.57 65.2604 185.94 65.2604 186.36C65.2604 186.72 65.1971 187.03 65.0704 187.29C64.9504 187.55 64.7504 187.79 64.4704 188.01C64.1971 188.223 63.8271 188.453 63.3604 188.7C62.7737 189.013 62.3337 189.317 62.0404 189.61C61.7471 189.897 61.5904 190.15 61.5704 190.37H65.2604V191.5H60.0104ZM69.0664 191.66C68.4998 191.66 67.9998 191.58 67.5664 191.42C67.1398 191.26 66.8064 191.027 66.5664 190.72C66.3264 190.407 66.2064 190.02 66.2064 189.56C66.2064 189.04 66.3664 188.61 66.6864 188.27C67.0131 187.923 67.4498 187.697 67.9964 187.59L68.0164 187.8C67.5698 187.7 67.2131 187.517 66.9464 187.25C66.6864 186.977 66.5564 186.623 66.5564 186.19C66.5564 185.81 66.6531 185.473 66.8464 185.18C67.0464 184.887 67.3331 184.657 67.7064 184.49C68.0864 184.323 68.5398 184.24 69.0664 184.24C69.5998 184.24 70.0531 184.323 70.4264 184.49C70.8064 184.657 71.0931 184.887 71.2864 185.18C71.4864 185.473 71.5864 185.81 71.5864 186.19C71.5864 186.623 71.4531 186.973 71.1864 187.24C70.9264 187.507 70.5731 187.693 70.1264 187.8L70.1464 187.59C70.6931 187.697 71.1264 187.923 71.4464 188.27C71.7664 188.61 71.9264 189.04 71.9264 189.56C71.9264 190.02 71.8064 190.407 71.5664 190.72C71.3331 191.027 71.0031 191.26 70.5764 191.42C70.1498 191.58 69.6464 191.66 69.0664 191.66ZM69.0664 190.52C69.5264 190.52 69.8931 190.427 70.1664 190.24C70.4464 190.047 70.5864 189.763 70.5864 189.39C70.5864 189.037 70.4564 188.753 70.1964 188.54C69.9431 188.32 69.5664 188.21 69.0664 188.21C68.5731 188.21 68.1964 188.32 67.9364 188.54C67.6831 188.753 67.5564 189.037 67.5564 189.39C67.5564 189.763 67.6931 190.047 67.9664 190.24C68.2398 190.427 68.6064 190.52 69.0664 190.52ZM69.0664 187.24C69.4398 187.24 69.7298 187.163 69.9364 187.01C70.1498 186.85 70.2564 186.613 70.2564 186.3C70.2564 186.013 70.1564 185.787 69.9564 185.62C69.7564 185.453 69.4598 185.37 69.0664 185.37C68.6864 185.37 68.3931 185.453 68.1864 185.62C67.9864 185.787 67.8864 186.013 67.8864 186.3C67.8864 186.613 67.9898 186.85 68.1964 187.01C68.4031 187.163 68.6931 187.24 69.0664 187.24ZM72.6913 191.5V190.1H74.1513V191.5H72.6913ZM77.7821 191.66C77.1821 191.66 76.6587 191.51 76.2121 191.21C75.7721 190.91 75.4321 190.483 75.1921 189.93C74.9521 189.377 74.8321 188.72 74.8321 187.96C74.8321 187.2 74.9521 186.543 75.1921 185.99C75.4321 185.43 75.7721 185 76.2121 184.7C76.6587 184.393 77.1821 184.24 77.7821 184.24C78.3954 184.24 78.9221 184.393 79.3621 184.7C79.8021 185 80.1421 185.427 80.3821 185.98C80.6221 186.533 80.7421 187.193 80.7421 187.96C80.7421 188.72 80.6221 189.377 80.3821 189.93C80.1421 190.483 79.8021 190.91 79.3621 191.21C78.9221 191.51 78.3954 191.66 77.7821 191.66ZM77.7821 190.53C78.3021 190.53 78.7021 190.313 78.9821 189.88C79.2621 189.44 79.4021 188.8 79.4021 187.96C79.4021 187.4 79.3387 186.927 79.2121 186.54C79.0854 186.153 78.9021 185.863 78.6621 185.67C78.4287 185.47 78.1354 185.37 77.7821 185.37C77.4421 185.37 77.1521 185.47 76.9121 185.67C76.6721 185.863 76.4887 186.153 76.3621 186.54C76.2354 186.927 76.1721 187.4 76.1721 187.96C76.1721 188.8 76.3121 189.44 76.5921 189.88C76.8721 190.313 77.2687 190.53 77.7821 190.53ZM84.6473 191.66C84.0473 191.66 83.524 191.51 83.0773 191.21C82.6373 190.91 82.2973 190.483 82.0573 189.93C81.8173 189.377 81.6973 188.72 81.6973 187.96C81.6973 187.2 81.8173 186.543 82.0573 185.99C82.2973 185.43 82.6373 185 83.0773 184.7C83.524 184.393 84.0473 184.24 84.6473 184.24C85.2606 184.24 85.7873 184.393 86.2273 184.7C86.6673 185 87.0073 185.427 87.2473 185.98C87.4873 186.533 87.6073 187.193 87.6073 187.96C87.6073 188.72 87.4873 189.377 87.2473 189.93C87.0073 190.483 86.6673 190.91 86.2273 191.21C85.7873 191.51 85.2606 191.66 84.6473 191.66ZM84.6473 190.53C85.1673 190.53 85.5673 190.313 85.8473 189.88C86.1273 189.44 86.2673 188.8 86.2673 187.96C86.2673 187.4 86.204 186.927 86.0773 186.54C85.9506 186.153 85.7673 185.863 85.5273 185.67C85.294 185.47 85.0006 185.37 84.6473 185.37C84.3073 185.37 84.0173 185.47 83.7773 185.67C83.5373 185.863 83.354 186.153 83.2273 186.54C83.1006 186.927 83.0373 187.4 83.0373 187.96C83.0373 188.8 83.1773 189.44 83.4573 189.88C83.7373 190.313 84.134 190.53 84.6473 190.53Z" fill="black"/>
<path d="M44.5201 207.5V200.4H48.9801V201.24H44.9501L45.3801 200.8V204.06L44.9501 203.62H48.8001V204.44H44.9501L45.3801 204V207.5H44.5201ZM50.1032 207.5V202.2H50.9432V207.5H50.1032ZM50.0832 201.37V200.39H50.9632V201.37H50.0832ZM53.487 207.5C53.1803 207.5 52.9303 207.42 52.737 207.26C52.5436 207.1 52.447 206.847 52.447 206.5V200.4H53.287V206.43C53.287 206.537 53.3136 206.62 53.367 206.68C53.427 206.733 53.5103 206.76 53.617 206.76H54.077V207.5H53.487ZM57.1244 207.62C56.6244 207.62 56.1911 207.507 55.8244 207.28C55.4644 207.053 55.1844 206.733 54.9844 206.32C54.7911 205.9 54.6944 205.41 54.6944 204.85C54.6944 204.29 54.7911 203.803 54.9844 203.39C55.1844 202.977 55.4611 202.657 55.8144 202.43C56.1744 202.197 56.5977 202.08 57.0844 202.08C57.5444 202.08 57.9511 202.19 58.3044 202.41C58.6577 202.623 58.9311 202.937 59.1244 203.35C59.3244 203.763 59.4244 204.267 59.4244 204.86V205.11H55.5744C55.6077 205.677 55.7577 206.103 56.0244 206.39C56.2977 206.677 56.6644 206.82 57.1244 206.82C57.4711 206.82 57.7544 206.74 57.9744 206.58C58.2011 206.413 58.3577 206.197 58.4444 205.93L59.3444 206C59.2044 206.473 58.9377 206.863 58.5444 207.17C58.1577 207.47 57.6844 207.62 57.1244 207.62ZM55.5744 204.37H58.5044C58.4644 203.857 58.3144 203.48 58.0544 203.24C57.8011 203 57.4777 202.88 57.0844 202.88C56.6777 202.88 56.3411 203.007 56.0744 203.26C55.8144 203.507 55.6477 203.877 55.5744 204.37ZM56.7544 201.54L57.4144 200.26H58.3544L57.4544 201.54H56.7544ZM63.2799 207.5V200.4H64.4799L66.7499 206.56L69.0099 200.4H70.2099V207.5H69.3499V202L67.3199 207.5H66.1699L64.1399 202V207.5H63.2799ZM71.7341 207.5V202.2H72.5741V207.5H71.7341ZM71.7141 201.37V200.39H72.5941V201.37H71.7141ZM76.0878 209.12C75.7078 209.12 75.3645 209.057 75.0578 208.93C74.7512 208.803 74.4945 208.623 74.2878 208.39C74.0812 208.157 73.9412 207.887 73.8678 207.58L74.7478 207.52C74.8278 207.767 74.9678 207.96 75.1678 208.1C75.3745 208.247 75.6812 208.32 76.0878 208.32C76.5678 208.32 76.9345 208.223 77.1878 208.03C77.4478 207.837 77.5778 207.547 77.5778 207.16V206.3C77.4512 206.58 77.2478 206.803 76.9678 206.97C76.6878 207.137 76.3745 207.22 76.0278 207.22C75.5812 207.22 75.1812 207.11 74.8278 206.89C74.4812 206.67 74.2078 206.367 74.0078 205.98C73.8145 205.593 73.7178 205.15 73.7178 204.65C73.7178 204.143 73.8145 203.7 74.0078 203.32C74.2012 202.933 74.4678 202.63 74.8078 202.41C75.1545 202.19 75.5478 202.08 75.9878 202.08C76.3612 202.08 76.6945 202.167 76.9878 202.34C77.2878 202.513 77.4978 202.747 77.6178 203.04V202.2H78.4178V207.14C78.4178 207.553 78.3245 207.907 78.1378 208.2C77.9512 208.5 77.6845 208.727 77.3378 208.88C76.9912 209.04 76.5745 209.12 76.0878 209.12ZM76.0678 206.42C76.5212 206.42 76.8845 206.263 77.1578 205.95C77.4312 205.63 77.5712 205.197 77.5778 204.65C77.5845 204.283 77.5245 203.97 77.3978 203.71C77.2778 203.443 77.1012 203.24 76.8678 203.1C76.6412 202.953 76.3745 202.88 76.0678 202.88C75.6012 202.88 75.2378 203.04 74.9778 203.36C74.7245 203.673 74.5978 204.103 74.5978 204.65C74.5978 205.197 74.7278 205.63 74.9878 205.95C75.2545 206.263 75.6145 206.42 76.0678 206.42ZM80.0153 207.5V202.2H80.7853L80.8153 203.55L80.7153 203.46C80.782 203.147 80.8987 202.89 81.0653 202.69C81.232 202.483 81.432 202.33 81.6653 202.23C81.9053 202.13 82.162 202.08 82.4353 202.08C82.842 202.08 83.1753 202.17 83.4353 202.35C83.702 202.53 83.8987 202.773 84.0253 203.08C84.1587 203.38 84.2253 203.717 84.2253 204.09V207.5H83.3853V204.33C83.3853 204.003 83.3453 203.73 83.2653 203.51C83.192 203.283 83.072 203.113 82.9053 203C82.7387 202.88 82.522 202.82 82.2553 202.82C81.8487 202.82 81.512 202.95 81.2453 203.21C80.9853 203.463 80.8553 203.837 80.8553 204.33V207.5H80.0153ZM87.7787 207.62C87.292 207.62 86.8654 207.507 86.4987 207.28C86.132 207.053 85.8487 206.733 85.6487 206.32C85.4487 205.9 85.3487 205.41 85.3487 204.85C85.3487 204.283 85.4487 203.793 85.6487 203.38C85.8487 202.967 86.132 202.647 86.4987 202.42C86.8654 202.193 87.292 202.08 87.7787 202.08C88.2654 202.08 88.6887 202.193 89.0487 202.42C89.4154 202.647 89.6987 202.967 89.8987 203.38C90.0987 203.793 90.1987 204.283 90.1987 204.85C90.1987 205.41 90.0987 205.9 89.8987 206.32C89.6987 206.733 89.4154 207.053 89.0487 207.28C88.6887 207.507 88.2654 207.62 87.7787 207.62ZM87.7787 206.82C88.2654 206.82 88.642 206.647 88.9087 206.3C89.182 205.947 89.3187 205.463 89.3187 204.85C89.3187 204.237 89.182 203.757 88.9087 203.41C88.642 203.057 88.2654 202.88 87.7787 202.88C87.292 202.88 86.912 203.057 86.6387 203.41C86.3654 203.757 86.2287 204.237 86.2287 204.85C86.2287 205.463 86.3654 205.947 86.6387 206.3C86.912 206.647 87.292 206.82 87.7787 206.82ZM91.3435 207.5V202.2H92.1135L92.1435 203.55L92.0435 203.46C92.1101 203.147 92.2268 202.89 92.3935 202.69C92.5601 202.483 92.7601 202.33 92.9935 202.23C93.2335 202.13 93.4901 202.08 93.7635 202.08C94.1701 202.08 94.5035 202.17 94.7635 202.35C95.0301 202.53 95.2268 202.773 95.3535 203.08C95.4868 203.38 95.5535 203.717 95.5535 204.09V207.5H94.7135V204.33C94.7135 204.003 94.6735 203.73 94.5935 203.51C94.5201 203.283 94.4001 203.113 94.2335 203C94.0668 202.88 93.8501 202.82 93.5835 202.82C93.1768 202.82 92.8401 202.95 92.5735 203.21C92.3135 203.463 92.1835 203.837 92.1835 204.33V207.5H91.3435Z" fill="#858585"/>
<rect x="41.6001" y="12.6001" width="125" height="26" rx="13" fill="#10B981"/>
<mask id="mask0_121_1222" style="mask-type:alpha" maskUnits="userSpaceOnUse" x="48" y="20" width="11" height="11">
<rect x="48.6001" y="20.6001" width="10" height="10" fill="#D9D9D9"/>
</mask>
<g mask="url(#mask0_121_1222)">
<path d="M53.1834 28.1V24.2667L51.6834 25.7667L51.1001 25.1833L53.6001 22.6833L56.1001 25.1833L55.5168 25.7667L54.0168 24.2667V28.1H53.1834Z" fill="white"/>
</g>
<path d="M65.8162 29.1001L63.2562 22.0001H64.4062L66.4962 27.9001L68.5862 22.0001H69.7362L67.1662 29.1001H65.8162ZM70.4468 29.1001V23.7801H71.5068V29.1001H70.4468ZM70.4268 23.0101V21.9501H71.5268V23.0101H70.4268ZM74.9577 29.2201C74.4577 29.2201 74.0344 29.1434 73.6877 28.9901C73.3477 28.8368 73.0844 28.6268 72.8977 28.3601C72.711 28.0868 72.6044 27.7734 72.5777 27.4201L73.6677 27.3701C73.721 27.6634 73.8477 27.8968 74.0477 28.0701C74.2477 28.2434 74.551 28.3301 74.9577 28.3301C75.291 28.3301 75.5544 28.2768 75.7477 28.1701C75.941 28.0634 76.0377 27.8934 76.0377 27.6601C76.0377 27.5334 76.0044 27.4268 75.9377 27.3401C75.8777 27.2468 75.7577 27.1701 75.5777 27.1101C75.3977 27.0434 75.131 26.9801 74.7777 26.9201C74.251 26.8201 73.8377 26.7034 73.5377 26.5701C73.2377 26.4368 73.0244 26.2668 72.8977 26.0601C72.771 25.8534 72.7077 25.6034 72.7077 25.3101C72.7077 24.8234 72.8877 24.4268 73.2477 24.1201C73.6144 23.8134 74.141 23.6601 74.8277 23.6601C75.2877 23.6601 75.6744 23.7401 75.9877 23.9001C76.301 24.0534 76.5444 24.2634 76.7177 24.5301C76.8977 24.7901 77.011 25.0834 77.0577 25.4101L75.9677 25.4701C75.9344 25.2834 75.8677 25.1234 75.7677 24.9901C75.6744 24.8501 75.5477 24.7434 75.3877 24.6701C75.2277 24.5901 75.0377 24.5501 74.8177 24.5501C74.4777 24.5501 74.2244 24.6168 74.0577 24.7501C73.891 24.8834 73.8077 25.0568 73.8077 25.2701C73.8077 25.4301 73.8444 25.5601 73.9177 25.6601C73.9977 25.7601 74.1244 25.8434 74.2977 25.9101C74.471 25.9701 74.701 26.0234 74.9877 26.0701C75.541 26.1634 75.9744 26.2801 76.2877 26.4201C76.601 26.5534 76.821 26.7201 76.9477 26.9201C77.0744 27.1201 77.1377 27.3634 77.1377 27.6501C77.1377 27.9834 77.0444 28.2668 76.8577 28.5001C76.671 28.7334 76.4144 28.9134 76.0877 29.0401C75.761 29.1601 75.3844 29.2201 74.9577 29.2201ZM79.9604 29.2201C79.4271 29.2201 79.0004 29.0434 78.6804 28.6901C78.3671 28.3301 78.2104 27.8334 78.2104 27.2001V23.7801H79.2704V26.9301C79.2704 27.4101 79.3538 27.7634 79.5204 27.9901C79.6871 28.2168 79.9404 28.3301 80.2804 28.3301C80.6671 28.3301 80.9671 28.2068 81.1804 27.9601C81.4004 27.7068 81.5104 27.3534 81.5104 26.9001V23.7801H82.5704V29.1001H81.5804L81.5604 27.7101L81.7104 27.7701C81.6171 28.2368 81.4204 28.5968 81.1204 28.8501C80.8204 29.0968 80.4338 29.2201 79.9604 29.2201ZM85.5598 29.2201C85.0065 29.2201 84.5632 29.0934 84.2298 28.8401C83.9032 28.5868 83.7398 28.2301 83.7398 27.7701C83.7398 27.3101 83.8765 26.9534 84.1498 26.7001C84.4298 26.4401 84.8598 26.2534 85.4398 26.1401L87.2698 25.7901C87.2698 25.3768 87.1732 25.0701 86.9798 24.8701C86.7865 24.6634 86.4998 24.5601 86.1198 24.5601C85.7798 24.5601 85.5132 24.6368 85.3198 24.7901C85.1265 24.9368 84.9932 25.1568 84.9198 25.4501L83.8298 25.3801C83.9298 24.8468 84.1765 24.4268 84.5698 24.1201C84.9698 23.8134 85.4865 23.6601 86.1198 23.6601C86.8398 23.6601 87.3865 23.8534 87.7598 24.2401C88.1398 24.6201 88.3298 25.1568 88.3298 25.8501V27.9201C88.3298 28.0468 88.3498 28.1368 88.3898 28.1901C88.4365 28.2368 88.5098 28.2601 88.6098 28.2601H88.7998V29.1001C88.7665 29.1068 88.7132 29.1134 88.6398 29.1201C88.5665 29.1268 88.4898 29.1301 88.4098 29.1301C88.1832 29.1301 87.9865 29.0934 87.8198 29.0201C87.6598 28.9468 87.5398 28.8268 87.4598 28.6601C87.3798 28.4868 87.3398 28.2568 87.3398 27.9701L87.4498 28.0201C87.3965 28.2534 87.2798 28.4601 87.0998 28.6401C86.9265 28.8201 86.7032 28.9634 86.4298 29.0701C86.1632 29.1701 85.8732 29.2201 85.5598 29.2201ZM85.7298 28.3801C86.0498 28.3801 86.3232 28.3201 86.5498 28.2001C86.7765 28.0734 86.9532 27.9001 87.0798 27.6801C87.2065 27.4601 87.2698 27.2101 87.2698 26.9301V26.5901L85.7098 26.8901C85.3898 26.9501 85.1632 27.0468 85.0298 27.1801C84.9032 27.3068 84.8398 27.4701 84.8398 27.6701C84.8398 27.8968 84.9165 28.0734 85.0698 28.2001C85.2298 28.3201 85.4498 28.3801 85.7298 28.3801ZM90.7865 29.1001C90.4398 29.1001 90.1598 29.0101 89.9465 28.8301C89.7331 28.6501 89.6265 28.3634 89.6265 27.9701V22.0001H90.6865V27.8701C90.6865 27.9901 90.7165 28.0801 90.7765 28.1401C90.8431 28.2001 90.9365 28.2301 91.0565 28.2301H91.4765V29.1001H90.7865ZM92.3706 29.1001V23.7801H93.4306V29.1001H92.3706ZM92.3506 23.0101V21.9501H93.4506V23.0101H92.3506ZM94.7492 29.1001V28.1501L97.9592 24.6501H94.8492V23.7801H99.1792V24.7301L95.9392 28.2301H99.2592V29.1001H94.7492ZM101.907 29.2201C101.354 29.2201 100.911 29.0934 100.577 28.8401C100.251 28.5868 100.087 28.2301 100.087 27.7701C100.087 27.3101 100.224 26.9534 100.497 26.7001C100.777 26.4401 101.207 26.2534 101.787 26.1401L103.617 25.7901C103.617 25.3768 103.521 25.0701 103.327 24.8701C103.134 24.6634 102.847 24.5601 102.467 24.5601C102.127 24.5601 101.861 24.6368 101.667 24.7901C101.474 24.9368 101.341 25.1568 101.267 25.4501L100.177 25.3801C100.277 24.8468 100.524 24.4268 100.917 24.1201C101.317 23.8134 101.834 23.6601 102.467 23.6601C103.187 23.6601 103.734 23.8534 104.107 24.2401C104.487 24.6201 104.677 25.1568 104.677 25.8501V27.9201C104.677 28.0468 104.697 28.1368 104.737 28.1901C104.784 28.2368 104.857 28.2601 104.957 28.2601H105.147V29.1001C105.114 29.1068 105.061 29.1134 104.987 29.1201C104.914 29.1268 104.837 29.1301 104.757 29.1301C104.531 29.1301 104.334 29.0934 104.167 29.0201C104.007 28.9468 103.887 28.8268 103.807 28.6601C103.727 28.4868 103.687 28.2568 103.687 27.9701L103.797 28.0201C103.744 28.2534 103.627 28.4601 103.447 28.6401C103.274 28.8201 103.051 28.9634 102.777 29.0701C102.511 29.1701 102.221 29.2201 101.907 29.2201ZM102.077 28.3801C102.397 28.3801 102.671 28.3201 102.897 28.2001C103.124 28.0734 103.301 27.9001 103.427 27.6801C103.554 27.4601 103.617 27.2101 103.617 26.9301V26.5901L102.057 26.8901C101.737 26.9501 101.511 27.0468 101.377 27.1801C101.251 27.3068 101.187 27.4701 101.187 27.6701C101.187 27.8968 101.264 28.0734 101.417 28.2001C101.577 28.3201 101.797 28.3801 102.077 28.3801ZM108.193 29.2201C107.687 29.2201 107.243 29.1068 106.863 28.8801C106.483 28.6534 106.19 28.3301 105.983 27.9101C105.777 27.4901 105.673 27.0001 105.673 26.4401C105.673 25.8801 105.777 25.3934 105.983 24.9801C106.19 24.5601 106.483 24.2368 106.863 24.0101C107.243 23.7768 107.687 23.6601 108.193 23.6601C108.627 23.6601 109.01 23.7368 109.343 23.8901C109.683 24.0368 109.957 24.2534 110.163 24.5401C110.377 24.8268 110.513 25.1768 110.573 25.5901L109.463 25.6501C109.41 25.3034 109.27 25.0401 109.043 24.8601C108.817 24.6734 108.533 24.5801 108.193 24.5801C107.747 24.5801 107.397 24.7468 107.143 25.0801C106.897 25.4068 106.773 25.8601 106.773 26.4401C106.773 27.0201 106.897 27.4768 107.143 27.8101C107.397 28.1368 107.747 28.3001 108.193 28.3001C108.533 28.3001 108.817 28.2068 109.043 28.0201C109.27 27.8268 109.41 27.5368 109.463 27.1501L110.573 27.2101C110.513 27.6168 110.377 27.9701 110.163 28.2701C109.957 28.5701 109.683 28.8034 109.343 28.9701C109.01 29.1368 108.627 29.2201 108.193 29.2201ZM108.103 31.3401C107.783 31.3401 107.52 31.2634 107.313 31.1101C107.113 30.9634 106.977 30.7734 106.903 30.5401L107.463 30.3201C107.517 30.4601 107.593 30.5601 107.693 30.6201C107.793 30.6868 107.923 30.7201 108.083 30.7201C108.25 30.7201 108.377 30.6868 108.463 30.6201C108.557 30.5534 108.603 30.4601 108.603 30.3401C108.603 30.2134 108.557 30.1101 108.463 30.0301C108.377 29.9501 108.183 29.9101 107.883 29.9101L107.553 29.5801L107.923 29.0001H108.633L108.313 29.4401C108.647 29.4601 108.89 29.5534 109.043 29.7201C109.197 29.8934 109.273 30.1068 109.273 30.3601C109.273 30.5668 109.22 30.7401 109.113 30.8801C109.013 31.0268 108.877 31.1401 108.703 31.2201C108.53 31.3001 108.33 31.3401 108.103 31.3401ZM113.731 29.2201C113.224 29.2201 112.781 29.1068 112.401 28.8801C112.021 28.6534 111.727 28.3301 111.521 27.9101C111.314 27.4901 111.211 27.0001 111.211 26.4401C111.211 25.8734 111.314 25.3834 111.521 24.9701C111.727 24.5568 112.021 24.2368 112.401 24.0101C112.781 23.7768 113.224 23.6601 113.731 23.6601C114.237 23.6601 114.681 23.7768 115.061 24.0101C115.441 24.2368 115.734 24.5568 115.941 24.9701C116.147 25.3834 116.251 25.8734 116.251 26.4401C116.251 27.0001 116.147 27.4901 115.941 27.9101C115.734 28.3301 115.441 28.6534 115.061 28.8801C114.681 29.1068 114.237 29.2201 113.731 29.2201ZM113.731 28.3001C114.184 28.3001 114.534 28.1368 114.781 27.8101C115.027 27.4768 115.151 27.0201 115.151 26.4401C115.151 25.8601 115.027 25.4068 114.781 25.0801C114.534 24.7468 114.184 24.5801 113.731 24.5801C113.284 24.5801 112.934 24.7468 112.681 25.0801C112.434 25.4068 112.311 25.8601 112.311 26.4401C112.311 27.0201 112.434 27.4768 112.681 27.8101C112.934 28.1368 113.284 28.3001 113.731 28.3001ZM114.311 23.0301C114.177 23.0301 114.054 23.0068 113.941 22.9601C113.827 22.9134 113.711 22.8434 113.591 22.7501C113.491 22.6634 113.407 22.6034 113.341 22.5701C113.281 22.5301 113.207 22.5101 113.121 22.5101C113.007 22.5101 112.911 22.5501 112.831 22.6301C112.757 22.7101 112.714 22.8668 112.701 23.1001H112.111C112.117 22.6934 112.211 22.3834 112.391 22.1701C112.577 21.9501 112.817 21.8401 113.111 21.8401C113.271 21.8401 113.411 21.8668 113.531 21.9201C113.651 21.9734 113.771 22.0468 113.891 22.1401C113.984 22.2201 114.064 22.2768 114.131 22.3101C114.204 22.3434 114.277 22.3601 114.351 22.3601C114.471 22.3601 114.564 22.3201 114.631 22.2401C114.697 22.1534 114.737 21.9901 114.751 21.7501H115.351C115.331 22.1501 115.231 22.4634 115.051 22.6901C114.871 22.9168 114.624 23.0301 114.311 23.0301ZM119.512 29.2201C118.992 29.2201 118.542 29.1068 118.162 28.8801C117.788 28.6534 117.498 28.3301 117.292 27.9101C117.092 27.4901 116.992 27.0001 116.992 26.4401C116.992 25.8801 117.092 25.3934 117.292 24.9801C117.498 24.5601 117.788 24.2368 118.162 24.0101C118.535 23.7768 118.975 23.6601 119.482 23.6601C119.962 23.6601 120.385 23.7734 120.752 24.0001C121.118 24.2201 121.402 24.5401 121.602 24.9601C121.808 25.3801 121.912 25.8868 121.912 26.4801V26.7501H118.092C118.118 27.2701 118.255 27.6601 118.502 27.9201C118.755 28.1801 119.095 28.3101 119.522 28.3101C119.835 28.3101 120.095 28.2368 120.302 28.0901C120.508 27.9434 120.652 27.7468 120.732 27.5001L121.832 27.5701C121.692 28.0634 121.415 28.4634 121.002 28.7701C120.595 29.0701 120.098 29.2201 119.512 29.2201ZM118.092 25.9501H120.792C120.758 25.4768 120.622 25.1268 120.382 24.9001C120.148 24.6734 119.848 24.5601 119.482 24.5601C119.102 24.5601 118.788 24.6801 118.542 24.9201C118.302 25.1534 118.152 25.4968 118.092 25.9501ZM125.036 29.2201C124.536 29.2201 124.113 29.1434 123.766 28.9901C123.426 28.8368 123.163 28.6268 122.976 28.3601C122.789 28.0868 122.683 27.7734 122.656 27.4201L123.746 27.3701C123.799 27.6634 123.926 27.8968 124.126 28.0701C124.326 28.2434 124.629 28.3301 125.036 28.3301C125.369 28.3301 125.633 28.2768 125.826 28.1701C126.019 28.0634 126.116 27.8934 126.116 27.6601C126.116 27.5334 126.083 27.4268 126.016 27.3401C125.956 27.2468 125.836 27.1701 125.656 27.1101C125.476 27.0434 125.209 26.9801 124.856 26.9201C124.329 26.8201 123.916 26.7034 123.616 26.5701C123.316 26.4368 123.103 26.2668 122.976 26.0601C122.849 25.8534 122.786 25.6034 122.786 25.3101C122.786 24.8234 122.966 24.4268 123.326 24.1201C123.693 23.8134 124.219 23.6601 124.906 23.6601C125.366 23.6601 125.753 23.7401 126.066 23.9001C126.379 24.0534 126.623 24.2634 126.796 24.5301C126.976 24.7901 127.089 25.0834 127.136 25.4101L126.046 25.4701C126.013 25.2834 125.946 25.1234 125.846 24.9901C125.753 24.8501 125.626 24.7434 125.466 24.6701C125.306 24.5901 125.116 24.5501 124.896 24.5501C124.556 24.5501 124.303 24.6168 124.136 24.7501C123.969 24.8834 123.886 25.0568 123.886 25.2701C123.886 25.4301 123.923 25.5601 123.996 25.6601C124.076 25.7601 124.203 25.8434 124.376 25.9101C124.549 25.9701 124.779 26.0234 125.066 26.0701C125.619 26.1634 126.053 26.2801 126.366 26.4201C126.679 26.5534 126.899 26.7201 127.026 26.9201C127.153 27.1201 127.216 27.3634 127.216 27.6501C127.216 27.9834 127.123 28.2668 126.936 28.5001C126.749 28.7334 126.493 28.9134 126.166 29.0401C125.839 29.1601 125.463 29.2201 125.036 29.2201ZM132.308 29.2201C131.755 29.2201 131.311 29.0934 130.978 28.8401C130.651 28.5868 130.488 28.2301 130.488 27.7701C130.488 27.3101 130.625 26.9534 130.898 26.7001C131.178 26.4401 131.608 26.2534 132.188 26.1401L134.018 25.7901C134.018 25.3768 133.921 25.0701 133.728 24.8701C133.535 24.6634 133.248 24.5601 132.868 24.5601C132.528 24.5601 132.261 24.6368 132.068 24.7901C131.875 24.9368 131.741 25.1568 131.668 25.4501L130.578 25.3801C130.678 24.8468 130.925 24.4268 131.318 24.1201C131.718 23.8134 132.235 23.6601 132.868 23.6601C133.588 23.6601 134.135 23.8534 134.508 24.2401C134.888 24.6201 135.078 25.1568 135.078 25.8501V27.9201C135.078 28.0468 135.098 28.1368 135.138 28.1901C135.185 28.2368 135.258 28.2601 135.358 28.2601H135.548V29.1001C135.515 29.1068 135.461 29.1134 135.388 29.1201C135.315 29.1268 135.238 29.1301 135.158 29.1301C134.931 29.1301 134.735 29.0934 134.568 29.0201C134.408 28.9468 134.288 28.8268 134.208 28.6601C134.128 28.4868 134.088 28.2568 134.088 27.9701L134.198 28.0201C134.145 28.2534 134.028 28.4601 133.848 28.6401C133.675 28.8201 133.451 28.9634 133.178 29.0701C132.911 29.1701 132.621 29.2201 132.308 29.2201ZM132.478 28.3801C132.798 28.3801 133.071 28.3201 133.298 28.2001C133.525 28.0734 133.701 27.9001 133.828 27.6801C133.955 27.4601 134.018 27.2101 134.018 26.9301V26.5901L132.458 26.8901C132.138 26.9501 131.911 27.0468 131.778 27.1801C131.651 27.3068 131.588 27.4701 131.588 27.6701C131.588 27.8968 131.665 28.0734 131.818 28.2001C131.978 28.3201 132.198 28.3801 132.478 28.3801ZM137.535 29.1001C137.188 29.1001 136.908 29.0101 136.695 28.8301C136.481 28.6501 136.375 28.3634 136.375 27.9701V22.0001H137.435V27.8701C137.435 27.9901 137.465 28.0801 137.525 28.1401C137.591 28.2001 137.685 28.2301 137.805 28.2301H138.225V29.1001H137.535ZM140.934 29.1001C140.427 29.1001 140.054 28.9834 139.814 28.7501C139.574 28.5168 139.454 28.1534 139.454 27.6601V22.5301H140.514V27.5801C140.514 27.8268 140.567 27.9968 140.674 28.0901C140.781 28.1834 140.944 28.2301 141.164 28.2301H141.924V29.1001H140.934ZM138.644 24.6501V23.7801H141.924V24.6501H138.644ZM144.398 29.2201C143.844 29.2201 143.401 29.0934 143.068 28.8401C142.741 28.5868 142.578 28.2301 142.578 27.7701C142.578 27.3101 142.714 26.9534 142.988 26.7001C143.268 26.4401 143.698 26.2534 144.278 26.1401L146.108 25.7901C146.108 25.3768 146.011 25.0701 145.818 24.8701C145.624 24.6634 145.338 24.5601 144.958 24.5601C144.618 24.5601 144.351 24.6368 144.158 24.7901C143.964 24.9368 143.831 25.1568 143.758 25.4501L142.668 25.3801C142.768 24.8468 143.014 24.4268 143.408 24.1201C143.808 23.8134 144.324 23.6601 144.958 23.6601C145.678 23.6601 146.224 23.8534 146.598 24.2401C146.978 24.6201 147.168 25.1568 147.168 25.8501V27.9201C147.168 28.0468 147.188 28.1368 147.228 28.1901C147.274 28.2368 147.348 28.2601 147.448 28.2601H147.638V29.1001C147.604 29.1068 147.551 29.1134 147.478 29.1201C147.404 29.1268 147.328 29.1301 147.248 29.1301C147.021 29.1301 146.824 29.0934 146.658 29.0201C146.498 28.9468 146.378 28.8268 146.298 28.6601C146.218 28.4868 146.178 28.2568 146.178 27.9701L146.288 28.0201C146.234 28.2534 146.118 28.4601 145.938 28.6401C145.764 28.8201 145.541 28.9634 145.268 29.0701C145.001 29.1701 144.711 29.2201 144.398 29.2201ZM144.568 28.3801C144.888 28.3801 145.161 28.3201 145.388 28.2001C145.614 28.0734 145.791 27.9001 145.918 27.6801C146.044 27.4601 146.108 27.2101 146.108 26.9301V26.5901L144.548 26.8901C144.228 26.9501 144.001 27.0468 143.868 27.1801C143.741 27.3068 143.678 27.4701 143.678 27.6701C143.678 27.8968 143.754 28.0734 143.908 28.2001C144.068 28.3201 144.288 28.3801 144.568 28.3801ZM150.544 29.2201C150.044 29.2201 149.62 29.1434 149.274 28.9901C148.934 28.8368 148.67 28.6268 148.484 28.3601C148.297 28.0868 148.19 27.7734 148.164 27.4201L149.254 27.3701C149.307 27.6634 149.434 27.8968 149.634 28.0701C149.834 28.2434 150.137 28.3301 150.544 28.3301C150.877 28.3301 151.14 28.2768 151.334 28.1701C151.527 28.0634 151.624 27.8934 151.624 27.6601C151.624 27.5334 151.59 27.4268 151.524 27.3401C151.464 27.2468 151.344 27.1701 151.164 27.1101C150.984 27.0434 150.717 26.9801 150.364 26.9201C149.837 26.8201 149.424 26.7034 149.124 26.5701C148.824 26.4368 148.61 26.2668 148.484 26.0601C148.357 25.8534 148.294 25.6034 148.294 25.3101C148.294 24.8234 148.474 24.4268 148.834 24.1201C149.2 23.8134 149.727 23.6601 150.414 23.6601C150.874 23.6601 151.26 23.7401 151.574 23.9001C151.887 24.0534 152.13 24.2634 152.304 24.5301C152.484 24.7901 152.597 25.0834 152.644 25.4101L151.554 25.4701C151.52 25.2834 151.454 25.1234 151.354 24.9901C151.26 24.8501 151.134 24.7434 150.974 24.6701C150.814 24.5901 150.624 24.5501 150.404 24.5501C150.064 24.5501 149.81 24.6168 149.644 24.7501C149.477 24.8834 149.394 25.0568 149.394 25.2701C149.394 25.4301 149.43 25.5601 149.504 25.6601C149.584 25.7601 149.71 25.8434 149.884 25.9101C150.057 25.9701 150.287 26.0234 150.574 26.0701C151.127 26.1634 151.56 26.2801 151.874 26.4201C152.187 26.5534 152.407 26.7201 152.534 26.9201C152.66 27.1201 152.724 27.3634 152.724 27.6501C152.724 27.9834 152.63 28.2668 152.444 28.5001C152.257 28.7334 152 28.9134 151.674 29.0401C151.347 29.1601 150.97 29.2201 150.544 29.2201Z" fill="white"/>
<rect x="208.6" y="197.6" width="105" height="26" rx="13" fill="#DD484B"/>
<mask id="mask1_121_1222" style="mask-type:alpha" maskUnits="userSpaceOnUse" x="215" y="205" width="11" height="11">
<rect x="225.6" y="215.6" width="10" height="10" transform="rotate(-180 225.6 215.6)" fill="#D9D9D9"/>
</mask>
<g mask="url(#mask1_121_1222)">
<path d="M221.017 208.1L221.017 211.934L222.517 210.434L223.1 211.017L220.6 213.517L218.1 211.017L218.683 210.434L220.183 211.934L220.183 208.1L221.017 208.1Z" fill="white"/>
</g>
<path d="M230.779 214.1V207H233.429C234.243 207 234.876 207.197 235.329 207.59C235.783 207.977 236.009 208.517 236.009 209.21C236.009 209.67 235.906 210.07 235.699 210.41C235.493 210.743 235.196 211 234.809 211.18C234.429 211.353 233.969 211.44 233.429 211.44H231.859V214.1H230.779ZM231.859 210.46H233.399C233.886 210.46 234.256 210.357 234.509 210.15C234.763 209.937 234.889 209.623 234.889 209.21C234.889 208.803 234.763 208.5 234.509 208.3C234.256 208.093 233.886 207.99 233.399 207.99H231.859V210.46ZM239.148 214.22C238.628 214.22 238.178 214.107 237.798 213.88C237.425 213.653 237.135 213.33 236.928 212.91C236.728 212.49 236.628 212 236.628 211.44C236.628 210.88 236.728 210.393 236.928 209.98C237.135 209.56 237.425 209.237 237.798 209.01C238.172 208.777 238.612 208.66 239.118 208.66C239.598 208.66 240.022 208.773 240.388 209C240.755 209.22 241.038 209.54 241.238 209.96C241.445 210.38 241.548 210.887 241.548 211.48V211.75H237.728C237.755 212.27 237.892 212.66 238.138 212.92C238.392 213.18 238.732 213.31 239.158 213.31C239.472 213.31 239.732 213.237 239.938 213.09C240.145 212.943 240.288 212.747 240.368 212.5L241.468 212.57C241.328 213.063 241.052 213.463 240.638 213.77C240.232 214.07 239.735 214.22 239.148 214.22ZM237.728 210.95H240.428C240.395 210.477 240.258 210.127 240.018 209.9C239.785 209.673 239.485 209.56 239.118 209.56C238.738 209.56 238.425 209.68 238.178 209.92C237.938 210.153 237.788 210.497 237.728 210.95ZM244.513 214.22C244.059 214.22 243.663 214.107 243.323 213.88C242.989 213.653 242.733 213.333 242.553 212.92C242.379 212.5 242.293 212.007 242.293 211.44C242.293 210.873 242.383 210.383 242.563 209.97C242.743 209.55 242.999 209.227 243.333 209C243.666 208.773 244.059 208.66 244.513 208.66C244.879 208.66 245.206 208.737 245.493 208.89C245.779 209.043 245.996 209.257 246.143 209.53V207H247.203V214.1H246.213L246.183 213.3C246.036 213.587 245.813 213.813 245.513 213.98C245.219 214.14 244.886 214.22 244.513 214.22ZM244.793 213.3C245.079 213.3 245.323 213.227 245.523 213.08C245.723 212.933 245.876 212.72 245.983 212.44C246.089 212.16 246.143 211.827 246.143 211.44C246.143 211.04 246.089 210.703 245.983 210.43C245.876 210.15 245.723 209.94 245.523 209.8C245.323 209.653 245.079 209.58 244.793 209.58C244.366 209.58 244.026 209.747 243.773 210.08C243.519 210.407 243.393 210.86 243.393 211.44C243.393 212.013 243.519 212.467 243.773 212.8C244.026 213.133 244.366 213.3 244.793 213.3ZM248.531 214.1V208.78H249.591V214.1H248.531ZM248.511 208.01V206.95H249.611V208.01H248.511ZM252.882 214.22C252.428 214.22 252.032 214.107 251.692 213.88C251.358 213.653 251.102 213.333 250.922 212.92C250.748 212.5 250.662 212.007 250.662 211.44C250.662 210.873 250.752 210.383 250.932 209.97C251.112 209.55 251.368 209.227 251.702 209C252.035 208.773 252.428 208.66 252.882 208.66C253.248 208.66 253.575 208.737 253.862 208.89C254.148 209.043 254.365 209.257 254.512 209.53V207H255.572V214.1H254.582L254.552 213.3C254.405 213.587 254.182 213.813 253.882 213.98C253.588 214.14 253.255 214.22 252.882 214.22ZM253.162 213.3C253.448 213.3 253.692 213.227 253.892 213.08C254.092 212.933 254.245 212.72 254.352 212.44C254.458 212.16 254.512 211.827 254.512 211.44C254.512 211.04 254.458 210.703 254.352 210.43C254.245 210.15 254.092 209.94 253.892 209.8C253.692 209.653 253.448 209.58 253.162 209.58C252.735 209.58 252.395 209.747 252.142 210.08C251.888 210.407 251.762 210.86 251.762 211.44C251.762 212.013 251.888 212.467 252.142 212.8C252.395 213.133 252.735 213.3 253.162 213.3ZM259.168 214.22C258.661 214.22 258.218 214.107 257.838 213.88C257.458 213.653 257.165 213.33 256.958 212.91C256.751 212.49 256.648 212 256.648 211.44C256.648 210.873 256.751 210.383 256.958 209.97C257.165 209.557 257.458 209.237 257.838 209.01C258.218 208.777 258.661 208.66 259.168 208.66C259.675 208.66 260.118 208.777 260.498 209.01C260.878 209.237 261.171 209.557 261.378 209.97C261.585 210.383 261.688 210.873 261.688 211.44C261.688 212 261.585 212.49 261.378 212.91C261.171 213.33 260.878 213.653 260.498 213.88C260.118 214.107 259.675 214.22 259.168 214.22ZM259.168 213.3C259.621 213.3 259.971 213.137 260.218 212.81C260.465 212.477 260.588 212.02 260.588 211.44C260.588 210.86 260.465 210.407 260.218 210.08C259.971 209.747 259.621 209.58 259.168 209.58C258.721 209.58 258.371 209.747 258.118 210.08C257.871 210.407 257.748 210.86 257.748 211.44C257.748 212.02 257.871 212.477 258.118 212.81C258.371 213.137 258.721 213.3 259.168 213.3ZM264.809 214.22C264.309 214.22 263.886 214.143 263.539 213.99C263.199 213.837 262.936 213.627 262.749 213.36C262.563 213.087 262.456 212.773 262.429 212.42L263.519 212.37C263.573 212.663 263.699 212.897 263.899 213.07C264.099 213.243 264.403 213.33 264.809 213.33C265.143 213.33 265.406 213.277 265.599 213.17C265.793 213.063 265.889 212.893 265.889 212.66C265.889 212.533 265.856 212.427 265.789 212.34C265.729 212.247 265.609 212.17 265.429 212.11C265.249 212.043 264.983 211.98 264.629 211.92C264.103 211.82 263.689 211.703 263.389 211.57C263.089 211.437 262.876 211.267 262.749 211.06C262.623 210.853 262.559 210.603 262.559 210.31C262.559 209.823 262.739 209.427 263.099 209.12C263.466 208.813 263.993 208.66 264.679 208.66C265.139 208.66 265.526 208.74 265.839 208.9C266.153 209.053 266.396 209.263 266.569 209.53C266.749 209.79 266.863 210.083 266.909 210.41L265.819 210.47C265.786 210.283 265.719 210.123 265.619 209.99C265.526 209.85 265.399 209.743 265.239 209.67C265.079 209.59 264.889 209.55 264.669 209.55C264.329 209.55 264.076 209.617 263.909 209.75C263.743 209.883 263.659 210.057 263.659 210.27C263.659 210.43 263.696 210.56 263.769 210.66C263.849 210.76 263.976 210.843 264.149 210.91C264.323 210.97 264.553 211.023 264.839 211.07C265.393 211.163 265.826 211.28 266.139 211.42C266.453 211.553 266.673 211.72 266.799 211.92C266.926 212.12 266.989 212.363 266.989 212.65C266.989 212.983 266.896 213.267 266.709 213.5C266.523 213.733 266.266 213.913 265.939 214.04C265.613 214.16 265.236 214.22 264.809 214.22ZM273.241 214.22C272.875 214.22 272.548 214.14 272.261 213.98C271.981 213.813 271.765 213.587 271.611 213.3L271.581 214.1H270.591V207H271.651V209.53C271.791 209.297 271.998 209.093 272.271 208.92C272.551 208.747 272.875 208.66 273.241 208.66C273.701 208.66 274.101 208.773 274.441 209C274.781 209.227 275.041 209.55 275.221 209.97C275.408 210.383 275.501 210.873 275.501 211.44C275.501 212.007 275.408 212.5 275.221 212.92C275.041 213.333 274.781 213.653 274.441 213.88C274.101 214.107 273.701 214.22 273.241 214.22ZM273.071 213.3C273.478 213.3 273.801 213.137 274.041 212.81C274.281 212.477 274.401 212.02 274.401 211.44C274.401 210.86 274.281 210.407 274.041 210.08C273.801 209.747 273.481 209.58 273.081 209.58C272.781 209.58 272.525 209.653 272.311 209.8C272.098 209.947 271.935 210.16 271.821 210.44C271.708 210.713 271.651 211.047 271.651 211.44C271.651 211.82 271.708 212.15 271.821 212.43C271.935 212.71 272.098 212.927 272.311 213.08C272.525 213.227 272.778 213.3 273.071 213.3ZM278.175 214.22C277.622 214.22 277.178 214.093 276.845 213.84C276.518 213.587 276.355 213.23 276.355 212.77C276.355 212.31 276.492 211.953 276.765 211.7C277.045 211.44 277.475 211.253 278.055 211.14L279.885 210.79C279.885 210.377 279.788 210.07 279.595 209.87C279.402 209.663 279.115 209.56 278.735 209.56C278.395 209.56 278.128 209.637 277.935 209.79C277.742 209.937 277.608 210.157 277.535 210.45L276.445 210.38C276.545 209.847 276.792 209.427 277.185 209.12C277.585 208.813 278.102 208.66 278.735 208.66C279.455 208.66 280.002 208.853 280.375 209.24C280.755 209.62 280.945 210.157 280.945 210.85V212.92C280.945 213.047 280.965 213.137 281.005 213.19C281.052 213.237 281.125 213.26 281.225 213.26H281.415V214.1C281.382 214.107 281.328 214.113 281.255 214.12C281.182 214.127 281.105 214.13 281.025 214.13C280.798 214.13 280.602 214.093 280.435 214.02C280.275 213.947 280.155 213.827 280.075 213.66C279.995 213.487 279.955 213.257 279.955 212.97L280.065 213.02C280.012 213.253 279.895 213.46 279.715 213.64C279.542 213.82 279.318 213.963 279.045 214.07C278.778 214.17 278.488 214.22 278.175 214.22ZM278.345 213.38C278.665 213.38 278.938 213.32 279.165 213.2C279.392 213.073 279.568 212.9 279.695 212.68C279.822 212.46 279.885 212.21 279.885 211.93V211.59L278.325 211.89C278.005 211.95 277.778 212.047 277.645 212.18C277.518 212.307 277.455 212.47 277.455 212.67C277.455 212.897 277.532 213.073 277.685 213.2C277.845 213.32 278.065 213.38 278.345 213.38ZM282.261 214.1V208.78H283.321V214.1H282.261ZM282.241 208.01V206.95H283.341V208.01H282.241ZM284.042 214.1L285.972 211.38L284.122 208.78H285.302L286.612 210.69L287.882 208.78H289.092L287.262 211.4L289.172 214.1H287.992L286.622 212.07L285.242 214.1H284.042ZM292.039 214.22C291.532 214.22 291.089 214.107 290.709 213.88C290.329 213.653 290.036 213.33 289.829 212.91C289.622 212.49 289.519 212 289.519 211.44C289.519 210.873 289.622 210.383 289.829 209.97C290.036 209.557 290.329 209.237 290.709 209.01C291.089 208.777 291.532 208.66 292.039 208.66C292.546 208.66 292.989 208.777 293.369 209.01C293.749 209.237 294.042 209.557 294.249 209.97C294.456 210.383 294.559 210.873 294.559 211.44C294.559 212 294.456 212.49 294.249 212.91C294.042 213.33 293.749 213.653 293.369 213.88C292.989 214.107 292.546 214.22 292.039 214.22ZM292.039 213.3C292.492 213.3 292.842 213.137 293.089 212.81C293.336 212.477 293.459 212.02 293.459 211.44C293.459 210.86 293.336 210.407 293.089 210.08C292.842 209.747 292.492 209.58 292.039 209.58C291.592 209.58 291.242 209.747 290.989 210.08C290.742 210.407 290.619 210.86 290.619 211.44C290.619 212.02 290.742 212.477 290.989 212.81C291.242 213.137 291.592 213.3 292.039 213.3ZM297.68 214.22C297.18 214.22 296.757 214.143 296.41 213.99C296.07 213.837 295.807 213.627 295.62 213.36C295.434 213.087 295.327 212.773 295.3 212.42L296.39 212.37C296.444 212.663 296.57 212.897 296.77 213.07C296.97 213.243 297.274 213.33 297.68 213.33C298.014 213.33 298.277 213.277 298.47 213.17C298.664 213.063 298.76 212.893 298.76 212.66C298.76 212.533 298.727 212.427 298.66 212.34C298.6 212.247 298.48 212.17 298.3 212.11C298.12 212.043 297.854 211.98 297.5 211.92C296.974 211.82 296.56 211.703 296.26 211.57C295.96 211.437 295.747 211.267 295.62 211.06C295.494 210.853 295.43 210.603 295.43 210.31C295.43 209.823 295.61 209.427 295.97 209.12C296.337 208.813 296.864 208.66 297.55 208.66C298.01 208.66 298.397 208.74 298.71 208.9C299.024 209.053 299.267 209.263 299.44 209.53C299.62 209.79 299.734 210.083 299.78 210.41L298.69 210.47C298.657 210.283 298.59 210.123 298.49 209.99C298.397 209.85 298.27 209.743 298.11 209.67C297.95 209.59 297.76 209.55 297.54 209.55C297.2 209.55 296.947 209.617 296.78 209.75C296.614 209.883 296.53 210.057 296.53 210.27C296.53 210.43 296.567 210.56 296.64 210.66C296.72 210.76 296.847 210.843 297.02 210.91C297.194 210.97 297.424 211.023 297.71 211.07C298.264 211.163 298.697 211.28 299.01 211.42C299.324 211.553 299.544 211.72 299.67 211.92C299.797 212.12 299.86 212.363 299.86 212.65C299.86 212.983 299.767 213.267 299.58 213.5C299.394 213.733 299.137 213.913 298.81 214.04C298.484 214.16 298.107 214.22 297.68 214.22Z" fill="white"/>
<defs>
<filter id="filter0_d_121_1222" x="157.067" y="9.72748e-05" width="208.133" height="236" filterUnits="userSpaceOnUse" color-interpolation-filters="sRGB">
<feFlood flood-opacity="0" result="BackgroundImageFix"/>
<feColorMatrix in="SourceAlpha" type="matrix" values="0 0 0 0 0 0 0 0 0 0 0 0 0 0 0 0 0 0 127 0" result="hardAlpha"/>
<feOffset dy="18"/>
<feGaussianBlur stdDeviation="15.3"/>
<feComposite in2="hardAlpha" operator="out"/>
<feColorMatrix type="matrix" values="0 0 0 0 0 0 0 0 0 0 0 0 0 0 0 0 0 0 0.02 0"/>
<feBlend mode="normal" in2="BackgroundImageFix" result="effect1_dropShadow_121_1222"/>
<feBlend mode="normal" in="SourceGraphic" in2="effect1_dropShadow_121_1222" result="shape"/>
</filter>
<filter id="filter1_d_121_1222" x="9.72748e-05" y="36.0001" width="208.133" height="236" filterUnits="userSpaceOnUse" color-interpolation-filters="sRGB">
<feFlood flood-opacity="0" result="BackgroundImageFix"/>
<feColorMatrix in="SourceAlpha" type="matrix" values="0 0 0 0 0 0 0 0 0 0 0 0 0 0 0 0 0 0 127 0" result="hardAlpha"/>
<feOffset dy="18"/>
<feGaussianBlur stdDeviation="15.3"/>
<feComposite in2="hardAlpha" operator="out"/>
<feColorMatrix type="matrix" values="0 0 0 0 0 0 0 0 0 0 0 0 0 0 0 0 0 0 0.02 0"/>
<feBlend mode="normal" in2="BackgroundImageFix" result="effect1_dropShadow_121_1222"/>
<feBlend mode="normal" in="SourceGraphic" in2="effect1_dropShadow_121_1222" result="shape"/>
</filter>
</defs>
</svg>
