<svg width="335" height="229" viewBox="0 0 335 229" fill="none" xmlns="http://www.w3.org/2000/svg">
<g filter="url(#filter0_d_121_1223)">
<rect x="30.6001" y="12.6001" width="273" height="47" rx="10" fill="white"/>
</g>
<rect x="35.6001" y="17.6001" width="37" height="37" rx="5" fill="#D9D9D9"/>
<path d="M84.0021 32.6001V28.6101L80.5161 22.6601H82.2521L84.7581 27.0981L87.2781 22.6601H89.0141L85.5141 28.6101V32.6001H84.0021ZM91.1599 32.7681C90.3853 32.7681 89.7646 32.5908 89.2979 32.2361C88.8406 31.8814 88.6119 31.3821 88.6119 30.7381C88.6119 30.0941 88.8033 29.5948 89.1859 29.2401C89.5779 28.8761 90.1799 28.6148 90.9919 28.4561L93.5539 27.9661C93.5539 27.3874 93.4186 26.9581 93.1479 26.6781C92.8773 26.3888 92.4759 26.2441 91.9439 26.2441C91.4679 26.2441 91.0946 26.3514 90.8239 26.5661C90.5533 26.7714 90.3666 27.0794 90.2639 27.4901L88.7379 27.3921C88.8779 26.6454 89.2233 26.0574 89.7739 25.6281C90.3339 25.1988 91.0573 24.9841 91.9439 24.9841C92.9519 24.9841 93.7173 25.2548 94.2399 25.7961C94.7719 26.3281 95.0379 27.0794 95.0379 28.0501V30.9481C95.0379 31.1254 95.0659 31.2514 95.1219 31.3261C95.1873 31.3914 95.2899 31.4241 95.4299 31.4241H95.6959V32.6001C95.6493 32.6094 95.5746 32.6188 95.4719 32.6281C95.3693 32.6374 95.2619 32.6421 95.1499 32.6421C94.8326 32.6421 94.5573 32.5908 94.3239 32.4881C94.0999 32.3854 93.9319 32.2174 93.8199 31.9841C93.7079 31.7414 93.6519 31.4194 93.6519 31.0181L93.8059 31.0881C93.7313 31.4148 93.5679 31.7041 93.3159 31.9561C93.0733 32.2081 92.7606 32.4088 92.3779 32.5581C92.0046 32.6981 91.5986 32.7681 91.1599 32.7681ZM91.3979 31.5921C91.8459 31.5921 92.2286 31.5081 92.5459 31.3401C92.8633 31.1628 93.1106 30.9201 93.2879 30.6121C93.4653 30.3041 93.5539 29.9541 93.5539 29.5621V29.0861L91.3699 29.5061C90.9219 29.5901 90.6046 29.7254 90.4179 29.9121C90.2406 30.0894 90.1519 30.3181 90.1519 30.5981C90.1519 30.9154 90.2593 31.1628 90.4739 31.3401C90.6979 31.5081 91.0059 31.5921 91.3979 31.5921ZM96.8806 32.6001V22.6601H98.3646V28.8341L101.711 25.1521H103.587L100.675 28.2881L103.699 32.6001H101.991L99.6806 29.2121L98.3646 30.6121V32.6001H96.8806ZM104.715 32.6001V25.1521H106.199V32.6001H104.715ZM104.687 24.0741V22.5901H106.227V24.0741H104.687ZM111.03 32.7681C110.33 32.7681 109.737 32.6608 109.252 32.4461C108.776 32.2314 108.407 31.9374 108.146 31.5641C107.885 31.1814 107.735 30.7428 107.698 30.2481L109.224 30.1781C109.299 30.5888 109.476 30.9154 109.756 31.1581C110.036 31.4008 110.461 31.5221 111.03 31.5221C111.497 31.5221 111.865 31.4474 112.136 31.2981C112.407 31.1488 112.542 30.9108 112.542 30.5841C112.542 30.4068 112.495 30.2574 112.402 30.1361C112.318 30.0054 112.15 29.8981 111.898 29.8141C111.646 29.7208 111.273 29.6321 110.778 29.5481C110.041 29.4081 109.462 29.2448 109.042 29.0581C108.622 28.8714 108.323 28.6334 108.146 28.3441C107.969 28.0548 107.88 27.7048 107.88 27.2941C107.88 26.6128 108.132 26.0574 108.636 25.6281C109.149 25.1988 109.887 24.9841 110.848 24.9841C111.492 24.9841 112.033 25.0961 112.472 25.3201C112.911 25.5348 113.251 25.8288 113.494 26.2021C113.746 26.5661 113.905 26.9768 113.97 27.4341L112.444 27.5181C112.397 27.2568 112.304 27.0328 112.164 26.8461C112.033 26.6501 111.856 26.5008 111.632 26.3981C111.408 26.2861 111.142 26.2301 110.834 26.2301C110.358 26.2301 110.003 26.3234 109.77 26.5101C109.537 26.6968 109.42 26.9394 109.42 27.2381C109.42 27.4621 109.471 27.6441 109.574 27.7841C109.686 27.9241 109.863 28.0408 110.106 28.1341C110.349 28.2181 110.671 28.2928 111.072 28.3581C111.847 28.4888 112.453 28.6521 112.892 28.8481C113.331 29.0348 113.639 29.2681 113.816 29.5481C113.993 29.8281 114.082 30.1688 114.082 30.5701C114.082 31.0368 113.951 31.4334 113.69 31.7601C113.429 32.0868 113.069 32.3388 112.612 32.5161C112.155 32.6841 111.627 32.7681 111.03 32.7681ZM118.65 32.7681C117.94 32.7681 117.32 32.6094 116.788 32.2921C116.256 31.9748 115.845 31.5221 115.556 30.9341C115.266 30.3461 115.122 29.6601 115.122 28.8761C115.122 28.0828 115.266 27.3968 115.556 26.8181C115.845 26.2394 116.256 25.7914 116.788 25.4741C117.32 25.1474 117.94 24.9841 118.65 24.9841C119.359 24.9841 119.98 25.1474 120.512 25.4741C121.044 25.7914 121.454 26.2394 121.744 26.8181C122.033 27.3968 122.178 28.0828 122.178 28.8761C122.178 29.6601 122.033 30.3461 121.744 30.9341C121.454 31.5221 121.044 31.9748 120.512 32.2921C119.98 32.6094 119.359 32.7681 118.65 32.7681ZM118.65 31.4801C119.284 31.4801 119.774 31.2514 120.12 30.7941C120.465 30.3274 120.638 29.6881 120.638 28.8761C120.638 28.0641 120.465 27.4294 120.12 26.9721C119.774 26.5054 119.284 26.2721 118.65 26.2721C118.024 26.2721 117.534 26.5054 117.18 26.9721C116.834 27.4294 116.662 28.0641 116.662 28.8761C116.662 29.6881 116.834 30.3274 117.18 30.7941C117.534 31.2514 118.024 31.4801 118.65 31.4801ZM127.387 32.7681C126.874 32.7681 126.417 32.6561 126.015 32.4321C125.623 32.1988 125.32 31.8814 125.105 31.4801L125.063 32.6001H123.677V22.6601H125.161V26.2021C125.357 25.8754 125.647 25.5908 126.029 25.3481C126.421 25.1054 126.874 24.9841 127.387 24.9841C128.031 24.9841 128.591 25.1428 129.067 25.4601C129.543 25.7774 129.907 26.2301 130.159 26.8181C130.421 27.3968 130.551 28.0828 130.551 28.8761C130.551 29.6694 130.421 30.3601 130.159 30.9481C129.907 31.5268 129.543 31.9748 129.067 32.2921C128.591 32.6094 128.031 32.7681 127.387 32.7681ZM127.149 31.4801C127.719 31.4801 128.171 31.2514 128.507 30.7941C128.843 30.3274 129.011 29.6881 129.011 28.8761C129.011 28.0641 128.843 27.4294 128.507 26.9721C128.171 26.5054 127.723 26.2721 127.163 26.2721C126.743 26.2721 126.384 26.3748 126.085 26.5801C125.787 26.7854 125.558 27.0841 125.399 27.4761C125.241 27.8588 125.161 28.3254 125.161 28.8761C125.161 29.4081 125.241 29.8701 125.399 30.2621C125.558 30.6541 125.787 30.9574 126.085 31.1721C126.384 31.3774 126.739 31.4801 127.149 31.4801ZM134.295 32.7681C133.52 32.7681 132.899 32.5908 132.433 32.2361C131.975 31.8814 131.747 31.3821 131.747 30.7381C131.747 30.0941 131.938 29.5948 132.321 29.2401C132.713 28.8761 133.315 28.6148 134.127 28.4561L136.689 27.9661C136.689 27.3874 136.553 26.9581 136.283 26.6781C136.012 26.3888 135.611 26.2441 135.079 26.2441C134.603 26.2441 134.229 26.3514 133.959 26.5661C133.688 26.7714 133.501 27.0794 133.399 27.4901L131.873 27.3921C132.013 26.6454 132.358 26.0574 132.909 25.6281C133.469 25.1988 134.192 24.9841 135.079 24.9841C136.087 24.9841 136.852 25.2548 137.375 25.7961C137.907 26.3281 138.173 27.0794 138.173 28.0501V30.9481C138.173 31.1254 138.201 31.2514 138.257 31.3261C138.322 31.3914 138.425 31.4241 138.565 31.4241H138.831V32.6001C138.784 32.6094 138.709 32.6188 138.607 32.6281C138.504 32.6374 138.397 32.6421 138.285 32.6421C137.967 32.6421 137.692 32.5908 137.459 32.4881C137.235 32.3854 137.067 32.2174 136.955 31.9841C136.843 31.7414 136.787 31.4194 136.787 31.0181L136.941 31.0881C136.866 31.4148 136.703 31.7041 136.451 31.9561C136.208 32.2081 135.895 32.4088 135.513 32.5581C135.139 32.6981 134.733 32.7681 134.295 32.7681ZM134.533 31.5921C134.981 31.5921 135.363 31.5081 135.681 31.3401C135.998 31.1628 136.245 30.9201 136.423 30.6121C136.6 30.3041 136.689 29.9541 136.689 29.5621V29.0861L134.505 29.5061C134.057 29.5901 133.739 29.7254 133.553 29.9121C133.375 30.0894 133.287 30.3181 133.287 30.5981C133.287 30.9154 133.394 31.1628 133.609 31.3401C133.833 31.5081 134.141 31.5921 134.533 31.5921Z" fill="black"/>
<path d="M90.8001 48.6001L93.3601 41.5001H94.5201L97.0801 48.6001H96.1401L95.4301 46.5801H92.4501L91.7401 48.6001H90.8001ZM92.7401 45.7401H95.1401L93.9401 42.2501L92.7401 45.7401ZM99.4241 48.6001C98.9441 48.6001 98.5874 48.4901 98.3541 48.2701C98.1274 48.0501 98.0141 47.7068 98.0141 47.2401V42.0601H98.8541V47.2201C98.8541 47.4601 98.9074 47.6268 99.0141 47.7201C99.1207 47.8134 99.2841 47.8601 99.5041 47.8601H100.264V48.6001H99.4241ZM97.2341 44.0401V43.3001H100.264V44.0401H97.2341ZM101.342 48.6001V43.3001H102.182V48.6001H101.342ZM101.322 42.4701V41.4901H102.202V42.4701H101.322ZM105.035 48.6001L103.105 43.3001H104.025L105.565 47.7401L107.105 43.3001H108.025L106.095 48.6001H105.035ZM110.853 48.7201C110.366 48.7201 109.94 48.6068 109.573 48.3801C109.206 48.1534 108.923 47.8334 108.723 47.4201C108.523 47.0001 108.423 46.5101 108.423 45.9501C108.423 45.3834 108.523 44.8934 108.723 44.4801C108.923 44.0668 109.206 43.7468 109.573 43.5201C109.94 43.2934 110.366 43.1801 110.853 43.1801C111.34 43.1801 111.763 43.2934 112.123 43.5201C112.49 43.7468 112.773 44.0668 112.973 44.4801C113.173 44.8934 113.273 45.3834 113.273 45.9501C113.273 46.5101 113.173 47.0001 112.973 47.4201C112.773 47.8334 112.49 48.1534 112.123 48.3801C111.763 48.6068 111.34 48.7201 110.853 48.7201ZM110.853 47.9201C111.34 47.9201 111.716 47.7468 111.983 47.4001C112.256 47.0468 112.393 46.5634 112.393 45.9501C112.393 45.3368 112.256 44.8568 111.983 44.5101C111.716 44.1568 111.34 43.9801 110.853 43.9801C110.366 43.9801 109.986 44.1568 109.713 44.5101C109.44 44.8568 109.303 45.3368 109.303 45.9501C109.303 46.5634 109.44 47.0468 109.713 47.4001C109.986 47.7468 110.366 47.9201 110.853 47.9201Z" fill="#858585"/>
<circle cx="82.6001" cy="45.6001" r="2" fill="#10B981"/>
<g filter="url(#filter1_d_121_1223)">
<rect x="30.6001" y="132.6" width="273" height="47" rx="10" fill="white"/>
</g>
<rect x="35.6001" y="137.6" width="37" height="37" rx="5" fill="#D9D9D9"/>
<path d="M81.8041 152.6V142.66H88.2581V144.046H82.5181L83.3161 143.22V147.784L82.5181 147.07H88.0061V148.414H82.5181L83.3161 147.7V152.6H81.8041ZM89.7302 152.6V145.152H91.2142V152.6H89.7302ZM89.7022 144.074V142.59H91.2422V144.074H89.7022ZM94.8268 152.6C94.3415 152.6 93.9495 152.474 93.6508 152.222C93.3522 151.97 93.2028 151.569 93.2028 151.018V142.66H94.6868V150.878C94.6868 151.046 94.7288 151.172 94.8128 151.256C94.9062 151.34 95.0368 151.382 95.2048 151.382H95.7928V152.6H94.8268ZM100.124 152.768C99.3963 152.768 98.7663 152.609 98.2343 152.292C97.7116 151.975 97.3056 151.522 97.0163 150.934C96.7363 150.346 96.5963 149.66 96.5963 148.876C96.5963 148.092 96.7363 147.411 97.0163 146.832C97.3056 146.244 97.7116 145.791 98.2343 145.474C98.757 145.147 99.373 144.984 100.082 144.984C100.754 144.984 101.347 145.143 101.86 145.46C102.374 145.768 102.77 146.216 103.05 146.804C103.34 147.392 103.484 148.101 103.484 148.932V149.31H98.1363C98.1736 150.038 98.365 150.584 98.7103 150.948C99.065 151.312 99.541 151.494 100.138 151.494C100.577 151.494 100.941 151.391 101.23 151.186C101.52 150.981 101.72 150.705 101.832 150.36L103.372 150.458C103.176 151.149 102.789 151.709 102.21 152.138C101.641 152.558 100.946 152.768 100.124 152.768ZM98.1363 148.19H101.916C101.87 147.527 101.678 147.037 101.342 146.72C101.016 146.403 100.596 146.244 100.082 146.244C99.5503 146.244 99.1116 146.412 98.7663 146.748C98.4303 147.075 98.2203 147.555 98.1363 148.19ZM99.4663 144.284L100.348 142.408H101.902L100.642 144.284H99.4663ZM108.683 152.6V142.66H110.755L113.709 150.822L116.663 142.66H118.735V152.6H117.223V145.32L114.549 152.586H112.869L110.195 145.32V152.6H108.683ZM120.738 152.6V145.152H122.222V152.6H120.738ZM120.71 144.074V142.59H122.25V144.074H120.71ZM127.179 154.868C126.591 154.868 126.073 154.779 125.625 154.602C125.177 154.425 124.809 154.173 124.519 153.846C124.23 153.529 124.034 153.155 123.931 152.726L125.471 152.628C125.574 152.936 125.751 153.179 126.003 153.356C126.265 153.543 126.657 153.636 127.179 153.636C127.795 153.636 128.267 153.505 128.593 153.244C128.929 152.983 129.097 152.586 129.097 152.054V150.976C128.92 151.359 128.635 151.662 128.243 151.886C127.851 152.11 127.413 152.222 126.927 152.222C126.302 152.222 125.747 152.068 125.261 151.76C124.776 151.452 124.398 151.027 124.127 150.486C123.857 149.945 123.721 149.319 123.721 148.61C123.721 147.891 123.852 147.261 124.113 146.72C124.384 146.179 124.757 145.754 125.233 145.446C125.719 145.138 126.265 144.984 126.871 144.984C127.403 144.984 127.87 145.105 128.271 145.348C128.682 145.591 128.976 145.917 129.153 146.328V145.152H130.581V152.012C130.581 152.628 130.441 153.146 130.161 153.566C129.891 153.995 129.499 154.317 128.985 154.532C128.481 154.756 127.879 154.868 127.179 154.868ZM127.165 150.962C127.744 150.962 128.206 150.752 128.551 150.332C128.906 149.912 129.088 149.333 129.097 148.596C129.107 148.111 129.032 147.695 128.873 147.35C128.715 146.995 128.486 146.725 128.187 146.538C127.898 146.342 127.557 146.244 127.165 146.244C126.559 146.244 126.087 146.459 125.751 146.888C125.425 147.308 125.261 147.877 125.261 148.596C125.261 149.324 125.429 149.903 125.765 150.332C126.111 150.752 126.577 150.962 127.165 150.962ZM132.687 152.6V145.152H134.045L134.101 147.14L133.919 147.042C134.003 146.557 134.162 146.165 134.395 145.866C134.629 145.567 134.913 145.348 135.249 145.208C135.585 145.059 135.949 144.984 136.341 144.984C136.901 144.984 137.363 145.11 137.727 145.362C138.101 145.605 138.381 145.941 138.567 146.37C138.763 146.79 138.861 147.271 138.861 147.812V152.6H137.377V148.26C137.377 147.821 137.331 147.453 137.237 147.154C137.144 146.855 136.99 146.627 136.775 146.468C136.561 146.309 136.281 146.23 135.935 146.23C135.413 146.23 134.988 146.403 134.661 146.748C134.335 147.093 134.171 147.597 134.171 148.26V152.6H132.687ZM143.861 152.768C143.151 152.768 142.531 152.609 141.999 152.292C141.467 151.975 141.056 151.522 140.767 150.934C140.477 150.346 140.333 149.66 140.333 148.876C140.333 148.083 140.477 147.397 140.767 146.818C141.056 146.239 141.467 145.791 141.999 145.474C142.531 145.147 143.151 144.984 143.861 144.984C144.57 144.984 145.191 145.147 145.723 145.474C146.255 145.791 146.665 146.239 146.955 146.818C147.244 147.397 147.389 148.083 147.389 148.876C147.389 149.66 147.244 150.346 146.955 150.934C146.665 151.522 146.255 151.975 145.723 152.292C145.191 152.609 144.57 152.768 143.861 152.768ZM143.861 151.48C144.495 151.48 144.985 151.251 145.331 150.794C145.676 150.327 145.849 149.688 145.849 148.876C145.849 148.064 145.676 147.429 145.331 146.972C144.985 146.505 144.495 146.272 143.861 146.272C143.235 146.272 142.745 146.505 142.391 146.972C142.045 147.429 141.873 148.064 141.873 148.876C141.873 149.688 142.045 150.327 142.391 150.794C142.745 151.251 143.235 151.48 143.861 151.48ZM148.888 152.6V145.152H150.246L150.302 147.14L150.12 147.042C150.204 146.557 150.363 146.165 150.596 145.866C150.83 145.567 151.114 145.348 151.45 145.208C151.786 145.059 152.15 144.984 152.542 144.984C153.102 144.984 153.564 145.11 153.928 145.362C154.302 145.605 154.582 145.941 154.768 146.37C154.964 146.79 155.062 147.271 155.062 147.812V152.6H153.578V148.26C153.578 147.821 153.532 147.453 153.438 147.154C153.345 146.855 153.191 146.627 152.976 146.468C152.762 146.309 152.482 146.23 152.136 146.23C151.614 146.23 151.189 146.403 150.862 146.748C150.536 147.093 150.372 147.597 150.372 148.26V152.6H148.888Z" fill="black"/>
<path d="M90.8001 168.6L93.3601 161.5H94.7301L97.2901 168.6H96.1401L95.4901 166.75H92.5901L91.9501 168.6H90.8001ZM92.9301 165.77H95.1601L94.0401 162.53L92.9301 165.77ZM98.0493 170.1V163.28H99.0493L99.0793 164.42L98.9593 164.36C99.0926 163.967 99.3126 163.67 99.6193 163.47C99.926 163.263 100.279 163.16 100.679 163.16C101.199 163.16 101.626 163.29 101.959 163.55C102.299 163.803 102.549 164.14 102.709 164.56C102.876 164.98 102.959 165.44 102.959 165.94C102.959 166.44 102.876 166.9 102.709 167.32C102.549 167.74 102.299 168.08 101.959 168.34C101.626 168.593 101.199 168.72 100.679 168.72C100.413 168.72 100.163 168.673 99.9293 168.58C99.696 168.487 99.496 168.357 99.3293 168.19C99.1693 168.017 99.056 167.813 98.9893 167.58L99.1093 167.46V170.1H98.0493ZM100.489 167.8C100.916 167.8 101.249 167.637 101.489 167.31C101.736 166.983 101.859 166.527 101.859 165.94C101.859 165.353 101.736 164.897 101.489 164.57C101.249 164.243 100.916 164.08 100.489 164.08C100.209 164.08 99.966 164.15 99.7593 164.29C99.5526 164.423 99.3926 164.63 99.2793 164.91C99.166 165.19 99.1093 165.533 99.1093 165.94C99.1093 166.347 99.1626 166.69 99.2693 166.97C99.3826 167.25 99.5426 167.46 99.7493 167.6C99.9626 167.733 100.209 167.8 100.489 167.8ZM104.036 168.6V163.28H105.006L105.046 164.69L104.956 164.66C105.029 164.18 105.176 163.83 105.396 163.61C105.622 163.39 105.926 163.28 106.306 163.28H106.816V164.23H106.306C106.039 164.23 105.816 164.273 105.636 164.36C105.456 164.447 105.319 164.58 105.226 164.76C105.139 164.94 105.096 165.173 105.096 165.46V168.6H104.036ZM109.761 168.72C109.254 168.72 108.811 168.607 108.431 168.38C108.051 168.153 107.757 167.83 107.551 167.41C107.344 166.99 107.241 166.5 107.241 165.94C107.241 165.373 107.344 164.883 107.551 164.47C107.757 164.057 108.051 163.737 108.431 163.51C108.811 163.277 109.254 163.16 109.761 163.16C110.267 163.16 110.711 163.277 111.091 163.51C111.471 163.737 111.764 164.057 111.971 164.47C112.177 164.883 112.281 165.373 112.281 165.94C112.281 166.5 112.177 166.99 111.971 167.41C111.764 167.83 111.471 168.153 111.091 168.38C110.711 168.607 110.267 168.72 109.761 168.72ZM109.761 167.8C110.214 167.8 110.564 167.637 110.811 167.31C111.057 166.977 111.181 166.52 111.181 165.94C111.181 165.36 111.057 164.907 110.811 164.58C110.564 164.247 110.214 164.08 109.761 164.08C109.314 164.08 108.964 164.247 108.711 164.58C108.464 164.907 108.341 165.36 108.341 165.94C108.341 166.52 108.464 166.977 108.711 167.31C108.964 167.637 109.314 167.8 109.761 167.8ZM114.596 168.6L112.656 163.28H113.786L115.236 167.52L116.686 163.28H117.826L115.876 168.6H114.596ZM120.028 168.72C119.474 168.72 119.031 168.593 118.698 168.34C118.371 168.087 118.208 167.73 118.208 167.27C118.208 166.81 118.344 166.453 118.618 166.2C118.898 165.94 119.328 165.753 119.908 165.64L121.738 165.29C121.738 164.877 121.641 164.57 121.448 164.37C121.254 164.163 120.968 164.06 120.588 164.06C120.248 164.06 119.981 164.137 119.788 164.29C119.594 164.437 119.461 164.657 119.388 164.95L118.298 164.88C118.398 164.347 118.644 163.927 119.038 163.62C119.438 163.313 119.954 163.16 120.588 163.16C121.308 163.16 121.854 163.353 122.228 163.74C122.608 164.12 122.798 164.657 122.798 165.35V167.42C122.798 167.547 122.818 167.637 122.858 167.69C122.904 167.737 122.978 167.76 123.078 167.76H123.268V168.6C123.234 168.607 123.181 168.613 123.108 168.62C123.034 168.627 122.958 168.63 122.878 168.63C122.651 168.63 122.454 168.593 122.288 168.52C122.128 168.447 122.008 168.327 121.928 168.16C121.848 167.987 121.808 167.757 121.808 167.47L121.918 167.52C121.864 167.753 121.748 167.96 121.568 168.14C121.394 168.32 121.171 168.463 120.898 168.57C120.631 168.67 120.341 168.72 120.028 168.72ZM120.198 167.88C120.518 167.88 120.791 167.82 121.018 167.7C121.244 167.573 121.421 167.4 121.548 167.18C121.674 166.96 121.738 166.71 121.738 166.43V166.09L120.178 166.39C119.858 166.45 119.631 166.547 119.498 166.68C119.371 166.807 119.308 166.97 119.308 167.17C119.308 167.397 119.384 167.573 119.538 167.7C119.698 167.82 119.918 167.88 120.198 167.88ZM126.014 168.72C125.56 168.72 125.164 168.607 124.824 168.38C124.49 168.153 124.234 167.833 124.054 167.42C123.88 167 123.794 166.507 123.794 165.94C123.794 165.373 123.884 164.883 124.064 164.47C124.244 164.05 124.5 163.727 124.834 163.5C125.167 163.273 125.56 163.16 126.014 163.16C126.38 163.16 126.707 163.237 126.994 163.39C127.28 163.543 127.497 163.757 127.644 164.03V161.5H128.704V168.6H127.714L127.684 167.8C127.537 168.087 127.314 168.313 127.014 168.48C126.72 168.64 126.387 168.72 126.014 168.72ZM126.294 167.8C126.58 167.8 126.824 167.727 127.024 167.58C127.224 167.433 127.377 167.22 127.484 166.94C127.59 166.66 127.644 166.327 127.644 165.94C127.644 165.54 127.59 165.203 127.484 164.93C127.377 164.65 127.224 164.44 127.024 164.3C126.824 164.153 126.58 164.08 126.294 164.08C125.867 164.08 125.527 164.247 125.274 164.58C125.02 164.907 124.894 165.36 124.894 165.94C124.894 166.513 125.02 166.967 125.274 167.3C125.527 167.633 125.867 167.8 126.294 167.8ZM132.3 168.72C131.793 168.72 131.35 168.607 130.97 168.38C130.59 168.153 130.297 167.83 130.09 167.41C129.883 166.99 129.78 166.5 129.78 165.94C129.78 165.373 129.883 164.883 130.09 164.47C130.297 164.057 130.59 163.737 130.97 163.51C131.35 163.277 131.793 163.16 132.3 163.16C132.807 163.16 133.25 163.277 133.63 163.51C134.01 163.737 134.303 164.057 134.51 164.47C134.717 164.883 134.82 165.373 134.82 165.94C134.82 166.5 134.717 166.99 134.51 167.41C134.303 167.83 134.01 168.153 133.63 168.38C133.25 168.607 132.807 168.72 132.3 168.72ZM132.3 167.8C132.753 167.8 133.103 167.637 133.35 167.31C133.597 166.977 133.72 166.52 133.72 165.94C133.72 165.36 133.597 164.907 133.35 164.58C133.103 164.247 132.753 164.08 132.3 164.08C131.853 164.08 131.503 164.247 131.25 164.58C131.003 164.907 130.88 165.36 130.88 165.94C130.88 166.52 131.003 166.977 131.25 167.31C131.503 167.637 131.853 167.8 132.3 167.8Z" fill="#10B981"/>
<circle cx="82.6001" cy="165.6" r="2" fill="#10B981"/>
<g filter="url(#filter2_d_121_1223)">
<rect x="30.6001" y="72.6001" width="273" height="47" rx="10" fill="white"/>
</g>
<rect x="35.6001" y="77.6001" width="37" height="37" rx="5" fill="#D9D9D9"/>
<path d="M85.3881 92.8241C84.5948 92.8241 83.9041 92.6794 83.3161 92.3901C82.7374 92.1008 82.2801 91.6994 81.9441 91.1861C81.6081 90.6728 81.4121 90.0754 81.3561 89.3941L82.9101 89.2961C82.9754 89.7628 83.1108 90.1594 83.3161 90.4861C83.5214 90.8034 83.7968 91.0461 84.1421 91.2141C84.4968 91.3728 84.9214 91.4521 85.4161 91.4521C85.8454 91.4521 86.2094 91.4008 86.5081 91.2981C86.8161 91.1861 87.0494 91.0228 87.2081 90.8081C87.3668 90.5934 87.4461 90.3321 87.4461 90.0241C87.4461 89.7441 87.3761 89.4968 87.2361 89.2821C87.1054 89.0581 86.8488 88.8574 86.4661 88.6801C86.0928 88.4934 85.5421 88.3114 84.8141 88.1341C84.0208 87.9381 83.3861 87.7234 82.9101 87.4901C82.4341 87.2568 82.0888 86.9674 81.8741 86.6221C81.6688 86.2674 81.5661 85.8334 81.5661 85.3201C81.5661 84.7508 81.7014 84.2514 81.9721 83.8221C82.2521 83.3834 82.6488 83.0428 83.1621 82.8001C83.6754 82.5574 84.2914 82.4361 85.0101 82.4361C85.7661 82.4361 86.4101 82.5761 86.9421 82.8561C87.4834 83.1361 87.9081 83.5188 88.2161 84.0041C88.5334 84.4894 88.7294 85.0448 88.8041 85.6701L87.2501 85.7541C87.2034 85.3714 87.0868 85.0354 86.9001 84.7461C86.7134 84.4474 86.4614 84.2188 86.1441 84.0601C85.8268 83.8921 85.4394 83.8081 84.9821 83.8081C84.4034 83.8081 83.9461 83.9434 83.6101 84.2141C83.2834 84.4754 83.1201 84.8254 83.1201 85.2641C83.1201 85.5441 83.1854 85.7821 83.3161 85.9781C83.4561 86.1648 83.6988 86.3281 84.0441 86.4681C84.3988 86.6081 84.8981 86.7574 85.5421 86.9161C86.4008 87.1121 87.0821 87.3548 87.5861 87.6441C88.0994 87.9241 88.4634 88.2554 88.6781 88.6381C88.8928 89.0208 89.0001 89.4548 89.0001 89.9401C89.0001 90.5281 88.8461 91.0414 88.5381 91.4801C88.2394 91.9094 87.8194 92.2408 87.2781 92.4741C86.7368 92.7074 86.1068 92.8241 85.3881 92.8241ZM93.3381 92.6001C92.6288 92.6001 92.1061 92.4368 91.7701 92.1101C91.4341 91.7834 91.2661 91.2748 91.2661 90.5841V83.4021H92.7501V90.4721C92.7501 90.8174 92.8248 91.0554 92.9741 91.1861C93.1235 91.3168 93.3521 91.3821 93.6601 91.3821H94.7241V92.6001H93.3381ZM90.1321 86.3701V85.1521H94.7241V86.3701H90.1321ZM96.2927 92.6001V85.1521H97.6507L97.7067 87.1261L97.5807 87.0841C97.6833 86.4121 97.8887 85.9221 98.1967 85.6141C98.514 85.3061 98.9387 85.1521 99.4707 85.1521H100.185V86.4821H99.4707C99.0973 86.4821 98.7847 86.5428 98.5327 86.6641C98.2807 86.7854 98.0893 86.9721 97.9587 87.2241C97.8373 87.4761 97.7767 87.8028 97.7767 88.2041V92.6001H96.2927ZM104.308 92.7681C103.599 92.7681 102.978 92.6094 102.446 92.2921C101.914 91.9748 101.503 91.5221 101.214 90.9341C100.925 90.3461 100.78 89.6601 100.78 88.8761C100.78 88.0828 100.925 87.3968 101.214 86.8181C101.503 86.2394 101.914 85.7914 102.446 85.4741C102.978 85.1474 103.599 84.9841 104.308 84.9841C105.017 84.9841 105.638 85.1474 106.17 85.4741C106.702 85.7914 107.113 86.2394 107.402 86.8181C107.691 87.3968 107.836 88.0828 107.836 88.8761C107.836 89.6601 107.691 90.3461 107.402 90.9341C107.113 91.5221 106.702 91.9748 106.17 92.2921C105.638 92.6094 105.017 92.7681 104.308 92.7681ZM104.308 91.4801C104.943 91.4801 105.433 91.2514 105.778 90.7941C106.123 90.3274 106.296 89.6881 106.296 88.8761C106.296 88.0641 106.123 87.4294 105.778 86.9721C105.433 86.5054 104.943 86.2721 104.308 86.2721C103.683 86.2721 103.193 86.5054 102.838 86.9721C102.493 87.4294 102.32 88.0641 102.32 88.8761C102.32 89.6881 102.493 90.3274 102.838 90.7941C103.193 91.2514 103.683 91.4801 104.308 91.4801ZM112.332 94.8681C111.744 94.8681 111.226 94.7794 110.778 94.6021C110.33 94.4248 109.961 94.1728 109.672 93.8461C109.382 93.5288 109.186 93.1554 109.084 92.7261L110.624 92.6281C110.726 92.9361 110.904 93.1788 111.156 93.3561C111.417 93.5428 111.809 93.6361 112.332 93.6361C112.948 93.6361 113.419 93.5054 113.746 93.2441C114.082 92.9828 114.25 92.5861 114.25 92.0541V90.9761C114.072 91.3588 113.788 91.6621 113.396 91.8861C113.004 92.1101 112.565 92.2221 112.08 92.2221C111.454 92.2221 110.899 92.0681 110.414 91.7601C109.928 91.4521 109.55 91.0274 109.28 90.4861C109.009 89.9448 108.874 89.3194 108.874 88.6101C108.874 87.8914 109.004 87.2614 109.266 86.7201C109.536 86.1788 109.91 85.7541 110.386 85.4461C110.871 85.1381 111.417 84.9841 112.024 84.9841C112.556 84.9841 113.022 85.1054 113.424 85.3481C113.834 85.5908 114.128 85.9174 114.306 86.3281V85.1521H115.734V92.0121C115.734 92.6281 115.594 93.1461 115.314 93.5661C115.043 93.9954 114.651 94.3174 114.138 94.5321C113.634 94.7561 113.032 94.8681 112.332 94.8681ZM112.318 90.9621C112.896 90.9621 113.358 90.7521 113.704 90.3321C114.058 89.9121 114.24 89.3334 114.25 88.5961C114.259 88.1108 114.184 87.6954 114.026 87.3501C113.867 86.9954 113.638 86.7248 113.34 86.5381C113.05 86.3421 112.71 86.2441 112.318 86.2441C111.711 86.2441 111.24 86.4588 110.904 86.8881C110.577 87.3081 110.414 87.8774 110.414 88.5961C110.414 89.3241 110.582 89.9028 110.918 90.3321C111.263 90.7521 111.73 90.9621 112.318 90.9621ZM120.769 92.7681C120.059 92.7681 119.439 92.6094 118.907 92.2921C118.375 91.9748 117.964 91.5221 117.675 90.9341C117.385 90.3461 117.241 89.6601 117.241 88.8761C117.241 88.0828 117.385 87.3968 117.675 86.8181C117.964 86.2394 118.375 85.7914 118.907 85.4741C119.439 85.1474 120.059 84.9841 120.769 84.9841C121.478 84.9841 122.099 85.1474 122.631 85.4741C123.163 85.7914 123.573 86.2394 123.863 86.8181C124.152 87.3968 124.297 88.0828 124.297 88.8761C124.297 89.6601 124.152 90.3461 123.863 90.9341C123.573 91.5221 123.163 91.9748 122.631 92.2921C122.099 92.6094 121.478 92.7681 120.769 92.7681ZM120.769 91.4801C121.403 91.4801 121.893 91.2514 122.239 90.7941C122.584 90.3274 122.757 89.6881 122.757 88.8761C122.757 88.0641 122.584 87.4294 122.239 86.9721C121.893 86.5054 121.403 86.2721 120.769 86.2721C120.143 86.2721 119.653 86.5054 119.299 86.9721C118.953 87.4294 118.781 88.0641 118.781 88.8761C118.781 89.6881 118.953 90.3274 119.299 90.7941C119.653 91.2514 120.143 91.4801 120.769 91.4801ZM125.797 92.6001V85.1521H127.155L127.211 87.1401L127.029 87.0421C127.113 86.5568 127.271 86.1648 127.505 85.8661C127.738 85.5674 128.023 85.3481 128.359 85.2081C128.695 85.0588 129.059 84.9841 129.451 84.9841C130.011 84.9841 130.473 85.1101 130.837 85.3621C131.21 85.6048 131.49 85.9408 131.677 86.3701C131.873 86.7901 131.971 87.2708 131.971 87.8121V92.6001H130.487V88.2601C130.487 87.8214 130.44 87.4528 130.347 87.1541C130.253 86.8554 130.099 86.6268 129.885 86.4681C129.67 86.3094 129.39 86.2301 129.045 86.2301C128.522 86.2301 128.097 86.4028 127.771 86.7481C127.444 87.0934 127.281 87.5974 127.281 88.2601V92.6001H125.797ZM136.97 92.7681C136.261 92.7681 135.64 92.6094 135.108 92.2921C134.576 91.9748 134.165 91.5221 133.876 90.9341C133.587 90.3461 133.442 89.6601 133.442 88.8761C133.442 88.0828 133.587 87.3968 133.876 86.8181C134.165 86.2394 134.576 85.7914 135.108 85.4741C135.64 85.1474 136.261 84.9841 136.97 84.9841C137.679 84.9841 138.3 85.1474 138.832 85.4741C139.364 85.7914 139.775 86.2394 140.064 86.8181C140.353 87.3968 140.498 88.0828 140.498 88.8761C140.498 89.6601 140.353 90.3461 140.064 90.9341C139.775 91.5221 139.364 91.9748 138.832 92.2921C138.3 92.6094 137.679 92.7681 136.97 92.7681ZM136.97 91.4801C137.605 91.4801 138.095 91.2514 138.44 90.7941C138.785 90.3274 138.958 89.6881 138.958 88.8761C138.958 88.0641 138.785 87.4294 138.44 86.9721C138.095 86.5054 137.605 86.2721 136.97 86.2721C136.345 86.2721 135.855 86.5054 135.5 86.9721C135.155 87.4294 134.982 88.0641 134.982 88.8761C134.982 89.6881 135.155 90.3274 135.5 90.7941C135.855 91.2514 136.345 91.4801 136.97 91.4801ZM142.467 92.6001V84.6761C142.467 84.0601 142.639 83.5701 142.985 83.2061C143.33 82.8421 143.871 82.6601 144.609 82.6601H145.925V83.8781H144.805C144.515 83.8781 144.301 83.9574 144.161 84.1161C144.021 84.2654 143.951 84.4801 143.951 84.7601V92.6001H142.467ZM141.431 86.4541V85.2501H145.813V86.4541H141.431ZM146.779 92.6001V84.6761C146.779 84.0601 146.951 83.5701 147.297 83.2061C147.642 82.8421 148.183 82.6601 148.921 82.6601H150.237V83.8781H149.117C148.827 83.8781 148.613 83.9574 148.473 84.1161C148.333 84.2654 148.263 84.4801 148.263 84.7601V92.6001H146.779ZM145.743 86.4541V85.2501H150.125V86.4541H145.743ZM157.837 92.7681C157.202 92.7681 156.647 92.6094 156.171 92.2921C155.704 91.9748 155.345 91.5268 155.093 90.9481C154.85 90.3601 154.729 89.6694 154.729 88.8761C154.729 88.0828 154.855 87.3968 155.107 86.8181C155.359 86.2301 155.718 85.7774 156.185 85.4601C156.652 85.1428 157.202 84.9841 157.837 84.9841C158.35 84.9841 158.808 85.0914 159.209 85.3061C159.61 85.5208 159.914 85.8194 160.119 86.2021V82.6601H161.603V92.6001H160.217L160.175 91.4801C159.97 91.8814 159.657 92.1988 159.237 92.4321C158.826 92.6561 158.36 92.7681 157.837 92.7681ZM158.229 91.4801C158.63 91.4801 158.971 91.3774 159.251 91.1721C159.531 90.9668 159.746 90.6681 159.895 90.2761C160.044 89.8841 160.119 89.4174 160.119 88.8761C160.119 88.3161 160.044 87.8448 159.895 87.4621C159.746 87.0701 159.531 86.7761 159.251 86.5801C158.971 86.3748 158.63 86.2721 158.229 86.2721C157.632 86.2721 157.156 86.5054 156.801 86.9721C156.446 87.4294 156.269 88.0641 156.269 88.8761C156.269 89.6788 156.446 90.3134 156.801 90.7801C157.156 91.2468 157.632 91.4801 158.229 91.4801ZM166.638 92.7681C165.91 92.7681 165.28 92.6094 164.748 92.2921C164.225 91.9748 163.819 91.5221 163.53 90.9341C163.25 90.3461 163.11 89.6601 163.11 88.8761C163.11 88.0921 163.25 87.4108 163.53 86.8321C163.819 86.2441 164.225 85.7914 164.748 85.4741C165.271 85.1474 165.887 84.9841 166.596 84.9841C167.268 84.9841 167.861 85.1428 168.374 85.4601C168.887 85.7681 169.284 86.2161 169.564 86.8041C169.853 87.3921 169.998 88.1014 169.998 88.9321V89.3101H164.65C164.687 90.0381 164.879 90.5841 165.224 90.9481C165.579 91.3121 166.055 91.4941 166.652 91.4941C167.091 91.4941 167.455 91.3914 167.744 91.1861C168.033 90.9808 168.234 90.7054 168.346 90.3601L169.886 90.4581C169.69 91.1488 169.303 91.7088 168.724 92.1381C168.155 92.5581 167.459 92.7681 166.638 92.7681ZM164.65 88.1901H168.43C168.383 87.5274 168.192 87.0374 167.856 86.7201C167.529 86.4028 167.109 86.2441 166.596 86.2441C166.064 86.2441 165.625 86.4121 165.28 86.7481C164.944 87.0748 164.734 87.5554 164.65 88.1901ZM179.145 92.8241C178.249 92.8241 177.46 92.6188 176.779 92.2081C176.097 91.7881 175.565 91.1908 175.183 90.4161C174.8 89.6414 174.609 88.7174 174.609 87.6441C174.609 86.5801 174.795 85.6608 175.169 84.8861C175.551 84.1021 176.083 83.5001 176.765 83.0801C177.446 82.6508 178.244 82.4361 179.159 82.4361C180.391 82.4361 181.347 82.7441 182.029 83.3601C182.71 83.9761 183.153 84.8301 183.359 85.9221L181.777 86.0061C181.646 85.3248 181.366 84.7928 180.937 84.4101C180.507 84.0181 179.915 83.8221 179.159 83.8221C178.552 83.8221 178.025 83.9761 177.577 84.2841C177.138 84.5921 176.793 85.0308 176.541 85.6001C176.298 86.1694 176.177 86.8508 176.177 87.6441C176.177 88.4374 176.298 89.1188 176.541 89.6881C176.793 90.2574 177.143 90.6914 177.591 90.9901C178.039 91.2888 178.557 91.4381 179.145 91.4381C179.947 91.4381 180.568 91.2281 181.007 90.8081C181.455 90.3788 181.735 89.7908 181.847 89.0441L183.429 89.1281C183.307 89.8841 183.065 90.5374 182.701 91.0881C182.337 91.6388 181.856 92.0681 181.259 92.3761C180.661 92.6748 179.957 92.8241 179.145 92.8241ZM187.027 92.7681C186.252 92.7681 185.632 92.5908 185.165 92.2361C184.708 91.8814 184.479 91.3821 184.479 90.7381C184.479 90.0941 184.67 89.5948 185.053 89.2401C185.445 88.8761 186.047 88.6148 186.859 88.4561L189.421 87.9661C189.421 87.3874 189.286 86.9581 189.015 86.6781C188.744 86.3888 188.343 86.2441 187.811 86.2441C187.335 86.2441 186.962 86.3514 186.691 86.5661C186.42 86.7714 186.234 87.0794 186.131 87.4901L184.605 87.3921C184.745 86.6454 185.09 86.0574 185.641 85.6281C186.201 85.1988 186.924 84.9841 187.811 84.9841C188.819 84.9841 189.584 85.2548 190.107 85.7961C190.639 86.3281 190.905 87.0794 190.905 88.0501V90.9481C190.905 91.1254 190.933 91.2514 190.989 91.3261C191.054 91.3914 191.157 91.4241 191.297 91.4241H191.563V92.6001C191.516 92.6094 191.442 92.6188 191.339 92.6281C191.236 92.6374 191.129 92.6421 191.017 92.6421C190.7 92.6421 190.424 92.5908 190.191 92.4881C189.967 92.3854 189.799 92.2174 189.687 91.9841C189.575 91.7414 189.519 91.4194 189.519 91.0181L189.673 91.0881C189.598 91.4148 189.435 91.7041 189.183 91.9561C188.94 92.2081 188.628 92.4088 188.245 92.5581C187.872 92.6981 187.466 92.7681 187.027 92.7681ZM187.265 91.5921C187.713 91.5921 188.096 91.5081 188.413 91.3401C188.73 91.1628 188.978 90.9201 189.155 90.6121C189.332 90.3041 189.421 89.9541 189.421 89.5621V89.0861L187.237 89.5061C186.789 89.5901 186.472 89.7254 186.285 89.9121C186.108 90.0894 186.019 90.3181 186.019 90.5981C186.019 90.9154 186.126 91.1628 186.341 91.3401C186.565 91.5081 186.873 91.5921 187.265 91.5921ZM192.816 92.6001V85.1521H194.174L194.23 87.1261L194.104 87.0841C194.207 86.4121 194.412 85.9221 194.72 85.6141C195.037 85.3061 195.462 85.1521 195.994 85.1521H196.708V86.4821H195.994C195.621 86.4821 195.308 86.5428 195.056 86.6641C194.804 86.7854 194.613 86.9721 194.482 87.2241C194.361 87.4761 194.3 87.8028 194.3 88.2041V92.6001H192.816ZM197.82 92.6001V85.1521H199.178L199.234 87.1401L199.052 87.0421C199.136 86.5568 199.295 86.1648 199.528 85.8661C199.761 85.5674 200.046 85.3481 200.382 85.2081C200.718 85.0588 201.082 84.9841 201.474 84.9841C202.034 84.9841 202.496 85.1101 202.86 85.3621C203.233 85.6048 203.513 85.9408 203.7 86.3701C203.896 86.7901 203.994 87.2708 203.994 87.8121V92.6001H202.51V88.2601C202.51 87.8214 202.463 87.4528 202.37 87.1541C202.277 86.8554 202.123 86.6268 201.908 86.4681C201.693 86.3094 201.413 86.2301 201.068 86.2301C200.545 86.2301 200.121 86.4028 199.794 86.7481C199.467 87.0934 199.304 87.5974 199.304 88.2601V92.6001H197.82ZM208.993 92.7681C208.265 92.7681 207.635 92.6094 207.103 92.2921C206.581 91.9748 206.175 91.5221 205.885 90.9341C205.605 90.3461 205.465 89.6601 205.465 88.8761C205.465 88.0921 205.605 87.4108 205.885 86.8321C206.175 86.2441 206.581 85.7914 207.103 85.4741C207.626 85.1474 208.242 84.9841 208.951 84.9841C209.623 84.9841 210.216 85.1428 210.729 85.4601C211.243 85.7681 211.639 86.2161 211.919 86.8041C212.209 87.3921 212.353 88.1014 212.353 88.9321V89.3101H207.005C207.043 90.0381 207.234 90.5841 207.579 90.9481C207.934 91.3121 208.41 91.4941 209.007 91.4941C209.446 91.4941 209.81 91.3914 210.099 91.1861C210.389 90.9808 210.589 90.7054 210.701 90.3601L212.241 90.4581C212.045 91.1488 211.658 91.7088 211.079 92.1381C210.51 92.5581 209.815 92.7681 208.993 92.7681ZM207.005 88.1901H210.785C210.739 87.5274 210.547 87.0374 210.211 86.7201C209.885 86.4028 209.465 86.2441 208.951 86.2441C208.419 86.2441 207.981 86.4121 207.635 86.7481C207.299 87.0748 207.089 87.5554 207.005 88.1901Z" fill="black"/>
<path d="M91.5201 108.6V101.5H92.7201L94.9901 107.66L97.2501 101.5H98.4501V108.6H97.5901V103.1L95.5601 108.6H94.4101L92.3801 103.1V108.6H91.5201ZM102.142 108.72C101.642 108.72 101.209 108.607 100.842 108.38C100.482 108.153 100.202 107.833 100.002 107.42C99.8086 107 99.712 106.51 99.712 105.95C99.712 105.39 99.8086 104.903 100.002 104.49C100.202 104.077 100.479 103.757 100.832 103.53C101.192 103.297 101.615 103.18 102.102 103.18C102.562 103.18 102.969 103.29 103.322 103.51C103.675 103.723 103.949 104.037 104.142 104.45C104.342 104.863 104.442 105.367 104.442 105.96V106.21H100.592C100.625 106.777 100.775 107.203 101.042 107.49C101.315 107.777 101.682 107.92 102.142 107.92C102.489 107.92 102.772 107.84 102.992 107.68C103.219 107.513 103.375 107.297 103.462 107.03L104.362 107.1C104.222 107.573 103.955 107.963 103.562 108.27C103.175 108.57 102.702 108.72 102.142 108.72ZM100.592 105.47H103.522C103.482 104.957 103.332 104.58 103.072 104.34C102.819 104.1 102.495 103.98 102.102 103.98C101.695 103.98 101.359 104.107 101.092 104.36C100.832 104.607 100.665 104.977 100.592 105.47ZM107.46 108.72C107 108.72 106.6 108.607 106.26 108.38C105.926 108.153 105.67 107.833 105.49 107.42C105.31 107.007 105.22 106.517 105.22 105.95C105.22 105.383 105.31 104.893 105.49 104.48C105.67 104.067 105.926 103.747 106.26 103.52C106.6 103.293 107 103.18 107.46 103.18C107.813 103.18 108.136 103.257 108.43 103.41C108.723 103.557 108.943 103.767 109.09 104.04V101.5H109.93V108.6H109.17L109.14 107.8C108.993 108.087 108.77 108.313 108.47 108.48C108.17 108.64 107.833 108.72 107.46 108.72ZM107.63 107.92C107.943 107.92 108.206 107.84 108.42 107.68C108.64 107.52 108.806 107.293 108.92 107C109.033 106.7 109.09 106.35 109.09 105.95C109.09 105.537 109.033 105.183 108.92 104.89C108.806 104.597 108.64 104.373 108.42 104.22C108.206 104.06 107.943 103.98 107.63 103.98C107.163 103.98 106.79 104.157 106.51 104.51C106.236 104.857 106.1 105.337 106.1 105.95C106.1 106.557 106.236 107.037 106.51 107.39C106.79 107.743 107.163 107.92 107.63 107.92ZM111.332 108.6V103.3H112.172V108.6H111.332ZM111.312 102.47V101.49H112.192V102.47H111.312ZM113.871 108.6V103.3H114.641L114.671 104.65L114.571 104.56C114.637 104.247 114.754 103.99 114.921 103.79C115.087 103.583 115.287 103.43 115.521 103.33C115.761 103.23 116.017 103.18 116.291 103.18C116.697 103.18 117.031 103.27 117.291 103.45C117.557 103.63 117.754 103.873 117.881 104.18C118.014 104.48 118.081 104.817 118.081 105.19V108.6H117.241V105.43C117.241 105.103 117.201 104.83 117.121 104.61C117.047 104.383 116.927 104.213 116.761 104.1C116.594 103.98 116.377 103.92 116.111 103.92C115.704 103.92 115.367 104.05 115.101 104.31C114.841 104.563 114.711 104.937 114.711 105.43V108.6H113.871ZM121.444 108.72C120.984 108.72 120.584 108.607 120.244 108.38C119.911 108.153 119.654 107.833 119.474 107.42C119.294 107.007 119.204 106.517 119.204 105.95C119.204 105.383 119.294 104.893 119.474 104.48C119.654 104.067 119.911 103.747 120.244 103.52C120.584 103.293 120.984 103.18 121.444 103.18C121.797 103.18 122.121 103.257 122.414 103.41C122.707 103.557 122.927 103.767 123.074 104.04V101.5H123.914V108.6H123.154L123.124 107.8C122.977 108.087 122.754 108.313 122.454 108.48C122.154 108.64 121.817 108.72 121.444 108.72ZM121.614 107.92C121.927 107.92 122.191 107.84 122.404 107.68C122.624 107.52 122.791 107.293 122.904 107C123.017 106.7 123.074 106.35 123.074 105.95C123.074 105.537 123.017 105.183 122.904 104.89C122.791 104.597 122.624 104.373 122.404 104.22C122.191 104.06 121.927 103.98 121.614 103.98C121.147 103.98 120.774 104.157 120.494 104.51C120.221 104.857 120.084 105.337 120.084 105.95C120.084 106.557 120.221 107.037 120.494 107.39C120.774 107.743 121.147 107.92 121.614 107.92ZM127.484 108.72C126.997 108.72 126.57 108.607 126.204 108.38C125.837 108.153 125.554 107.833 125.354 107.42C125.154 107 125.054 106.51 125.054 105.95C125.054 105.383 125.154 104.893 125.354 104.48C125.554 104.067 125.837 103.747 126.204 103.52C126.57 103.293 126.997 103.18 127.484 103.18C127.97 103.18 128.394 103.293 128.754 103.52C129.12 103.747 129.404 104.067 129.604 104.48C129.804 104.893 129.904 105.383 129.904 105.95C129.904 106.51 129.804 107 129.604 107.42C129.404 107.833 129.12 108.153 128.754 108.38C128.394 108.607 127.97 108.72 127.484 108.72ZM127.484 107.92C127.97 107.92 128.347 107.747 128.614 107.4C128.887 107.047 129.024 106.563 129.024 105.95C129.024 105.337 128.887 104.857 128.614 104.51C128.347 104.157 127.97 103.98 127.484 103.98C126.997 103.98 126.617 104.157 126.344 104.51C126.07 104.857 125.934 105.337 125.934 105.95C125.934 106.563 126.07 107.047 126.344 107.4C126.617 107.747 126.997 107.92 127.484 107.92Z" fill="#858585"/>
<circle cx="82.6001" cy="105.6" r="2" fill="#E2BF0D"/>
<rect x="148.6" y="20.6001" width="25" height="15" rx="2" fill="#10B981"/>
<rect x="220.6" y="79.6001" width="25" height="15" rx="2" fill="#10B981"/>
<rect x="160.6" y="140.6" width="25" height="15" rx="2" fill="#D9D9D9"/>
<rect x="160.6" y="22.6001" width="11" height="11" rx="1" fill="white"/>
<rect x="232.6" y="81.6001" width="11" height="11" rx="1" fill="white"/>
<rect x="162.6" y="142.6" width="11" height="11" rx="1" fill="white"/>
<defs>
<filter id="filter0_d_121_1223" x="9.72748e-05" y="9.72748e-05" width="334.2" height="108.2" filterUnits="userSpaceOnUse" color-interpolation-filters="sRGB">
<feFlood flood-opacity="0" result="BackgroundImageFix"/>
<feColorMatrix in="SourceAlpha" type="matrix" values="0 0 0 0 0 0 0 0 0 0 0 0 0 0 0 0 0 0 127 0" result="hardAlpha"/>
<feOffset dy="18"/>
<feGaussianBlur stdDeviation="15.3"/>
<feComposite in2="hardAlpha" operator="out"/>
<feColorMatrix type="matrix" values="0 0 0 0 0 0 0 0 0 0 0 0 0 0 0 0 0 0 0.02 0"/>
<feBlend mode="normal" in2="BackgroundImageFix" result="effect1_dropShadow_121_1223"/>
<feBlend mode="normal" in="SourceGraphic" in2="effect1_dropShadow_121_1223" result="shape"/>
</filter>
<filter id="filter1_d_121_1223" x="9.72748e-05" y="120" width="334.2" height="108.2" filterUnits="userSpaceOnUse" color-interpolation-filters="sRGB">
<feFlood flood-opacity="0" result="BackgroundImageFix"/>
<feColorMatrix in="SourceAlpha" type="matrix" values="0 0 0 0 0 0 0 0 0 0 0 0 0 0 0 0 0 0 127 0" result="hardAlpha"/>
<feOffset dy="18"/>
<feGaussianBlur stdDeviation="15.3"/>
<feComposite in2="hardAlpha" operator="out"/>
<feColorMatrix type="matrix" values="0 0 0 0 0 0 0 0 0 0 0 0 0 0 0 0 0 0 0.02 0"/>
<feBlend mode="normal" in2="BackgroundImageFix" result="effect1_dropShadow_121_1223"/>
<feBlend mode="normal" in="SourceGraphic" in2="effect1_dropShadow_121_1223" result="shape"/>
</filter>
<filter id="filter2_d_121_1223" x="9.72748e-05" y="60.0001" width="334.2" height="108.2" filterUnits="userSpaceOnUse" color-interpolation-filters="sRGB">
<feFlood flood-opacity="0" result="BackgroundImageFix"/>
<feColorMatrix in="SourceAlpha" type="matrix" values="0 0 0 0 0 0 0 0 0 0 0 0 0 0 0 0 0 0 127 0" result="hardAlpha"/>
<feOffset dy="18"/>
<feGaussianBlur stdDeviation="15.3"/>
<feComposite in2="hardAlpha" operator="out"/>
<feColorMatrix type="matrix" values="0 0 0 0 0 0 0 0 0 0 0 0 0 0 0 0 0 0 0.02 0"/>
<feBlend mode="normal" in2="BackgroundImageFix" result="effect1_dropShadow_121_1223"/>
<feBlend mode="normal" in="SourceGraphic" in2="effect1_dropShadow_121_1223" result="shape"/>
</filter>
</defs>
</svg>
